G04 #@! TF.GenerationSoftware,KiCad,Pcbnew,(5.1.5)-3*
G04 #@! TF.CreationDate,2020-04-21T23:52:31+02:00*
G04 #@! TF.ProjectId,Marv-Atreus,4d617276-2d41-4747-9265-75732e6b6963,rev?*
G04 #@! TF.SameCoordinates,Original*
G04 #@! TF.FileFunction,Legend,Bot*
G04 #@! TF.FilePolarity,Positive*
%FSLAX46Y46*%
G04 Gerber Fmt 4.6, Leading zero omitted, Abs format (unit mm)*
G04 Created by KiCad (PCBNEW (5.1.5)-3) date 2020-04-21 23:52:31*
%MOMM*%
%LPD*%
G04 APERTURE LIST*
%ADD10C,0.120000*%
%ADD11C,0.150000*%
%ADD12C,0.100000*%
%ADD13C,2.250000*%
%ADD14C,3.987800*%
%ADD15C,1.750000*%
%ADD16R,1.200000X1.400000*%
%ADD17R,0.600000X1.450000*%
%ADD18R,0.300000X1.450000*%
%ADD19C,0.650000*%
%ADD20R,1.500000X0.550000*%
%ADD21R,0.550000X1.500000*%
%ADD22R,1.100000X1.800000*%
G04 APERTURE END LIST*
D10*
X145303500Y-83001221D02*
X145303500Y-83326779D01*
X144283500Y-83001221D02*
X144283500Y-83326779D01*
X148787475Y-94973766D02*
X149017680Y-95203971D01*
X148066226Y-95695015D02*
X148296431Y-95925220D01*
X146290100Y-83326779D02*
X146290100Y-83001221D01*
X147310100Y-83326779D02*
X147310100Y-83001221D01*
X131988675Y-111732550D02*
X132218880Y-111962755D01*
X131267426Y-112453799D02*
X131497631Y-112684004D01*
X138140000Y-83315403D02*
X138140000Y-82989845D01*
X139160000Y-83315403D02*
X139160000Y-82989845D01*
X140172000Y-83325211D02*
X140172000Y-82999653D01*
X141192000Y-83325211D02*
X141192000Y-82999653D01*
X137128000Y-82999653D02*
X137128000Y-83325211D01*
X136108000Y-82999653D02*
X136108000Y-83325211D01*
X143224000Y-82999653D02*
X143224000Y-83325211D01*
X142204000Y-82999653D02*
X142204000Y-83325211D01*
X146991631Y-97190004D02*
X146761426Y-96959799D01*
X147712880Y-96468755D02*
X147482675Y-96238550D01*
X139549279Y-96765124D02*
X139223721Y-96765124D01*
X139549279Y-95745124D02*
X139223721Y-95745124D01*
X133258675Y-110511397D02*
X133488880Y-110741602D01*
X132537426Y-111232646D02*
X132767631Y-111462851D01*
X145335120Y-110692755D02*
X145565325Y-110462550D01*
X146056369Y-111414004D02*
X146286574Y-111183799D01*
X133488880Y-98327493D02*
X133258675Y-98557698D01*
X132767631Y-97606244D02*
X132537426Y-97836449D01*
X145721631Y-98460004D02*
X145491426Y-98229799D01*
X146442880Y-97738755D02*
X146212675Y-97508550D01*
X151414279Y-101267124D02*
X151088721Y-101267124D01*
X151414279Y-100247124D02*
X151088721Y-100247124D01*
X151088721Y-107613124D02*
X151414279Y-107613124D01*
X151088721Y-108633124D02*
X151414279Y-108633124D01*
X149602440Y-106397124D02*
X149602440Y-102397124D01*
X152902440Y-106397124D02*
X149602440Y-106397124D01*
D11*
X134836693Y-99321232D02*
X134836693Y-98046232D01*
X134261693Y-109671232D02*
X134261693Y-108996232D01*
X144611693Y-109671232D02*
X144611693Y-108996232D01*
X144611693Y-99321232D02*
X144611693Y-99996232D01*
X134261693Y-99321232D02*
X134261693Y-99996232D01*
X144611693Y-99321232D02*
X143936693Y-99321232D01*
X144611693Y-109671232D02*
X143936693Y-109671232D01*
X134261693Y-109671232D02*
X134936693Y-109671232D01*
X134261693Y-99321232D02*
X134836693Y-99321232D01*
X139860000Y-87559124D02*
X139860000Y-92759124D01*
X139860000Y-92759124D02*
X145060000Y-92759124D01*
X145060000Y-92759124D02*
X145060000Y-87559124D01*
X145060000Y-87559124D02*
X139860000Y-87559124D01*
X143460000Y-90159124D02*
G75*
G03X143460000Y-90159124I-1000000J0D01*
G01*
D10*
X135242000Y-83337060D02*
X135242000Y-84541188D01*
X133422000Y-83337060D02*
X133422000Y-84541188D01*
X244753114Y-119052092D02*
X248593864Y-118374864D01*
X244405817Y-117082477D02*
X248246568Y-116405249D01*
X244753114Y-119052092D02*
X244405817Y-117082477D01*
X225165476Y-117669939D02*
X229006226Y-116992711D01*
X224818179Y-115700324D02*
X228658930Y-115023096D01*
X225165476Y-117669939D02*
X224818179Y-115700324D01*
X205233257Y-114333554D02*
X209074007Y-113656326D01*
X204885960Y-112363939D02*
X208726711Y-111686711D01*
X205233257Y-114333554D02*
X204885960Y-112363939D01*
X187644207Y-124285951D02*
X191484957Y-123608723D01*
X187296910Y-122316336D02*
X191137661Y-121639108D01*
X187644207Y-124285951D02*
X187296910Y-122316336D01*
X170055158Y-134238349D02*
X173895908Y-133561121D01*
X169707861Y-132268734D02*
X173548612Y-131591506D01*
X170055158Y-134238349D02*
X169707861Y-132268734D01*
X149640520Y-128166038D02*
X153481270Y-127488810D01*
X149293223Y-126196423D02*
X153133974Y-125519195D01*
X149640520Y-128166038D02*
X149293223Y-126196423D01*
X126769092Y-127694372D02*
X130609843Y-128371600D01*
X127116389Y-125724757D02*
X130957139Y-126401985D01*
X126769092Y-127694372D02*
X127116389Y-125724757D01*
X106423371Y-133375837D02*
X110264122Y-134053065D01*
X106770668Y-131406222D02*
X110611418Y-132083450D01*
X106423371Y-133375837D02*
X106770668Y-131406222D01*
X88765405Y-123814286D02*
X92606156Y-124491514D01*
X89112702Y-121844671D02*
X92953452Y-122521899D01*
X88765405Y-123814286D02*
X89112702Y-121844671D01*
X71176356Y-113861888D02*
X75017107Y-114539116D01*
X71523653Y-111892273D02*
X75364403Y-112569501D01*
X71176356Y-113861888D02*
X71523653Y-111892273D01*
X51244134Y-117198274D02*
X55084885Y-117875502D01*
X51591431Y-115228659D02*
X55432181Y-115905887D01*
X51244134Y-117198274D02*
X51591431Y-115228659D01*
X31656498Y-118580426D02*
X35497249Y-119257654D01*
X32003795Y-116610811D02*
X35844545Y-117288039D01*
X31656498Y-118580426D02*
X32003795Y-116610811D01*
X241445106Y-100291457D02*
X245285856Y-99614229D01*
X241097809Y-98321842D02*
X244938560Y-97644614D01*
X241445106Y-100291457D02*
X241097809Y-98321842D01*
X221857470Y-98909305D02*
X225698220Y-98232077D01*
X221510173Y-96939690D02*
X225350924Y-96262462D01*
X221857470Y-98909305D02*
X221510173Y-96939690D01*
X201925249Y-95572919D02*
X205765999Y-94895691D01*
X201577952Y-93603304D02*
X205418703Y-92926076D01*
X201925249Y-95572919D02*
X201577952Y-93603304D01*
X184336201Y-105525316D02*
X188176951Y-104848088D01*
X183988904Y-103555701D02*
X187829655Y-102878473D01*
X184336201Y-105525316D02*
X183988904Y-103555701D01*
X166747152Y-115477715D02*
X170587902Y-114800487D01*
X166399855Y-113508100D02*
X170240606Y-112830872D01*
X166747152Y-115477715D02*
X166399855Y-113508100D01*
X109731377Y-114615202D02*
X113572128Y-115292430D01*
X110078674Y-112645587D02*
X113919424Y-113322815D01*
X109731377Y-114615202D02*
X110078674Y-112645587D01*
X92073411Y-105053652D02*
X95914162Y-105730880D01*
X92420708Y-103084037D02*
X96261458Y-103761265D01*
X92073411Y-105053652D02*
X92420708Y-103084037D01*
X74484362Y-95101253D02*
X78325113Y-95778481D01*
X74831659Y-93131638D02*
X78672409Y-93808866D01*
X74484362Y-95101253D02*
X74831659Y-93131638D01*
X54552141Y-98437638D02*
X58392892Y-99114866D01*
X54899438Y-96468023D02*
X58740188Y-97145251D01*
X54552141Y-98437638D02*
X54899438Y-96468023D01*
X34573658Y-99750874D02*
X38414409Y-100428102D01*
X34920955Y-97781259D02*
X38761705Y-98458487D01*
X34573658Y-99750874D02*
X34920955Y-97781259D01*
X238137101Y-81530823D02*
X241977851Y-80853595D01*
X237789804Y-79561208D02*
X241630555Y-78883980D01*
X238137101Y-81530823D02*
X237789804Y-79561208D01*
X218549465Y-80148669D02*
X222390215Y-79471441D01*
X218202168Y-78179054D02*
X222042919Y-77501826D01*
X218549465Y-80148669D02*
X218202168Y-78179054D01*
X198617243Y-76812283D02*
X202457993Y-76135055D01*
X198269946Y-74842668D02*
X202110697Y-74165440D01*
X198617243Y-76812283D02*
X198269946Y-74842668D01*
X181028195Y-86764681D02*
X184868945Y-86087453D01*
X180680898Y-84795066D02*
X184521649Y-84117838D01*
X181028195Y-86764681D02*
X180680898Y-84795066D01*
X163439144Y-96717079D02*
X167279894Y-96039851D01*
X163091847Y-94747464D02*
X166932598Y-94070236D01*
X163439144Y-96717079D02*
X163091847Y-94747464D01*
X112970467Y-96245414D02*
X116811218Y-96922642D01*
X113317764Y-94275799D02*
X117158514Y-94953027D01*
X112970467Y-96245414D02*
X113317764Y-94275799D01*
X95381417Y-86293016D02*
X99222168Y-86970244D01*
X95728714Y-84323401D02*
X99569464Y-85000629D01*
X95381417Y-86293016D02*
X95728714Y-84323401D01*
X77792367Y-76340617D02*
X81633118Y-77017845D01*
X78139664Y-74371002D02*
X81980414Y-75048230D01*
X77792367Y-76340617D02*
X78139664Y-74371002D01*
X57860147Y-79677004D02*
X61700898Y-80354232D01*
X58207444Y-77707389D02*
X62048194Y-78384617D01*
X57860147Y-79677004D02*
X58207444Y-77707389D01*
X38272511Y-81059156D02*
X42113262Y-81736384D01*
X38619808Y-79089541D02*
X42460558Y-79766769D01*
X38272511Y-81059156D02*
X38619808Y-79089541D01*
X234829094Y-62770187D02*
X238669844Y-62092959D01*
X234481797Y-60800572D02*
X238322548Y-60123344D01*
X234829094Y-62770187D02*
X234481797Y-60800572D01*
X215241459Y-61388035D02*
X219082209Y-60710807D01*
X214894162Y-59418420D02*
X218734913Y-58741192D01*
X215241459Y-61388035D02*
X214894162Y-59418420D01*
X195412694Y-58135843D02*
X199253444Y-57458615D01*
X195065397Y-56166228D02*
X198906148Y-55489000D01*
X195412694Y-58135843D02*
X195065397Y-56166228D01*
X177720189Y-68004046D02*
X181560939Y-67326818D01*
X177372892Y-66034431D02*
X181213643Y-65357203D01*
X177720189Y-68004046D02*
X177372892Y-66034431D01*
X160131137Y-77956445D02*
X163971887Y-77279217D01*
X159783840Y-75986830D02*
X163624591Y-75309602D01*
X160131137Y-77956445D02*
X159783840Y-75986830D01*
X116347389Y-77093933D02*
X120188140Y-77771161D01*
X116694686Y-75124318D02*
X120535436Y-75801546D01*
X116347389Y-77093933D02*
X116694686Y-75124318D01*
X98689423Y-67532382D02*
X102530174Y-68209610D01*
X99036720Y-65562767D02*
X102877470Y-66239995D01*
X98689423Y-67532382D02*
X99036720Y-65562767D01*
X81100373Y-57579983D02*
X84941124Y-58257211D01*
X81447670Y-55610368D02*
X85288420Y-56287596D01*
X81100373Y-57579983D02*
X81447670Y-55610368D01*
X61168153Y-60916368D02*
X65008904Y-61593596D01*
X61515450Y-58946753D02*
X65356200Y-59623981D01*
X61168153Y-60916368D02*
X61515450Y-58946753D01*
X41580516Y-62298521D02*
X45421267Y-62975749D01*
X41927813Y-60328906D02*
X45768563Y-61006134D01*
X41580516Y-62298521D02*
X41927813Y-60328906D01*
D11*
X143815880Y-82997333D02*
X143339690Y-82664000D01*
X143815880Y-82425904D02*
X142815880Y-82425904D01*
X142815880Y-82806857D01*
X142863500Y-82902095D01*
X142911119Y-82949714D01*
X143006357Y-82997333D01*
X143149214Y-82997333D01*
X143244452Y-82949714D01*
X143292071Y-82902095D01*
X143339690Y-82806857D01*
X143339690Y-82425904D01*
X142815880Y-83330666D02*
X142815880Y-83997333D01*
X143815880Y-83568761D01*
X147396102Y-96831045D02*
X147396102Y-96898388D01*
X147463446Y-97033075D01*
X147530790Y-97100419D01*
X147665477Y-97167762D01*
X147800164Y-97167762D01*
X147901179Y-97134091D01*
X148069538Y-97033075D01*
X148170553Y-96932060D01*
X148271568Y-96763701D01*
X148305240Y-96662686D01*
X148305240Y-96527999D01*
X148237896Y-96393312D01*
X148170553Y-96325968D01*
X148035866Y-96258625D01*
X147968522Y-96258625D01*
X146992041Y-96561671D02*
X146857354Y-96426984D01*
X146823683Y-96325968D01*
X146823683Y-96258625D01*
X146857354Y-96090266D01*
X146958370Y-95921907D01*
X147227744Y-95652533D01*
X147328759Y-95618862D01*
X147396102Y-95618862D01*
X147497118Y-95652533D01*
X147631805Y-95787220D01*
X147665477Y-95888236D01*
X147665477Y-95955579D01*
X147631805Y-96056594D01*
X147463446Y-96224953D01*
X147362431Y-96258625D01*
X147295087Y-96258625D01*
X147194072Y-96224953D01*
X147059385Y-96090266D01*
X147025713Y-95989251D01*
X147025713Y-95921907D01*
X147059385Y-95820892D01*
X148587242Y-82997333D02*
X148634861Y-82949714D01*
X148682480Y-82806857D01*
X148682480Y-82711619D01*
X148634861Y-82568761D01*
X148539623Y-82473523D01*
X148444385Y-82425904D01*
X148253909Y-82378285D01*
X148111052Y-82378285D01*
X147920576Y-82425904D01*
X147825338Y-82473523D01*
X147730100Y-82568761D01*
X147682480Y-82711619D01*
X147682480Y-82806857D01*
X147730100Y-82949714D01*
X147777719Y-82997333D01*
X148111052Y-83568761D02*
X148063433Y-83473523D01*
X148015814Y-83425904D01*
X147920576Y-83378285D01*
X147872957Y-83378285D01*
X147777719Y-83425904D01*
X147730100Y-83473523D01*
X147682480Y-83568761D01*
X147682480Y-83759238D01*
X147730100Y-83854476D01*
X147777719Y-83902095D01*
X147872957Y-83949714D01*
X147920576Y-83949714D01*
X148015814Y-83902095D01*
X148063433Y-83854476D01*
X148111052Y-83759238D01*
X148111052Y-83568761D01*
X148158671Y-83473523D01*
X148206290Y-83425904D01*
X148301528Y-83378285D01*
X148492004Y-83378285D01*
X148587242Y-83425904D01*
X148634861Y-83473523D01*
X148682480Y-83568761D01*
X148682480Y-83759238D01*
X148634861Y-83854476D01*
X148587242Y-83902095D01*
X148492004Y-83949714D01*
X148301528Y-83949714D01*
X148206290Y-83902095D01*
X148158671Y-83854476D01*
X148111052Y-83759238D01*
X130529959Y-113657172D02*
X131102379Y-113556157D01*
X130934020Y-114061233D02*
X131641127Y-113354127D01*
X131371753Y-113084752D01*
X131270738Y-113051081D01*
X131203394Y-113051081D01*
X131102379Y-113084752D01*
X131001364Y-113185768D01*
X130967692Y-113286783D01*
X130967692Y-113354127D01*
X131001364Y-113455142D01*
X131270738Y-113724516D01*
X130630974Y-112343974D02*
X130765661Y-112478661D01*
X130799333Y-112579676D01*
X130799333Y-112647020D01*
X130765661Y-112815378D01*
X130664646Y-112983737D01*
X130395272Y-113253111D01*
X130294257Y-113286783D01*
X130226913Y-113286783D01*
X130125898Y-113253111D01*
X129991211Y-113118424D01*
X129957539Y-113017409D01*
X129957539Y-112950065D01*
X129991211Y-112849050D01*
X130159570Y-112680691D01*
X130260585Y-112647020D01*
X130327928Y-112647020D01*
X130428944Y-112680691D01*
X130563631Y-112815378D01*
X130597302Y-112916394D01*
X130597302Y-112983737D01*
X130563631Y-113084752D01*
X140532380Y-82985957D02*
X140056190Y-82652624D01*
X140532380Y-82414528D02*
X139532380Y-82414528D01*
X139532380Y-82795481D01*
X139580000Y-82890719D01*
X139627619Y-82938338D01*
X139722857Y-82985957D01*
X139865714Y-82985957D01*
X139960952Y-82938338D01*
X140008571Y-82890719D01*
X140056190Y-82795481D01*
X140056190Y-82414528D01*
X139532380Y-83890719D02*
X139532380Y-83414528D01*
X140008571Y-83366909D01*
X139960952Y-83414528D01*
X139913333Y-83509766D01*
X139913333Y-83747862D01*
X139960952Y-83843100D01*
X140008571Y-83890719D01*
X140103809Y-83938338D01*
X140341904Y-83938338D01*
X140437142Y-83890719D01*
X140484761Y-83843100D01*
X140532380Y-83747862D01*
X140532380Y-83509766D01*
X140484761Y-83414528D01*
X140437142Y-83366909D01*
X142564380Y-82995765D02*
X142088190Y-82662432D01*
X142564380Y-82424336D02*
X141564380Y-82424336D01*
X141564380Y-82805289D01*
X141612000Y-82900527D01*
X141659619Y-82948146D01*
X141754857Y-82995765D01*
X141897714Y-82995765D01*
X141992952Y-82948146D01*
X142040571Y-82900527D01*
X142088190Y-82805289D01*
X142088190Y-82424336D01*
X141897714Y-83852908D02*
X142564380Y-83852908D01*
X141516761Y-83614812D02*
X142231047Y-83376717D01*
X142231047Y-83995765D01*
X135640380Y-82995765D02*
X135164190Y-82662432D01*
X135640380Y-82424336D02*
X134640380Y-82424336D01*
X134640380Y-82805289D01*
X134688000Y-82900527D01*
X134735619Y-82948146D01*
X134830857Y-82995765D01*
X134973714Y-82995765D01*
X135068952Y-82948146D01*
X135116571Y-82900527D01*
X135164190Y-82805289D01*
X135164190Y-82424336D01*
X134640380Y-83329098D02*
X134640380Y-83948146D01*
X135021333Y-83614812D01*
X135021333Y-83757670D01*
X135068952Y-83852908D01*
X135116571Y-83900527D01*
X135211809Y-83948146D01*
X135449904Y-83948146D01*
X135545142Y-83900527D01*
X135592761Y-83852908D01*
X135640380Y-83757670D01*
X135640380Y-83471955D01*
X135592761Y-83376717D01*
X135545142Y-83329098D01*
X141736380Y-82995765D02*
X141260190Y-82662432D01*
X141736380Y-82424336D02*
X140736380Y-82424336D01*
X140736380Y-82805289D01*
X140784000Y-82900527D01*
X140831619Y-82948146D01*
X140926857Y-82995765D01*
X141069714Y-82995765D01*
X141164952Y-82948146D01*
X141212571Y-82900527D01*
X141260190Y-82805289D01*
X141260190Y-82424336D01*
X140831619Y-83376717D02*
X140784000Y-83424336D01*
X140736380Y-83519574D01*
X140736380Y-83757670D01*
X140784000Y-83852908D01*
X140831619Y-83900527D01*
X140926857Y-83948146D01*
X141022095Y-83948146D01*
X141164952Y-83900527D01*
X141736380Y-83329098D01*
X141736380Y-83948146D01*
X148046285Y-96140846D02*
X148618705Y-96039831D01*
X148450346Y-96544907D02*
X149157453Y-95837801D01*
X148888079Y-95568426D01*
X148787064Y-95534755D01*
X148719720Y-95534755D01*
X148618705Y-95568426D01*
X148517690Y-95669442D01*
X148484018Y-95770457D01*
X148484018Y-95837801D01*
X148517690Y-95938816D01*
X148787064Y-96208190D01*
X147372850Y-95467411D02*
X147776911Y-95871472D01*
X147574880Y-95669442D02*
X148281987Y-94962335D01*
X148248316Y-95130694D01*
X148248316Y-95265381D01*
X148281987Y-95366396D01*
X139553166Y-95182266D02*
X139600785Y-95229885D01*
X139743642Y-95277504D01*
X139838880Y-95277504D01*
X139981738Y-95229885D01*
X140076976Y-95134647D01*
X140124595Y-95039409D01*
X140172214Y-94848933D01*
X140172214Y-94706076D01*
X140124595Y-94515600D01*
X140076976Y-94420362D01*
X139981738Y-94325124D01*
X139838880Y-94277504D01*
X139743642Y-94277504D01*
X139600785Y-94325124D01*
X139553166Y-94372743D01*
X139219833Y-94277504D02*
X138553166Y-94277504D01*
X138981738Y-95277504D01*
X131867302Y-112368676D02*
X131867302Y-112436019D01*
X131934646Y-112570706D01*
X132001990Y-112638050D01*
X132136677Y-112705393D01*
X132271364Y-112705393D01*
X132372379Y-112671722D01*
X132540738Y-112570706D01*
X132641753Y-112469691D01*
X132742768Y-112301332D01*
X132776440Y-112200317D01*
X132776440Y-112065630D01*
X132709096Y-111930943D01*
X132641753Y-111863599D01*
X132507066Y-111796256D01*
X132439722Y-111796256D01*
X131900974Y-111122821D02*
X132035661Y-111257508D01*
X132069333Y-111358523D01*
X132069333Y-111425867D01*
X132035661Y-111594225D01*
X131934646Y-111762584D01*
X131665272Y-112031958D01*
X131564257Y-112065630D01*
X131496913Y-112065630D01*
X131395898Y-112031958D01*
X131261211Y-111897271D01*
X131227539Y-111796256D01*
X131227539Y-111728912D01*
X131261211Y-111627897D01*
X131429570Y-111459538D01*
X131530585Y-111425867D01*
X131597928Y-111425867D01*
X131698944Y-111459538D01*
X131833631Y-111594225D01*
X131867302Y-111695241D01*
X131867302Y-111762584D01*
X131833631Y-111863599D01*
X147192399Y-112084127D02*
X147259742Y-112084127D01*
X147394429Y-112016783D01*
X147461773Y-111949440D01*
X147529116Y-111814752D01*
X147529116Y-111680065D01*
X147495445Y-111579050D01*
X147394429Y-111410691D01*
X147293414Y-111309676D01*
X147125055Y-111208661D01*
X147024040Y-111174989D01*
X146889353Y-111174989D01*
X146754666Y-111242333D01*
X146687322Y-111309676D01*
X146619979Y-111444363D01*
X146619979Y-111511707D01*
X145912872Y-112084127D02*
X146249590Y-111747409D01*
X146619979Y-112050455D01*
X146552635Y-112050455D01*
X146451620Y-112084127D01*
X146283261Y-112252485D01*
X146249590Y-112353501D01*
X146249590Y-112420844D01*
X146283261Y-112521859D01*
X146451620Y-112690218D01*
X146552635Y-112723890D01*
X146619979Y-112723890D01*
X146720994Y-112690218D01*
X146889353Y-112521859D01*
X146923025Y-112420844D01*
X146923025Y-112353501D01*
X132372379Y-97205495D02*
X132439722Y-97205495D01*
X132574409Y-97138151D01*
X132641753Y-97070808D01*
X132709096Y-96936120D01*
X132709096Y-96801433D01*
X132675425Y-96700418D01*
X132574409Y-96532059D01*
X132473394Y-96431044D01*
X132305035Y-96330029D01*
X132204020Y-96296357D01*
X132069333Y-96296357D01*
X131934646Y-96363701D01*
X131867302Y-96431044D01*
X131799959Y-96565731D01*
X131799959Y-96633075D01*
X131362226Y-97407525D02*
X131833631Y-97878930D01*
X131261211Y-96969792D02*
X131934646Y-97306510D01*
X131496913Y-97744243D01*
X146843628Y-97343503D02*
X146843628Y-97410846D01*
X146910972Y-97545533D01*
X146978316Y-97612877D01*
X147113003Y-97680220D01*
X147247690Y-97680220D01*
X147348705Y-97646549D01*
X147517064Y-97545533D01*
X147618079Y-97444518D01*
X147719094Y-97276159D01*
X147752766Y-97175144D01*
X147752766Y-97040457D01*
X147685422Y-96905770D01*
X147618079Y-96838426D01*
X147483392Y-96771083D01*
X147416048Y-96771083D01*
X147247690Y-96468037D02*
X146809957Y-96030304D01*
X146776285Y-96535381D01*
X146675270Y-96434365D01*
X146574254Y-96400694D01*
X146506911Y-96400694D01*
X146405896Y-96434365D01*
X146237537Y-96602724D01*
X146203865Y-96703739D01*
X146203865Y-96771083D01*
X146237537Y-96872098D01*
X146439567Y-97074129D01*
X146540583Y-97107801D01*
X146607926Y-97107801D01*
X151418166Y-99684266D02*
X151465785Y-99731885D01*
X151608642Y-99779504D01*
X151703880Y-99779504D01*
X151846738Y-99731885D01*
X151941976Y-99636647D01*
X151989595Y-99541409D01*
X152037214Y-99350933D01*
X152037214Y-99208076D01*
X151989595Y-99017600D01*
X151941976Y-98922362D01*
X151846738Y-98827124D01*
X151703880Y-98779504D01*
X151608642Y-98779504D01*
X151465785Y-98827124D01*
X151418166Y-98874743D01*
X151037214Y-98874743D02*
X150989595Y-98827124D01*
X150894357Y-98779504D01*
X150656261Y-98779504D01*
X150561023Y-98827124D01*
X150513404Y-98874743D01*
X150465785Y-98969981D01*
X150465785Y-99065219D01*
X150513404Y-99208076D01*
X151084833Y-99779504D01*
X150465785Y-99779504D01*
X151418166Y-109910266D02*
X151465785Y-109957885D01*
X151608642Y-110005504D01*
X151703880Y-110005504D01*
X151846738Y-109957885D01*
X151941976Y-109862647D01*
X151989595Y-109767409D01*
X152037214Y-109576933D01*
X152037214Y-109434076D01*
X151989595Y-109243600D01*
X151941976Y-109148362D01*
X151846738Y-109053124D01*
X151703880Y-109005504D01*
X151608642Y-109005504D01*
X151465785Y-109053124D01*
X151418166Y-109100743D01*
X150465785Y-110005504D02*
X151037214Y-110005504D01*
X150751500Y-110005504D02*
X150751500Y-109005504D01*
X150846738Y-109148362D01*
X150941976Y-109243600D01*
X151037214Y-109291219D01*
X154542190Y-104339314D02*
X154542190Y-104815504D01*
X154875523Y-103815504D02*
X154542190Y-104339314D01*
X154208857Y-103815504D01*
X153351714Y-104815504D02*
X153923142Y-104815504D01*
X153637428Y-104815504D02*
X153637428Y-103815504D01*
X153732666Y-103958362D01*
X153827904Y-104053600D01*
X153923142Y-104101219D01*
X141390598Y-79861028D02*
X141390598Y-80670552D01*
X141342979Y-80765790D01*
X141295360Y-80813409D01*
X141200122Y-80861028D01*
X141009645Y-80861028D01*
X140914407Y-80813409D01*
X140866788Y-80765790D01*
X140819169Y-80670552D01*
X140819169Y-79861028D01*
X140390598Y-80813409D02*
X140247741Y-80861028D01*
X140009645Y-80861028D01*
X139914407Y-80813409D01*
X139866788Y-80765790D01*
X139819169Y-80670552D01*
X139819169Y-80575314D01*
X139866788Y-80480076D01*
X139914407Y-80432457D01*
X140009645Y-80384838D01*
X140200122Y-80337219D01*
X140295360Y-80289600D01*
X140342979Y-80241981D01*
X140390598Y-80146743D01*
X140390598Y-80051505D01*
X140342979Y-79956267D01*
X140295360Y-79908648D01*
X140200122Y-79861028D01*
X139962026Y-79861028D01*
X139819169Y-79908648D01*
X139057264Y-80337219D02*
X138914407Y-80384838D01*
X138866788Y-80432457D01*
X138819169Y-80527695D01*
X138819169Y-80670552D01*
X138866788Y-80765790D01*
X138914407Y-80813409D01*
X139009645Y-80861028D01*
X139390598Y-80861028D01*
X139390598Y-79861028D01*
X139057264Y-79861028D01*
X138962026Y-79908648D01*
X138914407Y-79956267D01*
X138866788Y-80051505D01*
X138866788Y-80146743D01*
X138914407Y-80241981D01*
X138962026Y-80289600D01*
X139057264Y-80337219D01*
X139390598Y-80337219D01*
X137866788Y-80861028D02*
X138438217Y-80861028D01*
X138152503Y-80861028D02*
X138152503Y-79861028D01*
X138247741Y-80003886D01*
X138342979Y-80099124D01*
X138438217Y-80146743D01*
X131439073Y-103734327D02*
X132248597Y-103734327D01*
X132343835Y-103781946D01*
X132391454Y-103829565D01*
X132439073Y-103924803D01*
X132439073Y-104115279D01*
X132391454Y-104210517D01*
X132343835Y-104258136D01*
X132248597Y-104305755D01*
X131439073Y-104305755D01*
X132439073Y-105305755D02*
X132439073Y-104734327D01*
X132439073Y-105020041D02*
X131439073Y-105020041D01*
X131581931Y-104924803D01*
X131677169Y-104829565D01*
X131724788Y-104734327D01*
X139151621Y-88942293D02*
X139199240Y-89085150D01*
X139199240Y-89323246D01*
X139151621Y-89418484D01*
X139104002Y-89466103D01*
X139008764Y-89513722D01*
X138913526Y-89513722D01*
X138818288Y-89466103D01*
X138770669Y-89418484D01*
X138723050Y-89323246D01*
X138675431Y-89132769D01*
X138627812Y-89037531D01*
X138580193Y-88989912D01*
X138484955Y-88942293D01*
X138389717Y-88942293D01*
X138294479Y-88989912D01*
X138246860Y-89037531D01*
X138199240Y-89132769D01*
X138199240Y-89370865D01*
X138246860Y-89513722D01*
X138199240Y-89847055D02*
X139199240Y-90085150D01*
X138484955Y-90275627D01*
X139199240Y-90466103D01*
X138199240Y-90704198D01*
X139199240Y-91608960D02*
X139199240Y-91037531D01*
X139199240Y-91323246D02*
X138199240Y-91323246D01*
X138342098Y-91228007D01*
X138437336Y-91132769D01*
X138484955Y-91037531D01*
X132440571Y-83605790D02*
X132440571Y-83272457D01*
X132964380Y-83272457D02*
X131964380Y-83272457D01*
X131964380Y-83748647D01*
X132964380Y-84653409D02*
X132964380Y-84081981D01*
X132964380Y-84367695D02*
X131964380Y-84367695D01*
X132107238Y-84272457D01*
X132202476Y-84177219D01*
X132250095Y-84081981D01*
X248416972Y-119880841D02*
X248243323Y-118896034D01*
X248008845Y-118937378D01*
X247876428Y-119009081D01*
X247799174Y-119119410D01*
X247768817Y-119221470D01*
X247754997Y-119417322D01*
X247779804Y-119558008D01*
X247859775Y-119737322D01*
X247923209Y-119822844D01*
X248033538Y-119900097D01*
X248182494Y-119922186D01*
X248416972Y-119880841D01*
X246894338Y-119472372D02*
X247010103Y-120128910D01*
X247062664Y-119055862D02*
X247421177Y-119717951D01*
X246811534Y-119825448D01*
X245956426Y-119637751D02*
X246072191Y-120294289D01*
X246124752Y-119221241D02*
X246483265Y-119883330D01*
X245873622Y-119990827D01*
X228829334Y-118498688D02*
X228655685Y-117513881D01*
X228421207Y-117555225D01*
X228288790Y-117626928D01*
X228211536Y-117737257D01*
X228181179Y-117839317D01*
X228167359Y-118035169D01*
X228192166Y-118175855D01*
X228272137Y-118355169D01*
X228335571Y-118440691D01*
X228445900Y-118517944D01*
X228594856Y-118540033D01*
X228829334Y-118498688D01*
X227306700Y-118090219D02*
X227422465Y-118746757D01*
X227475026Y-117673709D02*
X227833539Y-118335798D01*
X227223896Y-118443295D01*
X226826757Y-117836370D02*
X226217114Y-117943866D01*
X226611535Y-118261149D01*
X226470848Y-118285955D01*
X226385326Y-118349389D01*
X226346699Y-118404554D01*
X226316341Y-118506614D01*
X226357686Y-118741092D01*
X226421120Y-118826614D01*
X226476284Y-118865241D01*
X226578344Y-118895598D01*
X226859718Y-118845985D01*
X226945240Y-118782551D01*
X226983867Y-118727387D01*
X208897115Y-115162303D02*
X208723466Y-114177496D01*
X208488988Y-114218840D01*
X208356571Y-114290543D01*
X208279317Y-114400872D01*
X208248960Y-114502932D01*
X208235140Y-114698784D01*
X208259947Y-114839470D01*
X208339918Y-115018784D01*
X208403352Y-115104306D01*
X208513681Y-115181559D01*
X208662637Y-115203648D01*
X208897115Y-115162303D01*
X207374481Y-114753834D02*
X207490246Y-115410372D01*
X207542807Y-114337324D02*
X207901320Y-114999413D01*
X207291677Y-115106910D01*
X206864180Y-114602045D02*
X206809015Y-114563419D01*
X206706955Y-114533061D01*
X206472477Y-114574406D01*
X206386955Y-114637839D01*
X206348328Y-114693004D01*
X206317971Y-114795064D01*
X206334509Y-114888855D01*
X206406211Y-115021273D01*
X207068186Y-115484793D01*
X206458543Y-115592289D01*
X191308065Y-125114700D02*
X191134416Y-124129893D01*
X190899938Y-124171237D01*
X190767521Y-124242940D01*
X190690267Y-124353269D01*
X190659910Y-124455329D01*
X190646090Y-124651181D01*
X190670897Y-124791867D01*
X190750868Y-124971181D01*
X190814302Y-125056703D01*
X190924631Y-125133956D01*
X191073587Y-125156045D01*
X191308065Y-125114700D01*
X189785431Y-124706231D02*
X189901196Y-125362769D01*
X189953757Y-124289721D02*
X190312270Y-124951810D01*
X189702627Y-125059307D01*
X188869493Y-125544686D02*
X189432240Y-125445459D01*
X189150867Y-125495072D02*
X188977219Y-124510265D01*
X189095817Y-124634414D01*
X189206146Y-124711667D01*
X189308206Y-124742025D01*
X173719016Y-135067098D02*
X173545367Y-134082291D01*
X173310889Y-134123635D01*
X173178472Y-134195338D01*
X173101218Y-134305667D01*
X173070861Y-134407727D01*
X173057041Y-134603579D01*
X173081848Y-134744265D01*
X173161819Y-134923579D01*
X173225253Y-135009101D01*
X173335582Y-135086354D01*
X173484538Y-135108443D01*
X173719016Y-135067098D01*
X172196382Y-134658629D02*
X172312147Y-135315167D01*
X172364708Y-134242119D02*
X172723221Y-134904208D01*
X172113578Y-135011705D01*
X171435065Y-134454394D02*
X171341274Y-134470932D01*
X171255752Y-134534365D01*
X171217125Y-134589530D01*
X171186767Y-134691590D01*
X171172948Y-134887441D01*
X171214292Y-135121919D01*
X171294264Y-135301233D01*
X171357697Y-135386755D01*
X171412862Y-135425382D01*
X171514922Y-135455739D01*
X171608713Y-135439202D01*
X171694236Y-135375768D01*
X171732862Y-135320603D01*
X171763220Y-135218543D01*
X171777040Y-135022692D01*
X171735695Y-134788214D01*
X171655723Y-134608900D01*
X171592290Y-134523378D01*
X171537125Y-134484751D01*
X171435065Y-134454394D01*
X153304378Y-128994787D02*
X153130729Y-128009980D01*
X152896251Y-128051324D01*
X152763834Y-128123027D01*
X152686580Y-128233356D01*
X152656223Y-128335416D01*
X152642403Y-128531268D01*
X152667210Y-128671954D01*
X152747181Y-128851268D01*
X152810615Y-128936790D01*
X152920944Y-129014043D01*
X153069900Y-129036132D01*
X153304378Y-128994787D01*
X152239713Y-128167090D02*
X151630070Y-128274586D01*
X152024491Y-128591868D01*
X151883804Y-128616675D01*
X151798282Y-128680109D01*
X151759655Y-128735273D01*
X151729298Y-128837334D01*
X151770642Y-129071812D01*
X151834076Y-129157334D01*
X151889240Y-129195960D01*
X151991301Y-129226318D01*
X152272674Y-129176704D01*
X152358197Y-129113271D01*
X152396823Y-129058106D01*
X151334762Y-129342084D02*
X151147180Y-129375159D01*
X151045120Y-129344802D01*
X150989955Y-129306175D01*
X150871357Y-129182026D01*
X150791385Y-129002713D01*
X150725234Y-128627548D01*
X150755591Y-128525488D01*
X150794218Y-128470323D01*
X150879740Y-128406890D01*
X151067323Y-128373814D01*
X151169383Y-128404171D01*
X151224547Y-128442798D01*
X151287981Y-128528320D01*
X151329326Y-128762798D01*
X151298968Y-128864859D01*
X151260341Y-128920023D01*
X151174819Y-128983457D01*
X150987237Y-129016533D01*
X150885177Y-128986175D01*
X150830012Y-128947548D01*
X150766579Y-128862026D01*
X129928544Y-129726255D02*
X130102193Y-128741448D01*
X129867714Y-128700103D01*
X129718759Y-128722191D01*
X129608430Y-128799445D01*
X129544996Y-128884967D01*
X129465025Y-129064280D01*
X129440218Y-129204967D01*
X129454037Y-129400819D01*
X129484395Y-129502879D01*
X129561648Y-129613208D01*
X129694066Y-129684910D01*
X129928544Y-129726255D01*
X129211176Y-128584337D02*
X128601533Y-128476841D01*
X128863651Y-128909888D01*
X128722964Y-128885081D01*
X128620904Y-128915439D01*
X128565739Y-128954066D01*
X128502306Y-129039588D01*
X128460961Y-129274066D01*
X128491318Y-129376126D01*
X128529945Y-129431291D01*
X128615467Y-129494724D01*
X128896841Y-129544338D01*
X128998901Y-129513980D01*
X129054066Y-129475354D01*
X127964365Y-128799674D02*
X128066425Y-128769316D01*
X128121590Y-128730689D01*
X128185023Y-128645167D01*
X128193292Y-128598272D01*
X128162935Y-128496211D01*
X128124308Y-128441047D01*
X128038786Y-128377613D01*
X127851203Y-128344537D01*
X127749143Y-128374895D01*
X127693979Y-128413522D01*
X127630545Y-128499044D01*
X127622276Y-128545940D01*
X127652634Y-128648000D01*
X127691260Y-128703164D01*
X127776783Y-128766598D01*
X127964365Y-128799674D01*
X128049887Y-128863107D01*
X128088514Y-128918272D01*
X128118872Y-129020332D01*
X128085796Y-129207914D01*
X128022362Y-129293437D01*
X127967198Y-129332063D01*
X127865138Y-129362421D01*
X127677555Y-129329345D01*
X127592033Y-129265912D01*
X127553406Y-129210747D01*
X127523049Y-129108687D01*
X127556124Y-128921104D01*
X127619558Y-128835582D01*
X127674723Y-128796956D01*
X127776783Y-128766598D01*
X109582823Y-135407720D02*
X109756472Y-134422913D01*
X109521993Y-134381568D01*
X109373038Y-134403656D01*
X109262709Y-134480910D01*
X109199275Y-134566432D01*
X109119304Y-134745745D01*
X109094497Y-134886432D01*
X109108316Y-135082284D01*
X109138674Y-135184344D01*
X109215927Y-135294673D01*
X109348345Y-135366375D01*
X109582823Y-135407720D01*
X108865455Y-134265802D02*
X108255812Y-134158306D01*
X108517930Y-134591353D01*
X108377243Y-134566546D01*
X108275183Y-134596904D01*
X108220018Y-134635531D01*
X108156585Y-134721053D01*
X108115240Y-134955531D01*
X108145597Y-135057591D01*
X108184224Y-135112756D01*
X108269746Y-135176189D01*
X108551120Y-135225803D01*
X108653180Y-135195445D01*
X108708345Y-135156819D01*
X107927543Y-134100423D02*
X107271004Y-133984658D01*
X107519417Y-135043886D01*
X91924857Y-125846169D02*
X92098506Y-124861362D01*
X91864027Y-124820017D01*
X91715072Y-124842105D01*
X91604743Y-124919359D01*
X91541309Y-125004881D01*
X91461338Y-125184194D01*
X91436531Y-125324881D01*
X91450350Y-125520733D01*
X91480708Y-125622793D01*
X91557961Y-125733122D01*
X91690379Y-125804824D01*
X91924857Y-125846169D01*
X91207489Y-124704251D02*
X90597846Y-124596755D01*
X90859964Y-125029802D01*
X90719277Y-125004995D01*
X90617217Y-125035353D01*
X90562052Y-125073980D01*
X90498619Y-125159502D01*
X90457274Y-125393980D01*
X90487631Y-125496040D01*
X90526258Y-125551205D01*
X90611780Y-125614638D01*
X90893154Y-125664252D01*
X90995214Y-125633894D01*
X91050379Y-125595268D01*
X89753725Y-124447913D02*
X89941308Y-124480989D01*
X90026830Y-124544423D01*
X90065457Y-124599587D01*
X90134441Y-124756812D01*
X90148261Y-124952664D01*
X90082109Y-125327828D01*
X90018675Y-125413351D01*
X89963511Y-125451977D01*
X89861451Y-125482335D01*
X89673868Y-125449259D01*
X89588346Y-125385826D01*
X89549719Y-125330661D01*
X89519362Y-125228601D01*
X89560706Y-124994123D01*
X89624140Y-124908601D01*
X89679305Y-124869974D01*
X89781365Y-124839616D01*
X89968947Y-124872692D01*
X90054469Y-124936126D01*
X90093096Y-124991290D01*
X90123454Y-125093350D01*
X74335808Y-115893771D02*
X74509457Y-114908964D01*
X74274978Y-114867619D01*
X74126023Y-114889707D01*
X74015694Y-114966961D01*
X73952260Y-115052483D01*
X73872289Y-115231796D01*
X73847482Y-115372483D01*
X73861301Y-115568335D01*
X73891659Y-115670395D01*
X73968912Y-115780724D01*
X74101330Y-115852426D01*
X74335808Y-115893771D01*
X73618440Y-114751853D02*
X73008797Y-114644357D01*
X73270915Y-115077404D01*
X73130228Y-115052597D01*
X73028168Y-115082955D01*
X72973003Y-115121582D01*
X72909570Y-115207104D01*
X72868225Y-115441582D01*
X72898582Y-115543642D01*
X72937209Y-115598807D01*
X73022731Y-115662240D01*
X73304105Y-115711854D01*
X73406165Y-115681496D01*
X73461330Y-115642870D01*
X72117781Y-114487247D02*
X72586737Y-114569936D01*
X72550943Y-115047161D01*
X72512316Y-114991997D01*
X72426794Y-114928563D01*
X72192316Y-114887218D01*
X72090256Y-114917576D01*
X72035091Y-114956203D01*
X71971657Y-115041725D01*
X71930313Y-115276203D01*
X71960670Y-115378263D01*
X71999297Y-115433428D01*
X72084819Y-115496861D01*
X72319297Y-115538206D01*
X72421357Y-115507848D01*
X72476522Y-115469222D01*
X54403586Y-119230157D02*
X54577235Y-118245350D01*
X54342756Y-118204005D01*
X54193801Y-118226093D01*
X54083472Y-118303347D01*
X54020038Y-118388869D01*
X53940067Y-118568182D01*
X53915260Y-118708869D01*
X53929079Y-118904721D01*
X53959437Y-119006781D01*
X54036690Y-119117110D01*
X54169108Y-119188812D01*
X54403586Y-119230157D01*
X53686218Y-118088239D02*
X53076575Y-117980743D01*
X53338693Y-118413790D01*
X53198006Y-118388983D01*
X53095946Y-118419341D01*
X53040781Y-118457968D01*
X52977348Y-118543490D01*
X52936003Y-118777968D01*
X52966360Y-118880028D01*
X53004987Y-118935193D01*
X53090509Y-118998626D01*
X53371883Y-119048240D01*
X53473943Y-119017882D01*
X53529108Y-118979256D01*
X52174571Y-118160171D02*
X52058806Y-118816709D01*
X52475201Y-117826351D02*
X52585645Y-118571130D01*
X51976002Y-118463633D01*
X34815950Y-120612309D02*
X34989599Y-119627502D01*
X34755120Y-119586157D01*
X34606165Y-119608245D01*
X34495836Y-119685499D01*
X34432402Y-119771021D01*
X34352431Y-119950334D01*
X34327624Y-120091021D01*
X34341443Y-120286873D01*
X34371801Y-120388933D01*
X34449054Y-120499262D01*
X34581472Y-120570964D01*
X34815950Y-120612309D01*
X34098582Y-119470391D02*
X33488939Y-119362895D01*
X33751057Y-119795942D01*
X33610370Y-119771135D01*
X33508310Y-119801493D01*
X33453145Y-119840120D01*
X33389712Y-119925642D01*
X33348367Y-120160120D01*
X33378724Y-120262180D01*
X33417351Y-120317345D01*
X33502873Y-120380778D01*
X33784247Y-120430392D01*
X33886307Y-120400034D01*
X33941472Y-120361408D01*
X33160670Y-119305012D02*
X32551027Y-119197516D01*
X32813145Y-119630563D01*
X32672458Y-119605756D01*
X32570398Y-119636114D01*
X32515233Y-119674741D01*
X32451799Y-119760263D01*
X32410455Y-119994741D01*
X32440812Y-120096801D01*
X32479439Y-120151966D01*
X32564961Y-120215399D01*
X32846335Y-120265013D01*
X32948395Y-120234655D01*
X33003560Y-120196029D01*
X245108964Y-101120206D02*
X244935315Y-100135399D01*
X244700837Y-100176743D01*
X244568420Y-100248446D01*
X244491166Y-100358775D01*
X244460809Y-100460835D01*
X244446989Y-100656687D01*
X244471796Y-100797373D01*
X244551767Y-100976687D01*
X244615201Y-101062209D01*
X244725530Y-101139462D01*
X244874486Y-101161551D01*
X245108964Y-101120206D01*
X244044299Y-100292509D02*
X243434656Y-100400005D01*
X243829077Y-100717287D01*
X243688390Y-100742094D01*
X243602868Y-100805528D01*
X243564241Y-100860692D01*
X243533884Y-100962753D01*
X243575228Y-101197231D01*
X243638662Y-101282753D01*
X243693826Y-101321379D01*
X243795887Y-101351737D01*
X244077260Y-101302123D01*
X244162783Y-101238690D01*
X244201409Y-101183525D01*
X243076029Y-100559948D02*
X243020864Y-100521322D01*
X242918804Y-100490964D01*
X242684326Y-100532309D01*
X242598804Y-100595742D01*
X242560177Y-100650907D01*
X242529820Y-100752967D01*
X242546358Y-100846758D01*
X242618060Y-100979176D01*
X243280035Y-101442696D01*
X242670392Y-101550192D01*
X225521328Y-99738054D02*
X225347679Y-98753247D01*
X225113201Y-98794591D01*
X224980784Y-98866294D01*
X224903530Y-98976623D01*
X224873173Y-99078683D01*
X224859353Y-99274535D01*
X224884160Y-99415221D01*
X224964131Y-99594535D01*
X225027565Y-99680057D01*
X225137894Y-99757310D01*
X225286850Y-99779399D01*
X225521328Y-99738054D01*
X224456663Y-98910357D02*
X223847020Y-99017853D01*
X224241441Y-99335135D01*
X224100754Y-99359942D01*
X224015232Y-99423376D01*
X223976605Y-99478540D01*
X223946248Y-99580601D01*
X223987592Y-99815079D01*
X224051026Y-99900601D01*
X224106190Y-99939227D01*
X224208251Y-99969585D01*
X224489624Y-99919971D01*
X224575147Y-99856538D01*
X224613773Y-99801373D01*
X223082756Y-100168040D02*
X223645503Y-100068813D01*
X223364130Y-100118426D02*
X223190482Y-99133619D01*
X223309080Y-99257768D01*
X223419409Y-99335021D01*
X223521469Y-99365379D01*
X205589107Y-96401668D02*
X205415458Y-95416861D01*
X205180980Y-95458205D01*
X205048563Y-95529908D01*
X204971309Y-95640237D01*
X204940952Y-95742297D01*
X204927132Y-95938149D01*
X204951939Y-96078835D01*
X205031910Y-96258149D01*
X205095344Y-96343671D01*
X205205673Y-96420924D01*
X205354629Y-96443013D01*
X205589107Y-96401668D01*
X204524442Y-95573971D02*
X203914799Y-95681467D01*
X204309220Y-95998749D01*
X204168533Y-96023556D01*
X204083011Y-96086990D01*
X204044384Y-96142154D01*
X204014027Y-96244215D01*
X204055371Y-96478693D01*
X204118805Y-96564215D01*
X204173969Y-96602841D01*
X204276030Y-96633199D01*
X204557403Y-96583585D01*
X204642926Y-96520152D01*
X204681552Y-96464987D01*
X203305156Y-95788964D02*
X203211365Y-95805502D01*
X203125843Y-95868935D01*
X203087216Y-95924100D01*
X203056858Y-96026160D01*
X203043039Y-96222011D01*
X203084383Y-96456489D01*
X203164355Y-96635803D01*
X203227788Y-96721325D01*
X203282953Y-96759952D01*
X203385013Y-96790309D01*
X203478804Y-96773772D01*
X203564327Y-96710338D01*
X203602953Y-96655173D01*
X203633311Y-96553113D01*
X203647131Y-96357262D01*
X203605786Y-96122784D01*
X203525814Y-95943470D01*
X203462381Y-95857948D01*
X203407216Y-95819321D01*
X203305156Y-95788964D01*
X188000059Y-106354065D02*
X187826410Y-105369258D01*
X187591932Y-105410602D01*
X187459515Y-105482305D01*
X187382261Y-105592634D01*
X187351904Y-105694694D01*
X187338084Y-105890546D01*
X187362891Y-106031232D01*
X187442862Y-106210546D01*
X187506296Y-106296068D01*
X187616625Y-106373321D01*
X187765581Y-106395410D01*
X188000059Y-106354065D01*
X186905036Y-105628428D02*
X186849872Y-105589801D01*
X186747811Y-105559444D01*
X186513333Y-105600788D01*
X186427811Y-105664222D01*
X186389185Y-105719387D01*
X186358827Y-105821447D01*
X186375365Y-105915238D01*
X186447067Y-106047656D01*
X187109042Y-106511176D01*
X186499399Y-106618672D01*
X186030443Y-106701362D02*
X185842861Y-106734437D01*
X185740801Y-106704080D01*
X185685636Y-106665453D01*
X185567038Y-106541304D01*
X185487066Y-106361991D01*
X185420915Y-105986826D01*
X185451272Y-105884766D01*
X185489899Y-105829601D01*
X185575421Y-105766168D01*
X185763004Y-105733092D01*
X185865064Y-105763449D01*
X185920228Y-105802076D01*
X185983662Y-105887598D01*
X186025007Y-106122076D01*
X185994649Y-106224137D01*
X185956022Y-106279301D01*
X185870500Y-106342735D01*
X185682918Y-106375811D01*
X185580858Y-106345453D01*
X185525693Y-106306826D01*
X185462260Y-106221304D01*
X170411010Y-116306464D02*
X170237361Y-115321657D01*
X170002883Y-115363001D01*
X169870466Y-115434704D01*
X169793212Y-115545033D01*
X169762855Y-115647093D01*
X169749035Y-115842945D01*
X169773842Y-115983631D01*
X169853813Y-116162945D01*
X169917247Y-116248467D01*
X170027576Y-116325720D01*
X170176532Y-116347809D01*
X170411010Y-116306464D01*
X169315987Y-115580827D02*
X169260823Y-115542200D01*
X169158762Y-115511843D01*
X168924284Y-115553187D01*
X168838762Y-115616621D01*
X168800136Y-115671786D01*
X168769778Y-115773846D01*
X168786316Y-115867637D01*
X168858018Y-116000055D01*
X169519993Y-116463575D01*
X168910350Y-116571071D01*
X168248375Y-116107551D02*
X168333898Y-116044118D01*
X168372524Y-115988953D01*
X168402882Y-115886893D01*
X168394613Y-115839997D01*
X168331179Y-115754475D01*
X168276015Y-115715848D01*
X168173955Y-115685491D01*
X167986372Y-115718567D01*
X167900850Y-115782000D01*
X167862223Y-115837165D01*
X167831866Y-115939225D01*
X167840135Y-115986121D01*
X167903568Y-116071643D01*
X167958733Y-116110269D01*
X168060793Y-116140627D01*
X168248375Y-116107551D01*
X168350436Y-116137909D01*
X168405600Y-116176536D01*
X168469034Y-116262058D01*
X168502109Y-116449640D01*
X168471752Y-116551700D01*
X168433125Y-116606865D01*
X168347603Y-116670299D01*
X168160020Y-116703374D01*
X168057960Y-116673017D01*
X168002796Y-116634390D01*
X167939362Y-116548868D01*
X167906286Y-116361285D01*
X167936644Y-116259225D01*
X167975271Y-116204061D01*
X168060793Y-116140627D01*
X112890829Y-116647085D02*
X113064478Y-115662278D01*
X112829999Y-115620933D01*
X112681044Y-115643021D01*
X112570715Y-115720275D01*
X112507281Y-115805797D01*
X112427310Y-115985110D01*
X112402503Y-116125797D01*
X112416322Y-116321649D01*
X112446680Y-116423709D01*
X112523933Y-116534038D01*
X112656351Y-116605740D01*
X112890829Y-116647085D01*
X112110027Y-115590690D02*
X112071401Y-115535525D01*
X111985879Y-115472091D01*
X111751401Y-115430747D01*
X111649340Y-115461104D01*
X111594176Y-115499731D01*
X111530742Y-115585253D01*
X111514204Y-115679044D01*
X111536293Y-115828000D01*
X111999813Y-116489975D01*
X111390170Y-116382479D01*
X110672802Y-115240561D02*
X111141758Y-115323250D01*
X111105964Y-115800475D01*
X111067337Y-115745311D01*
X110981815Y-115681877D01*
X110747337Y-115640532D01*
X110645277Y-115670890D01*
X110590112Y-115709517D01*
X110526678Y-115795039D01*
X110485334Y-116029517D01*
X110515691Y-116131577D01*
X110554318Y-116186742D01*
X110639840Y-116250175D01*
X110874318Y-116291520D01*
X110976378Y-116261162D01*
X111031543Y-116222536D01*
X95232863Y-107085535D02*
X95406512Y-106100728D01*
X95172033Y-106059383D01*
X95023078Y-106081471D01*
X94912749Y-106158725D01*
X94849315Y-106244247D01*
X94769344Y-106423560D01*
X94744537Y-106564247D01*
X94758356Y-106760099D01*
X94788714Y-106862159D01*
X94865967Y-106972488D01*
X94998385Y-107044190D01*
X95232863Y-107085535D01*
X94452061Y-106029140D02*
X94413435Y-105973975D01*
X94327913Y-105910541D01*
X94093435Y-105869197D01*
X93991374Y-105899554D01*
X93936210Y-105938181D01*
X93872776Y-106023703D01*
X93856238Y-106117494D01*
X93878327Y-106266450D01*
X94341847Y-106928425D01*
X93732204Y-106820929D01*
X93003848Y-106015549D02*
X92888083Y-106672087D01*
X93304478Y-105681729D02*
X93414922Y-106426508D01*
X92805279Y-106319011D01*
X77643814Y-97133136D02*
X77817463Y-96148329D01*
X77582984Y-96106984D01*
X77434029Y-96129072D01*
X77323700Y-96206326D01*
X77260266Y-96291848D01*
X77180295Y-96471161D01*
X77155488Y-96611848D01*
X77169307Y-96807700D01*
X77199665Y-96909760D01*
X77276918Y-97020089D01*
X77409336Y-97091791D01*
X77643814Y-97133136D01*
X76863012Y-96076741D02*
X76824386Y-96021576D01*
X76738864Y-95958142D01*
X76504386Y-95916798D01*
X76402325Y-95947155D01*
X76347161Y-95985782D01*
X76283727Y-96071304D01*
X76267189Y-96165095D01*
X76289278Y-96314051D01*
X76752798Y-96976026D01*
X76143155Y-96868530D01*
X75988534Y-95825839D02*
X75378891Y-95718343D01*
X75641009Y-96151390D01*
X75500322Y-96126583D01*
X75398262Y-96156941D01*
X75343097Y-96195568D01*
X75279663Y-96281090D01*
X75238319Y-96515568D01*
X75268676Y-96617628D01*
X75307303Y-96672793D01*
X75392825Y-96736226D01*
X75674199Y-96785840D01*
X75776259Y-96755482D01*
X75831424Y-96716856D01*
X57711593Y-100469521D02*
X57885242Y-99484714D01*
X57650763Y-99443369D01*
X57501808Y-99465457D01*
X57391479Y-99542711D01*
X57328045Y-99628233D01*
X57248074Y-99807546D01*
X57223267Y-99948233D01*
X57237086Y-100144085D01*
X57267444Y-100246145D01*
X57344697Y-100356474D01*
X57477115Y-100428176D01*
X57711593Y-100469521D01*
X56930791Y-99413126D02*
X56892165Y-99357961D01*
X56806643Y-99294527D01*
X56572165Y-99253183D01*
X56470104Y-99283540D01*
X56414940Y-99322167D01*
X56351506Y-99407689D01*
X56334968Y-99501480D01*
X56357057Y-99650436D01*
X56820577Y-100312411D01*
X56210934Y-100204915D01*
X55992879Y-99247746D02*
X55954253Y-99192582D01*
X55868730Y-99129148D01*
X55634252Y-99087803D01*
X55532192Y-99118161D01*
X55477028Y-99156788D01*
X55413594Y-99242310D01*
X55397056Y-99336101D01*
X55419145Y-99485057D01*
X55882665Y-100147032D01*
X55273022Y-100039535D01*
X37733110Y-101782757D02*
X37906759Y-100797950D01*
X37672280Y-100756605D01*
X37523325Y-100778693D01*
X37412996Y-100855947D01*
X37349562Y-100941469D01*
X37269591Y-101120782D01*
X37244784Y-101261469D01*
X37258603Y-101457321D01*
X37288961Y-101559381D01*
X37366214Y-101669710D01*
X37498632Y-101741412D01*
X37733110Y-101782757D01*
X36952308Y-100726362D02*
X36913682Y-100671197D01*
X36828160Y-100607763D01*
X36593682Y-100566419D01*
X36491621Y-100596776D01*
X36436457Y-100635403D01*
X36373023Y-100720925D01*
X36356485Y-100814716D01*
X36378574Y-100963672D01*
X36842094Y-101625647D01*
X36232451Y-101518151D01*
X35294539Y-101352771D02*
X35857286Y-101451999D01*
X35575912Y-101402385D02*
X35749561Y-100417577D01*
X35818545Y-100574802D01*
X35895798Y-100685131D01*
X35981320Y-100748565D01*
X241800959Y-82359572D02*
X241627310Y-81374765D01*
X241392832Y-81416109D01*
X241260415Y-81487812D01*
X241183161Y-81598141D01*
X241152804Y-81700201D01*
X241138984Y-81896053D01*
X241163791Y-82036739D01*
X241243762Y-82216053D01*
X241307196Y-82301575D01*
X241417525Y-82378828D01*
X241566481Y-82400917D01*
X241800959Y-82359572D01*
X240705936Y-81633935D02*
X240650772Y-81595308D01*
X240548711Y-81564951D01*
X240314233Y-81606295D01*
X240228711Y-81669729D01*
X240190085Y-81724894D01*
X240159727Y-81826954D01*
X240176265Y-81920745D01*
X240247967Y-82053163D01*
X240909942Y-82516683D01*
X240300299Y-82624179D01*
X239517008Y-81746868D02*
X239423217Y-81763406D01*
X239337695Y-81826839D01*
X239299068Y-81882004D01*
X239268710Y-81984064D01*
X239254891Y-82179915D01*
X239296235Y-82414393D01*
X239376207Y-82593707D01*
X239439640Y-82679229D01*
X239494805Y-82717856D01*
X239596865Y-82748213D01*
X239690656Y-82731676D01*
X239776179Y-82668242D01*
X239814805Y-82613077D01*
X239845163Y-82511017D01*
X239858983Y-82315166D01*
X239817638Y-82080688D01*
X239737666Y-81901374D01*
X239674233Y-81815852D01*
X239619068Y-81777225D01*
X239517008Y-81746868D01*
X222213323Y-80977418D02*
X222039674Y-79992611D01*
X221805196Y-80033955D01*
X221672779Y-80105658D01*
X221595525Y-80215987D01*
X221565168Y-80318047D01*
X221551348Y-80513899D01*
X221576155Y-80654585D01*
X221656126Y-80833899D01*
X221719560Y-80919421D01*
X221829889Y-80996674D01*
X221978845Y-81018763D01*
X222213323Y-80977418D01*
X220712663Y-81242025D02*
X221275410Y-81142797D01*
X220994037Y-81192411D02*
X220820389Y-80207603D01*
X220938987Y-80331752D01*
X221049316Y-80409006D01*
X221151376Y-80439363D01*
X220243707Y-81324715D02*
X220056125Y-81357790D01*
X219954065Y-81327433D01*
X219898900Y-81288806D01*
X219780302Y-81164657D01*
X219700330Y-80985344D01*
X219634179Y-80610179D01*
X219664536Y-80508119D01*
X219703163Y-80452954D01*
X219788685Y-80389521D01*
X219976268Y-80356445D01*
X220078328Y-80386802D01*
X220133492Y-80425429D01*
X220196926Y-80510951D01*
X220238271Y-80745429D01*
X220207913Y-80847490D01*
X220169286Y-80902654D01*
X220083764Y-80966088D01*
X219896182Y-80999164D01*
X219794122Y-80968806D01*
X219738957Y-80930179D01*
X219675524Y-80844657D01*
X202281101Y-77641032D02*
X202107452Y-76656225D01*
X201872974Y-76697569D01*
X201740557Y-76769272D01*
X201663303Y-76879601D01*
X201632946Y-76981661D01*
X201619126Y-77177513D01*
X201643933Y-77318199D01*
X201723904Y-77497513D01*
X201787338Y-77583035D01*
X201897667Y-77660288D01*
X202046623Y-77682377D01*
X202281101Y-77641032D01*
X200780441Y-77905639D02*
X201343188Y-77806411D01*
X201061815Y-77856025D02*
X200888167Y-76871217D01*
X201006765Y-76995366D01*
X201117094Y-77072620D01*
X201219154Y-77102977D01*
X200118466Y-77442119D02*
X200203989Y-77378686D01*
X200242615Y-77323521D01*
X200272973Y-77221461D01*
X200264704Y-77174565D01*
X200201270Y-77089043D01*
X200146106Y-77050416D01*
X200044046Y-77020059D01*
X199856463Y-77053135D01*
X199770941Y-77116568D01*
X199732314Y-77171733D01*
X199701957Y-77273793D01*
X199710226Y-77320689D01*
X199773659Y-77406211D01*
X199828824Y-77444837D01*
X199930884Y-77475195D01*
X200118466Y-77442119D01*
X200220527Y-77472477D01*
X200275691Y-77511104D01*
X200339125Y-77596626D01*
X200372200Y-77784208D01*
X200341843Y-77886268D01*
X200303216Y-77941433D01*
X200217694Y-78004867D01*
X200030111Y-78037942D01*
X199928051Y-78007585D01*
X199872887Y-77968958D01*
X199809453Y-77883436D01*
X199776377Y-77695853D01*
X199806735Y-77593793D01*
X199845362Y-77538629D01*
X199930884Y-77475195D01*
X184692053Y-87593430D02*
X184518404Y-86608623D01*
X184283926Y-86649967D01*
X184151509Y-86721670D01*
X184074255Y-86831999D01*
X184043898Y-86934059D01*
X184030078Y-87129911D01*
X184054885Y-87270597D01*
X184134856Y-87449911D01*
X184198290Y-87535433D01*
X184308619Y-87612686D01*
X184457575Y-87634775D01*
X184692053Y-87593430D01*
X183191393Y-87858037D02*
X183754140Y-87758809D01*
X183472767Y-87808423D02*
X183299119Y-86823615D01*
X183417717Y-86947764D01*
X183528046Y-87025018D01*
X183630106Y-87055375D01*
X182689476Y-86931112D02*
X182032937Y-87046877D01*
X182628646Y-87957265D01*
X167103002Y-97545828D02*
X166929353Y-96561021D01*
X166694875Y-96602365D01*
X166562458Y-96674068D01*
X166485204Y-96784397D01*
X166454847Y-96886457D01*
X166441027Y-97082309D01*
X166465834Y-97222995D01*
X166545805Y-97402309D01*
X166609239Y-97487831D01*
X166719568Y-97565084D01*
X166868524Y-97587173D01*
X167103002Y-97545828D01*
X165602342Y-97810435D02*
X166165089Y-97711207D01*
X165883716Y-97760821D02*
X165710068Y-96776013D01*
X165828666Y-96900162D01*
X165938995Y-96977416D01*
X166041055Y-97007773D01*
X164584573Y-96974469D02*
X164772156Y-96941393D01*
X164874216Y-96971750D01*
X164929380Y-97010377D01*
X165047978Y-97134526D01*
X165127950Y-97313839D01*
X165194101Y-97689004D01*
X165163744Y-97791064D01*
X165125117Y-97846229D01*
X165039595Y-97909663D01*
X164852012Y-97942738D01*
X164749952Y-97912381D01*
X164694788Y-97873754D01*
X164631354Y-97788232D01*
X164590009Y-97553754D01*
X164620367Y-97451694D01*
X164658994Y-97396529D01*
X164744516Y-97333095D01*
X164932098Y-97300020D01*
X165034159Y-97330377D01*
X165089323Y-97369004D01*
X165152757Y-97454526D01*
X116129919Y-98277297D02*
X116303568Y-97292490D01*
X116069089Y-97251145D01*
X115920134Y-97273233D01*
X115809805Y-97350487D01*
X115746371Y-97436009D01*
X115666400Y-97615322D01*
X115641593Y-97756009D01*
X115655412Y-97951861D01*
X115685770Y-98053921D01*
X115763023Y-98164250D01*
X115895441Y-98235952D01*
X116129919Y-98277297D01*
X114629260Y-98012691D02*
X115192007Y-98111918D01*
X114910634Y-98062304D02*
X115084282Y-97077497D01*
X115153266Y-97234721D01*
X115230519Y-97345050D01*
X115316042Y-97408484D01*
X113911892Y-96870773D02*
X114380848Y-96953462D01*
X114345054Y-97430687D01*
X114306427Y-97375523D01*
X114220905Y-97312089D01*
X113986427Y-97270744D01*
X113884367Y-97301102D01*
X113829202Y-97339729D01*
X113765768Y-97425251D01*
X113724424Y-97659729D01*
X113754781Y-97761789D01*
X113793408Y-97816954D01*
X113878930Y-97880387D01*
X114113408Y-97921732D01*
X114215468Y-97891374D01*
X114270633Y-97852748D01*
X98540869Y-88324899D02*
X98714518Y-87340092D01*
X98480039Y-87298747D01*
X98331084Y-87320835D01*
X98220755Y-87398089D01*
X98157321Y-87483611D01*
X98077350Y-87662924D01*
X98052543Y-87803611D01*
X98066362Y-87999463D01*
X98096720Y-88101523D01*
X98173973Y-88211852D01*
X98306391Y-88283554D01*
X98540869Y-88324899D01*
X97040210Y-88060293D02*
X97602957Y-88159520D01*
X97321584Y-88109906D02*
X97495232Y-87125099D01*
X97564216Y-87282323D01*
X97641469Y-87392652D01*
X97726992Y-87456086D01*
X96311854Y-87254913D02*
X96196089Y-87911451D01*
X96612484Y-86921093D02*
X96722928Y-87665872D01*
X96113285Y-87558375D01*
X80951819Y-78372500D02*
X81125468Y-77387693D01*
X80890989Y-77346348D01*
X80742034Y-77368436D01*
X80631705Y-77445690D01*
X80568271Y-77531212D01*
X80488300Y-77710525D01*
X80463493Y-77851212D01*
X80477312Y-78047064D01*
X80507670Y-78149124D01*
X80584923Y-78259453D01*
X80717341Y-78331155D01*
X80951819Y-78372500D01*
X79451160Y-78107894D02*
X80013907Y-78207121D01*
X79732534Y-78157507D02*
X79906182Y-77172700D01*
X79975166Y-77329924D01*
X80052419Y-77440253D01*
X80137942Y-77503687D01*
X79296539Y-77065203D02*
X78686896Y-76957707D01*
X78949014Y-77390754D01*
X78808327Y-77365947D01*
X78706267Y-77396305D01*
X78651102Y-77434932D01*
X78587668Y-77520454D01*
X78546324Y-77754932D01*
X78576681Y-77856992D01*
X78615308Y-77912157D01*
X78700830Y-77975590D01*
X78982204Y-78025204D01*
X79084264Y-77994846D01*
X79139429Y-77956220D01*
X61019599Y-81708887D02*
X61193248Y-80724080D01*
X60958769Y-80682735D01*
X60809814Y-80704823D01*
X60699485Y-80782077D01*
X60636051Y-80867599D01*
X60556080Y-81046912D01*
X60531273Y-81187599D01*
X60545092Y-81383451D01*
X60575450Y-81485511D01*
X60652703Y-81595840D01*
X60785121Y-81667542D01*
X61019599Y-81708887D01*
X59518940Y-81444281D02*
X60081687Y-81543508D01*
X59800314Y-81493894D02*
X59973962Y-80509087D01*
X60042946Y-80666311D01*
X60120199Y-80776640D01*
X60205722Y-80840074D01*
X59300885Y-80487112D02*
X59262259Y-80431948D01*
X59176736Y-80368514D01*
X58942258Y-80327169D01*
X58840198Y-80357527D01*
X58785034Y-80396154D01*
X58721600Y-80481676D01*
X58705062Y-80575467D01*
X58727151Y-80724423D01*
X59190671Y-81386398D01*
X58581028Y-81278901D01*
X41431963Y-83091039D02*
X41605612Y-82106232D01*
X41371133Y-82064887D01*
X41222178Y-82086975D01*
X41111849Y-82164229D01*
X41048415Y-82249751D01*
X40968444Y-82429064D01*
X40943637Y-82569751D01*
X40957456Y-82765603D01*
X40987814Y-82867663D01*
X41065067Y-82977992D01*
X41197485Y-83049694D01*
X41431963Y-83091039D01*
X39931304Y-82826433D02*
X40494051Y-82925660D01*
X40212678Y-82876046D02*
X40386326Y-81891239D01*
X40455310Y-82048463D01*
X40532563Y-82158792D01*
X40618086Y-82222226D01*
X38993392Y-82661053D02*
X39556139Y-82760281D01*
X39274765Y-82710667D02*
X39448414Y-81725859D01*
X39517398Y-81883084D01*
X39594651Y-81993413D01*
X39680173Y-82056847D01*
X238492952Y-63598936D02*
X238319303Y-62614129D01*
X238084825Y-62655473D01*
X237952408Y-62727176D01*
X237875154Y-62837505D01*
X237844797Y-62939565D01*
X237830977Y-63135417D01*
X237855784Y-63276103D01*
X237935755Y-63455417D01*
X237999189Y-63540939D01*
X238109518Y-63618192D01*
X238258474Y-63640281D01*
X238492952Y-63598936D01*
X236992292Y-63863543D02*
X237555039Y-63764315D01*
X237273666Y-63813929D02*
X237100018Y-62829121D01*
X237218616Y-62953270D01*
X237328945Y-63030524D01*
X237431005Y-63060881D01*
X236209001Y-62986232D02*
X236115210Y-63002770D01*
X236029688Y-63066203D01*
X235991061Y-63121368D01*
X235960703Y-63223428D01*
X235946884Y-63419279D01*
X235988228Y-63653757D01*
X236068200Y-63833071D01*
X236131633Y-63918593D01*
X236186798Y-63957220D01*
X236288858Y-63987577D01*
X236382649Y-63971040D01*
X236468172Y-63907606D01*
X236506798Y-63852441D01*
X236537156Y-63750381D01*
X236550976Y-63554530D01*
X236509631Y-63320052D01*
X236429659Y-63140738D01*
X236366226Y-63055216D01*
X236311061Y-63016589D01*
X236209001Y-62986232D01*
X218436361Y-62299474D02*
X218262712Y-61314666D01*
X218028234Y-61356011D01*
X217895816Y-61427713D01*
X217818563Y-61538043D01*
X217788205Y-61640103D01*
X217774386Y-61835954D01*
X217799193Y-61976641D01*
X217879164Y-62155954D01*
X217942598Y-62241477D01*
X218052927Y-62318730D01*
X218201883Y-62340819D01*
X218436361Y-62299474D01*
X217404657Y-62481391D02*
X217217075Y-62514467D01*
X217115015Y-62484109D01*
X217059850Y-62445483D01*
X216941252Y-62321334D01*
X216861280Y-62142020D01*
X216795129Y-61766855D01*
X216825486Y-61664795D01*
X216864113Y-61609631D01*
X216949635Y-61546197D01*
X217137218Y-61513121D01*
X217239278Y-61543479D01*
X217294443Y-61582106D01*
X217357876Y-61667628D01*
X217399221Y-61902106D01*
X217368863Y-62004166D01*
X217330237Y-62059331D01*
X217244714Y-62122764D01*
X217057132Y-62155840D01*
X216955072Y-62125482D01*
X216899907Y-62086856D01*
X216836474Y-62001333D01*
X198607596Y-59047282D02*
X198433947Y-58062474D01*
X198199469Y-58103819D01*
X198067051Y-58175521D01*
X197989798Y-58285851D01*
X197959440Y-58387911D01*
X197945621Y-58583762D01*
X197970428Y-58724449D01*
X198050399Y-58903762D01*
X198113833Y-58989285D01*
X198224162Y-59066538D01*
X198373118Y-59088627D01*
X198607596Y-59047282D01*
X197382873Y-58682990D02*
X197468396Y-58619556D01*
X197507022Y-58564392D01*
X197537380Y-58462331D01*
X197529111Y-58415436D01*
X197465678Y-58329914D01*
X197410513Y-58291287D01*
X197308453Y-58260929D01*
X197120870Y-58294005D01*
X197035348Y-58357439D01*
X196996721Y-58412603D01*
X196966364Y-58514663D01*
X196974633Y-58561559D01*
X197038066Y-58647081D01*
X197093231Y-58685708D01*
X197195291Y-58716065D01*
X197382873Y-58682990D01*
X197484934Y-58713347D01*
X197540098Y-58751974D01*
X197603532Y-58837496D01*
X197636608Y-59025079D01*
X197606250Y-59127139D01*
X197567623Y-59182303D01*
X197482101Y-59245737D01*
X197294519Y-59278813D01*
X197192458Y-59248455D01*
X197137294Y-59209828D01*
X197073860Y-59124306D01*
X197040784Y-58936724D01*
X197071142Y-58834664D01*
X197109769Y-58779499D01*
X197195291Y-58716065D01*
X180915091Y-68915485D02*
X180741442Y-67930677D01*
X180506964Y-67972022D01*
X180374546Y-68043724D01*
X180297293Y-68154054D01*
X180266935Y-68256114D01*
X180253116Y-68451965D01*
X180277923Y-68592652D01*
X180357894Y-68771965D01*
X180421328Y-68857488D01*
X180531657Y-68934741D01*
X180680613Y-68956830D01*
X180915091Y-68915485D01*
X179850426Y-68087787D02*
X179193887Y-68203553D01*
X179789596Y-69113940D01*
X163326039Y-78867884D02*
X163152390Y-77883076D01*
X162917912Y-77924421D01*
X162785494Y-77996123D01*
X162708241Y-78106453D01*
X162677883Y-78208513D01*
X162664064Y-78404364D01*
X162688871Y-78545051D01*
X162768842Y-78724364D01*
X162832276Y-78809887D01*
X162942605Y-78887140D01*
X163091561Y-78909229D01*
X163326039Y-78867884D01*
X161745522Y-78131145D02*
X161933105Y-78098069D01*
X162035165Y-78128427D01*
X162090329Y-78167053D01*
X162208927Y-78291202D01*
X162288899Y-78470516D01*
X162355051Y-78845681D01*
X162324693Y-78947741D01*
X162286066Y-79002905D01*
X162200544Y-79066339D01*
X162012962Y-79099415D01*
X161910901Y-79069057D01*
X161855737Y-79030430D01*
X161792303Y-78944908D01*
X161750958Y-78710430D01*
X161781316Y-78608370D01*
X161819943Y-78553205D01*
X161905465Y-78489772D01*
X162093047Y-78456696D01*
X162195108Y-78487054D01*
X162250272Y-78525680D01*
X162313706Y-78611203D01*
X119037885Y-79043127D02*
X119211533Y-78058319D01*
X118977055Y-78016974D01*
X118828100Y-78039063D01*
X118717771Y-78116316D01*
X118654337Y-78201838D01*
X118574366Y-78381152D01*
X118549559Y-78521839D01*
X118563378Y-78717690D01*
X118593736Y-78819750D01*
X118670989Y-78930079D01*
X118803407Y-79001782D01*
X119037885Y-79043127D01*
X117757770Y-77801981D02*
X118226726Y-77884671D01*
X118190932Y-78361896D01*
X118152305Y-78306731D01*
X118066783Y-78243298D01*
X117832305Y-78201953D01*
X117730245Y-78232311D01*
X117675080Y-78270937D01*
X117611646Y-78356459D01*
X117570302Y-78590937D01*
X117600659Y-78692998D01*
X117639286Y-78748162D01*
X117724808Y-78811596D01*
X117959286Y-78852941D01*
X118061346Y-78822583D01*
X118116511Y-78783956D01*
X101379919Y-69481576D02*
X101553567Y-68496768D01*
X101319089Y-68455423D01*
X101170134Y-68477512D01*
X101059805Y-68554765D01*
X100996371Y-68640287D01*
X100916400Y-68819601D01*
X100891593Y-68960288D01*
X100905412Y-69156139D01*
X100935770Y-69258199D01*
X101013023Y-69368528D01*
X101145441Y-69440231D01*
X101379919Y-69481576D01*
X100088817Y-68576968D02*
X99973051Y-69233507D01*
X100389446Y-68243148D02*
X100499890Y-68987927D01*
X99890247Y-68880431D01*
X83790869Y-59529177D02*
X83964517Y-58544369D01*
X83730039Y-58503024D01*
X83581084Y-58525113D01*
X83470755Y-58602366D01*
X83407321Y-58687888D01*
X83327350Y-58867202D01*
X83302543Y-59007889D01*
X83316362Y-59203740D01*
X83346720Y-59305800D01*
X83423973Y-59416129D01*
X83556391Y-59487832D01*
X83790869Y-59529177D01*
X83073501Y-58387259D02*
X82463858Y-58279762D01*
X82725976Y-58712810D01*
X82585289Y-58688003D01*
X82483229Y-58718361D01*
X82428064Y-58756987D01*
X82364630Y-58842509D01*
X82323286Y-59076987D01*
X82353643Y-59179048D01*
X82392270Y-59234212D01*
X82477792Y-59297646D01*
X82759166Y-59347260D01*
X82861226Y-59316902D01*
X82916391Y-59278275D01*
X63858649Y-62865562D02*
X64032297Y-61880754D01*
X63797819Y-61839409D01*
X63648864Y-61861498D01*
X63538535Y-61938751D01*
X63475101Y-62024273D01*
X63395130Y-62203587D01*
X63370323Y-62344274D01*
X63384142Y-62540125D01*
X63414500Y-62642185D01*
X63491753Y-62752514D01*
X63624171Y-62824217D01*
X63858649Y-62865562D01*
X63077847Y-61809166D02*
X63039221Y-61754001D01*
X62953698Y-61690568D01*
X62719220Y-61649223D01*
X62617160Y-61679581D01*
X62561996Y-61718207D01*
X62498562Y-61803730D01*
X62482024Y-61897521D01*
X62504113Y-62046477D01*
X62967633Y-62708451D01*
X62357990Y-62600955D01*
X44271012Y-64247715D02*
X44444660Y-63262907D01*
X44210182Y-63221562D01*
X44061227Y-63243651D01*
X43950898Y-63320904D01*
X43887464Y-63406426D01*
X43807493Y-63585740D01*
X43782686Y-63726427D01*
X43796505Y-63922278D01*
X43826863Y-64024338D01*
X43904116Y-64134667D01*
X44036534Y-64206370D01*
X44271012Y-64247715D01*
X42770353Y-63983108D02*
X43333100Y-64082335D01*
X43051726Y-64032722D02*
X43225375Y-63047914D01*
X43294359Y-63205139D01*
X43371612Y-63315468D01*
X43457135Y-63378901D01*
%LPC*%
D12*
G36*
X145071191Y-83515053D02*
G01*
X145092426Y-83518203D01*
X145113250Y-83523419D01*
X145133462Y-83530651D01*
X145152868Y-83539830D01*
X145171281Y-83550866D01*
X145188524Y-83563654D01*
X145204430Y-83578070D01*
X145218846Y-83593976D01*
X145231634Y-83611219D01*
X145242670Y-83629632D01*
X145251849Y-83649038D01*
X145259081Y-83669250D01*
X145264297Y-83690074D01*
X145267447Y-83711309D01*
X145268500Y-83732750D01*
X145268500Y-84170250D01*
X145267447Y-84191691D01*
X145264297Y-84212926D01*
X145259081Y-84233750D01*
X145251849Y-84253962D01*
X145242670Y-84273368D01*
X145231634Y-84291781D01*
X145218846Y-84309024D01*
X145204430Y-84324930D01*
X145188524Y-84339346D01*
X145171281Y-84352134D01*
X145152868Y-84363170D01*
X145133462Y-84372349D01*
X145113250Y-84379581D01*
X145092426Y-84384797D01*
X145071191Y-84387947D01*
X145049750Y-84389000D01*
X144537250Y-84389000D01*
X144515809Y-84387947D01*
X144494574Y-84384797D01*
X144473750Y-84379581D01*
X144453538Y-84372349D01*
X144434132Y-84363170D01*
X144415719Y-84352134D01*
X144398476Y-84339346D01*
X144382570Y-84324930D01*
X144368154Y-84309024D01*
X144355366Y-84291781D01*
X144344330Y-84273368D01*
X144335151Y-84253962D01*
X144327919Y-84233750D01*
X144322703Y-84212926D01*
X144319553Y-84191691D01*
X144318500Y-84170250D01*
X144318500Y-83732750D01*
X144319553Y-83711309D01*
X144322703Y-83690074D01*
X144327919Y-83669250D01*
X144335151Y-83649038D01*
X144344330Y-83629632D01*
X144355366Y-83611219D01*
X144368154Y-83593976D01*
X144382570Y-83578070D01*
X144398476Y-83563654D01*
X144415719Y-83550866D01*
X144434132Y-83539830D01*
X144453538Y-83530651D01*
X144473750Y-83523419D01*
X144494574Y-83518203D01*
X144515809Y-83515053D01*
X144537250Y-83514000D01*
X145049750Y-83514000D01*
X145071191Y-83515053D01*
G37*
G36*
X145071191Y-81940053D02*
G01*
X145092426Y-81943203D01*
X145113250Y-81948419D01*
X145133462Y-81955651D01*
X145152868Y-81964830D01*
X145171281Y-81975866D01*
X145188524Y-81988654D01*
X145204430Y-82003070D01*
X145218846Y-82018976D01*
X145231634Y-82036219D01*
X145242670Y-82054632D01*
X145251849Y-82074038D01*
X145259081Y-82094250D01*
X145264297Y-82115074D01*
X145267447Y-82136309D01*
X145268500Y-82157750D01*
X145268500Y-82595250D01*
X145267447Y-82616691D01*
X145264297Y-82637926D01*
X145259081Y-82658750D01*
X145251849Y-82678962D01*
X145242670Y-82698368D01*
X145231634Y-82716781D01*
X145218846Y-82734024D01*
X145204430Y-82749930D01*
X145188524Y-82764346D01*
X145171281Y-82777134D01*
X145152868Y-82788170D01*
X145133462Y-82797349D01*
X145113250Y-82804581D01*
X145092426Y-82809797D01*
X145071191Y-82812947D01*
X145049750Y-82814000D01*
X144537250Y-82814000D01*
X144515809Y-82812947D01*
X144494574Y-82809797D01*
X144473750Y-82804581D01*
X144453538Y-82797349D01*
X144434132Y-82788170D01*
X144415719Y-82777134D01*
X144398476Y-82764346D01*
X144382570Y-82749930D01*
X144368154Y-82734024D01*
X144355366Y-82716781D01*
X144344330Y-82698368D01*
X144335151Y-82678962D01*
X144327919Y-82658750D01*
X144322703Y-82637926D01*
X144319553Y-82616691D01*
X144318500Y-82595250D01*
X144318500Y-82157750D01*
X144319553Y-82136309D01*
X144322703Y-82115074D01*
X144327919Y-82094250D01*
X144335151Y-82074038D01*
X144344330Y-82054632D01*
X144355366Y-82036219D01*
X144368154Y-82018976D01*
X144382570Y-82003070D01*
X144398476Y-81988654D01*
X144415719Y-81975866D01*
X144434132Y-81964830D01*
X144453538Y-81955651D01*
X144473750Y-81948419D01*
X144494574Y-81943203D01*
X144515809Y-81940053D01*
X144537250Y-81939000D01*
X145049750Y-81939000D01*
X145071191Y-81940053D01*
G37*
G36*
X149146758Y-95452767D02*
G01*
X149167993Y-95455917D01*
X149188817Y-95461133D01*
X149209029Y-95468365D01*
X149228435Y-95477544D01*
X149246848Y-95488580D01*
X149264091Y-95501368D01*
X149279997Y-95515784D01*
X149589356Y-95825143D01*
X149603772Y-95841049D01*
X149616560Y-95858292D01*
X149627596Y-95876705D01*
X149636775Y-95896111D01*
X149644007Y-95916323D01*
X149649223Y-95937147D01*
X149652373Y-95958382D01*
X149653426Y-95979823D01*
X149652373Y-96001264D01*
X149649223Y-96022499D01*
X149644007Y-96043323D01*
X149636775Y-96063535D01*
X149627596Y-96082941D01*
X149616560Y-96101354D01*
X149603772Y-96118597D01*
X149589356Y-96134503D01*
X149226963Y-96496896D01*
X149211057Y-96511312D01*
X149193814Y-96524100D01*
X149175401Y-96535136D01*
X149155995Y-96544315D01*
X149135783Y-96551547D01*
X149114959Y-96556763D01*
X149093724Y-96559913D01*
X149072283Y-96560966D01*
X149050842Y-96559913D01*
X149029607Y-96556763D01*
X149008783Y-96551547D01*
X148988571Y-96544315D01*
X148969165Y-96535136D01*
X148950752Y-96524100D01*
X148933509Y-96511312D01*
X148917603Y-96496896D01*
X148608244Y-96187537D01*
X148593828Y-96171631D01*
X148581040Y-96154388D01*
X148570004Y-96135975D01*
X148560825Y-96116569D01*
X148553593Y-96096357D01*
X148548377Y-96075533D01*
X148545227Y-96054298D01*
X148544174Y-96032857D01*
X148545227Y-96011416D01*
X148548377Y-95990181D01*
X148553593Y-95969357D01*
X148560825Y-95949145D01*
X148570004Y-95929739D01*
X148581040Y-95911326D01*
X148593828Y-95894083D01*
X148608244Y-95878177D01*
X148970637Y-95515784D01*
X148986543Y-95501368D01*
X149003786Y-95488580D01*
X149022199Y-95477544D01*
X149041605Y-95468365D01*
X149061817Y-95461133D01*
X149082641Y-95455917D01*
X149103876Y-95452767D01*
X149125317Y-95451714D01*
X149146758Y-95452767D01*
G37*
G36*
X148033064Y-94339073D02*
G01*
X148054299Y-94342223D01*
X148075123Y-94347439D01*
X148095335Y-94354671D01*
X148114741Y-94363850D01*
X148133154Y-94374886D01*
X148150397Y-94387674D01*
X148166303Y-94402090D01*
X148475662Y-94711449D01*
X148490078Y-94727355D01*
X148502866Y-94744598D01*
X148513902Y-94763011D01*
X148523081Y-94782417D01*
X148530313Y-94802629D01*
X148535529Y-94823453D01*
X148538679Y-94844688D01*
X148539732Y-94866129D01*
X148538679Y-94887570D01*
X148535529Y-94908805D01*
X148530313Y-94929629D01*
X148523081Y-94949841D01*
X148513902Y-94969247D01*
X148502866Y-94987660D01*
X148490078Y-95004903D01*
X148475662Y-95020809D01*
X148113269Y-95383202D01*
X148097363Y-95397618D01*
X148080120Y-95410406D01*
X148061707Y-95421442D01*
X148042301Y-95430621D01*
X148022089Y-95437853D01*
X148001265Y-95443069D01*
X147980030Y-95446219D01*
X147958589Y-95447272D01*
X147937148Y-95446219D01*
X147915913Y-95443069D01*
X147895089Y-95437853D01*
X147874877Y-95430621D01*
X147855471Y-95421442D01*
X147837058Y-95410406D01*
X147819815Y-95397618D01*
X147803909Y-95383202D01*
X147494550Y-95073843D01*
X147480134Y-95057937D01*
X147467346Y-95040694D01*
X147456310Y-95022281D01*
X147447131Y-95002875D01*
X147439899Y-94982663D01*
X147434683Y-94961839D01*
X147431533Y-94940604D01*
X147430480Y-94919163D01*
X147431533Y-94897722D01*
X147434683Y-94876487D01*
X147439899Y-94855663D01*
X147447131Y-94835451D01*
X147456310Y-94816045D01*
X147467346Y-94797632D01*
X147480134Y-94780389D01*
X147494550Y-94764483D01*
X147856943Y-94402090D01*
X147872849Y-94387674D01*
X147890092Y-94374886D01*
X147908505Y-94363850D01*
X147927911Y-94354671D01*
X147948123Y-94347439D01*
X147968947Y-94342223D01*
X147990182Y-94339073D01*
X148011623Y-94338020D01*
X148033064Y-94339073D01*
G37*
G36*
X147077791Y-81940053D02*
G01*
X147099026Y-81943203D01*
X147119850Y-81948419D01*
X147140062Y-81955651D01*
X147159468Y-81964830D01*
X147177881Y-81975866D01*
X147195124Y-81988654D01*
X147211030Y-82003070D01*
X147225446Y-82018976D01*
X147238234Y-82036219D01*
X147249270Y-82054632D01*
X147258449Y-82074038D01*
X147265681Y-82094250D01*
X147270897Y-82115074D01*
X147274047Y-82136309D01*
X147275100Y-82157750D01*
X147275100Y-82595250D01*
X147274047Y-82616691D01*
X147270897Y-82637926D01*
X147265681Y-82658750D01*
X147258449Y-82678962D01*
X147249270Y-82698368D01*
X147238234Y-82716781D01*
X147225446Y-82734024D01*
X147211030Y-82749930D01*
X147195124Y-82764346D01*
X147177881Y-82777134D01*
X147159468Y-82788170D01*
X147140062Y-82797349D01*
X147119850Y-82804581D01*
X147099026Y-82809797D01*
X147077791Y-82812947D01*
X147056350Y-82814000D01*
X146543850Y-82814000D01*
X146522409Y-82812947D01*
X146501174Y-82809797D01*
X146480350Y-82804581D01*
X146460138Y-82797349D01*
X146440732Y-82788170D01*
X146422319Y-82777134D01*
X146405076Y-82764346D01*
X146389170Y-82749930D01*
X146374754Y-82734024D01*
X146361966Y-82716781D01*
X146350930Y-82698368D01*
X146341751Y-82678962D01*
X146334519Y-82658750D01*
X146329303Y-82637926D01*
X146326153Y-82616691D01*
X146325100Y-82595250D01*
X146325100Y-82157750D01*
X146326153Y-82136309D01*
X146329303Y-82115074D01*
X146334519Y-82094250D01*
X146341751Y-82074038D01*
X146350930Y-82054632D01*
X146361966Y-82036219D01*
X146374754Y-82018976D01*
X146389170Y-82003070D01*
X146405076Y-81988654D01*
X146422319Y-81975866D01*
X146440732Y-81964830D01*
X146460138Y-81955651D01*
X146480350Y-81948419D01*
X146501174Y-81943203D01*
X146522409Y-81940053D01*
X146543850Y-81939000D01*
X147056350Y-81939000D01*
X147077791Y-81940053D01*
G37*
G36*
X147077791Y-83515053D02*
G01*
X147099026Y-83518203D01*
X147119850Y-83523419D01*
X147140062Y-83530651D01*
X147159468Y-83539830D01*
X147177881Y-83550866D01*
X147195124Y-83563654D01*
X147211030Y-83578070D01*
X147225446Y-83593976D01*
X147238234Y-83611219D01*
X147249270Y-83629632D01*
X147258449Y-83649038D01*
X147265681Y-83669250D01*
X147270897Y-83690074D01*
X147274047Y-83711309D01*
X147275100Y-83732750D01*
X147275100Y-84170250D01*
X147274047Y-84191691D01*
X147270897Y-84212926D01*
X147265681Y-84233750D01*
X147258449Y-84253962D01*
X147249270Y-84273368D01*
X147238234Y-84291781D01*
X147225446Y-84309024D01*
X147211030Y-84324930D01*
X147195124Y-84339346D01*
X147177881Y-84352134D01*
X147159468Y-84363170D01*
X147140062Y-84372349D01*
X147119850Y-84379581D01*
X147099026Y-84384797D01*
X147077791Y-84387947D01*
X147056350Y-84389000D01*
X146543850Y-84389000D01*
X146522409Y-84387947D01*
X146501174Y-84384797D01*
X146480350Y-84379581D01*
X146460138Y-84372349D01*
X146440732Y-84363170D01*
X146422319Y-84352134D01*
X146405076Y-84339346D01*
X146389170Y-84324930D01*
X146374754Y-84309024D01*
X146361966Y-84291781D01*
X146350930Y-84273368D01*
X146341751Y-84253962D01*
X146334519Y-84233750D01*
X146329303Y-84212926D01*
X146326153Y-84191691D01*
X146325100Y-84170250D01*
X146325100Y-83732750D01*
X146326153Y-83711309D01*
X146329303Y-83690074D01*
X146334519Y-83669250D01*
X146341751Y-83649038D01*
X146350930Y-83629632D01*
X146361966Y-83611219D01*
X146374754Y-83593976D01*
X146389170Y-83578070D01*
X146405076Y-83563654D01*
X146422319Y-83550866D01*
X146440732Y-83539830D01*
X146460138Y-83530651D01*
X146480350Y-83523419D01*
X146501174Y-83518203D01*
X146522409Y-83515053D01*
X146543850Y-83514000D01*
X147056350Y-83514000D01*
X147077791Y-83515053D01*
G37*
D13*
X54857116Y-119721515D03*
D14*
X51473572Y-124283272D03*
D13*
X48162521Y-121120261D03*
D15*
X46470749Y-123401139D03*
X56476395Y-125165405D03*
D12*
G36*
X132347958Y-112211551D02*
G01*
X132369193Y-112214701D01*
X132390017Y-112219917D01*
X132410229Y-112227149D01*
X132429635Y-112236328D01*
X132448048Y-112247364D01*
X132465291Y-112260152D01*
X132481197Y-112274568D01*
X132790556Y-112583927D01*
X132804972Y-112599833D01*
X132817760Y-112617076D01*
X132828796Y-112635489D01*
X132837975Y-112654895D01*
X132845207Y-112675107D01*
X132850423Y-112695931D01*
X132853573Y-112717166D01*
X132854626Y-112738607D01*
X132853573Y-112760048D01*
X132850423Y-112781283D01*
X132845207Y-112802107D01*
X132837975Y-112822319D01*
X132828796Y-112841725D01*
X132817760Y-112860138D01*
X132804972Y-112877381D01*
X132790556Y-112893287D01*
X132428163Y-113255680D01*
X132412257Y-113270096D01*
X132395014Y-113282884D01*
X132376601Y-113293920D01*
X132357195Y-113303099D01*
X132336983Y-113310331D01*
X132316159Y-113315547D01*
X132294924Y-113318697D01*
X132273483Y-113319750D01*
X132252042Y-113318697D01*
X132230807Y-113315547D01*
X132209983Y-113310331D01*
X132189771Y-113303099D01*
X132170365Y-113293920D01*
X132151952Y-113282884D01*
X132134709Y-113270096D01*
X132118803Y-113255680D01*
X131809444Y-112946321D01*
X131795028Y-112930415D01*
X131782240Y-112913172D01*
X131771204Y-112894759D01*
X131762025Y-112875353D01*
X131754793Y-112855141D01*
X131749577Y-112834317D01*
X131746427Y-112813082D01*
X131745374Y-112791641D01*
X131746427Y-112770200D01*
X131749577Y-112748965D01*
X131754793Y-112728141D01*
X131762025Y-112707929D01*
X131771204Y-112688523D01*
X131782240Y-112670110D01*
X131795028Y-112652867D01*
X131809444Y-112636961D01*
X132171837Y-112274568D01*
X132187743Y-112260152D01*
X132204986Y-112247364D01*
X132223399Y-112236328D01*
X132242805Y-112227149D01*
X132263017Y-112219917D01*
X132283841Y-112214701D01*
X132305076Y-112211551D01*
X132326517Y-112210498D01*
X132347958Y-112211551D01*
G37*
G36*
X131234264Y-111097857D02*
G01*
X131255499Y-111101007D01*
X131276323Y-111106223D01*
X131296535Y-111113455D01*
X131315941Y-111122634D01*
X131334354Y-111133670D01*
X131351597Y-111146458D01*
X131367503Y-111160874D01*
X131676862Y-111470233D01*
X131691278Y-111486139D01*
X131704066Y-111503382D01*
X131715102Y-111521795D01*
X131724281Y-111541201D01*
X131731513Y-111561413D01*
X131736729Y-111582237D01*
X131739879Y-111603472D01*
X131740932Y-111624913D01*
X131739879Y-111646354D01*
X131736729Y-111667589D01*
X131731513Y-111688413D01*
X131724281Y-111708625D01*
X131715102Y-111728031D01*
X131704066Y-111746444D01*
X131691278Y-111763687D01*
X131676862Y-111779593D01*
X131314469Y-112141986D01*
X131298563Y-112156402D01*
X131281320Y-112169190D01*
X131262907Y-112180226D01*
X131243501Y-112189405D01*
X131223289Y-112196637D01*
X131202465Y-112201853D01*
X131181230Y-112205003D01*
X131159789Y-112206056D01*
X131138348Y-112205003D01*
X131117113Y-112201853D01*
X131096289Y-112196637D01*
X131076077Y-112189405D01*
X131056671Y-112180226D01*
X131038258Y-112169190D01*
X131021015Y-112156402D01*
X131005109Y-112141986D01*
X130695750Y-111832627D01*
X130681334Y-111816721D01*
X130668546Y-111799478D01*
X130657510Y-111781065D01*
X130648331Y-111761659D01*
X130641099Y-111741447D01*
X130635883Y-111720623D01*
X130632733Y-111699388D01*
X130631680Y-111677947D01*
X130632733Y-111656506D01*
X130635883Y-111635271D01*
X130641099Y-111614447D01*
X130648331Y-111594235D01*
X130657510Y-111574829D01*
X130668546Y-111556416D01*
X130681334Y-111539173D01*
X130695750Y-111523267D01*
X131058143Y-111160874D01*
X131074049Y-111146458D01*
X131091292Y-111133670D01*
X131109705Y-111122634D01*
X131129111Y-111113455D01*
X131149323Y-111106223D01*
X131170147Y-111101007D01*
X131191382Y-111097857D01*
X131212823Y-111096804D01*
X131234264Y-111097857D01*
G37*
G36*
X138927691Y-81928677D02*
G01*
X138948926Y-81931827D01*
X138969750Y-81937043D01*
X138989962Y-81944275D01*
X139009368Y-81953454D01*
X139027781Y-81964490D01*
X139045024Y-81977278D01*
X139060930Y-81991694D01*
X139075346Y-82007600D01*
X139088134Y-82024843D01*
X139099170Y-82043256D01*
X139108349Y-82062662D01*
X139115581Y-82082874D01*
X139120797Y-82103698D01*
X139123947Y-82124933D01*
X139125000Y-82146374D01*
X139125000Y-82583874D01*
X139123947Y-82605315D01*
X139120797Y-82626550D01*
X139115581Y-82647374D01*
X139108349Y-82667586D01*
X139099170Y-82686992D01*
X139088134Y-82705405D01*
X139075346Y-82722648D01*
X139060930Y-82738554D01*
X139045024Y-82752970D01*
X139027781Y-82765758D01*
X139009368Y-82776794D01*
X138989962Y-82785973D01*
X138969750Y-82793205D01*
X138948926Y-82798421D01*
X138927691Y-82801571D01*
X138906250Y-82802624D01*
X138393750Y-82802624D01*
X138372309Y-82801571D01*
X138351074Y-82798421D01*
X138330250Y-82793205D01*
X138310038Y-82785973D01*
X138290632Y-82776794D01*
X138272219Y-82765758D01*
X138254976Y-82752970D01*
X138239070Y-82738554D01*
X138224654Y-82722648D01*
X138211866Y-82705405D01*
X138200830Y-82686992D01*
X138191651Y-82667586D01*
X138184419Y-82647374D01*
X138179203Y-82626550D01*
X138176053Y-82605315D01*
X138175000Y-82583874D01*
X138175000Y-82146374D01*
X138176053Y-82124933D01*
X138179203Y-82103698D01*
X138184419Y-82082874D01*
X138191651Y-82062662D01*
X138200830Y-82043256D01*
X138211866Y-82024843D01*
X138224654Y-82007600D01*
X138239070Y-81991694D01*
X138254976Y-81977278D01*
X138272219Y-81964490D01*
X138290632Y-81953454D01*
X138310038Y-81944275D01*
X138330250Y-81937043D01*
X138351074Y-81931827D01*
X138372309Y-81928677D01*
X138393750Y-81927624D01*
X138906250Y-81927624D01*
X138927691Y-81928677D01*
G37*
G36*
X138927691Y-83503677D02*
G01*
X138948926Y-83506827D01*
X138969750Y-83512043D01*
X138989962Y-83519275D01*
X139009368Y-83528454D01*
X139027781Y-83539490D01*
X139045024Y-83552278D01*
X139060930Y-83566694D01*
X139075346Y-83582600D01*
X139088134Y-83599843D01*
X139099170Y-83618256D01*
X139108349Y-83637662D01*
X139115581Y-83657874D01*
X139120797Y-83678698D01*
X139123947Y-83699933D01*
X139125000Y-83721374D01*
X139125000Y-84158874D01*
X139123947Y-84180315D01*
X139120797Y-84201550D01*
X139115581Y-84222374D01*
X139108349Y-84242586D01*
X139099170Y-84261992D01*
X139088134Y-84280405D01*
X139075346Y-84297648D01*
X139060930Y-84313554D01*
X139045024Y-84327970D01*
X139027781Y-84340758D01*
X139009368Y-84351794D01*
X138989962Y-84360973D01*
X138969750Y-84368205D01*
X138948926Y-84373421D01*
X138927691Y-84376571D01*
X138906250Y-84377624D01*
X138393750Y-84377624D01*
X138372309Y-84376571D01*
X138351074Y-84373421D01*
X138330250Y-84368205D01*
X138310038Y-84360973D01*
X138290632Y-84351794D01*
X138272219Y-84340758D01*
X138254976Y-84327970D01*
X138239070Y-84313554D01*
X138224654Y-84297648D01*
X138211866Y-84280405D01*
X138200830Y-84261992D01*
X138191651Y-84242586D01*
X138184419Y-84222374D01*
X138179203Y-84201550D01*
X138176053Y-84180315D01*
X138175000Y-84158874D01*
X138175000Y-83721374D01*
X138176053Y-83699933D01*
X138179203Y-83678698D01*
X138184419Y-83657874D01*
X138191651Y-83637662D01*
X138200830Y-83618256D01*
X138211866Y-83599843D01*
X138224654Y-83582600D01*
X138239070Y-83566694D01*
X138254976Y-83552278D01*
X138272219Y-83539490D01*
X138290632Y-83528454D01*
X138310038Y-83519275D01*
X138330250Y-83512043D01*
X138351074Y-83506827D01*
X138372309Y-83503677D01*
X138393750Y-83502624D01*
X138906250Y-83502624D01*
X138927691Y-83503677D01*
G37*
G36*
X140959691Y-81938485D02*
G01*
X140980926Y-81941635D01*
X141001750Y-81946851D01*
X141021962Y-81954083D01*
X141041368Y-81963262D01*
X141059781Y-81974298D01*
X141077024Y-81987086D01*
X141092930Y-82001502D01*
X141107346Y-82017408D01*
X141120134Y-82034651D01*
X141131170Y-82053064D01*
X141140349Y-82072470D01*
X141147581Y-82092682D01*
X141152797Y-82113506D01*
X141155947Y-82134741D01*
X141157000Y-82156182D01*
X141157000Y-82593682D01*
X141155947Y-82615123D01*
X141152797Y-82636358D01*
X141147581Y-82657182D01*
X141140349Y-82677394D01*
X141131170Y-82696800D01*
X141120134Y-82715213D01*
X141107346Y-82732456D01*
X141092930Y-82748362D01*
X141077024Y-82762778D01*
X141059781Y-82775566D01*
X141041368Y-82786602D01*
X141021962Y-82795781D01*
X141001750Y-82803013D01*
X140980926Y-82808229D01*
X140959691Y-82811379D01*
X140938250Y-82812432D01*
X140425750Y-82812432D01*
X140404309Y-82811379D01*
X140383074Y-82808229D01*
X140362250Y-82803013D01*
X140342038Y-82795781D01*
X140322632Y-82786602D01*
X140304219Y-82775566D01*
X140286976Y-82762778D01*
X140271070Y-82748362D01*
X140256654Y-82732456D01*
X140243866Y-82715213D01*
X140232830Y-82696800D01*
X140223651Y-82677394D01*
X140216419Y-82657182D01*
X140211203Y-82636358D01*
X140208053Y-82615123D01*
X140207000Y-82593682D01*
X140207000Y-82156182D01*
X140208053Y-82134741D01*
X140211203Y-82113506D01*
X140216419Y-82092682D01*
X140223651Y-82072470D01*
X140232830Y-82053064D01*
X140243866Y-82034651D01*
X140256654Y-82017408D01*
X140271070Y-82001502D01*
X140286976Y-81987086D01*
X140304219Y-81974298D01*
X140322632Y-81963262D01*
X140342038Y-81954083D01*
X140362250Y-81946851D01*
X140383074Y-81941635D01*
X140404309Y-81938485D01*
X140425750Y-81937432D01*
X140938250Y-81937432D01*
X140959691Y-81938485D01*
G37*
G36*
X140959691Y-83513485D02*
G01*
X140980926Y-83516635D01*
X141001750Y-83521851D01*
X141021962Y-83529083D01*
X141041368Y-83538262D01*
X141059781Y-83549298D01*
X141077024Y-83562086D01*
X141092930Y-83576502D01*
X141107346Y-83592408D01*
X141120134Y-83609651D01*
X141131170Y-83628064D01*
X141140349Y-83647470D01*
X141147581Y-83667682D01*
X141152797Y-83688506D01*
X141155947Y-83709741D01*
X141157000Y-83731182D01*
X141157000Y-84168682D01*
X141155947Y-84190123D01*
X141152797Y-84211358D01*
X141147581Y-84232182D01*
X141140349Y-84252394D01*
X141131170Y-84271800D01*
X141120134Y-84290213D01*
X141107346Y-84307456D01*
X141092930Y-84323362D01*
X141077024Y-84337778D01*
X141059781Y-84350566D01*
X141041368Y-84361602D01*
X141021962Y-84370781D01*
X141001750Y-84378013D01*
X140980926Y-84383229D01*
X140959691Y-84386379D01*
X140938250Y-84387432D01*
X140425750Y-84387432D01*
X140404309Y-84386379D01*
X140383074Y-84383229D01*
X140362250Y-84378013D01*
X140342038Y-84370781D01*
X140322632Y-84361602D01*
X140304219Y-84350566D01*
X140286976Y-84337778D01*
X140271070Y-84323362D01*
X140256654Y-84307456D01*
X140243866Y-84290213D01*
X140232830Y-84271800D01*
X140223651Y-84252394D01*
X140216419Y-84232182D01*
X140211203Y-84211358D01*
X140208053Y-84190123D01*
X140207000Y-84168682D01*
X140207000Y-83731182D01*
X140208053Y-83709741D01*
X140211203Y-83688506D01*
X140216419Y-83667682D01*
X140223651Y-83647470D01*
X140232830Y-83628064D01*
X140243866Y-83609651D01*
X140256654Y-83592408D01*
X140271070Y-83576502D01*
X140286976Y-83562086D01*
X140304219Y-83549298D01*
X140322632Y-83538262D01*
X140342038Y-83529083D01*
X140362250Y-83521851D01*
X140383074Y-83516635D01*
X140404309Y-83513485D01*
X140425750Y-83512432D01*
X140938250Y-83512432D01*
X140959691Y-83513485D01*
G37*
G36*
X136895691Y-83513485D02*
G01*
X136916926Y-83516635D01*
X136937750Y-83521851D01*
X136957962Y-83529083D01*
X136977368Y-83538262D01*
X136995781Y-83549298D01*
X137013024Y-83562086D01*
X137028930Y-83576502D01*
X137043346Y-83592408D01*
X137056134Y-83609651D01*
X137067170Y-83628064D01*
X137076349Y-83647470D01*
X137083581Y-83667682D01*
X137088797Y-83688506D01*
X137091947Y-83709741D01*
X137093000Y-83731182D01*
X137093000Y-84168682D01*
X137091947Y-84190123D01*
X137088797Y-84211358D01*
X137083581Y-84232182D01*
X137076349Y-84252394D01*
X137067170Y-84271800D01*
X137056134Y-84290213D01*
X137043346Y-84307456D01*
X137028930Y-84323362D01*
X137013024Y-84337778D01*
X136995781Y-84350566D01*
X136977368Y-84361602D01*
X136957962Y-84370781D01*
X136937750Y-84378013D01*
X136916926Y-84383229D01*
X136895691Y-84386379D01*
X136874250Y-84387432D01*
X136361750Y-84387432D01*
X136340309Y-84386379D01*
X136319074Y-84383229D01*
X136298250Y-84378013D01*
X136278038Y-84370781D01*
X136258632Y-84361602D01*
X136240219Y-84350566D01*
X136222976Y-84337778D01*
X136207070Y-84323362D01*
X136192654Y-84307456D01*
X136179866Y-84290213D01*
X136168830Y-84271800D01*
X136159651Y-84252394D01*
X136152419Y-84232182D01*
X136147203Y-84211358D01*
X136144053Y-84190123D01*
X136143000Y-84168682D01*
X136143000Y-83731182D01*
X136144053Y-83709741D01*
X136147203Y-83688506D01*
X136152419Y-83667682D01*
X136159651Y-83647470D01*
X136168830Y-83628064D01*
X136179866Y-83609651D01*
X136192654Y-83592408D01*
X136207070Y-83576502D01*
X136222976Y-83562086D01*
X136240219Y-83549298D01*
X136258632Y-83538262D01*
X136278038Y-83529083D01*
X136298250Y-83521851D01*
X136319074Y-83516635D01*
X136340309Y-83513485D01*
X136361750Y-83512432D01*
X136874250Y-83512432D01*
X136895691Y-83513485D01*
G37*
G36*
X136895691Y-81938485D02*
G01*
X136916926Y-81941635D01*
X136937750Y-81946851D01*
X136957962Y-81954083D01*
X136977368Y-81963262D01*
X136995781Y-81974298D01*
X137013024Y-81987086D01*
X137028930Y-82001502D01*
X137043346Y-82017408D01*
X137056134Y-82034651D01*
X137067170Y-82053064D01*
X137076349Y-82072470D01*
X137083581Y-82092682D01*
X137088797Y-82113506D01*
X137091947Y-82134741D01*
X137093000Y-82156182D01*
X137093000Y-82593682D01*
X137091947Y-82615123D01*
X137088797Y-82636358D01*
X137083581Y-82657182D01*
X137076349Y-82677394D01*
X137067170Y-82696800D01*
X137056134Y-82715213D01*
X137043346Y-82732456D01*
X137028930Y-82748362D01*
X137013024Y-82762778D01*
X136995781Y-82775566D01*
X136977368Y-82786602D01*
X136957962Y-82795781D01*
X136937750Y-82803013D01*
X136916926Y-82808229D01*
X136895691Y-82811379D01*
X136874250Y-82812432D01*
X136361750Y-82812432D01*
X136340309Y-82811379D01*
X136319074Y-82808229D01*
X136298250Y-82803013D01*
X136278038Y-82795781D01*
X136258632Y-82786602D01*
X136240219Y-82775566D01*
X136222976Y-82762778D01*
X136207070Y-82748362D01*
X136192654Y-82732456D01*
X136179866Y-82715213D01*
X136168830Y-82696800D01*
X136159651Y-82677394D01*
X136152419Y-82657182D01*
X136147203Y-82636358D01*
X136144053Y-82615123D01*
X136143000Y-82593682D01*
X136143000Y-82156182D01*
X136144053Y-82134741D01*
X136147203Y-82113506D01*
X136152419Y-82092682D01*
X136159651Y-82072470D01*
X136168830Y-82053064D01*
X136179866Y-82034651D01*
X136192654Y-82017408D01*
X136207070Y-82001502D01*
X136222976Y-81987086D01*
X136240219Y-81974298D01*
X136258632Y-81963262D01*
X136278038Y-81954083D01*
X136298250Y-81946851D01*
X136319074Y-81941635D01*
X136340309Y-81938485D01*
X136361750Y-81937432D01*
X136874250Y-81937432D01*
X136895691Y-81938485D01*
G37*
G36*
X142991691Y-83513485D02*
G01*
X143012926Y-83516635D01*
X143033750Y-83521851D01*
X143053962Y-83529083D01*
X143073368Y-83538262D01*
X143091781Y-83549298D01*
X143109024Y-83562086D01*
X143124930Y-83576502D01*
X143139346Y-83592408D01*
X143152134Y-83609651D01*
X143163170Y-83628064D01*
X143172349Y-83647470D01*
X143179581Y-83667682D01*
X143184797Y-83688506D01*
X143187947Y-83709741D01*
X143189000Y-83731182D01*
X143189000Y-84168682D01*
X143187947Y-84190123D01*
X143184797Y-84211358D01*
X143179581Y-84232182D01*
X143172349Y-84252394D01*
X143163170Y-84271800D01*
X143152134Y-84290213D01*
X143139346Y-84307456D01*
X143124930Y-84323362D01*
X143109024Y-84337778D01*
X143091781Y-84350566D01*
X143073368Y-84361602D01*
X143053962Y-84370781D01*
X143033750Y-84378013D01*
X143012926Y-84383229D01*
X142991691Y-84386379D01*
X142970250Y-84387432D01*
X142457750Y-84387432D01*
X142436309Y-84386379D01*
X142415074Y-84383229D01*
X142394250Y-84378013D01*
X142374038Y-84370781D01*
X142354632Y-84361602D01*
X142336219Y-84350566D01*
X142318976Y-84337778D01*
X142303070Y-84323362D01*
X142288654Y-84307456D01*
X142275866Y-84290213D01*
X142264830Y-84271800D01*
X142255651Y-84252394D01*
X142248419Y-84232182D01*
X142243203Y-84211358D01*
X142240053Y-84190123D01*
X142239000Y-84168682D01*
X142239000Y-83731182D01*
X142240053Y-83709741D01*
X142243203Y-83688506D01*
X142248419Y-83667682D01*
X142255651Y-83647470D01*
X142264830Y-83628064D01*
X142275866Y-83609651D01*
X142288654Y-83592408D01*
X142303070Y-83576502D01*
X142318976Y-83562086D01*
X142336219Y-83549298D01*
X142354632Y-83538262D01*
X142374038Y-83529083D01*
X142394250Y-83521851D01*
X142415074Y-83516635D01*
X142436309Y-83513485D01*
X142457750Y-83512432D01*
X142970250Y-83512432D01*
X142991691Y-83513485D01*
G37*
G36*
X142991691Y-81938485D02*
G01*
X143012926Y-81941635D01*
X143033750Y-81946851D01*
X143053962Y-81954083D01*
X143073368Y-81963262D01*
X143091781Y-81974298D01*
X143109024Y-81987086D01*
X143124930Y-82001502D01*
X143139346Y-82017408D01*
X143152134Y-82034651D01*
X143163170Y-82053064D01*
X143172349Y-82072470D01*
X143179581Y-82092682D01*
X143184797Y-82113506D01*
X143187947Y-82134741D01*
X143189000Y-82156182D01*
X143189000Y-82593682D01*
X143187947Y-82615123D01*
X143184797Y-82636358D01*
X143179581Y-82657182D01*
X143172349Y-82677394D01*
X143163170Y-82696800D01*
X143152134Y-82715213D01*
X143139346Y-82732456D01*
X143124930Y-82748362D01*
X143109024Y-82762778D01*
X143091781Y-82775566D01*
X143073368Y-82786602D01*
X143053962Y-82795781D01*
X143033750Y-82803013D01*
X143012926Y-82808229D01*
X142991691Y-82811379D01*
X142970250Y-82812432D01*
X142457750Y-82812432D01*
X142436309Y-82811379D01*
X142415074Y-82808229D01*
X142394250Y-82803013D01*
X142374038Y-82795781D01*
X142354632Y-82786602D01*
X142336219Y-82775566D01*
X142318976Y-82762778D01*
X142303070Y-82748362D01*
X142288654Y-82732456D01*
X142275866Y-82715213D01*
X142264830Y-82696800D01*
X142255651Y-82677394D01*
X142248419Y-82657182D01*
X142243203Y-82636358D01*
X142240053Y-82615123D01*
X142239000Y-82593682D01*
X142239000Y-82156182D01*
X142240053Y-82134741D01*
X142243203Y-82113506D01*
X142248419Y-82092682D01*
X142255651Y-82072470D01*
X142264830Y-82053064D01*
X142275866Y-82034651D01*
X142288654Y-82017408D01*
X142303070Y-82001502D01*
X142318976Y-81987086D01*
X142336219Y-81974298D01*
X142354632Y-81963262D01*
X142374038Y-81954083D01*
X142394250Y-81946851D01*
X142415074Y-81941635D01*
X142436309Y-81938485D01*
X142457750Y-81937432D01*
X142970250Y-81937432D01*
X142991691Y-81938485D01*
G37*
G36*
X146728264Y-95603857D02*
G01*
X146749499Y-95607007D01*
X146770323Y-95612223D01*
X146790535Y-95619455D01*
X146809941Y-95628634D01*
X146828354Y-95639670D01*
X146845597Y-95652458D01*
X146861503Y-95666874D01*
X147170862Y-95976233D01*
X147185278Y-95992139D01*
X147198066Y-96009382D01*
X147209102Y-96027795D01*
X147218281Y-96047201D01*
X147225513Y-96067413D01*
X147230729Y-96088237D01*
X147233879Y-96109472D01*
X147234932Y-96130913D01*
X147233879Y-96152354D01*
X147230729Y-96173589D01*
X147225513Y-96194413D01*
X147218281Y-96214625D01*
X147209102Y-96234031D01*
X147198066Y-96252444D01*
X147185278Y-96269687D01*
X147170862Y-96285593D01*
X146808469Y-96647986D01*
X146792563Y-96662402D01*
X146775320Y-96675190D01*
X146756907Y-96686226D01*
X146737501Y-96695405D01*
X146717289Y-96702637D01*
X146696465Y-96707853D01*
X146675230Y-96711003D01*
X146653789Y-96712056D01*
X146632348Y-96711003D01*
X146611113Y-96707853D01*
X146590289Y-96702637D01*
X146570077Y-96695405D01*
X146550671Y-96686226D01*
X146532258Y-96675190D01*
X146515015Y-96662402D01*
X146499109Y-96647986D01*
X146189750Y-96338627D01*
X146175334Y-96322721D01*
X146162546Y-96305478D01*
X146151510Y-96287065D01*
X146142331Y-96267659D01*
X146135099Y-96247447D01*
X146129883Y-96226623D01*
X146126733Y-96205388D01*
X146125680Y-96183947D01*
X146126733Y-96162506D01*
X146129883Y-96141271D01*
X146135099Y-96120447D01*
X146142331Y-96100235D01*
X146151510Y-96080829D01*
X146162546Y-96062416D01*
X146175334Y-96045173D01*
X146189750Y-96029267D01*
X146552143Y-95666874D01*
X146568049Y-95652458D01*
X146585292Y-95639670D01*
X146603705Y-95628634D01*
X146623111Y-95619455D01*
X146643323Y-95612223D01*
X146664147Y-95607007D01*
X146685382Y-95603857D01*
X146706823Y-95602804D01*
X146728264Y-95603857D01*
G37*
G36*
X147841958Y-96717551D02*
G01*
X147863193Y-96720701D01*
X147884017Y-96725917D01*
X147904229Y-96733149D01*
X147923635Y-96742328D01*
X147942048Y-96753364D01*
X147959291Y-96766152D01*
X147975197Y-96780568D01*
X148284556Y-97089927D01*
X148298972Y-97105833D01*
X148311760Y-97123076D01*
X148322796Y-97141489D01*
X148331975Y-97160895D01*
X148339207Y-97181107D01*
X148344423Y-97201931D01*
X148347573Y-97223166D01*
X148348626Y-97244607D01*
X148347573Y-97266048D01*
X148344423Y-97287283D01*
X148339207Y-97308107D01*
X148331975Y-97328319D01*
X148322796Y-97347725D01*
X148311760Y-97366138D01*
X148298972Y-97383381D01*
X148284556Y-97399287D01*
X147922163Y-97761680D01*
X147906257Y-97776096D01*
X147889014Y-97788884D01*
X147870601Y-97799920D01*
X147851195Y-97809099D01*
X147830983Y-97816331D01*
X147810159Y-97821547D01*
X147788924Y-97824697D01*
X147767483Y-97825750D01*
X147746042Y-97824697D01*
X147724807Y-97821547D01*
X147703983Y-97816331D01*
X147683771Y-97809099D01*
X147664365Y-97799920D01*
X147645952Y-97788884D01*
X147628709Y-97776096D01*
X147612803Y-97761680D01*
X147303444Y-97452321D01*
X147289028Y-97436415D01*
X147276240Y-97419172D01*
X147265204Y-97400759D01*
X147256025Y-97381353D01*
X147248793Y-97361141D01*
X147243577Y-97340317D01*
X147240427Y-97319082D01*
X147239374Y-97297641D01*
X147240427Y-97276200D01*
X147243577Y-97254965D01*
X147248793Y-97234141D01*
X147256025Y-97213929D01*
X147265204Y-97194523D01*
X147276240Y-97176110D01*
X147289028Y-97158867D01*
X147303444Y-97142961D01*
X147665837Y-96780568D01*
X147681743Y-96766152D01*
X147698986Y-96753364D01*
X147717399Y-96742328D01*
X147736805Y-96733149D01*
X147757017Y-96725917D01*
X147777841Y-96720701D01*
X147799076Y-96717551D01*
X147820517Y-96716498D01*
X147841958Y-96717551D01*
G37*
G36*
X138839191Y-95781177D02*
G01*
X138860426Y-95784327D01*
X138881250Y-95789543D01*
X138901462Y-95796775D01*
X138920868Y-95805954D01*
X138939281Y-95816990D01*
X138956524Y-95829778D01*
X138972430Y-95844194D01*
X138986846Y-95860100D01*
X138999634Y-95877343D01*
X139010670Y-95895756D01*
X139019849Y-95915162D01*
X139027081Y-95935374D01*
X139032297Y-95956198D01*
X139035447Y-95977433D01*
X139036500Y-95998874D01*
X139036500Y-96511374D01*
X139035447Y-96532815D01*
X139032297Y-96554050D01*
X139027081Y-96574874D01*
X139019849Y-96595086D01*
X139010670Y-96614492D01*
X138999634Y-96632905D01*
X138986846Y-96650148D01*
X138972430Y-96666054D01*
X138956524Y-96680470D01*
X138939281Y-96693258D01*
X138920868Y-96704294D01*
X138901462Y-96713473D01*
X138881250Y-96720705D01*
X138860426Y-96725921D01*
X138839191Y-96729071D01*
X138817750Y-96730124D01*
X138380250Y-96730124D01*
X138358809Y-96729071D01*
X138337574Y-96725921D01*
X138316750Y-96720705D01*
X138296538Y-96713473D01*
X138277132Y-96704294D01*
X138258719Y-96693258D01*
X138241476Y-96680470D01*
X138225570Y-96666054D01*
X138211154Y-96650148D01*
X138198366Y-96632905D01*
X138187330Y-96614492D01*
X138178151Y-96595086D01*
X138170919Y-96574874D01*
X138165703Y-96554050D01*
X138162553Y-96532815D01*
X138161500Y-96511374D01*
X138161500Y-95998874D01*
X138162553Y-95977433D01*
X138165703Y-95956198D01*
X138170919Y-95935374D01*
X138178151Y-95915162D01*
X138187330Y-95895756D01*
X138198366Y-95877343D01*
X138211154Y-95860100D01*
X138225570Y-95844194D01*
X138241476Y-95829778D01*
X138258719Y-95816990D01*
X138277132Y-95805954D01*
X138296538Y-95796775D01*
X138316750Y-95789543D01*
X138337574Y-95784327D01*
X138358809Y-95781177D01*
X138380250Y-95780124D01*
X138817750Y-95780124D01*
X138839191Y-95781177D01*
G37*
G36*
X140414191Y-95781177D02*
G01*
X140435426Y-95784327D01*
X140456250Y-95789543D01*
X140476462Y-95796775D01*
X140495868Y-95805954D01*
X140514281Y-95816990D01*
X140531524Y-95829778D01*
X140547430Y-95844194D01*
X140561846Y-95860100D01*
X140574634Y-95877343D01*
X140585670Y-95895756D01*
X140594849Y-95915162D01*
X140602081Y-95935374D01*
X140607297Y-95956198D01*
X140610447Y-95977433D01*
X140611500Y-95998874D01*
X140611500Y-96511374D01*
X140610447Y-96532815D01*
X140607297Y-96554050D01*
X140602081Y-96574874D01*
X140594849Y-96595086D01*
X140585670Y-96614492D01*
X140574634Y-96632905D01*
X140561846Y-96650148D01*
X140547430Y-96666054D01*
X140531524Y-96680470D01*
X140514281Y-96693258D01*
X140495868Y-96704294D01*
X140476462Y-96713473D01*
X140456250Y-96720705D01*
X140435426Y-96725921D01*
X140414191Y-96729071D01*
X140392750Y-96730124D01*
X139955250Y-96730124D01*
X139933809Y-96729071D01*
X139912574Y-96725921D01*
X139891750Y-96720705D01*
X139871538Y-96713473D01*
X139852132Y-96704294D01*
X139833719Y-96693258D01*
X139816476Y-96680470D01*
X139800570Y-96666054D01*
X139786154Y-96650148D01*
X139773366Y-96632905D01*
X139762330Y-96614492D01*
X139753151Y-96595086D01*
X139745919Y-96574874D01*
X139740703Y-96554050D01*
X139737553Y-96532815D01*
X139736500Y-96511374D01*
X139736500Y-95998874D01*
X139737553Y-95977433D01*
X139740703Y-95956198D01*
X139745919Y-95935374D01*
X139753151Y-95915162D01*
X139762330Y-95895756D01*
X139773366Y-95877343D01*
X139786154Y-95860100D01*
X139800570Y-95844194D01*
X139816476Y-95829778D01*
X139833719Y-95816990D01*
X139852132Y-95805954D01*
X139871538Y-95796775D01*
X139891750Y-95789543D01*
X139912574Y-95784327D01*
X139933809Y-95781177D01*
X139955250Y-95780124D01*
X140392750Y-95780124D01*
X140414191Y-95781177D01*
G37*
G36*
X133617958Y-110990398D02*
G01*
X133639193Y-110993548D01*
X133660017Y-110998764D01*
X133680229Y-111005996D01*
X133699635Y-111015175D01*
X133718048Y-111026211D01*
X133735291Y-111038999D01*
X133751197Y-111053415D01*
X134060556Y-111362774D01*
X134074972Y-111378680D01*
X134087760Y-111395923D01*
X134098796Y-111414336D01*
X134107975Y-111433742D01*
X134115207Y-111453954D01*
X134120423Y-111474778D01*
X134123573Y-111496013D01*
X134124626Y-111517454D01*
X134123573Y-111538895D01*
X134120423Y-111560130D01*
X134115207Y-111580954D01*
X134107975Y-111601166D01*
X134098796Y-111620572D01*
X134087760Y-111638985D01*
X134074972Y-111656228D01*
X134060556Y-111672134D01*
X133698163Y-112034527D01*
X133682257Y-112048943D01*
X133665014Y-112061731D01*
X133646601Y-112072767D01*
X133627195Y-112081946D01*
X133606983Y-112089178D01*
X133586159Y-112094394D01*
X133564924Y-112097544D01*
X133543483Y-112098597D01*
X133522042Y-112097544D01*
X133500807Y-112094394D01*
X133479983Y-112089178D01*
X133459771Y-112081946D01*
X133440365Y-112072767D01*
X133421952Y-112061731D01*
X133404709Y-112048943D01*
X133388803Y-112034527D01*
X133079444Y-111725168D01*
X133065028Y-111709262D01*
X133052240Y-111692019D01*
X133041204Y-111673606D01*
X133032025Y-111654200D01*
X133024793Y-111633988D01*
X133019577Y-111613164D01*
X133016427Y-111591929D01*
X133015374Y-111570488D01*
X133016427Y-111549047D01*
X133019577Y-111527812D01*
X133024793Y-111506988D01*
X133032025Y-111486776D01*
X133041204Y-111467370D01*
X133052240Y-111448957D01*
X133065028Y-111431714D01*
X133079444Y-111415808D01*
X133441837Y-111053415D01*
X133457743Y-111038999D01*
X133474986Y-111026211D01*
X133493399Y-111015175D01*
X133512805Y-111005996D01*
X133533017Y-110998764D01*
X133553841Y-110993548D01*
X133575076Y-110990398D01*
X133596517Y-110989345D01*
X133617958Y-110990398D01*
G37*
G36*
X132504264Y-109876704D02*
G01*
X132525499Y-109879854D01*
X132546323Y-109885070D01*
X132566535Y-109892302D01*
X132585941Y-109901481D01*
X132604354Y-109912517D01*
X132621597Y-109925305D01*
X132637503Y-109939721D01*
X132946862Y-110249080D01*
X132961278Y-110264986D01*
X132974066Y-110282229D01*
X132985102Y-110300642D01*
X132994281Y-110320048D01*
X133001513Y-110340260D01*
X133006729Y-110361084D01*
X133009879Y-110382319D01*
X133010932Y-110403760D01*
X133009879Y-110425201D01*
X133006729Y-110446436D01*
X133001513Y-110467260D01*
X132994281Y-110487472D01*
X132985102Y-110506878D01*
X132974066Y-110525291D01*
X132961278Y-110542534D01*
X132946862Y-110558440D01*
X132584469Y-110920833D01*
X132568563Y-110935249D01*
X132551320Y-110948037D01*
X132532907Y-110959073D01*
X132513501Y-110968252D01*
X132493289Y-110975484D01*
X132472465Y-110980700D01*
X132451230Y-110983850D01*
X132429789Y-110984903D01*
X132408348Y-110983850D01*
X132387113Y-110980700D01*
X132366289Y-110975484D01*
X132346077Y-110968252D01*
X132326671Y-110959073D01*
X132308258Y-110948037D01*
X132291015Y-110935249D01*
X132275109Y-110920833D01*
X131965750Y-110611474D01*
X131951334Y-110595568D01*
X131938546Y-110578325D01*
X131927510Y-110559912D01*
X131918331Y-110540506D01*
X131911099Y-110520294D01*
X131905883Y-110499470D01*
X131902733Y-110478235D01*
X131901680Y-110456794D01*
X131902733Y-110435353D01*
X131905883Y-110414118D01*
X131911099Y-110393294D01*
X131918331Y-110373082D01*
X131927510Y-110353676D01*
X131938546Y-110335263D01*
X131951334Y-110318020D01*
X131965750Y-110302114D01*
X132328143Y-109939721D01*
X132344049Y-109925305D01*
X132361292Y-109912517D01*
X132379705Y-109901481D01*
X132399111Y-109892302D01*
X132419323Y-109885070D01*
X132440147Y-109879854D01*
X132461382Y-109876704D01*
X132482823Y-109875651D01*
X132504264Y-109876704D01*
G37*
G36*
X146362618Y-109827857D02*
G01*
X146383853Y-109831007D01*
X146404677Y-109836223D01*
X146424889Y-109843455D01*
X146444295Y-109852634D01*
X146462708Y-109863670D01*
X146479951Y-109876458D01*
X146495857Y-109890874D01*
X146858250Y-110253267D01*
X146872666Y-110269173D01*
X146885454Y-110286416D01*
X146896490Y-110304829D01*
X146905669Y-110324235D01*
X146912901Y-110344447D01*
X146918117Y-110365271D01*
X146921267Y-110386506D01*
X146922320Y-110407947D01*
X146921267Y-110429388D01*
X146918117Y-110450623D01*
X146912901Y-110471447D01*
X146905669Y-110491659D01*
X146896490Y-110511065D01*
X146885454Y-110529478D01*
X146872666Y-110546721D01*
X146858250Y-110562627D01*
X146548891Y-110871986D01*
X146532985Y-110886402D01*
X146515742Y-110899190D01*
X146497329Y-110910226D01*
X146477923Y-110919405D01*
X146457711Y-110926637D01*
X146436887Y-110931853D01*
X146415652Y-110935003D01*
X146394211Y-110936056D01*
X146372770Y-110935003D01*
X146351535Y-110931853D01*
X146330711Y-110926637D01*
X146310499Y-110919405D01*
X146291093Y-110910226D01*
X146272680Y-110899190D01*
X146255437Y-110886402D01*
X146239531Y-110871986D01*
X145877138Y-110509593D01*
X145862722Y-110493687D01*
X145849934Y-110476444D01*
X145838898Y-110458031D01*
X145829719Y-110438625D01*
X145822487Y-110418413D01*
X145817271Y-110397589D01*
X145814121Y-110376354D01*
X145813068Y-110354913D01*
X145814121Y-110333472D01*
X145817271Y-110312237D01*
X145822487Y-110291413D01*
X145829719Y-110271201D01*
X145838898Y-110251795D01*
X145849934Y-110233382D01*
X145862722Y-110216139D01*
X145877138Y-110200233D01*
X146186497Y-109890874D01*
X146202403Y-109876458D01*
X146219646Y-109863670D01*
X146238059Y-109852634D01*
X146257465Y-109843455D01*
X146277677Y-109836223D01*
X146298501Y-109831007D01*
X146319736Y-109827857D01*
X146341177Y-109826804D01*
X146362618Y-109827857D01*
G37*
G36*
X145248924Y-110941551D02*
G01*
X145270159Y-110944701D01*
X145290983Y-110949917D01*
X145311195Y-110957149D01*
X145330601Y-110966328D01*
X145349014Y-110977364D01*
X145366257Y-110990152D01*
X145382163Y-111004568D01*
X145744556Y-111366961D01*
X145758972Y-111382867D01*
X145771760Y-111400110D01*
X145782796Y-111418523D01*
X145791975Y-111437929D01*
X145799207Y-111458141D01*
X145804423Y-111478965D01*
X145807573Y-111500200D01*
X145808626Y-111521641D01*
X145807573Y-111543082D01*
X145804423Y-111564317D01*
X145799207Y-111585141D01*
X145791975Y-111605353D01*
X145782796Y-111624759D01*
X145771760Y-111643172D01*
X145758972Y-111660415D01*
X145744556Y-111676321D01*
X145435197Y-111985680D01*
X145419291Y-112000096D01*
X145402048Y-112012884D01*
X145383635Y-112023920D01*
X145364229Y-112033099D01*
X145344017Y-112040331D01*
X145323193Y-112045547D01*
X145301958Y-112048697D01*
X145280517Y-112049750D01*
X145259076Y-112048697D01*
X145237841Y-112045547D01*
X145217017Y-112040331D01*
X145196805Y-112033099D01*
X145177399Y-112023920D01*
X145158986Y-112012884D01*
X145141743Y-112000096D01*
X145125837Y-111985680D01*
X144763444Y-111623287D01*
X144749028Y-111607381D01*
X144736240Y-111590138D01*
X144725204Y-111571725D01*
X144716025Y-111552319D01*
X144708793Y-111532107D01*
X144703577Y-111511283D01*
X144700427Y-111490048D01*
X144699374Y-111468607D01*
X144700427Y-111447166D01*
X144703577Y-111425931D01*
X144708793Y-111405107D01*
X144716025Y-111384895D01*
X144725204Y-111365489D01*
X144736240Y-111347076D01*
X144749028Y-111329833D01*
X144763444Y-111313927D01*
X145072803Y-111004568D01*
X145088709Y-110990152D01*
X145105952Y-110977364D01*
X145124365Y-110966328D01*
X145143771Y-110957149D01*
X145163983Y-110949917D01*
X145184807Y-110944701D01*
X145206042Y-110941551D01*
X145227483Y-110940498D01*
X145248924Y-110941551D01*
G37*
G36*
X132451230Y-98085245D02*
G01*
X132472465Y-98088395D01*
X132493289Y-98093611D01*
X132513501Y-98100843D01*
X132532907Y-98110022D01*
X132551320Y-98121058D01*
X132568563Y-98133846D01*
X132584469Y-98148262D01*
X132946862Y-98510655D01*
X132961278Y-98526561D01*
X132974066Y-98543804D01*
X132985102Y-98562217D01*
X132994281Y-98581623D01*
X133001513Y-98601835D01*
X133006729Y-98622659D01*
X133009879Y-98643894D01*
X133010932Y-98665335D01*
X133009879Y-98686776D01*
X133006729Y-98708011D01*
X133001513Y-98728835D01*
X132994281Y-98749047D01*
X132985102Y-98768453D01*
X132974066Y-98786866D01*
X132961278Y-98804109D01*
X132946862Y-98820015D01*
X132637503Y-99129374D01*
X132621597Y-99143790D01*
X132604354Y-99156578D01*
X132585941Y-99167614D01*
X132566535Y-99176793D01*
X132546323Y-99184025D01*
X132525499Y-99189241D01*
X132504264Y-99192391D01*
X132482823Y-99193444D01*
X132461382Y-99192391D01*
X132440147Y-99189241D01*
X132419323Y-99184025D01*
X132399111Y-99176793D01*
X132379705Y-99167614D01*
X132361292Y-99156578D01*
X132344049Y-99143790D01*
X132328143Y-99129374D01*
X131965750Y-98766981D01*
X131951334Y-98751075D01*
X131938546Y-98733832D01*
X131927510Y-98715419D01*
X131918331Y-98696013D01*
X131911099Y-98675801D01*
X131905883Y-98654977D01*
X131902733Y-98633742D01*
X131901680Y-98612301D01*
X131902733Y-98590860D01*
X131905883Y-98569625D01*
X131911099Y-98548801D01*
X131918331Y-98528589D01*
X131927510Y-98509183D01*
X131938546Y-98490770D01*
X131951334Y-98473527D01*
X131965750Y-98457621D01*
X132275109Y-98148262D01*
X132291015Y-98133846D01*
X132308258Y-98121058D01*
X132326671Y-98110022D01*
X132346077Y-98100843D01*
X132366289Y-98093611D01*
X132387113Y-98088395D01*
X132408348Y-98085245D01*
X132429789Y-98084192D01*
X132451230Y-98085245D01*
G37*
G36*
X133564924Y-96971551D02*
G01*
X133586159Y-96974701D01*
X133606983Y-96979917D01*
X133627195Y-96987149D01*
X133646601Y-96996328D01*
X133665014Y-97007364D01*
X133682257Y-97020152D01*
X133698163Y-97034568D01*
X134060556Y-97396961D01*
X134074972Y-97412867D01*
X134087760Y-97430110D01*
X134098796Y-97448523D01*
X134107975Y-97467929D01*
X134115207Y-97488141D01*
X134120423Y-97508965D01*
X134123573Y-97530200D01*
X134124626Y-97551641D01*
X134123573Y-97573082D01*
X134120423Y-97594317D01*
X134115207Y-97615141D01*
X134107975Y-97635353D01*
X134098796Y-97654759D01*
X134087760Y-97673172D01*
X134074972Y-97690415D01*
X134060556Y-97706321D01*
X133751197Y-98015680D01*
X133735291Y-98030096D01*
X133718048Y-98042884D01*
X133699635Y-98053920D01*
X133680229Y-98063099D01*
X133660017Y-98070331D01*
X133639193Y-98075547D01*
X133617958Y-98078697D01*
X133596517Y-98079750D01*
X133575076Y-98078697D01*
X133553841Y-98075547D01*
X133533017Y-98070331D01*
X133512805Y-98063099D01*
X133493399Y-98053920D01*
X133474986Y-98042884D01*
X133457743Y-98030096D01*
X133441837Y-98015680D01*
X133079444Y-97653287D01*
X133065028Y-97637381D01*
X133052240Y-97620138D01*
X133041204Y-97601725D01*
X133032025Y-97582319D01*
X133024793Y-97562107D01*
X133019577Y-97541283D01*
X133016427Y-97520048D01*
X133015374Y-97498607D01*
X133016427Y-97477166D01*
X133019577Y-97455931D01*
X133024793Y-97435107D01*
X133032025Y-97414895D01*
X133041204Y-97395489D01*
X133052240Y-97377076D01*
X133065028Y-97359833D01*
X133079444Y-97343927D01*
X133388803Y-97034568D01*
X133404709Y-97020152D01*
X133421952Y-97007364D01*
X133440365Y-96996328D01*
X133459771Y-96987149D01*
X133479983Y-96979917D01*
X133500807Y-96974701D01*
X133522042Y-96971551D01*
X133543483Y-96970498D01*
X133564924Y-96971551D01*
G37*
G36*
X145458264Y-96873857D02*
G01*
X145479499Y-96877007D01*
X145500323Y-96882223D01*
X145520535Y-96889455D01*
X145539941Y-96898634D01*
X145558354Y-96909670D01*
X145575597Y-96922458D01*
X145591503Y-96936874D01*
X145900862Y-97246233D01*
X145915278Y-97262139D01*
X145928066Y-97279382D01*
X145939102Y-97297795D01*
X145948281Y-97317201D01*
X145955513Y-97337413D01*
X145960729Y-97358237D01*
X145963879Y-97379472D01*
X145964932Y-97400913D01*
X145963879Y-97422354D01*
X145960729Y-97443589D01*
X145955513Y-97464413D01*
X145948281Y-97484625D01*
X145939102Y-97504031D01*
X145928066Y-97522444D01*
X145915278Y-97539687D01*
X145900862Y-97555593D01*
X145538469Y-97917986D01*
X145522563Y-97932402D01*
X145505320Y-97945190D01*
X145486907Y-97956226D01*
X145467501Y-97965405D01*
X145447289Y-97972637D01*
X145426465Y-97977853D01*
X145405230Y-97981003D01*
X145383789Y-97982056D01*
X145362348Y-97981003D01*
X145341113Y-97977853D01*
X145320289Y-97972637D01*
X145300077Y-97965405D01*
X145280671Y-97956226D01*
X145262258Y-97945190D01*
X145245015Y-97932402D01*
X145229109Y-97917986D01*
X144919750Y-97608627D01*
X144905334Y-97592721D01*
X144892546Y-97575478D01*
X144881510Y-97557065D01*
X144872331Y-97537659D01*
X144865099Y-97517447D01*
X144859883Y-97496623D01*
X144856733Y-97475388D01*
X144855680Y-97453947D01*
X144856733Y-97432506D01*
X144859883Y-97411271D01*
X144865099Y-97390447D01*
X144872331Y-97370235D01*
X144881510Y-97350829D01*
X144892546Y-97332416D01*
X144905334Y-97315173D01*
X144919750Y-97299267D01*
X145282143Y-96936874D01*
X145298049Y-96922458D01*
X145315292Y-96909670D01*
X145333705Y-96898634D01*
X145353111Y-96889455D01*
X145373323Y-96882223D01*
X145394147Y-96877007D01*
X145415382Y-96873857D01*
X145436823Y-96872804D01*
X145458264Y-96873857D01*
G37*
G36*
X146571958Y-97987551D02*
G01*
X146593193Y-97990701D01*
X146614017Y-97995917D01*
X146634229Y-98003149D01*
X146653635Y-98012328D01*
X146672048Y-98023364D01*
X146689291Y-98036152D01*
X146705197Y-98050568D01*
X147014556Y-98359927D01*
X147028972Y-98375833D01*
X147041760Y-98393076D01*
X147052796Y-98411489D01*
X147061975Y-98430895D01*
X147069207Y-98451107D01*
X147074423Y-98471931D01*
X147077573Y-98493166D01*
X147078626Y-98514607D01*
X147077573Y-98536048D01*
X147074423Y-98557283D01*
X147069207Y-98578107D01*
X147061975Y-98598319D01*
X147052796Y-98617725D01*
X147041760Y-98636138D01*
X147028972Y-98653381D01*
X147014556Y-98669287D01*
X146652163Y-99031680D01*
X146636257Y-99046096D01*
X146619014Y-99058884D01*
X146600601Y-99069920D01*
X146581195Y-99079099D01*
X146560983Y-99086331D01*
X146540159Y-99091547D01*
X146518924Y-99094697D01*
X146497483Y-99095750D01*
X146476042Y-99094697D01*
X146454807Y-99091547D01*
X146433983Y-99086331D01*
X146413771Y-99079099D01*
X146394365Y-99069920D01*
X146375952Y-99058884D01*
X146358709Y-99046096D01*
X146342803Y-99031680D01*
X146033444Y-98722321D01*
X146019028Y-98706415D01*
X146006240Y-98689172D01*
X145995204Y-98670759D01*
X145986025Y-98651353D01*
X145978793Y-98631141D01*
X145973577Y-98610317D01*
X145970427Y-98589082D01*
X145969374Y-98567641D01*
X145970427Y-98546200D01*
X145973577Y-98524965D01*
X145978793Y-98504141D01*
X145986025Y-98483929D01*
X145995204Y-98464523D01*
X146006240Y-98446110D01*
X146019028Y-98428867D01*
X146033444Y-98412961D01*
X146395837Y-98050568D01*
X146411743Y-98036152D01*
X146428986Y-98023364D01*
X146447399Y-98012328D01*
X146466805Y-98003149D01*
X146487017Y-97995917D01*
X146507841Y-97990701D01*
X146529076Y-97987551D01*
X146550517Y-97986498D01*
X146571958Y-97987551D01*
G37*
G36*
X150704191Y-100283177D02*
G01*
X150725426Y-100286327D01*
X150746250Y-100291543D01*
X150766462Y-100298775D01*
X150785868Y-100307954D01*
X150804281Y-100318990D01*
X150821524Y-100331778D01*
X150837430Y-100346194D01*
X150851846Y-100362100D01*
X150864634Y-100379343D01*
X150875670Y-100397756D01*
X150884849Y-100417162D01*
X150892081Y-100437374D01*
X150897297Y-100458198D01*
X150900447Y-100479433D01*
X150901500Y-100500874D01*
X150901500Y-101013374D01*
X150900447Y-101034815D01*
X150897297Y-101056050D01*
X150892081Y-101076874D01*
X150884849Y-101097086D01*
X150875670Y-101116492D01*
X150864634Y-101134905D01*
X150851846Y-101152148D01*
X150837430Y-101168054D01*
X150821524Y-101182470D01*
X150804281Y-101195258D01*
X150785868Y-101206294D01*
X150766462Y-101215473D01*
X150746250Y-101222705D01*
X150725426Y-101227921D01*
X150704191Y-101231071D01*
X150682750Y-101232124D01*
X150245250Y-101232124D01*
X150223809Y-101231071D01*
X150202574Y-101227921D01*
X150181750Y-101222705D01*
X150161538Y-101215473D01*
X150142132Y-101206294D01*
X150123719Y-101195258D01*
X150106476Y-101182470D01*
X150090570Y-101168054D01*
X150076154Y-101152148D01*
X150063366Y-101134905D01*
X150052330Y-101116492D01*
X150043151Y-101097086D01*
X150035919Y-101076874D01*
X150030703Y-101056050D01*
X150027553Y-101034815D01*
X150026500Y-101013374D01*
X150026500Y-100500874D01*
X150027553Y-100479433D01*
X150030703Y-100458198D01*
X150035919Y-100437374D01*
X150043151Y-100417162D01*
X150052330Y-100397756D01*
X150063366Y-100379343D01*
X150076154Y-100362100D01*
X150090570Y-100346194D01*
X150106476Y-100331778D01*
X150123719Y-100318990D01*
X150142132Y-100307954D01*
X150161538Y-100298775D01*
X150181750Y-100291543D01*
X150202574Y-100286327D01*
X150223809Y-100283177D01*
X150245250Y-100282124D01*
X150682750Y-100282124D01*
X150704191Y-100283177D01*
G37*
G36*
X152279191Y-100283177D02*
G01*
X152300426Y-100286327D01*
X152321250Y-100291543D01*
X152341462Y-100298775D01*
X152360868Y-100307954D01*
X152379281Y-100318990D01*
X152396524Y-100331778D01*
X152412430Y-100346194D01*
X152426846Y-100362100D01*
X152439634Y-100379343D01*
X152450670Y-100397756D01*
X152459849Y-100417162D01*
X152467081Y-100437374D01*
X152472297Y-100458198D01*
X152475447Y-100479433D01*
X152476500Y-100500874D01*
X152476500Y-101013374D01*
X152475447Y-101034815D01*
X152472297Y-101056050D01*
X152467081Y-101076874D01*
X152459849Y-101097086D01*
X152450670Y-101116492D01*
X152439634Y-101134905D01*
X152426846Y-101152148D01*
X152412430Y-101168054D01*
X152396524Y-101182470D01*
X152379281Y-101195258D01*
X152360868Y-101206294D01*
X152341462Y-101215473D01*
X152321250Y-101222705D01*
X152300426Y-101227921D01*
X152279191Y-101231071D01*
X152257750Y-101232124D01*
X151820250Y-101232124D01*
X151798809Y-101231071D01*
X151777574Y-101227921D01*
X151756750Y-101222705D01*
X151736538Y-101215473D01*
X151717132Y-101206294D01*
X151698719Y-101195258D01*
X151681476Y-101182470D01*
X151665570Y-101168054D01*
X151651154Y-101152148D01*
X151638366Y-101134905D01*
X151627330Y-101116492D01*
X151618151Y-101097086D01*
X151610919Y-101076874D01*
X151605703Y-101056050D01*
X151602553Y-101034815D01*
X151601500Y-101013374D01*
X151601500Y-100500874D01*
X151602553Y-100479433D01*
X151605703Y-100458198D01*
X151610919Y-100437374D01*
X151618151Y-100417162D01*
X151627330Y-100397756D01*
X151638366Y-100379343D01*
X151651154Y-100362100D01*
X151665570Y-100346194D01*
X151681476Y-100331778D01*
X151698719Y-100318990D01*
X151717132Y-100307954D01*
X151736538Y-100298775D01*
X151756750Y-100291543D01*
X151777574Y-100286327D01*
X151798809Y-100283177D01*
X151820250Y-100282124D01*
X152257750Y-100282124D01*
X152279191Y-100283177D01*
G37*
G36*
X152279191Y-107649177D02*
G01*
X152300426Y-107652327D01*
X152321250Y-107657543D01*
X152341462Y-107664775D01*
X152360868Y-107673954D01*
X152379281Y-107684990D01*
X152396524Y-107697778D01*
X152412430Y-107712194D01*
X152426846Y-107728100D01*
X152439634Y-107745343D01*
X152450670Y-107763756D01*
X152459849Y-107783162D01*
X152467081Y-107803374D01*
X152472297Y-107824198D01*
X152475447Y-107845433D01*
X152476500Y-107866874D01*
X152476500Y-108379374D01*
X152475447Y-108400815D01*
X152472297Y-108422050D01*
X152467081Y-108442874D01*
X152459849Y-108463086D01*
X152450670Y-108482492D01*
X152439634Y-108500905D01*
X152426846Y-108518148D01*
X152412430Y-108534054D01*
X152396524Y-108548470D01*
X152379281Y-108561258D01*
X152360868Y-108572294D01*
X152341462Y-108581473D01*
X152321250Y-108588705D01*
X152300426Y-108593921D01*
X152279191Y-108597071D01*
X152257750Y-108598124D01*
X151820250Y-108598124D01*
X151798809Y-108597071D01*
X151777574Y-108593921D01*
X151756750Y-108588705D01*
X151736538Y-108581473D01*
X151717132Y-108572294D01*
X151698719Y-108561258D01*
X151681476Y-108548470D01*
X151665570Y-108534054D01*
X151651154Y-108518148D01*
X151638366Y-108500905D01*
X151627330Y-108482492D01*
X151618151Y-108463086D01*
X151610919Y-108442874D01*
X151605703Y-108422050D01*
X151602553Y-108400815D01*
X151601500Y-108379374D01*
X151601500Y-107866874D01*
X151602553Y-107845433D01*
X151605703Y-107824198D01*
X151610919Y-107803374D01*
X151618151Y-107783162D01*
X151627330Y-107763756D01*
X151638366Y-107745343D01*
X151651154Y-107728100D01*
X151665570Y-107712194D01*
X151681476Y-107697778D01*
X151698719Y-107684990D01*
X151717132Y-107673954D01*
X151736538Y-107664775D01*
X151756750Y-107657543D01*
X151777574Y-107652327D01*
X151798809Y-107649177D01*
X151820250Y-107648124D01*
X152257750Y-107648124D01*
X152279191Y-107649177D01*
G37*
G36*
X150704191Y-107649177D02*
G01*
X150725426Y-107652327D01*
X150746250Y-107657543D01*
X150766462Y-107664775D01*
X150785868Y-107673954D01*
X150804281Y-107684990D01*
X150821524Y-107697778D01*
X150837430Y-107712194D01*
X150851846Y-107728100D01*
X150864634Y-107745343D01*
X150875670Y-107763756D01*
X150884849Y-107783162D01*
X150892081Y-107803374D01*
X150897297Y-107824198D01*
X150900447Y-107845433D01*
X150901500Y-107866874D01*
X150901500Y-108379374D01*
X150900447Y-108400815D01*
X150897297Y-108422050D01*
X150892081Y-108442874D01*
X150884849Y-108463086D01*
X150875670Y-108482492D01*
X150864634Y-108500905D01*
X150851846Y-108518148D01*
X150837430Y-108534054D01*
X150821524Y-108548470D01*
X150804281Y-108561258D01*
X150785868Y-108572294D01*
X150766462Y-108581473D01*
X150746250Y-108588705D01*
X150725426Y-108593921D01*
X150704191Y-108597071D01*
X150682750Y-108598124D01*
X150245250Y-108598124D01*
X150223809Y-108597071D01*
X150202574Y-108593921D01*
X150181750Y-108588705D01*
X150161538Y-108581473D01*
X150142132Y-108572294D01*
X150123719Y-108561258D01*
X150106476Y-108548470D01*
X150090570Y-108534054D01*
X150076154Y-108518148D01*
X150063366Y-108500905D01*
X150052330Y-108482492D01*
X150043151Y-108463086D01*
X150035919Y-108442874D01*
X150030703Y-108422050D01*
X150027553Y-108400815D01*
X150026500Y-108379374D01*
X150026500Y-107866874D01*
X150027553Y-107845433D01*
X150030703Y-107824198D01*
X150035919Y-107803374D01*
X150043151Y-107783162D01*
X150052330Y-107763756D01*
X150063366Y-107745343D01*
X150076154Y-107728100D01*
X150090570Y-107712194D01*
X150106476Y-107697778D01*
X150123719Y-107684990D01*
X150142132Y-107673954D01*
X150161538Y-107664775D01*
X150181750Y-107657543D01*
X150202574Y-107652327D01*
X150223809Y-107649177D01*
X150245250Y-107648124D01*
X150682750Y-107648124D01*
X150704191Y-107649177D01*
G37*
D16*
X152102440Y-105497124D03*
X152102440Y-103297124D03*
X150402440Y-103297124D03*
X150402440Y-105497124D03*
D17*
X142877503Y-78853648D03*
X136427503Y-78853648D03*
X142102503Y-78853648D03*
X137202503Y-78853648D03*
D18*
X137902503Y-78853648D03*
X141402503Y-78853648D03*
X138402503Y-78853648D03*
X140902503Y-78853648D03*
X138902503Y-78853648D03*
X140402503Y-78853648D03*
X139902503Y-78853648D03*
X139402503Y-78853648D03*
D19*
X142542503Y-77408648D03*
X136762503Y-77408648D03*
D20*
X133736693Y-100496232D03*
X133736693Y-101296232D03*
X133736693Y-102096232D03*
X133736693Y-102896232D03*
X133736693Y-103696232D03*
X133736693Y-104496232D03*
X133736693Y-105296232D03*
X133736693Y-106096232D03*
X133736693Y-106896232D03*
X133736693Y-107696232D03*
X133736693Y-108496232D03*
D21*
X135436693Y-110196232D03*
X136236693Y-110196232D03*
X137036693Y-110196232D03*
X137836693Y-110196232D03*
X138636693Y-110196232D03*
X139436693Y-110196232D03*
X140236693Y-110196232D03*
X141036693Y-110196232D03*
X141836693Y-110196232D03*
X142636693Y-110196232D03*
X143436693Y-110196232D03*
D20*
X145136693Y-108496232D03*
X145136693Y-107696232D03*
X145136693Y-106896232D03*
X145136693Y-106096232D03*
X145136693Y-105296232D03*
X145136693Y-104496232D03*
X145136693Y-103696232D03*
X145136693Y-102896232D03*
X145136693Y-102096232D03*
X145136693Y-101296232D03*
X145136693Y-100496232D03*
D21*
X143436693Y-98796232D03*
X142636693Y-98796232D03*
X141836693Y-98796232D03*
X141036693Y-98796232D03*
X140236693Y-98796232D03*
X139436693Y-98796232D03*
X138636693Y-98796232D03*
X137836693Y-98796232D03*
X137036693Y-98796232D03*
X136236693Y-98796232D03*
X135436693Y-98796232D03*
D22*
X144310000Y-87059124D03*
X140610000Y-93259124D03*
X140610000Y-87059124D03*
X144310000Y-93259124D03*
D13*
X249011203Y-120187450D03*
D14*
X247391924Y-125631340D03*
D13*
X243198740Y-123791528D03*
D15*
X242389101Y-126513473D03*
X252394747Y-124749207D03*
D13*
X229423567Y-118805299D03*
D14*
X227804288Y-124249189D03*
D13*
X223611104Y-122409377D03*
D15*
X222801465Y-125131322D03*
X232807111Y-123367056D03*
D13*
X209491346Y-115468913D03*
D14*
X207872067Y-120912803D03*
D13*
X203678883Y-119072991D03*
D15*
X202869244Y-121794936D03*
X212874890Y-120030670D03*
D13*
X191902298Y-125421311D03*
D14*
X190283019Y-130865201D03*
D13*
X186089835Y-129025389D03*
D15*
X185280196Y-131747334D03*
X195285842Y-129983068D03*
D13*
X174313248Y-135373709D03*
D14*
X172693969Y-140817599D03*
D13*
X168500785Y-138977787D03*
D15*
X167691146Y-141699732D03*
X177696792Y-139935466D03*
D13*
X153898609Y-129301397D03*
D14*
X152279330Y-134745287D03*
D13*
X148086146Y-132905475D03*
D15*
X147276507Y-135627420D03*
X157282153Y-133863154D03*
X132001353Y-135661503D03*
X121995707Y-133897237D03*
D13*
X123687479Y-131616359D03*
D14*
X126998530Y-134779370D03*
D13*
X130382074Y-130217613D03*
X109967434Y-136289925D03*
D14*
X106583890Y-140851682D03*
D13*
X103272839Y-137688671D03*
D15*
X101581067Y-139969549D03*
X111586713Y-141733815D03*
D13*
X92378386Y-126337527D03*
D14*
X88994842Y-130899284D03*
D13*
X85683791Y-127736273D03*
D15*
X83992019Y-130017151D03*
X93997665Y-131781417D03*
D13*
X74789337Y-116385129D03*
D14*
X71405793Y-120946886D03*
D13*
X68094742Y-117783875D03*
D15*
X66402970Y-120064753D03*
X76408616Y-121829019D03*
D13*
X35269480Y-121103668D03*
D14*
X31885936Y-125665425D03*
D13*
X28574885Y-122502414D03*
D15*
X26883113Y-124783292D03*
X36888759Y-126547558D03*
D13*
X245703197Y-101426816D03*
D14*
X244083918Y-106870706D03*
D13*
X239890734Y-105030894D03*
D15*
X239081095Y-107752839D03*
X249086741Y-105988573D03*
D13*
X226115562Y-100044663D03*
D14*
X224496283Y-105488553D03*
D13*
X220303099Y-103648741D03*
D15*
X219493460Y-106370686D03*
X229499106Y-104606420D03*
D13*
X206183340Y-96708278D03*
D14*
X204564061Y-102152168D03*
D13*
X200370877Y-100312356D03*
D15*
X199561238Y-103034301D03*
X209566884Y-101270035D03*
D13*
X188594292Y-106660675D03*
D14*
X186975013Y-112104565D03*
D13*
X182781829Y-110264753D03*
D15*
X181972190Y-112986698D03*
X191977836Y-111222432D03*
D13*
X171005241Y-116613073D03*
D14*
X169385962Y-122056963D03*
D13*
X165192778Y-120217151D03*
D15*
X164383139Y-122939096D03*
X174388785Y-121174830D03*
D13*
X113275441Y-117529289D03*
D14*
X109891897Y-122091046D03*
D13*
X106580846Y-118928035D03*
D15*
X104889074Y-121208913D03*
X114894720Y-122973179D03*
D13*
X95686391Y-107576892D03*
D14*
X92302847Y-112138649D03*
D13*
X88991796Y-108975638D03*
D15*
X87300024Y-111256516D03*
X97305670Y-113020782D03*
D13*
X78097343Y-97624496D03*
D14*
X74713799Y-102186253D03*
D13*
X71402748Y-99023242D03*
D15*
X69710976Y-101304120D03*
X79716622Y-103068386D03*
D13*
X58165123Y-100960880D03*
D14*
X54781579Y-105522637D03*
D13*
X51470528Y-102359626D03*
D15*
X49778756Y-104640504D03*
X59784402Y-106404770D03*
D13*
X38577486Y-102343032D03*
D14*
X35193942Y-106904789D03*
D13*
X31882891Y-103741778D03*
D15*
X30191119Y-106022656D03*
X40196765Y-107786922D03*
D13*
X242395191Y-82666181D03*
D14*
X240775912Y-88110071D03*
D13*
X236582728Y-86270259D03*
D15*
X235773089Y-88992204D03*
X245778735Y-87227938D03*
D13*
X222807556Y-81284028D03*
D14*
X221188277Y-86727918D03*
D13*
X216995093Y-84888106D03*
D15*
X216185454Y-87610051D03*
X226191100Y-85845785D03*
D13*
X202875334Y-77947643D03*
D14*
X201256055Y-83391533D03*
D13*
X197062871Y-81551721D03*
D15*
X196253232Y-84273666D03*
X206258878Y-82509400D03*
D13*
X185286286Y-87900041D03*
D14*
X183667007Y-93343931D03*
D13*
X179473823Y-91504119D03*
D15*
X178664184Y-94226064D03*
X188669830Y-92461798D03*
D13*
X167697235Y-97852439D03*
D14*
X166077956Y-103296329D03*
D13*
X161884772Y-101456517D03*
D15*
X161075133Y-104178462D03*
X171080779Y-102414196D03*
D13*
X116583447Y-98768655D03*
D14*
X113199903Y-103330412D03*
D13*
X109888852Y-100167401D03*
D15*
X108197080Y-102448279D03*
X118202726Y-104212545D03*
D13*
X98994398Y-88816258D03*
D14*
X95610854Y-93378015D03*
D13*
X92299803Y-90215004D03*
D15*
X90608031Y-92495882D03*
X100613677Y-94260148D03*
D13*
X81405349Y-78863860D03*
D14*
X78021805Y-83425617D03*
D13*
X74710754Y-80262606D03*
D15*
X73018982Y-82543484D03*
X83024628Y-84307750D03*
D13*
X61473129Y-82200245D03*
D14*
X58089585Y-86762002D03*
D13*
X54778534Y-83598991D03*
D15*
X53086762Y-85879869D03*
X63092408Y-87644135D03*
D13*
X41885492Y-83582398D03*
D14*
X38501948Y-88144155D03*
D13*
X35190897Y-84981144D03*
D15*
X33499125Y-87262022D03*
X43504771Y-89026288D03*
D13*
X239087185Y-63905546D03*
D14*
X237467906Y-69349436D03*
D13*
X233274722Y-67509624D03*
D15*
X232465083Y-70231569D03*
X242470729Y-68467303D03*
D13*
X219499548Y-62523393D03*
D14*
X217880269Y-67967283D03*
D13*
X213687085Y-66127471D03*
D15*
X212877446Y-68849416D03*
X222883092Y-67085150D03*
D13*
X199567329Y-59187008D03*
D14*
X197948050Y-64630898D03*
D13*
X193754866Y-62791086D03*
D15*
X192945227Y-65513031D03*
X202950873Y-63748765D03*
D13*
X181978280Y-69139405D03*
D14*
X180359001Y-74583295D03*
D13*
X176165817Y-72743483D03*
D15*
X175356178Y-75465428D03*
X185361824Y-73701162D03*
D13*
X164389230Y-79091803D03*
D14*
X162769951Y-84535693D03*
D13*
X158576767Y-82695881D03*
D15*
X157767128Y-85417826D03*
X167772774Y-83653560D03*
D13*
X119891453Y-80008020D03*
D14*
X116507909Y-84569777D03*
D13*
X113196858Y-81406766D03*
D15*
X111505086Y-83687644D03*
X121510732Y-85451910D03*
D13*
X102302403Y-70055622D03*
D14*
X98918859Y-74617379D03*
D13*
X95607808Y-71454368D03*
D15*
X93916036Y-73735246D03*
X103921682Y-75499512D03*
D13*
X84713356Y-60103226D03*
D14*
X81329812Y-64664983D03*
D13*
X78018761Y-61501972D03*
D15*
X76326989Y-63782850D03*
X86332635Y-65547116D03*
D13*
X64781135Y-63439610D03*
D14*
X61397591Y-68001367D03*
D13*
X58086540Y-64838356D03*
D15*
X56394768Y-67119234D03*
X66400414Y-68883500D03*
D13*
X45193498Y-64821763D03*
D14*
X41809954Y-69383520D03*
D13*
X38498903Y-66220509D03*
D15*
X36807131Y-68501387D03*
X46812777Y-70265653D03*
D12*
G36*
X134981504Y-84715328D02*
G01*
X135005773Y-84718928D01*
X135029571Y-84724889D01*
X135052671Y-84733154D01*
X135074849Y-84743644D01*
X135095893Y-84756257D01*
X135115598Y-84770871D01*
X135133777Y-84787347D01*
X135150253Y-84805526D01*
X135164867Y-84825231D01*
X135177480Y-84846275D01*
X135187970Y-84868453D01*
X135196235Y-84891553D01*
X135202196Y-84915351D01*
X135205796Y-84939620D01*
X135207000Y-84964124D01*
X135207000Y-85714124D01*
X135205796Y-85738628D01*
X135202196Y-85762897D01*
X135196235Y-85786695D01*
X135187970Y-85809795D01*
X135177480Y-85831973D01*
X135164867Y-85853017D01*
X135150253Y-85872722D01*
X135133777Y-85890901D01*
X135115598Y-85907377D01*
X135095893Y-85921991D01*
X135074849Y-85934604D01*
X135052671Y-85945094D01*
X135029571Y-85953359D01*
X135005773Y-85959320D01*
X134981504Y-85962920D01*
X134957000Y-85964124D01*
X133707000Y-85964124D01*
X133682496Y-85962920D01*
X133658227Y-85959320D01*
X133634429Y-85953359D01*
X133611329Y-85945094D01*
X133589151Y-85934604D01*
X133568107Y-85921991D01*
X133548402Y-85907377D01*
X133530223Y-85890901D01*
X133513747Y-85872722D01*
X133499133Y-85853017D01*
X133486520Y-85831973D01*
X133476030Y-85809795D01*
X133467765Y-85786695D01*
X133461804Y-85762897D01*
X133458204Y-85738628D01*
X133457000Y-85714124D01*
X133457000Y-84964124D01*
X133458204Y-84939620D01*
X133461804Y-84915351D01*
X133467765Y-84891553D01*
X133476030Y-84868453D01*
X133486520Y-84846275D01*
X133499133Y-84825231D01*
X133513747Y-84805526D01*
X133530223Y-84787347D01*
X133548402Y-84770871D01*
X133568107Y-84756257D01*
X133589151Y-84743644D01*
X133611329Y-84733154D01*
X133634429Y-84724889D01*
X133658227Y-84718928D01*
X133682496Y-84715328D01*
X133707000Y-84714124D01*
X134957000Y-84714124D01*
X134981504Y-84715328D01*
G37*
G36*
X134981504Y-81915328D02*
G01*
X135005773Y-81918928D01*
X135029571Y-81924889D01*
X135052671Y-81933154D01*
X135074849Y-81943644D01*
X135095893Y-81956257D01*
X135115598Y-81970871D01*
X135133777Y-81987347D01*
X135150253Y-82005526D01*
X135164867Y-82025231D01*
X135177480Y-82046275D01*
X135187970Y-82068453D01*
X135196235Y-82091553D01*
X135202196Y-82115351D01*
X135205796Y-82139620D01*
X135207000Y-82164124D01*
X135207000Y-82914124D01*
X135205796Y-82938628D01*
X135202196Y-82962897D01*
X135196235Y-82986695D01*
X135187970Y-83009795D01*
X135177480Y-83031973D01*
X135164867Y-83053017D01*
X135150253Y-83072722D01*
X135133777Y-83090901D01*
X135115598Y-83107377D01*
X135095893Y-83121991D01*
X135074849Y-83134604D01*
X135052671Y-83145094D01*
X135029571Y-83153359D01*
X135005773Y-83159320D01*
X134981504Y-83162920D01*
X134957000Y-83164124D01*
X133707000Y-83164124D01*
X133682496Y-83162920D01*
X133658227Y-83159320D01*
X133634429Y-83153359D01*
X133611329Y-83145094D01*
X133589151Y-83134604D01*
X133568107Y-83121991D01*
X133548402Y-83107377D01*
X133530223Y-83090901D01*
X133513747Y-83072722D01*
X133499133Y-83053017D01*
X133486520Y-83031973D01*
X133476030Y-83009795D01*
X133467765Y-82986695D01*
X133461804Y-82962897D01*
X133458204Y-82938628D01*
X133457000Y-82914124D01*
X133457000Y-82164124D01*
X133458204Y-82139620D01*
X133461804Y-82115351D01*
X133467765Y-82091553D01*
X133476030Y-82068453D01*
X133486520Y-82046275D01*
X133499133Y-82025231D01*
X133513747Y-82005526D01*
X133530223Y-81987347D01*
X133548402Y-81970871D01*
X133568107Y-81956257D01*
X133589151Y-81943644D01*
X133611329Y-81933154D01*
X133634429Y-81924889D01*
X133658227Y-81918928D01*
X133682496Y-81915328D01*
X133707000Y-81914124D01*
X134957000Y-81914124D01*
X134981504Y-81915328D01*
G37*
G36*
X248081241Y-118059083D02*
G01*
X247872864Y-116877314D01*
X248759191Y-116721031D01*
X248967568Y-117902800D01*
X248081241Y-118059083D01*
G37*
G36*
X244831375Y-118632121D02*
G01*
X244622998Y-117450352D01*
X245509325Y-117294069D01*
X245717702Y-118475838D01*
X244831375Y-118632121D01*
G37*
G36*
X228493603Y-116676930D02*
G01*
X228285226Y-115495161D01*
X229171553Y-115338878D01*
X229379930Y-116520647D01*
X228493603Y-116676930D01*
G37*
G36*
X225243737Y-117249968D02*
G01*
X225035360Y-116068199D01*
X225921687Y-115911916D01*
X226130064Y-117093685D01*
X225243737Y-117249968D01*
G37*
G36*
X208561384Y-113340545D02*
G01*
X208353007Y-112158776D01*
X209239334Y-112002493D01*
X209447711Y-113184262D01*
X208561384Y-113340545D01*
G37*
G36*
X205311518Y-113913583D02*
G01*
X205103141Y-112731814D01*
X205989468Y-112575531D01*
X206197845Y-113757300D01*
X205311518Y-113913583D01*
G37*
G36*
X190972334Y-123292942D02*
G01*
X190763957Y-122111173D01*
X191650284Y-121954890D01*
X191858661Y-123136659D01*
X190972334Y-123292942D01*
G37*
G36*
X187722468Y-123865980D02*
G01*
X187514091Y-122684211D01*
X188400418Y-122527928D01*
X188608795Y-123709697D01*
X187722468Y-123865980D01*
G37*
G36*
X173383285Y-133245340D02*
G01*
X173174908Y-132063571D01*
X174061235Y-131907288D01*
X174269612Y-133089057D01*
X173383285Y-133245340D01*
G37*
G36*
X170133419Y-133818378D02*
G01*
X169925042Y-132636609D01*
X170811369Y-132480326D01*
X171019746Y-133662095D01*
X170133419Y-133818378D01*
G37*
G36*
X152968647Y-127173029D02*
G01*
X152760270Y-125991260D01*
X153646597Y-125834977D01*
X153854974Y-127016746D01*
X152968647Y-127173029D01*
G37*
G36*
X149718781Y-127746067D02*
G01*
X149510404Y-126564298D01*
X150396731Y-126408015D01*
X150605108Y-127589784D01*
X149718781Y-127746067D01*
G37*
G36*
X130236139Y-127899535D02*
G01*
X130444516Y-126717766D01*
X131330843Y-126874049D01*
X131122466Y-128055818D01*
X130236139Y-127899535D01*
G37*
G36*
X126986273Y-127326497D02*
G01*
X127194650Y-126144728D01*
X128080977Y-126301011D01*
X127872600Y-127482780D01*
X126986273Y-127326497D01*
G37*
G36*
X109890418Y-133581000D02*
G01*
X110098795Y-132399231D01*
X110985122Y-132555514D01*
X110776745Y-133737283D01*
X109890418Y-133581000D01*
G37*
G36*
X106640552Y-133007962D02*
G01*
X106848929Y-131826193D01*
X107735256Y-131982476D01*
X107526879Y-133164245D01*
X106640552Y-133007962D01*
G37*
G36*
X92232452Y-124019449D02*
G01*
X92440829Y-122837680D01*
X93327156Y-122993963D01*
X93118779Y-124175732D01*
X92232452Y-124019449D01*
G37*
G36*
X88982586Y-123446411D02*
G01*
X89190963Y-122264642D01*
X90077290Y-122420925D01*
X89868913Y-123602694D01*
X88982586Y-123446411D01*
G37*
G36*
X74643403Y-114067051D02*
G01*
X74851780Y-112885282D01*
X75738107Y-113041565D01*
X75529730Y-114223334D01*
X74643403Y-114067051D01*
G37*
G36*
X71393537Y-113494013D02*
G01*
X71601914Y-112312244D01*
X72488241Y-112468527D01*
X72279864Y-113650296D01*
X71393537Y-113494013D01*
G37*
G36*
X54711181Y-117403437D02*
G01*
X54919558Y-116221668D01*
X55805885Y-116377951D01*
X55597508Y-117559720D01*
X54711181Y-117403437D01*
G37*
G36*
X51461315Y-116830399D02*
G01*
X51669692Y-115648630D01*
X52556019Y-115804913D01*
X52347642Y-116986682D01*
X51461315Y-116830399D01*
G37*
G36*
X35123545Y-118785589D02*
G01*
X35331922Y-117603820D01*
X36218249Y-117760103D01*
X36009872Y-118941872D01*
X35123545Y-118785589D01*
G37*
G36*
X31873679Y-118212551D02*
G01*
X32082056Y-117030782D01*
X32968383Y-117187065D01*
X32760006Y-118368834D01*
X31873679Y-118212551D01*
G37*
G36*
X244773233Y-99298448D02*
G01*
X244564856Y-98116679D01*
X245451183Y-97960396D01*
X245659560Y-99142165D01*
X244773233Y-99298448D01*
G37*
G36*
X241523367Y-99871486D02*
G01*
X241314990Y-98689717D01*
X242201317Y-98533434D01*
X242409694Y-99715203D01*
X241523367Y-99871486D01*
G37*
G36*
X225185597Y-97916296D02*
G01*
X224977220Y-96734527D01*
X225863547Y-96578244D01*
X226071924Y-97760013D01*
X225185597Y-97916296D01*
G37*
G36*
X221935731Y-98489334D02*
G01*
X221727354Y-97307565D01*
X222613681Y-97151282D01*
X222822058Y-98333051D01*
X221935731Y-98489334D01*
G37*
G36*
X205253376Y-94579910D02*
G01*
X205044999Y-93398141D01*
X205931326Y-93241858D01*
X206139703Y-94423627D01*
X205253376Y-94579910D01*
G37*
G36*
X202003510Y-95152948D02*
G01*
X201795133Y-93971179D01*
X202681460Y-93814896D01*
X202889837Y-94996665D01*
X202003510Y-95152948D01*
G37*
G36*
X187664328Y-104532307D02*
G01*
X187455951Y-103350538D01*
X188342278Y-103194255D01*
X188550655Y-104376024D01*
X187664328Y-104532307D01*
G37*
G36*
X184414462Y-105105345D02*
G01*
X184206085Y-103923576D01*
X185092412Y-103767293D01*
X185300789Y-104949062D01*
X184414462Y-105105345D01*
G37*
G36*
X170075279Y-114484706D02*
G01*
X169866902Y-113302937D01*
X170753229Y-113146654D01*
X170961606Y-114328423D01*
X170075279Y-114484706D01*
G37*
G36*
X166825413Y-115057744D02*
G01*
X166617036Y-113875975D01*
X167503363Y-113719692D01*
X167711740Y-114901461D01*
X166825413Y-115057744D01*
G37*
G36*
X113198424Y-114820365D02*
G01*
X113406801Y-113638596D01*
X114293128Y-113794879D01*
X114084751Y-114976648D01*
X113198424Y-114820365D01*
G37*
G36*
X109948558Y-114247327D02*
G01*
X110156935Y-113065558D01*
X111043262Y-113221841D01*
X110834885Y-114403610D01*
X109948558Y-114247327D01*
G37*
G36*
X95540458Y-105258815D02*
G01*
X95748835Y-104077046D01*
X96635162Y-104233329D01*
X96426785Y-105415098D01*
X95540458Y-105258815D01*
G37*
G36*
X92290592Y-104685777D02*
G01*
X92498969Y-103504008D01*
X93385296Y-103660291D01*
X93176919Y-104842060D01*
X92290592Y-104685777D01*
G37*
G36*
X77951409Y-95306416D02*
G01*
X78159786Y-94124647D01*
X79046113Y-94280930D01*
X78837736Y-95462699D01*
X77951409Y-95306416D01*
G37*
G36*
X74701543Y-94733378D02*
G01*
X74909920Y-93551609D01*
X75796247Y-93707892D01*
X75587870Y-94889661D01*
X74701543Y-94733378D01*
G37*
G36*
X58019188Y-98642801D02*
G01*
X58227565Y-97461032D01*
X59113892Y-97617315D01*
X58905515Y-98799084D01*
X58019188Y-98642801D01*
G37*
G36*
X54769322Y-98069763D02*
G01*
X54977699Y-96887994D01*
X55864026Y-97044277D01*
X55655649Y-98226046D01*
X54769322Y-98069763D01*
G37*
G36*
X38040705Y-99956037D02*
G01*
X38249082Y-98774268D01*
X39135409Y-98930551D01*
X38927032Y-100112320D01*
X38040705Y-99956037D01*
G37*
G36*
X34790839Y-99382999D02*
G01*
X34999216Y-98201230D01*
X35885543Y-98357513D01*
X35677166Y-99539282D01*
X34790839Y-99382999D01*
G37*
G36*
X241465228Y-80537814D02*
G01*
X241256851Y-79356045D01*
X242143178Y-79199762D01*
X242351555Y-80381531D01*
X241465228Y-80537814D01*
G37*
G36*
X238215362Y-81110852D02*
G01*
X238006985Y-79929083D01*
X238893312Y-79772800D01*
X239101689Y-80954569D01*
X238215362Y-81110852D01*
G37*
G36*
X221877592Y-79155660D02*
G01*
X221669215Y-77973891D01*
X222555542Y-77817608D01*
X222763919Y-78999377D01*
X221877592Y-79155660D01*
G37*
G36*
X218627726Y-79728698D02*
G01*
X218419349Y-78546929D01*
X219305676Y-78390646D01*
X219514053Y-79572415D01*
X218627726Y-79728698D01*
G37*
G36*
X201945370Y-75819274D02*
G01*
X201736993Y-74637505D01*
X202623320Y-74481222D01*
X202831697Y-75662991D01*
X201945370Y-75819274D01*
G37*
G36*
X198695504Y-76392312D02*
G01*
X198487127Y-75210543D01*
X199373454Y-75054260D01*
X199581831Y-76236029D01*
X198695504Y-76392312D01*
G37*
G36*
X184356322Y-85771672D02*
G01*
X184147945Y-84589903D01*
X185034272Y-84433620D01*
X185242649Y-85615389D01*
X184356322Y-85771672D01*
G37*
G36*
X181106456Y-86344710D02*
G01*
X180898079Y-85162941D01*
X181784406Y-85006658D01*
X181992783Y-86188427D01*
X181106456Y-86344710D01*
G37*
G36*
X166767271Y-95724070D02*
G01*
X166558894Y-94542301D01*
X167445221Y-94386018D01*
X167653598Y-95567787D01*
X166767271Y-95724070D01*
G37*
G36*
X163517405Y-96297108D02*
G01*
X163309028Y-95115339D01*
X164195355Y-94959056D01*
X164403732Y-96140825D01*
X163517405Y-96297108D01*
G37*
G36*
X116437514Y-96450577D02*
G01*
X116645891Y-95268808D01*
X117532218Y-95425091D01*
X117323841Y-96606860D01*
X116437514Y-96450577D01*
G37*
G36*
X113187648Y-95877539D02*
G01*
X113396025Y-94695770D01*
X114282352Y-94852053D01*
X114073975Y-96033822D01*
X113187648Y-95877539D01*
G37*
G36*
X98848464Y-86498179D02*
G01*
X99056841Y-85316410D01*
X99943168Y-85472693D01*
X99734791Y-86654462D01*
X98848464Y-86498179D01*
G37*
G36*
X95598598Y-85925141D02*
G01*
X95806975Y-84743372D01*
X96693302Y-84899655D01*
X96484925Y-86081424D01*
X95598598Y-85925141D01*
G37*
G36*
X81259414Y-76545780D02*
G01*
X81467791Y-75364011D01*
X82354118Y-75520294D01*
X82145741Y-76702063D01*
X81259414Y-76545780D01*
G37*
G36*
X78009548Y-75972742D02*
G01*
X78217925Y-74790973D01*
X79104252Y-74947256D01*
X78895875Y-76129025D01*
X78009548Y-75972742D01*
G37*
G36*
X61327194Y-79882167D02*
G01*
X61535571Y-78700398D01*
X62421898Y-78856681D01*
X62213521Y-80038450D01*
X61327194Y-79882167D01*
G37*
G36*
X58077328Y-79309129D02*
G01*
X58285705Y-78127360D01*
X59172032Y-78283643D01*
X58963655Y-79465412D01*
X58077328Y-79309129D01*
G37*
G36*
X41739558Y-81264319D02*
G01*
X41947935Y-80082550D01*
X42834262Y-80238833D01*
X42625885Y-81420602D01*
X41739558Y-81264319D01*
G37*
G36*
X38489692Y-80691281D02*
G01*
X38698069Y-79509512D01*
X39584396Y-79665795D01*
X39376019Y-80847564D01*
X38489692Y-80691281D01*
G37*
G36*
X238157221Y-61777178D02*
G01*
X237948844Y-60595409D01*
X238835171Y-60439126D01*
X239043548Y-61620895D01*
X238157221Y-61777178D01*
G37*
G36*
X234907355Y-62350216D02*
G01*
X234698978Y-61168447D01*
X235585305Y-61012164D01*
X235793682Y-62193933D01*
X234907355Y-62350216D01*
G37*
G36*
X218569586Y-60395026D02*
G01*
X218361209Y-59213257D01*
X219247536Y-59056974D01*
X219455913Y-60238743D01*
X218569586Y-60395026D01*
G37*
G36*
X215319720Y-60968064D02*
G01*
X215111343Y-59786295D01*
X215997670Y-59630012D01*
X216206047Y-60811781D01*
X215319720Y-60968064D01*
G37*
G36*
X198740821Y-57142834D02*
G01*
X198532444Y-55961065D01*
X199418771Y-55804782D01*
X199627148Y-56986551D01*
X198740821Y-57142834D01*
G37*
G36*
X195490955Y-57715872D02*
G01*
X195282578Y-56534103D01*
X196168905Y-56377820D01*
X196377282Y-57559589D01*
X195490955Y-57715872D01*
G37*
G36*
X181048316Y-67011037D02*
G01*
X180839939Y-65829268D01*
X181726266Y-65672985D01*
X181934643Y-66854754D01*
X181048316Y-67011037D01*
G37*
G36*
X177798450Y-67584075D02*
G01*
X177590073Y-66402306D01*
X178476400Y-66246023D01*
X178684777Y-67427792D01*
X177798450Y-67584075D01*
G37*
G36*
X163459264Y-76963436D02*
G01*
X163250887Y-75781667D01*
X164137214Y-75625384D01*
X164345591Y-76807153D01*
X163459264Y-76963436D01*
G37*
G36*
X160209398Y-77536474D02*
G01*
X160001021Y-76354705D01*
X160887348Y-76198422D01*
X161095725Y-77380191D01*
X160209398Y-77536474D01*
G37*
G36*
X119814436Y-77299096D02*
G01*
X120022813Y-76117327D01*
X120909140Y-76273610D01*
X120700763Y-77455379D01*
X119814436Y-77299096D01*
G37*
G36*
X116564570Y-76726058D02*
G01*
X116772947Y-75544289D01*
X117659274Y-75700572D01*
X117450897Y-76882341D01*
X116564570Y-76726058D01*
G37*
G36*
X102156470Y-67737545D02*
G01*
X102364847Y-66555776D01*
X103251174Y-66712059D01*
X103042797Y-67893828D01*
X102156470Y-67737545D01*
G37*
G36*
X98906604Y-67164507D02*
G01*
X99114981Y-65982738D01*
X100001308Y-66139021D01*
X99792931Y-67320790D01*
X98906604Y-67164507D01*
G37*
G36*
X84567420Y-57785146D02*
G01*
X84775797Y-56603377D01*
X85662124Y-56759660D01*
X85453747Y-57941429D01*
X84567420Y-57785146D01*
G37*
G36*
X81317554Y-57212108D02*
G01*
X81525931Y-56030339D01*
X82412258Y-56186622D01*
X82203881Y-57368391D01*
X81317554Y-57212108D01*
G37*
G36*
X64635200Y-61121531D02*
G01*
X64843577Y-59939762D01*
X65729904Y-60096045D01*
X65521527Y-61277814D01*
X64635200Y-61121531D01*
G37*
G36*
X61385334Y-60548493D02*
G01*
X61593711Y-59366724D01*
X62480038Y-59523007D01*
X62271661Y-60704776D01*
X61385334Y-60548493D01*
G37*
G36*
X45047563Y-62503684D02*
G01*
X45255940Y-61321915D01*
X46142267Y-61478198D01*
X45933890Y-62659967D01*
X45047563Y-62503684D01*
G37*
G36*
X41797697Y-61930646D02*
G01*
X42006074Y-60748877D01*
X42892401Y-60905160D01*
X42684024Y-62086929D01*
X41797697Y-61930646D01*
G37*
M02*
