G04 #@! TF.GenerationSoftware,KiCad,Pcbnew,(5.1.5)-3*
G04 #@! TF.CreationDate,2020-04-21T13:32:45+02:00*
G04 #@! TF.ProjectId,Marv-Atreus,4d617276-2d41-4747-9265-75732e6b6963,rev?*
G04 #@! TF.SameCoordinates,Original*
G04 #@! TF.FileFunction,Soldermask,Bot*
G04 #@! TF.FilePolarity,Negative*
%FSLAX46Y46*%
G04 Gerber Fmt 4.6, Leading zero omitted, Abs format (unit mm)*
G04 Created by KiCad (PCBNEW (5.1.5)-3) date 2020-04-21 13:32:45*
%MOMM*%
%LPD*%
G04 APERTURE LIST*
%ADD10C,0.100000*%
%ADD11R,1.200000X1.400000*%
%ADD12R,0.600000X1.450000*%
%ADD13R,0.300000X1.450000*%
%ADD14C,0.650000*%
%ADD15R,1.500000X0.550000*%
%ADD16R,0.550000X1.500000*%
%ADD17R,1.100000X1.800000*%
%ADD18C,2.250000*%
%ADD19C,3.987800*%
%ADD20C,1.750000*%
G04 APERTURE END LIST*
D10*
G36*
X132347958Y-112211551D02*
G01*
X132369193Y-112214701D01*
X132390017Y-112219917D01*
X132410229Y-112227149D01*
X132429635Y-112236328D01*
X132448048Y-112247364D01*
X132465291Y-112260152D01*
X132481197Y-112274568D01*
X132790556Y-112583927D01*
X132804972Y-112599833D01*
X132817760Y-112617076D01*
X132828796Y-112635489D01*
X132837975Y-112654895D01*
X132845207Y-112675107D01*
X132850423Y-112695931D01*
X132853573Y-112717166D01*
X132854626Y-112738607D01*
X132853573Y-112760048D01*
X132850423Y-112781283D01*
X132845207Y-112802107D01*
X132837975Y-112822319D01*
X132828796Y-112841725D01*
X132817760Y-112860138D01*
X132804972Y-112877381D01*
X132790556Y-112893287D01*
X132428163Y-113255680D01*
X132412257Y-113270096D01*
X132395014Y-113282884D01*
X132376601Y-113293920D01*
X132357195Y-113303099D01*
X132336983Y-113310331D01*
X132316159Y-113315547D01*
X132294924Y-113318697D01*
X132273483Y-113319750D01*
X132252042Y-113318697D01*
X132230807Y-113315547D01*
X132209983Y-113310331D01*
X132189771Y-113303099D01*
X132170365Y-113293920D01*
X132151952Y-113282884D01*
X132134709Y-113270096D01*
X132118803Y-113255680D01*
X131809444Y-112946321D01*
X131795028Y-112930415D01*
X131782240Y-112913172D01*
X131771204Y-112894759D01*
X131762025Y-112875353D01*
X131754793Y-112855141D01*
X131749577Y-112834317D01*
X131746427Y-112813082D01*
X131745374Y-112791641D01*
X131746427Y-112770200D01*
X131749577Y-112748965D01*
X131754793Y-112728141D01*
X131762025Y-112707929D01*
X131771204Y-112688523D01*
X131782240Y-112670110D01*
X131795028Y-112652867D01*
X131809444Y-112636961D01*
X132171837Y-112274568D01*
X132187743Y-112260152D01*
X132204986Y-112247364D01*
X132223399Y-112236328D01*
X132242805Y-112227149D01*
X132263017Y-112219917D01*
X132283841Y-112214701D01*
X132305076Y-112211551D01*
X132326517Y-112210498D01*
X132347958Y-112211551D01*
G37*
G36*
X131234264Y-111097857D02*
G01*
X131255499Y-111101007D01*
X131276323Y-111106223D01*
X131296535Y-111113455D01*
X131315941Y-111122634D01*
X131334354Y-111133670D01*
X131351597Y-111146458D01*
X131367503Y-111160874D01*
X131676862Y-111470233D01*
X131691278Y-111486139D01*
X131704066Y-111503382D01*
X131715102Y-111521795D01*
X131724281Y-111541201D01*
X131731513Y-111561413D01*
X131736729Y-111582237D01*
X131739879Y-111603472D01*
X131740932Y-111624913D01*
X131739879Y-111646354D01*
X131736729Y-111667589D01*
X131731513Y-111688413D01*
X131724281Y-111708625D01*
X131715102Y-111728031D01*
X131704066Y-111746444D01*
X131691278Y-111763687D01*
X131676862Y-111779593D01*
X131314469Y-112141986D01*
X131298563Y-112156402D01*
X131281320Y-112169190D01*
X131262907Y-112180226D01*
X131243501Y-112189405D01*
X131223289Y-112196637D01*
X131202465Y-112201853D01*
X131181230Y-112205003D01*
X131159789Y-112206056D01*
X131138348Y-112205003D01*
X131117113Y-112201853D01*
X131096289Y-112196637D01*
X131076077Y-112189405D01*
X131056671Y-112180226D01*
X131038258Y-112169190D01*
X131021015Y-112156402D01*
X131005109Y-112141986D01*
X130695750Y-111832627D01*
X130681334Y-111816721D01*
X130668546Y-111799478D01*
X130657510Y-111781065D01*
X130648331Y-111761659D01*
X130641099Y-111741447D01*
X130635883Y-111720623D01*
X130632733Y-111699388D01*
X130631680Y-111677947D01*
X130632733Y-111656506D01*
X130635883Y-111635271D01*
X130641099Y-111614447D01*
X130648331Y-111594235D01*
X130657510Y-111574829D01*
X130668546Y-111556416D01*
X130681334Y-111539173D01*
X130695750Y-111523267D01*
X131058143Y-111160874D01*
X131074049Y-111146458D01*
X131091292Y-111133670D01*
X131109705Y-111122634D01*
X131129111Y-111113455D01*
X131149323Y-111106223D01*
X131170147Y-111101007D01*
X131191382Y-111097857D01*
X131212823Y-111096804D01*
X131234264Y-111097857D01*
G37*
G36*
X138927691Y-81928677D02*
G01*
X138948926Y-81931827D01*
X138969750Y-81937043D01*
X138989962Y-81944275D01*
X139009368Y-81953454D01*
X139027781Y-81964490D01*
X139045024Y-81977278D01*
X139060930Y-81991694D01*
X139075346Y-82007600D01*
X139088134Y-82024843D01*
X139099170Y-82043256D01*
X139108349Y-82062662D01*
X139115581Y-82082874D01*
X139120797Y-82103698D01*
X139123947Y-82124933D01*
X139125000Y-82146374D01*
X139125000Y-82583874D01*
X139123947Y-82605315D01*
X139120797Y-82626550D01*
X139115581Y-82647374D01*
X139108349Y-82667586D01*
X139099170Y-82686992D01*
X139088134Y-82705405D01*
X139075346Y-82722648D01*
X139060930Y-82738554D01*
X139045024Y-82752970D01*
X139027781Y-82765758D01*
X139009368Y-82776794D01*
X138989962Y-82785973D01*
X138969750Y-82793205D01*
X138948926Y-82798421D01*
X138927691Y-82801571D01*
X138906250Y-82802624D01*
X138393750Y-82802624D01*
X138372309Y-82801571D01*
X138351074Y-82798421D01*
X138330250Y-82793205D01*
X138310038Y-82785973D01*
X138290632Y-82776794D01*
X138272219Y-82765758D01*
X138254976Y-82752970D01*
X138239070Y-82738554D01*
X138224654Y-82722648D01*
X138211866Y-82705405D01*
X138200830Y-82686992D01*
X138191651Y-82667586D01*
X138184419Y-82647374D01*
X138179203Y-82626550D01*
X138176053Y-82605315D01*
X138175000Y-82583874D01*
X138175000Y-82146374D01*
X138176053Y-82124933D01*
X138179203Y-82103698D01*
X138184419Y-82082874D01*
X138191651Y-82062662D01*
X138200830Y-82043256D01*
X138211866Y-82024843D01*
X138224654Y-82007600D01*
X138239070Y-81991694D01*
X138254976Y-81977278D01*
X138272219Y-81964490D01*
X138290632Y-81953454D01*
X138310038Y-81944275D01*
X138330250Y-81937043D01*
X138351074Y-81931827D01*
X138372309Y-81928677D01*
X138393750Y-81927624D01*
X138906250Y-81927624D01*
X138927691Y-81928677D01*
G37*
G36*
X138927691Y-83503677D02*
G01*
X138948926Y-83506827D01*
X138969750Y-83512043D01*
X138989962Y-83519275D01*
X139009368Y-83528454D01*
X139027781Y-83539490D01*
X139045024Y-83552278D01*
X139060930Y-83566694D01*
X139075346Y-83582600D01*
X139088134Y-83599843D01*
X139099170Y-83618256D01*
X139108349Y-83637662D01*
X139115581Y-83657874D01*
X139120797Y-83678698D01*
X139123947Y-83699933D01*
X139125000Y-83721374D01*
X139125000Y-84158874D01*
X139123947Y-84180315D01*
X139120797Y-84201550D01*
X139115581Y-84222374D01*
X139108349Y-84242586D01*
X139099170Y-84261992D01*
X139088134Y-84280405D01*
X139075346Y-84297648D01*
X139060930Y-84313554D01*
X139045024Y-84327970D01*
X139027781Y-84340758D01*
X139009368Y-84351794D01*
X138989962Y-84360973D01*
X138969750Y-84368205D01*
X138948926Y-84373421D01*
X138927691Y-84376571D01*
X138906250Y-84377624D01*
X138393750Y-84377624D01*
X138372309Y-84376571D01*
X138351074Y-84373421D01*
X138330250Y-84368205D01*
X138310038Y-84360973D01*
X138290632Y-84351794D01*
X138272219Y-84340758D01*
X138254976Y-84327970D01*
X138239070Y-84313554D01*
X138224654Y-84297648D01*
X138211866Y-84280405D01*
X138200830Y-84261992D01*
X138191651Y-84242586D01*
X138184419Y-84222374D01*
X138179203Y-84201550D01*
X138176053Y-84180315D01*
X138175000Y-84158874D01*
X138175000Y-83721374D01*
X138176053Y-83699933D01*
X138179203Y-83678698D01*
X138184419Y-83657874D01*
X138191651Y-83637662D01*
X138200830Y-83618256D01*
X138211866Y-83599843D01*
X138224654Y-83582600D01*
X138239070Y-83566694D01*
X138254976Y-83552278D01*
X138272219Y-83539490D01*
X138290632Y-83528454D01*
X138310038Y-83519275D01*
X138330250Y-83512043D01*
X138351074Y-83506827D01*
X138372309Y-83503677D01*
X138393750Y-83502624D01*
X138906250Y-83502624D01*
X138927691Y-83503677D01*
G37*
G36*
X140959691Y-81938485D02*
G01*
X140980926Y-81941635D01*
X141001750Y-81946851D01*
X141021962Y-81954083D01*
X141041368Y-81963262D01*
X141059781Y-81974298D01*
X141077024Y-81987086D01*
X141092930Y-82001502D01*
X141107346Y-82017408D01*
X141120134Y-82034651D01*
X141131170Y-82053064D01*
X141140349Y-82072470D01*
X141147581Y-82092682D01*
X141152797Y-82113506D01*
X141155947Y-82134741D01*
X141157000Y-82156182D01*
X141157000Y-82593682D01*
X141155947Y-82615123D01*
X141152797Y-82636358D01*
X141147581Y-82657182D01*
X141140349Y-82677394D01*
X141131170Y-82696800D01*
X141120134Y-82715213D01*
X141107346Y-82732456D01*
X141092930Y-82748362D01*
X141077024Y-82762778D01*
X141059781Y-82775566D01*
X141041368Y-82786602D01*
X141021962Y-82795781D01*
X141001750Y-82803013D01*
X140980926Y-82808229D01*
X140959691Y-82811379D01*
X140938250Y-82812432D01*
X140425750Y-82812432D01*
X140404309Y-82811379D01*
X140383074Y-82808229D01*
X140362250Y-82803013D01*
X140342038Y-82795781D01*
X140322632Y-82786602D01*
X140304219Y-82775566D01*
X140286976Y-82762778D01*
X140271070Y-82748362D01*
X140256654Y-82732456D01*
X140243866Y-82715213D01*
X140232830Y-82696800D01*
X140223651Y-82677394D01*
X140216419Y-82657182D01*
X140211203Y-82636358D01*
X140208053Y-82615123D01*
X140207000Y-82593682D01*
X140207000Y-82156182D01*
X140208053Y-82134741D01*
X140211203Y-82113506D01*
X140216419Y-82092682D01*
X140223651Y-82072470D01*
X140232830Y-82053064D01*
X140243866Y-82034651D01*
X140256654Y-82017408D01*
X140271070Y-82001502D01*
X140286976Y-81987086D01*
X140304219Y-81974298D01*
X140322632Y-81963262D01*
X140342038Y-81954083D01*
X140362250Y-81946851D01*
X140383074Y-81941635D01*
X140404309Y-81938485D01*
X140425750Y-81937432D01*
X140938250Y-81937432D01*
X140959691Y-81938485D01*
G37*
G36*
X140959691Y-83513485D02*
G01*
X140980926Y-83516635D01*
X141001750Y-83521851D01*
X141021962Y-83529083D01*
X141041368Y-83538262D01*
X141059781Y-83549298D01*
X141077024Y-83562086D01*
X141092930Y-83576502D01*
X141107346Y-83592408D01*
X141120134Y-83609651D01*
X141131170Y-83628064D01*
X141140349Y-83647470D01*
X141147581Y-83667682D01*
X141152797Y-83688506D01*
X141155947Y-83709741D01*
X141157000Y-83731182D01*
X141157000Y-84168682D01*
X141155947Y-84190123D01*
X141152797Y-84211358D01*
X141147581Y-84232182D01*
X141140349Y-84252394D01*
X141131170Y-84271800D01*
X141120134Y-84290213D01*
X141107346Y-84307456D01*
X141092930Y-84323362D01*
X141077024Y-84337778D01*
X141059781Y-84350566D01*
X141041368Y-84361602D01*
X141021962Y-84370781D01*
X141001750Y-84378013D01*
X140980926Y-84383229D01*
X140959691Y-84386379D01*
X140938250Y-84387432D01*
X140425750Y-84387432D01*
X140404309Y-84386379D01*
X140383074Y-84383229D01*
X140362250Y-84378013D01*
X140342038Y-84370781D01*
X140322632Y-84361602D01*
X140304219Y-84350566D01*
X140286976Y-84337778D01*
X140271070Y-84323362D01*
X140256654Y-84307456D01*
X140243866Y-84290213D01*
X140232830Y-84271800D01*
X140223651Y-84252394D01*
X140216419Y-84232182D01*
X140211203Y-84211358D01*
X140208053Y-84190123D01*
X140207000Y-84168682D01*
X140207000Y-83731182D01*
X140208053Y-83709741D01*
X140211203Y-83688506D01*
X140216419Y-83667682D01*
X140223651Y-83647470D01*
X140232830Y-83628064D01*
X140243866Y-83609651D01*
X140256654Y-83592408D01*
X140271070Y-83576502D01*
X140286976Y-83562086D01*
X140304219Y-83549298D01*
X140322632Y-83538262D01*
X140342038Y-83529083D01*
X140362250Y-83521851D01*
X140383074Y-83516635D01*
X140404309Y-83513485D01*
X140425750Y-83512432D01*
X140938250Y-83512432D01*
X140959691Y-83513485D01*
G37*
G36*
X136895691Y-83513485D02*
G01*
X136916926Y-83516635D01*
X136937750Y-83521851D01*
X136957962Y-83529083D01*
X136977368Y-83538262D01*
X136995781Y-83549298D01*
X137013024Y-83562086D01*
X137028930Y-83576502D01*
X137043346Y-83592408D01*
X137056134Y-83609651D01*
X137067170Y-83628064D01*
X137076349Y-83647470D01*
X137083581Y-83667682D01*
X137088797Y-83688506D01*
X137091947Y-83709741D01*
X137093000Y-83731182D01*
X137093000Y-84168682D01*
X137091947Y-84190123D01*
X137088797Y-84211358D01*
X137083581Y-84232182D01*
X137076349Y-84252394D01*
X137067170Y-84271800D01*
X137056134Y-84290213D01*
X137043346Y-84307456D01*
X137028930Y-84323362D01*
X137013024Y-84337778D01*
X136995781Y-84350566D01*
X136977368Y-84361602D01*
X136957962Y-84370781D01*
X136937750Y-84378013D01*
X136916926Y-84383229D01*
X136895691Y-84386379D01*
X136874250Y-84387432D01*
X136361750Y-84387432D01*
X136340309Y-84386379D01*
X136319074Y-84383229D01*
X136298250Y-84378013D01*
X136278038Y-84370781D01*
X136258632Y-84361602D01*
X136240219Y-84350566D01*
X136222976Y-84337778D01*
X136207070Y-84323362D01*
X136192654Y-84307456D01*
X136179866Y-84290213D01*
X136168830Y-84271800D01*
X136159651Y-84252394D01*
X136152419Y-84232182D01*
X136147203Y-84211358D01*
X136144053Y-84190123D01*
X136143000Y-84168682D01*
X136143000Y-83731182D01*
X136144053Y-83709741D01*
X136147203Y-83688506D01*
X136152419Y-83667682D01*
X136159651Y-83647470D01*
X136168830Y-83628064D01*
X136179866Y-83609651D01*
X136192654Y-83592408D01*
X136207070Y-83576502D01*
X136222976Y-83562086D01*
X136240219Y-83549298D01*
X136258632Y-83538262D01*
X136278038Y-83529083D01*
X136298250Y-83521851D01*
X136319074Y-83516635D01*
X136340309Y-83513485D01*
X136361750Y-83512432D01*
X136874250Y-83512432D01*
X136895691Y-83513485D01*
G37*
G36*
X136895691Y-81938485D02*
G01*
X136916926Y-81941635D01*
X136937750Y-81946851D01*
X136957962Y-81954083D01*
X136977368Y-81963262D01*
X136995781Y-81974298D01*
X137013024Y-81987086D01*
X137028930Y-82001502D01*
X137043346Y-82017408D01*
X137056134Y-82034651D01*
X137067170Y-82053064D01*
X137076349Y-82072470D01*
X137083581Y-82092682D01*
X137088797Y-82113506D01*
X137091947Y-82134741D01*
X137093000Y-82156182D01*
X137093000Y-82593682D01*
X137091947Y-82615123D01*
X137088797Y-82636358D01*
X137083581Y-82657182D01*
X137076349Y-82677394D01*
X137067170Y-82696800D01*
X137056134Y-82715213D01*
X137043346Y-82732456D01*
X137028930Y-82748362D01*
X137013024Y-82762778D01*
X136995781Y-82775566D01*
X136977368Y-82786602D01*
X136957962Y-82795781D01*
X136937750Y-82803013D01*
X136916926Y-82808229D01*
X136895691Y-82811379D01*
X136874250Y-82812432D01*
X136361750Y-82812432D01*
X136340309Y-82811379D01*
X136319074Y-82808229D01*
X136298250Y-82803013D01*
X136278038Y-82795781D01*
X136258632Y-82786602D01*
X136240219Y-82775566D01*
X136222976Y-82762778D01*
X136207070Y-82748362D01*
X136192654Y-82732456D01*
X136179866Y-82715213D01*
X136168830Y-82696800D01*
X136159651Y-82677394D01*
X136152419Y-82657182D01*
X136147203Y-82636358D01*
X136144053Y-82615123D01*
X136143000Y-82593682D01*
X136143000Y-82156182D01*
X136144053Y-82134741D01*
X136147203Y-82113506D01*
X136152419Y-82092682D01*
X136159651Y-82072470D01*
X136168830Y-82053064D01*
X136179866Y-82034651D01*
X136192654Y-82017408D01*
X136207070Y-82001502D01*
X136222976Y-81987086D01*
X136240219Y-81974298D01*
X136258632Y-81963262D01*
X136278038Y-81954083D01*
X136298250Y-81946851D01*
X136319074Y-81941635D01*
X136340309Y-81938485D01*
X136361750Y-81937432D01*
X136874250Y-81937432D01*
X136895691Y-81938485D01*
G37*
G36*
X142991691Y-83513485D02*
G01*
X143012926Y-83516635D01*
X143033750Y-83521851D01*
X143053962Y-83529083D01*
X143073368Y-83538262D01*
X143091781Y-83549298D01*
X143109024Y-83562086D01*
X143124930Y-83576502D01*
X143139346Y-83592408D01*
X143152134Y-83609651D01*
X143163170Y-83628064D01*
X143172349Y-83647470D01*
X143179581Y-83667682D01*
X143184797Y-83688506D01*
X143187947Y-83709741D01*
X143189000Y-83731182D01*
X143189000Y-84168682D01*
X143187947Y-84190123D01*
X143184797Y-84211358D01*
X143179581Y-84232182D01*
X143172349Y-84252394D01*
X143163170Y-84271800D01*
X143152134Y-84290213D01*
X143139346Y-84307456D01*
X143124930Y-84323362D01*
X143109024Y-84337778D01*
X143091781Y-84350566D01*
X143073368Y-84361602D01*
X143053962Y-84370781D01*
X143033750Y-84378013D01*
X143012926Y-84383229D01*
X142991691Y-84386379D01*
X142970250Y-84387432D01*
X142457750Y-84387432D01*
X142436309Y-84386379D01*
X142415074Y-84383229D01*
X142394250Y-84378013D01*
X142374038Y-84370781D01*
X142354632Y-84361602D01*
X142336219Y-84350566D01*
X142318976Y-84337778D01*
X142303070Y-84323362D01*
X142288654Y-84307456D01*
X142275866Y-84290213D01*
X142264830Y-84271800D01*
X142255651Y-84252394D01*
X142248419Y-84232182D01*
X142243203Y-84211358D01*
X142240053Y-84190123D01*
X142239000Y-84168682D01*
X142239000Y-83731182D01*
X142240053Y-83709741D01*
X142243203Y-83688506D01*
X142248419Y-83667682D01*
X142255651Y-83647470D01*
X142264830Y-83628064D01*
X142275866Y-83609651D01*
X142288654Y-83592408D01*
X142303070Y-83576502D01*
X142318976Y-83562086D01*
X142336219Y-83549298D01*
X142354632Y-83538262D01*
X142374038Y-83529083D01*
X142394250Y-83521851D01*
X142415074Y-83516635D01*
X142436309Y-83513485D01*
X142457750Y-83512432D01*
X142970250Y-83512432D01*
X142991691Y-83513485D01*
G37*
G36*
X142991691Y-81938485D02*
G01*
X143012926Y-81941635D01*
X143033750Y-81946851D01*
X143053962Y-81954083D01*
X143073368Y-81963262D01*
X143091781Y-81974298D01*
X143109024Y-81987086D01*
X143124930Y-82001502D01*
X143139346Y-82017408D01*
X143152134Y-82034651D01*
X143163170Y-82053064D01*
X143172349Y-82072470D01*
X143179581Y-82092682D01*
X143184797Y-82113506D01*
X143187947Y-82134741D01*
X143189000Y-82156182D01*
X143189000Y-82593682D01*
X143187947Y-82615123D01*
X143184797Y-82636358D01*
X143179581Y-82657182D01*
X143172349Y-82677394D01*
X143163170Y-82696800D01*
X143152134Y-82715213D01*
X143139346Y-82732456D01*
X143124930Y-82748362D01*
X143109024Y-82762778D01*
X143091781Y-82775566D01*
X143073368Y-82786602D01*
X143053962Y-82795781D01*
X143033750Y-82803013D01*
X143012926Y-82808229D01*
X142991691Y-82811379D01*
X142970250Y-82812432D01*
X142457750Y-82812432D01*
X142436309Y-82811379D01*
X142415074Y-82808229D01*
X142394250Y-82803013D01*
X142374038Y-82795781D01*
X142354632Y-82786602D01*
X142336219Y-82775566D01*
X142318976Y-82762778D01*
X142303070Y-82748362D01*
X142288654Y-82732456D01*
X142275866Y-82715213D01*
X142264830Y-82696800D01*
X142255651Y-82677394D01*
X142248419Y-82657182D01*
X142243203Y-82636358D01*
X142240053Y-82615123D01*
X142239000Y-82593682D01*
X142239000Y-82156182D01*
X142240053Y-82134741D01*
X142243203Y-82113506D01*
X142248419Y-82092682D01*
X142255651Y-82072470D01*
X142264830Y-82053064D01*
X142275866Y-82034651D01*
X142288654Y-82017408D01*
X142303070Y-82001502D01*
X142318976Y-81987086D01*
X142336219Y-81974298D01*
X142354632Y-81963262D01*
X142374038Y-81954083D01*
X142394250Y-81946851D01*
X142415074Y-81941635D01*
X142436309Y-81938485D01*
X142457750Y-81937432D01*
X142970250Y-81937432D01*
X142991691Y-81938485D01*
G37*
G36*
X146728264Y-95603857D02*
G01*
X146749499Y-95607007D01*
X146770323Y-95612223D01*
X146790535Y-95619455D01*
X146809941Y-95628634D01*
X146828354Y-95639670D01*
X146845597Y-95652458D01*
X146861503Y-95666874D01*
X147170862Y-95976233D01*
X147185278Y-95992139D01*
X147198066Y-96009382D01*
X147209102Y-96027795D01*
X147218281Y-96047201D01*
X147225513Y-96067413D01*
X147230729Y-96088237D01*
X147233879Y-96109472D01*
X147234932Y-96130913D01*
X147233879Y-96152354D01*
X147230729Y-96173589D01*
X147225513Y-96194413D01*
X147218281Y-96214625D01*
X147209102Y-96234031D01*
X147198066Y-96252444D01*
X147185278Y-96269687D01*
X147170862Y-96285593D01*
X146808469Y-96647986D01*
X146792563Y-96662402D01*
X146775320Y-96675190D01*
X146756907Y-96686226D01*
X146737501Y-96695405D01*
X146717289Y-96702637D01*
X146696465Y-96707853D01*
X146675230Y-96711003D01*
X146653789Y-96712056D01*
X146632348Y-96711003D01*
X146611113Y-96707853D01*
X146590289Y-96702637D01*
X146570077Y-96695405D01*
X146550671Y-96686226D01*
X146532258Y-96675190D01*
X146515015Y-96662402D01*
X146499109Y-96647986D01*
X146189750Y-96338627D01*
X146175334Y-96322721D01*
X146162546Y-96305478D01*
X146151510Y-96287065D01*
X146142331Y-96267659D01*
X146135099Y-96247447D01*
X146129883Y-96226623D01*
X146126733Y-96205388D01*
X146125680Y-96183947D01*
X146126733Y-96162506D01*
X146129883Y-96141271D01*
X146135099Y-96120447D01*
X146142331Y-96100235D01*
X146151510Y-96080829D01*
X146162546Y-96062416D01*
X146175334Y-96045173D01*
X146189750Y-96029267D01*
X146552143Y-95666874D01*
X146568049Y-95652458D01*
X146585292Y-95639670D01*
X146603705Y-95628634D01*
X146623111Y-95619455D01*
X146643323Y-95612223D01*
X146664147Y-95607007D01*
X146685382Y-95603857D01*
X146706823Y-95602804D01*
X146728264Y-95603857D01*
G37*
G36*
X147841958Y-96717551D02*
G01*
X147863193Y-96720701D01*
X147884017Y-96725917D01*
X147904229Y-96733149D01*
X147923635Y-96742328D01*
X147942048Y-96753364D01*
X147959291Y-96766152D01*
X147975197Y-96780568D01*
X148284556Y-97089927D01*
X148298972Y-97105833D01*
X148311760Y-97123076D01*
X148322796Y-97141489D01*
X148331975Y-97160895D01*
X148339207Y-97181107D01*
X148344423Y-97201931D01*
X148347573Y-97223166D01*
X148348626Y-97244607D01*
X148347573Y-97266048D01*
X148344423Y-97287283D01*
X148339207Y-97308107D01*
X148331975Y-97328319D01*
X148322796Y-97347725D01*
X148311760Y-97366138D01*
X148298972Y-97383381D01*
X148284556Y-97399287D01*
X147922163Y-97761680D01*
X147906257Y-97776096D01*
X147889014Y-97788884D01*
X147870601Y-97799920D01*
X147851195Y-97809099D01*
X147830983Y-97816331D01*
X147810159Y-97821547D01*
X147788924Y-97824697D01*
X147767483Y-97825750D01*
X147746042Y-97824697D01*
X147724807Y-97821547D01*
X147703983Y-97816331D01*
X147683771Y-97809099D01*
X147664365Y-97799920D01*
X147645952Y-97788884D01*
X147628709Y-97776096D01*
X147612803Y-97761680D01*
X147303444Y-97452321D01*
X147289028Y-97436415D01*
X147276240Y-97419172D01*
X147265204Y-97400759D01*
X147256025Y-97381353D01*
X147248793Y-97361141D01*
X147243577Y-97340317D01*
X147240427Y-97319082D01*
X147239374Y-97297641D01*
X147240427Y-97276200D01*
X147243577Y-97254965D01*
X147248793Y-97234141D01*
X147256025Y-97213929D01*
X147265204Y-97194523D01*
X147276240Y-97176110D01*
X147289028Y-97158867D01*
X147303444Y-97142961D01*
X147665837Y-96780568D01*
X147681743Y-96766152D01*
X147698986Y-96753364D01*
X147717399Y-96742328D01*
X147736805Y-96733149D01*
X147757017Y-96725917D01*
X147777841Y-96720701D01*
X147799076Y-96717551D01*
X147820517Y-96716498D01*
X147841958Y-96717551D01*
G37*
G36*
X138839191Y-95781177D02*
G01*
X138860426Y-95784327D01*
X138881250Y-95789543D01*
X138901462Y-95796775D01*
X138920868Y-95805954D01*
X138939281Y-95816990D01*
X138956524Y-95829778D01*
X138972430Y-95844194D01*
X138986846Y-95860100D01*
X138999634Y-95877343D01*
X139010670Y-95895756D01*
X139019849Y-95915162D01*
X139027081Y-95935374D01*
X139032297Y-95956198D01*
X139035447Y-95977433D01*
X139036500Y-95998874D01*
X139036500Y-96511374D01*
X139035447Y-96532815D01*
X139032297Y-96554050D01*
X139027081Y-96574874D01*
X139019849Y-96595086D01*
X139010670Y-96614492D01*
X138999634Y-96632905D01*
X138986846Y-96650148D01*
X138972430Y-96666054D01*
X138956524Y-96680470D01*
X138939281Y-96693258D01*
X138920868Y-96704294D01*
X138901462Y-96713473D01*
X138881250Y-96720705D01*
X138860426Y-96725921D01*
X138839191Y-96729071D01*
X138817750Y-96730124D01*
X138380250Y-96730124D01*
X138358809Y-96729071D01*
X138337574Y-96725921D01*
X138316750Y-96720705D01*
X138296538Y-96713473D01*
X138277132Y-96704294D01*
X138258719Y-96693258D01*
X138241476Y-96680470D01*
X138225570Y-96666054D01*
X138211154Y-96650148D01*
X138198366Y-96632905D01*
X138187330Y-96614492D01*
X138178151Y-96595086D01*
X138170919Y-96574874D01*
X138165703Y-96554050D01*
X138162553Y-96532815D01*
X138161500Y-96511374D01*
X138161500Y-95998874D01*
X138162553Y-95977433D01*
X138165703Y-95956198D01*
X138170919Y-95935374D01*
X138178151Y-95915162D01*
X138187330Y-95895756D01*
X138198366Y-95877343D01*
X138211154Y-95860100D01*
X138225570Y-95844194D01*
X138241476Y-95829778D01*
X138258719Y-95816990D01*
X138277132Y-95805954D01*
X138296538Y-95796775D01*
X138316750Y-95789543D01*
X138337574Y-95784327D01*
X138358809Y-95781177D01*
X138380250Y-95780124D01*
X138817750Y-95780124D01*
X138839191Y-95781177D01*
G37*
G36*
X140414191Y-95781177D02*
G01*
X140435426Y-95784327D01*
X140456250Y-95789543D01*
X140476462Y-95796775D01*
X140495868Y-95805954D01*
X140514281Y-95816990D01*
X140531524Y-95829778D01*
X140547430Y-95844194D01*
X140561846Y-95860100D01*
X140574634Y-95877343D01*
X140585670Y-95895756D01*
X140594849Y-95915162D01*
X140602081Y-95935374D01*
X140607297Y-95956198D01*
X140610447Y-95977433D01*
X140611500Y-95998874D01*
X140611500Y-96511374D01*
X140610447Y-96532815D01*
X140607297Y-96554050D01*
X140602081Y-96574874D01*
X140594849Y-96595086D01*
X140585670Y-96614492D01*
X140574634Y-96632905D01*
X140561846Y-96650148D01*
X140547430Y-96666054D01*
X140531524Y-96680470D01*
X140514281Y-96693258D01*
X140495868Y-96704294D01*
X140476462Y-96713473D01*
X140456250Y-96720705D01*
X140435426Y-96725921D01*
X140414191Y-96729071D01*
X140392750Y-96730124D01*
X139955250Y-96730124D01*
X139933809Y-96729071D01*
X139912574Y-96725921D01*
X139891750Y-96720705D01*
X139871538Y-96713473D01*
X139852132Y-96704294D01*
X139833719Y-96693258D01*
X139816476Y-96680470D01*
X139800570Y-96666054D01*
X139786154Y-96650148D01*
X139773366Y-96632905D01*
X139762330Y-96614492D01*
X139753151Y-96595086D01*
X139745919Y-96574874D01*
X139740703Y-96554050D01*
X139737553Y-96532815D01*
X139736500Y-96511374D01*
X139736500Y-95998874D01*
X139737553Y-95977433D01*
X139740703Y-95956198D01*
X139745919Y-95935374D01*
X139753151Y-95915162D01*
X139762330Y-95895756D01*
X139773366Y-95877343D01*
X139786154Y-95860100D01*
X139800570Y-95844194D01*
X139816476Y-95829778D01*
X139833719Y-95816990D01*
X139852132Y-95805954D01*
X139871538Y-95796775D01*
X139891750Y-95789543D01*
X139912574Y-95784327D01*
X139933809Y-95781177D01*
X139955250Y-95780124D01*
X140392750Y-95780124D01*
X140414191Y-95781177D01*
G37*
G36*
X133617958Y-110990398D02*
G01*
X133639193Y-110993548D01*
X133660017Y-110998764D01*
X133680229Y-111005996D01*
X133699635Y-111015175D01*
X133718048Y-111026211D01*
X133735291Y-111038999D01*
X133751197Y-111053415D01*
X134060556Y-111362774D01*
X134074972Y-111378680D01*
X134087760Y-111395923D01*
X134098796Y-111414336D01*
X134107975Y-111433742D01*
X134115207Y-111453954D01*
X134120423Y-111474778D01*
X134123573Y-111496013D01*
X134124626Y-111517454D01*
X134123573Y-111538895D01*
X134120423Y-111560130D01*
X134115207Y-111580954D01*
X134107975Y-111601166D01*
X134098796Y-111620572D01*
X134087760Y-111638985D01*
X134074972Y-111656228D01*
X134060556Y-111672134D01*
X133698163Y-112034527D01*
X133682257Y-112048943D01*
X133665014Y-112061731D01*
X133646601Y-112072767D01*
X133627195Y-112081946D01*
X133606983Y-112089178D01*
X133586159Y-112094394D01*
X133564924Y-112097544D01*
X133543483Y-112098597D01*
X133522042Y-112097544D01*
X133500807Y-112094394D01*
X133479983Y-112089178D01*
X133459771Y-112081946D01*
X133440365Y-112072767D01*
X133421952Y-112061731D01*
X133404709Y-112048943D01*
X133388803Y-112034527D01*
X133079444Y-111725168D01*
X133065028Y-111709262D01*
X133052240Y-111692019D01*
X133041204Y-111673606D01*
X133032025Y-111654200D01*
X133024793Y-111633988D01*
X133019577Y-111613164D01*
X133016427Y-111591929D01*
X133015374Y-111570488D01*
X133016427Y-111549047D01*
X133019577Y-111527812D01*
X133024793Y-111506988D01*
X133032025Y-111486776D01*
X133041204Y-111467370D01*
X133052240Y-111448957D01*
X133065028Y-111431714D01*
X133079444Y-111415808D01*
X133441837Y-111053415D01*
X133457743Y-111038999D01*
X133474986Y-111026211D01*
X133493399Y-111015175D01*
X133512805Y-111005996D01*
X133533017Y-110998764D01*
X133553841Y-110993548D01*
X133575076Y-110990398D01*
X133596517Y-110989345D01*
X133617958Y-110990398D01*
G37*
G36*
X132504264Y-109876704D02*
G01*
X132525499Y-109879854D01*
X132546323Y-109885070D01*
X132566535Y-109892302D01*
X132585941Y-109901481D01*
X132604354Y-109912517D01*
X132621597Y-109925305D01*
X132637503Y-109939721D01*
X132946862Y-110249080D01*
X132961278Y-110264986D01*
X132974066Y-110282229D01*
X132985102Y-110300642D01*
X132994281Y-110320048D01*
X133001513Y-110340260D01*
X133006729Y-110361084D01*
X133009879Y-110382319D01*
X133010932Y-110403760D01*
X133009879Y-110425201D01*
X133006729Y-110446436D01*
X133001513Y-110467260D01*
X132994281Y-110487472D01*
X132985102Y-110506878D01*
X132974066Y-110525291D01*
X132961278Y-110542534D01*
X132946862Y-110558440D01*
X132584469Y-110920833D01*
X132568563Y-110935249D01*
X132551320Y-110948037D01*
X132532907Y-110959073D01*
X132513501Y-110968252D01*
X132493289Y-110975484D01*
X132472465Y-110980700D01*
X132451230Y-110983850D01*
X132429789Y-110984903D01*
X132408348Y-110983850D01*
X132387113Y-110980700D01*
X132366289Y-110975484D01*
X132346077Y-110968252D01*
X132326671Y-110959073D01*
X132308258Y-110948037D01*
X132291015Y-110935249D01*
X132275109Y-110920833D01*
X131965750Y-110611474D01*
X131951334Y-110595568D01*
X131938546Y-110578325D01*
X131927510Y-110559912D01*
X131918331Y-110540506D01*
X131911099Y-110520294D01*
X131905883Y-110499470D01*
X131902733Y-110478235D01*
X131901680Y-110456794D01*
X131902733Y-110435353D01*
X131905883Y-110414118D01*
X131911099Y-110393294D01*
X131918331Y-110373082D01*
X131927510Y-110353676D01*
X131938546Y-110335263D01*
X131951334Y-110318020D01*
X131965750Y-110302114D01*
X132328143Y-109939721D01*
X132344049Y-109925305D01*
X132361292Y-109912517D01*
X132379705Y-109901481D01*
X132399111Y-109892302D01*
X132419323Y-109885070D01*
X132440147Y-109879854D01*
X132461382Y-109876704D01*
X132482823Y-109875651D01*
X132504264Y-109876704D01*
G37*
G36*
X146362618Y-109827857D02*
G01*
X146383853Y-109831007D01*
X146404677Y-109836223D01*
X146424889Y-109843455D01*
X146444295Y-109852634D01*
X146462708Y-109863670D01*
X146479951Y-109876458D01*
X146495857Y-109890874D01*
X146858250Y-110253267D01*
X146872666Y-110269173D01*
X146885454Y-110286416D01*
X146896490Y-110304829D01*
X146905669Y-110324235D01*
X146912901Y-110344447D01*
X146918117Y-110365271D01*
X146921267Y-110386506D01*
X146922320Y-110407947D01*
X146921267Y-110429388D01*
X146918117Y-110450623D01*
X146912901Y-110471447D01*
X146905669Y-110491659D01*
X146896490Y-110511065D01*
X146885454Y-110529478D01*
X146872666Y-110546721D01*
X146858250Y-110562627D01*
X146548891Y-110871986D01*
X146532985Y-110886402D01*
X146515742Y-110899190D01*
X146497329Y-110910226D01*
X146477923Y-110919405D01*
X146457711Y-110926637D01*
X146436887Y-110931853D01*
X146415652Y-110935003D01*
X146394211Y-110936056D01*
X146372770Y-110935003D01*
X146351535Y-110931853D01*
X146330711Y-110926637D01*
X146310499Y-110919405D01*
X146291093Y-110910226D01*
X146272680Y-110899190D01*
X146255437Y-110886402D01*
X146239531Y-110871986D01*
X145877138Y-110509593D01*
X145862722Y-110493687D01*
X145849934Y-110476444D01*
X145838898Y-110458031D01*
X145829719Y-110438625D01*
X145822487Y-110418413D01*
X145817271Y-110397589D01*
X145814121Y-110376354D01*
X145813068Y-110354913D01*
X145814121Y-110333472D01*
X145817271Y-110312237D01*
X145822487Y-110291413D01*
X145829719Y-110271201D01*
X145838898Y-110251795D01*
X145849934Y-110233382D01*
X145862722Y-110216139D01*
X145877138Y-110200233D01*
X146186497Y-109890874D01*
X146202403Y-109876458D01*
X146219646Y-109863670D01*
X146238059Y-109852634D01*
X146257465Y-109843455D01*
X146277677Y-109836223D01*
X146298501Y-109831007D01*
X146319736Y-109827857D01*
X146341177Y-109826804D01*
X146362618Y-109827857D01*
G37*
G36*
X145248924Y-110941551D02*
G01*
X145270159Y-110944701D01*
X145290983Y-110949917D01*
X145311195Y-110957149D01*
X145330601Y-110966328D01*
X145349014Y-110977364D01*
X145366257Y-110990152D01*
X145382163Y-111004568D01*
X145744556Y-111366961D01*
X145758972Y-111382867D01*
X145771760Y-111400110D01*
X145782796Y-111418523D01*
X145791975Y-111437929D01*
X145799207Y-111458141D01*
X145804423Y-111478965D01*
X145807573Y-111500200D01*
X145808626Y-111521641D01*
X145807573Y-111543082D01*
X145804423Y-111564317D01*
X145799207Y-111585141D01*
X145791975Y-111605353D01*
X145782796Y-111624759D01*
X145771760Y-111643172D01*
X145758972Y-111660415D01*
X145744556Y-111676321D01*
X145435197Y-111985680D01*
X145419291Y-112000096D01*
X145402048Y-112012884D01*
X145383635Y-112023920D01*
X145364229Y-112033099D01*
X145344017Y-112040331D01*
X145323193Y-112045547D01*
X145301958Y-112048697D01*
X145280517Y-112049750D01*
X145259076Y-112048697D01*
X145237841Y-112045547D01*
X145217017Y-112040331D01*
X145196805Y-112033099D01*
X145177399Y-112023920D01*
X145158986Y-112012884D01*
X145141743Y-112000096D01*
X145125837Y-111985680D01*
X144763444Y-111623287D01*
X144749028Y-111607381D01*
X144736240Y-111590138D01*
X144725204Y-111571725D01*
X144716025Y-111552319D01*
X144708793Y-111532107D01*
X144703577Y-111511283D01*
X144700427Y-111490048D01*
X144699374Y-111468607D01*
X144700427Y-111447166D01*
X144703577Y-111425931D01*
X144708793Y-111405107D01*
X144716025Y-111384895D01*
X144725204Y-111365489D01*
X144736240Y-111347076D01*
X144749028Y-111329833D01*
X144763444Y-111313927D01*
X145072803Y-111004568D01*
X145088709Y-110990152D01*
X145105952Y-110977364D01*
X145124365Y-110966328D01*
X145143771Y-110957149D01*
X145163983Y-110949917D01*
X145184807Y-110944701D01*
X145206042Y-110941551D01*
X145227483Y-110940498D01*
X145248924Y-110941551D01*
G37*
G36*
X132451230Y-98085245D02*
G01*
X132472465Y-98088395D01*
X132493289Y-98093611D01*
X132513501Y-98100843D01*
X132532907Y-98110022D01*
X132551320Y-98121058D01*
X132568563Y-98133846D01*
X132584469Y-98148262D01*
X132946862Y-98510655D01*
X132961278Y-98526561D01*
X132974066Y-98543804D01*
X132985102Y-98562217D01*
X132994281Y-98581623D01*
X133001513Y-98601835D01*
X133006729Y-98622659D01*
X133009879Y-98643894D01*
X133010932Y-98665335D01*
X133009879Y-98686776D01*
X133006729Y-98708011D01*
X133001513Y-98728835D01*
X132994281Y-98749047D01*
X132985102Y-98768453D01*
X132974066Y-98786866D01*
X132961278Y-98804109D01*
X132946862Y-98820015D01*
X132637503Y-99129374D01*
X132621597Y-99143790D01*
X132604354Y-99156578D01*
X132585941Y-99167614D01*
X132566535Y-99176793D01*
X132546323Y-99184025D01*
X132525499Y-99189241D01*
X132504264Y-99192391D01*
X132482823Y-99193444D01*
X132461382Y-99192391D01*
X132440147Y-99189241D01*
X132419323Y-99184025D01*
X132399111Y-99176793D01*
X132379705Y-99167614D01*
X132361292Y-99156578D01*
X132344049Y-99143790D01*
X132328143Y-99129374D01*
X131965750Y-98766981D01*
X131951334Y-98751075D01*
X131938546Y-98733832D01*
X131927510Y-98715419D01*
X131918331Y-98696013D01*
X131911099Y-98675801D01*
X131905883Y-98654977D01*
X131902733Y-98633742D01*
X131901680Y-98612301D01*
X131902733Y-98590860D01*
X131905883Y-98569625D01*
X131911099Y-98548801D01*
X131918331Y-98528589D01*
X131927510Y-98509183D01*
X131938546Y-98490770D01*
X131951334Y-98473527D01*
X131965750Y-98457621D01*
X132275109Y-98148262D01*
X132291015Y-98133846D01*
X132308258Y-98121058D01*
X132326671Y-98110022D01*
X132346077Y-98100843D01*
X132366289Y-98093611D01*
X132387113Y-98088395D01*
X132408348Y-98085245D01*
X132429789Y-98084192D01*
X132451230Y-98085245D01*
G37*
G36*
X133564924Y-96971551D02*
G01*
X133586159Y-96974701D01*
X133606983Y-96979917D01*
X133627195Y-96987149D01*
X133646601Y-96996328D01*
X133665014Y-97007364D01*
X133682257Y-97020152D01*
X133698163Y-97034568D01*
X134060556Y-97396961D01*
X134074972Y-97412867D01*
X134087760Y-97430110D01*
X134098796Y-97448523D01*
X134107975Y-97467929D01*
X134115207Y-97488141D01*
X134120423Y-97508965D01*
X134123573Y-97530200D01*
X134124626Y-97551641D01*
X134123573Y-97573082D01*
X134120423Y-97594317D01*
X134115207Y-97615141D01*
X134107975Y-97635353D01*
X134098796Y-97654759D01*
X134087760Y-97673172D01*
X134074972Y-97690415D01*
X134060556Y-97706321D01*
X133751197Y-98015680D01*
X133735291Y-98030096D01*
X133718048Y-98042884D01*
X133699635Y-98053920D01*
X133680229Y-98063099D01*
X133660017Y-98070331D01*
X133639193Y-98075547D01*
X133617958Y-98078697D01*
X133596517Y-98079750D01*
X133575076Y-98078697D01*
X133553841Y-98075547D01*
X133533017Y-98070331D01*
X133512805Y-98063099D01*
X133493399Y-98053920D01*
X133474986Y-98042884D01*
X133457743Y-98030096D01*
X133441837Y-98015680D01*
X133079444Y-97653287D01*
X133065028Y-97637381D01*
X133052240Y-97620138D01*
X133041204Y-97601725D01*
X133032025Y-97582319D01*
X133024793Y-97562107D01*
X133019577Y-97541283D01*
X133016427Y-97520048D01*
X133015374Y-97498607D01*
X133016427Y-97477166D01*
X133019577Y-97455931D01*
X133024793Y-97435107D01*
X133032025Y-97414895D01*
X133041204Y-97395489D01*
X133052240Y-97377076D01*
X133065028Y-97359833D01*
X133079444Y-97343927D01*
X133388803Y-97034568D01*
X133404709Y-97020152D01*
X133421952Y-97007364D01*
X133440365Y-96996328D01*
X133459771Y-96987149D01*
X133479983Y-96979917D01*
X133500807Y-96974701D01*
X133522042Y-96971551D01*
X133543483Y-96970498D01*
X133564924Y-96971551D01*
G37*
G36*
X145458264Y-96873857D02*
G01*
X145479499Y-96877007D01*
X145500323Y-96882223D01*
X145520535Y-96889455D01*
X145539941Y-96898634D01*
X145558354Y-96909670D01*
X145575597Y-96922458D01*
X145591503Y-96936874D01*
X145900862Y-97246233D01*
X145915278Y-97262139D01*
X145928066Y-97279382D01*
X145939102Y-97297795D01*
X145948281Y-97317201D01*
X145955513Y-97337413D01*
X145960729Y-97358237D01*
X145963879Y-97379472D01*
X145964932Y-97400913D01*
X145963879Y-97422354D01*
X145960729Y-97443589D01*
X145955513Y-97464413D01*
X145948281Y-97484625D01*
X145939102Y-97504031D01*
X145928066Y-97522444D01*
X145915278Y-97539687D01*
X145900862Y-97555593D01*
X145538469Y-97917986D01*
X145522563Y-97932402D01*
X145505320Y-97945190D01*
X145486907Y-97956226D01*
X145467501Y-97965405D01*
X145447289Y-97972637D01*
X145426465Y-97977853D01*
X145405230Y-97981003D01*
X145383789Y-97982056D01*
X145362348Y-97981003D01*
X145341113Y-97977853D01*
X145320289Y-97972637D01*
X145300077Y-97965405D01*
X145280671Y-97956226D01*
X145262258Y-97945190D01*
X145245015Y-97932402D01*
X145229109Y-97917986D01*
X144919750Y-97608627D01*
X144905334Y-97592721D01*
X144892546Y-97575478D01*
X144881510Y-97557065D01*
X144872331Y-97537659D01*
X144865099Y-97517447D01*
X144859883Y-97496623D01*
X144856733Y-97475388D01*
X144855680Y-97453947D01*
X144856733Y-97432506D01*
X144859883Y-97411271D01*
X144865099Y-97390447D01*
X144872331Y-97370235D01*
X144881510Y-97350829D01*
X144892546Y-97332416D01*
X144905334Y-97315173D01*
X144919750Y-97299267D01*
X145282143Y-96936874D01*
X145298049Y-96922458D01*
X145315292Y-96909670D01*
X145333705Y-96898634D01*
X145353111Y-96889455D01*
X145373323Y-96882223D01*
X145394147Y-96877007D01*
X145415382Y-96873857D01*
X145436823Y-96872804D01*
X145458264Y-96873857D01*
G37*
G36*
X146571958Y-97987551D02*
G01*
X146593193Y-97990701D01*
X146614017Y-97995917D01*
X146634229Y-98003149D01*
X146653635Y-98012328D01*
X146672048Y-98023364D01*
X146689291Y-98036152D01*
X146705197Y-98050568D01*
X147014556Y-98359927D01*
X147028972Y-98375833D01*
X147041760Y-98393076D01*
X147052796Y-98411489D01*
X147061975Y-98430895D01*
X147069207Y-98451107D01*
X147074423Y-98471931D01*
X147077573Y-98493166D01*
X147078626Y-98514607D01*
X147077573Y-98536048D01*
X147074423Y-98557283D01*
X147069207Y-98578107D01*
X147061975Y-98598319D01*
X147052796Y-98617725D01*
X147041760Y-98636138D01*
X147028972Y-98653381D01*
X147014556Y-98669287D01*
X146652163Y-99031680D01*
X146636257Y-99046096D01*
X146619014Y-99058884D01*
X146600601Y-99069920D01*
X146581195Y-99079099D01*
X146560983Y-99086331D01*
X146540159Y-99091547D01*
X146518924Y-99094697D01*
X146497483Y-99095750D01*
X146476042Y-99094697D01*
X146454807Y-99091547D01*
X146433983Y-99086331D01*
X146413771Y-99079099D01*
X146394365Y-99069920D01*
X146375952Y-99058884D01*
X146358709Y-99046096D01*
X146342803Y-99031680D01*
X146033444Y-98722321D01*
X146019028Y-98706415D01*
X146006240Y-98689172D01*
X145995204Y-98670759D01*
X145986025Y-98651353D01*
X145978793Y-98631141D01*
X145973577Y-98610317D01*
X145970427Y-98589082D01*
X145969374Y-98567641D01*
X145970427Y-98546200D01*
X145973577Y-98524965D01*
X145978793Y-98504141D01*
X145986025Y-98483929D01*
X145995204Y-98464523D01*
X146006240Y-98446110D01*
X146019028Y-98428867D01*
X146033444Y-98412961D01*
X146395837Y-98050568D01*
X146411743Y-98036152D01*
X146428986Y-98023364D01*
X146447399Y-98012328D01*
X146466805Y-98003149D01*
X146487017Y-97995917D01*
X146507841Y-97990701D01*
X146529076Y-97987551D01*
X146550517Y-97986498D01*
X146571958Y-97987551D01*
G37*
G36*
X150704191Y-100283177D02*
G01*
X150725426Y-100286327D01*
X150746250Y-100291543D01*
X150766462Y-100298775D01*
X150785868Y-100307954D01*
X150804281Y-100318990D01*
X150821524Y-100331778D01*
X150837430Y-100346194D01*
X150851846Y-100362100D01*
X150864634Y-100379343D01*
X150875670Y-100397756D01*
X150884849Y-100417162D01*
X150892081Y-100437374D01*
X150897297Y-100458198D01*
X150900447Y-100479433D01*
X150901500Y-100500874D01*
X150901500Y-101013374D01*
X150900447Y-101034815D01*
X150897297Y-101056050D01*
X150892081Y-101076874D01*
X150884849Y-101097086D01*
X150875670Y-101116492D01*
X150864634Y-101134905D01*
X150851846Y-101152148D01*
X150837430Y-101168054D01*
X150821524Y-101182470D01*
X150804281Y-101195258D01*
X150785868Y-101206294D01*
X150766462Y-101215473D01*
X150746250Y-101222705D01*
X150725426Y-101227921D01*
X150704191Y-101231071D01*
X150682750Y-101232124D01*
X150245250Y-101232124D01*
X150223809Y-101231071D01*
X150202574Y-101227921D01*
X150181750Y-101222705D01*
X150161538Y-101215473D01*
X150142132Y-101206294D01*
X150123719Y-101195258D01*
X150106476Y-101182470D01*
X150090570Y-101168054D01*
X150076154Y-101152148D01*
X150063366Y-101134905D01*
X150052330Y-101116492D01*
X150043151Y-101097086D01*
X150035919Y-101076874D01*
X150030703Y-101056050D01*
X150027553Y-101034815D01*
X150026500Y-101013374D01*
X150026500Y-100500874D01*
X150027553Y-100479433D01*
X150030703Y-100458198D01*
X150035919Y-100437374D01*
X150043151Y-100417162D01*
X150052330Y-100397756D01*
X150063366Y-100379343D01*
X150076154Y-100362100D01*
X150090570Y-100346194D01*
X150106476Y-100331778D01*
X150123719Y-100318990D01*
X150142132Y-100307954D01*
X150161538Y-100298775D01*
X150181750Y-100291543D01*
X150202574Y-100286327D01*
X150223809Y-100283177D01*
X150245250Y-100282124D01*
X150682750Y-100282124D01*
X150704191Y-100283177D01*
G37*
G36*
X152279191Y-100283177D02*
G01*
X152300426Y-100286327D01*
X152321250Y-100291543D01*
X152341462Y-100298775D01*
X152360868Y-100307954D01*
X152379281Y-100318990D01*
X152396524Y-100331778D01*
X152412430Y-100346194D01*
X152426846Y-100362100D01*
X152439634Y-100379343D01*
X152450670Y-100397756D01*
X152459849Y-100417162D01*
X152467081Y-100437374D01*
X152472297Y-100458198D01*
X152475447Y-100479433D01*
X152476500Y-100500874D01*
X152476500Y-101013374D01*
X152475447Y-101034815D01*
X152472297Y-101056050D01*
X152467081Y-101076874D01*
X152459849Y-101097086D01*
X152450670Y-101116492D01*
X152439634Y-101134905D01*
X152426846Y-101152148D01*
X152412430Y-101168054D01*
X152396524Y-101182470D01*
X152379281Y-101195258D01*
X152360868Y-101206294D01*
X152341462Y-101215473D01*
X152321250Y-101222705D01*
X152300426Y-101227921D01*
X152279191Y-101231071D01*
X152257750Y-101232124D01*
X151820250Y-101232124D01*
X151798809Y-101231071D01*
X151777574Y-101227921D01*
X151756750Y-101222705D01*
X151736538Y-101215473D01*
X151717132Y-101206294D01*
X151698719Y-101195258D01*
X151681476Y-101182470D01*
X151665570Y-101168054D01*
X151651154Y-101152148D01*
X151638366Y-101134905D01*
X151627330Y-101116492D01*
X151618151Y-101097086D01*
X151610919Y-101076874D01*
X151605703Y-101056050D01*
X151602553Y-101034815D01*
X151601500Y-101013374D01*
X151601500Y-100500874D01*
X151602553Y-100479433D01*
X151605703Y-100458198D01*
X151610919Y-100437374D01*
X151618151Y-100417162D01*
X151627330Y-100397756D01*
X151638366Y-100379343D01*
X151651154Y-100362100D01*
X151665570Y-100346194D01*
X151681476Y-100331778D01*
X151698719Y-100318990D01*
X151717132Y-100307954D01*
X151736538Y-100298775D01*
X151756750Y-100291543D01*
X151777574Y-100286327D01*
X151798809Y-100283177D01*
X151820250Y-100282124D01*
X152257750Y-100282124D01*
X152279191Y-100283177D01*
G37*
G36*
X152279191Y-107649177D02*
G01*
X152300426Y-107652327D01*
X152321250Y-107657543D01*
X152341462Y-107664775D01*
X152360868Y-107673954D01*
X152379281Y-107684990D01*
X152396524Y-107697778D01*
X152412430Y-107712194D01*
X152426846Y-107728100D01*
X152439634Y-107745343D01*
X152450670Y-107763756D01*
X152459849Y-107783162D01*
X152467081Y-107803374D01*
X152472297Y-107824198D01*
X152475447Y-107845433D01*
X152476500Y-107866874D01*
X152476500Y-108379374D01*
X152475447Y-108400815D01*
X152472297Y-108422050D01*
X152467081Y-108442874D01*
X152459849Y-108463086D01*
X152450670Y-108482492D01*
X152439634Y-108500905D01*
X152426846Y-108518148D01*
X152412430Y-108534054D01*
X152396524Y-108548470D01*
X152379281Y-108561258D01*
X152360868Y-108572294D01*
X152341462Y-108581473D01*
X152321250Y-108588705D01*
X152300426Y-108593921D01*
X152279191Y-108597071D01*
X152257750Y-108598124D01*
X151820250Y-108598124D01*
X151798809Y-108597071D01*
X151777574Y-108593921D01*
X151756750Y-108588705D01*
X151736538Y-108581473D01*
X151717132Y-108572294D01*
X151698719Y-108561258D01*
X151681476Y-108548470D01*
X151665570Y-108534054D01*
X151651154Y-108518148D01*
X151638366Y-108500905D01*
X151627330Y-108482492D01*
X151618151Y-108463086D01*
X151610919Y-108442874D01*
X151605703Y-108422050D01*
X151602553Y-108400815D01*
X151601500Y-108379374D01*
X151601500Y-107866874D01*
X151602553Y-107845433D01*
X151605703Y-107824198D01*
X151610919Y-107803374D01*
X151618151Y-107783162D01*
X151627330Y-107763756D01*
X151638366Y-107745343D01*
X151651154Y-107728100D01*
X151665570Y-107712194D01*
X151681476Y-107697778D01*
X151698719Y-107684990D01*
X151717132Y-107673954D01*
X151736538Y-107664775D01*
X151756750Y-107657543D01*
X151777574Y-107652327D01*
X151798809Y-107649177D01*
X151820250Y-107648124D01*
X152257750Y-107648124D01*
X152279191Y-107649177D01*
G37*
G36*
X150704191Y-107649177D02*
G01*
X150725426Y-107652327D01*
X150746250Y-107657543D01*
X150766462Y-107664775D01*
X150785868Y-107673954D01*
X150804281Y-107684990D01*
X150821524Y-107697778D01*
X150837430Y-107712194D01*
X150851846Y-107728100D01*
X150864634Y-107745343D01*
X150875670Y-107763756D01*
X150884849Y-107783162D01*
X150892081Y-107803374D01*
X150897297Y-107824198D01*
X150900447Y-107845433D01*
X150901500Y-107866874D01*
X150901500Y-108379374D01*
X150900447Y-108400815D01*
X150897297Y-108422050D01*
X150892081Y-108442874D01*
X150884849Y-108463086D01*
X150875670Y-108482492D01*
X150864634Y-108500905D01*
X150851846Y-108518148D01*
X150837430Y-108534054D01*
X150821524Y-108548470D01*
X150804281Y-108561258D01*
X150785868Y-108572294D01*
X150766462Y-108581473D01*
X150746250Y-108588705D01*
X150725426Y-108593921D01*
X150704191Y-108597071D01*
X150682750Y-108598124D01*
X150245250Y-108598124D01*
X150223809Y-108597071D01*
X150202574Y-108593921D01*
X150181750Y-108588705D01*
X150161538Y-108581473D01*
X150142132Y-108572294D01*
X150123719Y-108561258D01*
X150106476Y-108548470D01*
X150090570Y-108534054D01*
X150076154Y-108518148D01*
X150063366Y-108500905D01*
X150052330Y-108482492D01*
X150043151Y-108463086D01*
X150035919Y-108442874D01*
X150030703Y-108422050D01*
X150027553Y-108400815D01*
X150026500Y-108379374D01*
X150026500Y-107866874D01*
X150027553Y-107845433D01*
X150030703Y-107824198D01*
X150035919Y-107803374D01*
X150043151Y-107783162D01*
X150052330Y-107763756D01*
X150063366Y-107745343D01*
X150076154Y-107728100D01*
X150090570Y-107712194D01*
X150106476Y-107697778D01*
X150123719Y-107684990D01*
X150142132Y-107673954D01*
X150161538Y-107664775D01*
X150181750Y-107657543D01*
X150202574Y-107652327D01*
X150223809Y-107649177D01*
X150245250Y-107648124D01*
X150682750Y-107648124D01*
X150704191Y-107649177D01*
G37*
D11*
X152102440Y-105497124D03*
X152102440Y-103297124D03*
X150402440Y-103297124D03*
X150402440Y-105497124D03*
D12*
X142877503Y-78853648D03*
X136427503Y-78853648D03*
X142102503Y-78853648D03*
X137202503Y-78853648D03*
D13*
X137902503Y-78853648D03*
X141402503Y-78853648D03*
X138402503Y-78853648D03*
X140902503Y-78853648D03*
X138902503Y-78853648D03*
X140402503Y-78853648D03*
X139902503Y-78853648D03*
X139402503Y-78853648D03*
D14*
X142542503Y-77408648D03*
X136762503Y-77408648D03*
D15*
X133736693Y-100496232D03*
X133736693Y-101296232D03*
X133736693Y-102096232D03*
X133736693Y-102896232D03*
X133736693Y-103696232D03*
X133736693Y-104496232D03*
X133736693Y-105296232D03*
X133736693Y-106096232D03*
X133736693Y-106896232D03*
X133736693Y-107696232D03*
X133736693Y-108496232D03*
D16*
X135436693Y-110196232D03*
X136236693Y-110196232D03*
X137036693Y-110196232D03*
X137836693Y-110196232D03*
X138636693Y-110196232D03*
X139436693Y-110196232D03*
X140236693Y-110196232D03*
X141036693Y-110196232D03*
X141836693Y-110196232D03*
X142636693Y-110196232D03*
X143436693Y-110196232D03*
D15*
X145136693Y-108496232D03*
X145136693Y-107696232D03*
X145136693Y-106896232D03*
X145136693Y-106096232D03*
X145136693Y-105296232D03*
X145136693Y-104496232D03*
X145136693Y-103696232D03*
X145136693Y-102896232D03*
X145136693Y-102096232D03*
X145136693Y-101296232D03*
X145136693Y-100496232D03*
D16*
X143436693Y-98796232D03*
X142636693Y-98796232D03*
X141836693Y-98796232D03*
X141036693Y-98796232D03*
X140236693Y-98796232D03*
X139436693Y-98796232D03*
X138636693Y-98796232D03*
X137836693Y-98796232D03*
X137036693Y-98796232D03*
X136236693Y-98796232D03*
X135436693Y-98796232D03*
D17*
X144310000Y-87059124D03*
X140610000Y-93259124D03*
X140610000Y-87059124D03*
X144310000Y-93259124D03*
D18*
X249011203Y-120187450D03*
D19*
X247391924Y-125631340D03*
D18*
X243198740Y-123791528D03*
D20*
X242389101Y-126513473D03*
X252394747Y-124749207D03*
D18*
X229423567Y-118805299D03*
D19*
X227804288Y-124249189D03*
D18*
X223611104Y-122409377D03*
D20*
X222801465Y-125131322D03*
X232807111Y-123367056D03*
D18*
X209491346Y-115468913D03*
D19*
X207872067Y-120912803D03*
D18*
X203678883Y-119072991D03*
D20*
X202869244Y-121794936D03*
X212874890Y-120030670D03*
D18*
X191902298Y-125421311D03*
D19*
X190283019Y-130865201D03*
D18*
X186089835Y-129025389D03*
D20*
X185280196Y-131747334D03*
X195285842Y-129983068D03*
D18*
X174313248Y-135373709D03*
D19*
X172693969Y-140817599D03*
D18*
X168500785Y-138977787D03*
D20*
X167691146Y-141699732D03*
X177696792Y-139935466D03*
D18*
X153898609Y-129301397D03*
D19*
X152279330Y-134745287D03*
D18*
X148086146Y-132905475D03*
D20*
X147276507Y-135627420D03*
X157282153Y-133863154D03*
X132001353Y-135661503D03*
X121995707Y-133897237D03*
D18*
X123687479Y-131616359D03*
D19*
X126998530Y-134779370D03*
D18*
X130382074Y-130217613D03*
X109967434Y-136289925D03*
D19*
X106583890Y-140851682D03*
D18*
X103272839Y-137688671D03*
D20*
X101581067Y-139969549D03*
X111586713Y-141733815D03*
D18*
X92378386Y-126337527D03*
D19*
X88994842Y-130899284D03*
D18*
X85683791Y-127736273D03*
D20*
X83992019Y-130017151D03*
X93997665Y-131781417D03*
D18*
X74789337Y-116385129D03*
D19*
X71405793Y-120946886D03*
D18*
X68094742Y-117783875D03*
D20*
X66402970Y-120064753D03*
X76408616Y-121829019D03*
D18*
X54857116Y-119721515D03*
D19*
X51473572Y-124283272D03*
D18*
X48162521Y-121120261D03*
D20*
X46470749Y-123401139D03*
X56476395Y-125165405D03*
D18*
X35269480Y-121103668D03*
D19*
X31885936Y-125665425D03*
D18*
X28574885Y-122502414D03*
D20*
X26883113Y-124783292D03*
X36888759Y-126547558D03*
D18*
X245703197Y-101426816D03*
D19*
X244083918Y-106870706D03*
D18*
X239890734Y-105030894D03*
D20*
X239081095Y-107752839D03*
X249086741Y-105988573D03*
D18*
X226115562Y-100044663D03*
D19*
X224496283Y-105488553D03*
D18*
X220303099Y-103648741D03*
D20*
X219493460Y-106370686D03*
X229499106Y-104606420D03*
D18*
X206183340Y-96708278D03*
D19*
X204564061Y-102152168D03*
D18*
X200370877Y-100312356D03*
D20*
X199561238Y-103034301D03*
X209566884Y-101270035D03*
D18*
X188594292Y-106660675D03*
D19*
X186975013Y-112104565D03*
D18*
X182781829Y-110264753D03*
D20*
X181972190Y-112986698D03*
X191977836Y-111222432D03*
D18*
X171005241Y-116613073D03*
D19*
X169385962Y-122056963D03*
D18*
X165192778Y-120217151D03*
D20*
X164383139Y-122939096D03*
X174388785Y-121174830D03*
D18*
X113275441Y-117529289D03*
D19*
X109891897Y-122091046D03*
D18*
X106580846Y-118928035D03*
D20*
X104889074Y-121208913D03*
X114894720Y-122973179D03*
D18*
X95686391Y-107576892D03*
D19*
X92302847Y-112138649D03*
D18*
X88991796Y-108975638D03*
D20*
X87300024Y-111256516D03*
X97305670Y-113020782D03*
D18*
X78097343Y-97624496D03*
D19*
X74713799Y-102186253D03*
D18*
X71402748Y-99023242D03*
D20*
X69710976Y-101304120D03*
X79716622Y-103068386D03*
D18*
X58165123Y-100960880D03*
D19*
X54781579Y-105522637D03*
D18*
X51470528Y-102359626D03*
D20*
X49778756Y-104640504D03*
X59784402Y-106404770D03*
D18*
X38577486Y-102343032D03*
D19*
X35193942Y-106904789D03*
D18*
X31882891Y-103741778D03*
D20*
X30191119Y-106022656D03*
X40196765Y-107786922D03*
D18*
X242395191Y-82666181D03*
D19*
X240775912Y-88110071D03*
D18*
X236582728Y-86270259D03*
D20*
X235773089Y-88992204D03*
X245778735Y-87227938D03*
D18*
X222807556Y-81284028D03*
D19*
X221188277Y-86727918D03*
D18*
X216995093Y-84888106D03*
D20*
X216185454Y-87610051D03*
X226191100Y-85845785D03*
D18*
X202875334Y-77947643D03*
D19*
X201256055Y-83391533D03*
D18*
X197062871Y-81551721D03*
D20*
X196253232Y-84273666D03*
X206258878Y-82509400D03*
D18*
X185286286Y-87900041D03*
D19*
X183667007Y-93343931D03*
D18*
X179473823Y-91504119D03*
D20*
X178664184Y-94226064D03*
X188669830Y-92461798D03*
D18*
X167697235Y-97852439D03*
D19*
X166077956Y-103296329D03*
D18*
X161884772Y-101456517D03*
D20*
X161075133Y-104178462D03*
X171080779Y-102414196D03*
D18*
X116583447Y-98768655D03*
D19*
X113199903Y-103330412D03*
D18*
X109888852Y-100167401D03*
D20*
X108197080Y-102448279D03*
X118202726Y-104212545D03*
D18*
X98994398Y-88816258D03*
D19*
X95610854Y-93378015D03*
D18*
X92299803Y-90215004D03*
D20*
X90608031Y-92495882D03*
X100613677Y-94260148D03*
D18*
X81405349Y-78863860D03*
D19*
X78021805Y-83425617D03*
D18*
X74710754Y-80262606D03*
D20*
X73018982Y-82543484D03*
X83024628Y-84307750D03*
D18*
X61473129Y-82200245D03*
D19*
X58089585Y-86762002D03*
D18*
X54778534Y-83598991D03*
D20*
X53086762Y-85879869D03*
X63092408Y-87644135D03*
D18*
X41885492Y-83582398D03*
D19*
X38501948Y-88144155D03*
D18*
X35190897Y-84981144D03*
D20*
X33499125Y-87262022D03*
X43504771Y-89026288D03*
D18*
X239087185Y-63905546D03*
D19*
X237467906Y-69349436D03*
D18*
X233274722Y-67509624D03*
D20*
X232465083Y-70231569D03*
X242470729Y-68467303D03*
D18*
X219499548Y-62523393D03*
D19*
X217880269Y-67967283D03*
D18*
X213687085Y-66127471D03*
D20*
X212877446Y-68849416D03*
X222883092Y-67085150D03*
D18*
X199567329Y-59187008D03*
D19*
X197948050Y-64630898D03*
D18*
X193754866Y-62791086D03*
D20*
X192945227Y-65513031D03*
X202950873Y-63748765D03*
D18*
X181978280Y-69139405D03*
D19*
X180359001Y-74583295D03*
D18*
X176165817Y-72743483D03*
D20*
X175356178Y-75465428D03*
X185361824Y-73701162D03*
D18*
X164389230Y-79091803D03*
D19*
X162769951Y-84535693D03*
D18*
X158576767Y-82695881D03*
D20*
X157767128Y-85417826D03*
X167772774Y-83653560D03*
D18*
X119891453Y-80008020D03*
D19*
X116507909Y-84569777D03*
D18*
X113196858Y-81406766D03*
D20*
X111505086Y-83687644D03*
X121510732Y-85451910D03*
D18*
X102302403Y-70055622D03*
D19*
X98918859Y-74617379D03*
D18*
X95607808Y-71454368D03*
D20*
X93916036Y-73735246D03*
X103921682Y-75499512D03*
D18*
X84713356Y-60103226D03*
D19*
X81329812Y-64664983D03*
D18*
X78018761Y-61501972D03*
D20*
X76326989Y-63782850D03*
X86332635Y-65547116D03*
D18*
X64781135Y-63439610D03*
D19*
X61397591Y-68001367D03*
D18*
X58086540Y-64838356D03*
D20*
X56394768Y-67119234D03*
X66400414Y-68883500D03*
D18*
X45193498Y-64821763D03*
D19*
X41809954Y-69383520D03*
D18*
X38498903Y-66220509D03*
D20*
X36807131Y-68501387D03*
X46812777Y-70265653D03*
D10*
G36*
X134981504Y-84715328D02*
G01*
X135005773Y-84718928D01*
X135029571Y-84724889D01*
X135052671Y-84733154D01*
X135074849Y-84743644D01*
X135095893Y-84756257D01*
X135115598Y-84770871D01*
X135133777Y-84787347D01*
X135150253Y-84805526D01*
X135164867Y-84825231D01*
X135177480Y-84846275D01*
X135187970Y-84868453D01*
X135196235Y-84891553D01*
X135202196Y-84915351D01*
X135205796Y-84939620D01*
X135207000Y-84964124D01*
X135207000Y-85714124D01*
X135205796Y-85738628D01*
X135202196Y-85762897D01*
X135196235Y-85786695D01*
X135187970Y-85809795D01*
X135177480Y-85831973D01*
X135164867Y-85853017D01*
X135150253Y-85872722D01*
X135133777Y-85890901D01*
X135115598Y-85907377D01*
X135095893Y-85921991D01*
X135074849Y-85934604D01*
X135052671Y-85945094D01*
X135029571Y-85953359D01*
X135005773Y-85959320D01*
X134981504Y-85962920D01*
X134957000Y-85964124D01*
X133707000Y-85964124D01*
X133682496Y-85962920D01*
X133658227Y-85959320D01*
X133634429Y-85953359D01*
X133611329Y-85945094D01*
X133589151Y-85934604D01*
X133568107Y-85921991D01*
X133548402Y-85907377D01*
X133530223Y-85890901D01*
X133513747Y-85872722D01*
X133499133Y-85853017D01*
X133486520Y-85831973D01*
X133476030Y-85809795D01*
X133467765Y-85786695D01*
X133461804Y-85762897D01*
X133458204Y-85738628D01*
X133457000Y-85714124D01*
X133457000Y-84964124D01*
X133458204Y-84939620D01*
X133461804Y-84915351D01*
X133467765Y-84891553D01*
X133476030Y-84868453D01*
X133486520Y-84846275D01*
X133499133Y-84825231D01*
X133513747Y-84805526D01*
X133530223Y-84787347D01*
X133548402Y-84770871D01*
X133568107Y-84756257D01*
X133589151Y-84743644D01*
X133611329Y-84733154D01*
X133634429Y-84724889D01*
X133658227Y-84718928D01*
X133682496Y-84715328D01*
X133707000Y-84714124D01*
X134957000Y-84714124D01*
X134981504Y-84715328D01*
G37*
G36*
X134981504Y-81915328D02*
G01*
X135005773Y-81918928D01*
X135029571Y-81924889D01*
X135052671Y-81933154D01*
X135074849Y-81943644D01*
X135095893Y-81956257D01*
X135115598Y-81970871D01*
X135133777Y-81987347D01*
X135150253Y-82005526D01*
X135164867Y-82025231D01*
X135177480Y-82046275D01*
X135187970Y-82068453D01*
X135196235Y-82091553D01*
X135202196Y-82115351D01*
X135205796Y-82139620D01*
X135207000Y-82164124D01*
X135207000Y-82914124D01*
X135205796Y-82938628D01*
X135202196Y-82962897D01*
X135196235Y-82986695D01*
X135187970Y-83009795D01*
X135177480Y-83031973D01*
X135164867Y-83053017D01*
X135150253Y-83072722D01*
X135133777Y-83090901D01*
X135115598Y-83107377D01*
X135095893Y-83121991D01*
X135074849Y-83134604D01*
X135052671Y-83145094D01*
X135029571Y-83153359D01*
X135005773Y-83159320D01*
X134981504Y-83162920D01*
X134957000Y-83164124D01*
X133707000Y-83164124D01*
X133682496Y-83162920D01*
X133658227Y-83159320D01*
X133634429Y-83153359D01*
X133611329Y-83145094D01*
X133589151Y-83134604D01*
X133568107Y-83121991D01*
X133548402Y-83107377D01*
X133530223Y-83090901D01*
X133513747Y-83072722D01*
X133499133Y-83053017D01*
X133486520Y-83031973D01*
X133476030Y-83009795D01*
X133467765Y-82986695D01*
X133461804Y-82962897D01*
X133458204Y-82938628D01*
X133457000Y-82914124D01*
X133457000Y-82164124D01*
X133458204Y-82139620D01*
X133461804Y-82115351D01*
X133467765Y-82091553D01*
X133476030Y-82068453D01*
X133486520Y-82046275D01*
X133499133Y-82025231D01*
X133513747Y-82005526D01*
X133530223Y-81987347D01*
X133548402Y-81970871D01*
X133568107Y-81956257D01*
X133589151Y-81943644D01*
X133611329Y-81933154D01*
X133634429Y-81924889D01*
X133658227Y-81918928D01*
X133682496Y-81915328D01*
X133707000Y-81914124D01*
X134957000Y-81914124D01*
X134981504Y-81915328D01*
G37*
G36*
X248081241Y-118059083D02*
G01*
X247872864Y-116877314D01*
X248759191Y-116721031D01*
X248967568Y-117902800D01*
X248081241Y-118059083D01*
G37*
G36*
X244831375Y-118632121D02*
G01*
X244622998Y-117450352D01*
X245509325Y-117294069D01*
X245717702Y-118475838D01*
X244831375Y-118632121D01*
G37*
G36*
X228493603Y-116676930D02*
G01*
X228285226Y-115495161D01*
X229171553Y-115338878D01*
X229379930Y-116520647D01*
X228493603Y-116676930D01*
G37*
G36*
X225243737Y-117249968D02*
G01*
X225035360Y-116068199D01*
X225921687Y-115911916D01*
X226130064Y-117093685D01*
X225243737Y-117249968D01*
G37*
G36*
X208561384Y-113340545D02*
G01*
X208353007Y-112158776D01*
X209239334Y-112002493D01*
X209447711Y-113184262D01*
X208561384Y-113340545D01*
G37*
G36*
X205311518Y-113913583D02*
G01*
X205103141Y-112731814D01*
X205989468Y-112575531D01*
X206197845Y-113757300D01*
X205311518Y-113913583D01*
G37*
G36*
X190972334Y-123292942D02*
G01*
X190763957Y-122111173D01*
X191650284Y-121954890D01*
X191858661Y-123136659D01*
X190972334Y-123292942D01*
G37*
G36*
X187722468Y-123865980D02*
G01*
X187514091Y-122684211D01*
X188400418Y-122527928D01*
X188608795Y-123709697D01*
X187722468Y-123865980D01*
G37*
G36*
X173383285Y-133245340D02*
G01*
X173174908Y-132063571D01*
X174061235Y-131907288D01*
X174269612Y-133089057D01*
X173383285Y-133245340D01*
G37*
G36*
X170133419Y-133818378D02*
G01*
X169925042Y-132636609D01*
X170811369Y-132480326D01*
X171019746Y-133662095D01*
X170133419Y-133818378D01*
G37*
G36*
X152968647Y-127173029D02*
G01*
X152760270Y-125991260D01*
X153646597Y-125834977D01*
X153854974Y-127016746D01*
X152968647Y-127173029D01*
G37*
G36*
X149718781Y-127746067D02*
G01*
X149510404Y-126564298D01*
X150396731Y-126408015D01*
X150605108Y-127589784D01*
X149718781Y-127746067D01*
G37*
G36*
X130236139Y-127899535D02*
G01*
X130444516Y-126717766D01*
X131330843Y-126874049D01*
X131122466Y-128055818D01*
X130236139Y-127899535D01*
G37*
G36*
X126986273Y-127326497D02*
G01*
X127194650Y-126144728D01*
X128080977Y-126301011D01*
X127872600Y-127482780D01*
X126986273Y-127326497D01*
G37*
G36*
X109890418Y-133581000D02*
G01*
X110098795Y-132399231D01*
X110985122Y-132555514D01*
X110776745Y-133737283D01*
X109890418Y-133581000D01*
G37*
G36*
X106640552Y-133007962D02*
G01*
X106848929Y-131826193D01*
X107735256Y-131982476D01*
X107526879Y-133164245D01*
X106640552Y-133007962D01*
G37*
G36*
X92232452Y-124019449D02*
G01*
X92440829Y-122837680D01*
X93327156Y-122993963D01*
X93118779Y-124175732D01*
X92232452Y-124019449D01*
G37*
G36*
X88982586Y-123446411D02*
G01*
X89190963Y-122264642D01*
X90077290Y-122420925D01*
X89868913Y-123602694D01*
X88982586Y-123446411D01*
G37*
G36*
X74643403Y-114067051D02*
G01*
X74851780Y-112885282D01*
X75738107Y-113041565D01*
X75529730Y-114223334D01*
X74643403Y-114067051D01*
G37*
G36*
X71393537Y-113494013D02*
G01*
X71601914Y-112312244D01*
X72488241Y-112468527D01*
X72279864Y-113650296D01*
X71393537Y-113494013D01*
G37*
G36*
X54711181Y-117403437D02*
G01*
X54919558Y-116221668D01*
X55805885Y-116377951D01*
X55597508Y-117559720D01*
X54711181Y-117403437D01*
G37*
G36*
X51461315Y-116830399D02*
G01*
X51669692Y-115648630D01*
X52556019Y-115804913D01*
X52347642Y-116986682D01*
X51461315Y-116830399D01*
G37*
G36*
X35123545Y-118785589D02*
G01*
X35331922Y-117603820D01*
X36218249Y-117760103D01*
X36009872Y-118941872D01*
X35123545Y-118785589D01*
G37*
G36*
X31873679Y-118212551D02*
G01*
X32082056Y-117030782D01*
X32968383Y-117187065D01*
X32760006Y-118368834D01*
X31873679Y-118212551D01*
G37*
G36*
X244773233Y-99298448D02*
G01*
X244564856Y-98116679D01*
X245451183Y-97960396D01*
X245659560Y-99142165D01*
X244773233Y-99298448D01*
G37*
G36*
X241523367Y-99871486D02*
G01*
X241314990Y-98689717D01*
X242201317Y-98533434D01*
X242409694Y-99715203D01*
X241523367Y-99871486D01*
G37*
G36*
X225185597Y-97916296D02*
G01*
X224977220Y-96734527D01*
X225863547Y-96578244D01*
X226071924Y-97760013D01*
X225185597Y-97916296D01*
G37*
G36*
X221935731Y-98489334D02*
G01*
X221727354Y-97307565D01*
X222613681Y-97151282D01*
X222822058Y-98333051D01*
X221935731Y-98489334D01*
G37*
G36*
X205253376Y-94579910D02*
G01*
X205044999Y-93398141D01*
X205931326Y-93241858D01*
X206139703Y-94423627D01*
X205253376Y-94579910D01*
G37*
G36*
X202003510Y-95152948D02*
G01*
X201795133Y-93971179D01*
X202681460Y-93814896D01*
X202889837Y-94996665D01*
X202003510Y-95152948D01*
G37*
G36*
X187664328Y-104532307D02*
G01*
X187455951Y-103350538D01*
X188342278Y-103194255D01*
X188550655Y-104376024D01*
X187664328Y-104532307D01*
G37*
G36*
X184414462Y-105105345D02*
G01*
X184206085Y-103923576D01*
X185092412Y-103767293D01*
X185300789Y-104949062D01*
X184414462Y-105105345D01*
G37*
G36*
X170075279Y-114484706D02*
G01*
X169866902Y-113302937D01*
X170753229Y-113146654D01*
X170961606Y-114328423D01*
X170075279Y-114484706D01*
G37*
G36*
X166825413Y-115057744D02*
G01*
X166617036Y-113875975D01*
X167503363Y-113719692D01*
X167711740Y-114901461D01*
X166825413Y-115057744D01*
G37*
G36*
X113198424Y-114820365D02*
G01*
X113406801Y-113638596D01*
X114293128Y-113794879D01*
X114084751Y-114976648D01*
X113198424Y-114820365D01*
G37*
G36*
X109948558Y-114247327D02*
G01*
X110156935Y-113065558D01*
X111043262Y-113221841D01*
X110834885Y-114403610D01*
X109948558Y-114247327D01*
G37*
G36*
X95540458Y-105258815D02*
G01*
X95748835Y-104077046D01*
X96635162Y-104233329D01*
X96426785Y-105415098D01*
X95540458Y-105258815D01*
G37*
G36*
X92290592Y-104685777D02*
G01*
X92498969Y-103504008D01*
X93385296Y-103660291D01*
X93176919Y-104842060D01*
X92290592Y-104685777D01*
G37*
G36*
X77951409Y-95306416D02*
G01*
X78159786Y-94124647D01*
X79046113Y-94280930D01*
X78837736Y-95462699D01*
X77951409Y-95306416D01*
G37*
G36*
X74701543Y-94733378D02*
G01*
X74909920Y-93551609D01*
X75796247Y-93707892D01*
X75587870Y-94889661D01*
X74701543Y-94733378D01*
G37*
G36*
X58019188Y-98642801D02*
G01*
X58227565Y-97461032D01*
X59113892Y-97617315D01*
X58905515Y-98799084D01*
X58019188Y-98642801D01*
G37*
G36*
X54769322Y-98069763D02*
G01*
X54977699Y-96887994D01*
X55864026Y-97044277D01*
X55655649Y-98226046D01*
X54769322Y-98069763D01*
G37*
G36*
X38040705Y-99956037D02*
G01*
X38249082Y-98774268D01*
X39135409Y-98930551D01*
X38927032Y-100112320D01*
X38040705Y-99956037D01*
G37*
G36*
X34790839Y-99382999D02*
G01*
X34999216Y-98201230D01*
X35885543Y-98357513D01*
X35677166Y-99539282D01*
X34790839Y-99382999D01*
G37*
G36*
X241465228Y-80537814D02*
G01*
X241256851Y-79356045D01*
X242143178Y-79199762D01*
X242351555Y-80381531D01*
X241465228Y-80537814D01*
G37*
G36*
X238215362Y-81110852D02*
G01*
X238006985Y-79929083D01*
X238893312Y-79772800D01*
X239101689Y-80954569D01*
X238215362Y-81110852D01*
G37*
G36*
X221877592Y-79155660D02*
G01*
X221669215Y-77973891D01*
X222555542Y-77817608D01*
X222763919Y-78999377D01*
X221877592Y-79155660D01*
G37*
G36*
X218627726Y-79728698D02*
G01*
X218419349Y-78546929D01*
X219305676Y-78390646D01*
X219514053Y-79572415D01*
X218627726Y-79728698D01*
G37*
G36*
X201945370Y-75819274D02*
G01*
X201736993Y-74637505D01*
X202623320Y-74481222D01*
X202831697Y-75662991D01*
X201945370Y-75819274D01*
G37*
G36*
X198695504Y-76392312D02*
G01*
X198487127Y-75210543D01*
X199373454Y-75054260D01*
X199581831Y-76236029D01*
X198695504Y-76392312D01*
G37*
G36*
X184356322Y-85771672D02*
G01*
X184147945Y-84589903D01*
X185034272Y-84433620D01*
X185242649Y-85615389D01*
X184356322Y-85771672D01*
G37*
G36*
X181106456Y-86344710D02*
G01*
X180898079Y-85162941D01*
X181784406Y-85006658D01*
X181992783Y-86188427D01*
X181106456Y-86344710D01*
G37*
G36*
X166767271Y-95724070D02*
G01*
X166558894Y-94542301D01*
X167445221Y-94386018D01*
X167653598Y-95567787D01*
X166767271Y-95724070D01*
G37*
G36*
X163517405Y-96297108D02*
G01*
X163309028Y-95115339D01*
X164195355Y-94959056D01*
X164403732Y-96140825D01*
X163517405Y-96297108D01*
G37*
G36*
X116437514Y-96450577D02*
G01*
X116645891Y-95268808D01*
X117532218Y-95425091D01*
X117323841Y-96606860D01*
X116437514Y-96450577D01*
G37*
G36*
X113187648Y-95877539D02*
G01*
X113396025Y-94695770D01*
X114282352Y-94852053D01*
X114073975Y-96033822D01*
X113187648Y-95877539D01*
G37*
G36*
X98848464Y-86498179D02*
G01*
X99056841Y-85316410D01*
X99943168Y-85472693D01*
X99734791Y-86654462D01*
X98848464Y-86498179D01*
G37*
G36*
X95598598Y-85925141D02*
G01*
X95806975Y-84743372D01*
X96693302Y-84899655D01*
X96484925Y-86081424D01*
X95598598Y-85925141D01*
G37*
G36*
X81259414Y-76545780D02*
G01*
X81467791Y-75364011D01*
X82354118Y-75520294D01*
X82145741Y-76702063D01*
X81259414Y-76545780D01*
G37*
G36*
X78009548Y-75972742D02*
G01*
X78217925Y-74790973D01*
X79104252Y-74947256D01*
X78895875Y-76129025D01*
X78009548Y-75972742D01*
G37*
G36*
X61327194Y-79882167D02*
G01*
X61535571Y-78700398D01*
X62421898Y-78856681D01*
X62213521Y-80038450D01*
X61327194Y-79882167D01*
G37*
G36*
X58077328Y-79309129D02*
G01*
X58285705Y-78127360D01*
X59172032Y-78283643D01*
X58963655Y-79465412D01*
X58077328Y-79309129D01*
G37*
G36*
X41739558Y-81264319D02*
G01*
X41947935Y-80082550D01*
X42834262Y-80238833D01*
X42625885Y-81420602D01*
X41739558Y-81264319D01*
G37*
G36*
X38489692Y-80691281D02*
G01*
X38698069Y-79509512D01*
X39584396Y-79665795D01*
X39376019Y-80847564D01*
X38489692Y-80691281D01*
G37*
G36*
X238157221Y-61777178D02*
G01*
X237948844Y-60595409D01*
X238835171Y-60439126D01*
X239043548Y-61620895D01*
X238157221Y-61777178D01*
G37*
G36*
X234907355Y-62350216D02*
G01*
X234698978Y-61168447D01*
X235585305Y-61012164D01*
X235793682Y-62193933D01*
X234907355Y-62350216D01*
G37*
G36*
X218569586Y-60395026D02*
G01*
X218361209Y-59213257D01*
X219247536Y-59056974D01*
X219455913Y-60238743D01*
X218569586Y-60395026D01*
G37*
G36*
X215319720Y-60968064D02*
G01*
X215111343Y-59786295D01*
X215997670Y-59630012D01*
X216206047Y-60811781D01*
X215319720Y-60968064D01*
G37*
G36*
X198740821Y-57142834D02*
G01*
X198532444Y-55961065D01*
X199418771Y-55804782D01*
X199627148Y-56986551D01*
X198740821Y-57142834D01*
G37*
G36*
X195490955Y-57715872D02*
G01*
X195282578Y-56534103D01*
X196168905Y-56377820D01*
X196377282Y-57559589D01*
X195490955Y-57715872D01*
G37*
G36*
X181048316Y-67011037D02*
G01*
X180839939Y-65829268D01*
X181726266Y-65672985D01*
X181934643Y-66854754D01*
X181048316Y-67011037D01*
G37*
G36*
X177798450Y-67584075D02*
G01*
X177590073Y-66402306D01*
X178476400Y-66246023D01*
X178684777Y-67427792D01*
X177798450Y-67584075D01*
G37*
G36*
X163459264Y-76963436D02*
G01*
X163250887Y-75781667D01*
X164137214Y-75625384D01*
X164345591Y-76807153D01*
X163459264Y-76963436D01*
G37*
G36*
X160209398Y-77536474D02*
G01*
X160001021Y-76354705D01*
X160887348Y-76198422D01*
X161095725Y-77380191D01*
X160209398Y-77536474D01*
G37*
G36*
X119814436Y-77299096D02*
G01*
X120022813Y-76117327D01*
X120909140Y-76273610D01*
X120700763Y-77455379D01*
X119814436Y-77299096D01*
G37*
G36*
X116564570Y-76726058D02*
G01*
X116772947Y-75544289D01*
X117659274Y-75700572D01*
X117450897Y-76882341D01*
X116564570Y-76726058D01*
G37*
G36*
X102156470Y-67737545D02*
G01*
X102364847Y-66555776D01*
X103251174Y-66712059D01*
X103042797Y-67893828D01*
X102156470Y-67737545D01*
G37*
G36*
X98906604Y-67164507D02*
G01*
X99114981Y-65982738D01*
X100001308Y-66139021D01*
X99792931Y-67320790D01*
X98906604Y-67164507D01*
G37*
G36*
X84567420Y-57785146D02*
G01*
X84775797Y-56603377D01*
X85662124Y-56759660D01*
X85453747Y-57941429D01*
X84567420Y-57785146D01*
G37*
G36*
X81317554Y-57212108D02*
G01*
X81525931Y-56030339D01*
X82412258Y-56186622D01*
X82203881Y-57368391D01*
X81317554Y-57212108D01*
G37*
G36*
X64635200Y-61121531D02*
G01*
X64843577Y-59939762D01*
X65729904Y-60096045D01*
X65521527Y-61277814D01*
X64635200Y-61121531D01*
G37*
G36*
X61385334Y-60548493D02*
G01*
X61593711Y-59366724D01*
X62480038Y-59523007D01*
X62271661Y-60704776D01*
X61385334Y-60548493D01*
G37*
G36*
X45047563Y-62503684D02*
G01*
X45255940Y-61321915D01*
X46142267Y-61478198D01*
X45933890Y-62659967D01*
X45047563Y-62503684D01*
G37*
G36*
X41797697Y-61930646D02*
G01*
X42006074Y-60748877D01*
X42892401Y-60905160D01*
X42684024Y-62086929D01*
X41797697Y-61930646D01*
G37*
M02*
