G04 #@! TF.GenerationSoftware,KiCad,Pcbnew,(5.1.5)-3*
G04 #@! TF.CreationDate,2020-04-21T23:52:31+02:00*
G04 #@! TF.ProjectId,Marv-Atreus,4d617276-2d41-4747-9265-75732e6b6963,rev?*
G04 #@! TF.SameCoordinates,Original*
G04 #@! TF.FileFunction,Profile,NP*
%FSLAX46Y46*%
G04 Gerber Fmt 4.6, Leading zero omitted, Abs format (unit mm)*
G04 Created by KiCad (PCBNEW (5.1.5)-3) date 2020-04-21 23:52:31*
%MOMM*%
%LPD*%
G04 APERTURE LIST*
%ADD10C,0.100000*%
G04 APERTURE END LIST*
D10*
X69291999Y-134688001D02*
X103582001Y-150181999D01*
X103582001Y-150181999D02*
G75*
G03X111906166Y-150942564I5333999J12445999D01*
G01*
X111906166Y-150942564D02*
X139650000Y-145356000D01*
X35001217Y-57218087D02*
G75*
G03X32970000Y-59250000I254783J-2285913D01*
G01*
X139650000Y-72720000D02*
X149048000Y-72720000D01*
X257122128Y-133908772D02*
X211786000Y-134293553D01*
X257122128Y-133908772D02*
G75*
G03X259029999Y-131386001I-378128J2268772D01*
G01*
X194503507Y-53491943D02*
G75*
G03X190450001Y-54424001I-751507J-6012057D01*
G01*
X211784761Y-134293553D02*
G75*
G03X210008001Y-134688001I1239J-4204447D01*
G01*
X194503507Y-53491943D02*
X216104000Y-54170000D01*
X210008001Y-134688001D02*
X175717999Y-150181999D01*
X167393834Y-150942564D02*
G75*
G03X175717999Y-150181999I2990166J13206564D01*
G01*
X161242399Y-71222785D02*
G75*
G03X165303999Y-69663999I-510399J7400785D01*
G01*
X246330000Y-59250000D02*
X259030000Y-131386000D01*
X165303999Y-69663999D02*
X190450001Y-54424001D01*
X246329912Y-59249217D02*
G75*
G03X244297999Y-57218001I-2285912J-254783D01*
G01*
X149048000Y-72720000D02*
X161242399Y-71222785D01*
X216104000Y-54170000D02*
X244298000Y-57218000D01*
X167393834Y-150942564D02*
X139650000Y-145356000D01*
X113996001Y-69663999D02*
G75*
G03X118057601Y-71222785I4571999J5841999D01*
G01*
X88849999Y-54424001D02*
G75*
G03X84796493Y-53491943I-3301999J-5079999D01*
G01*
X69291999Y-134688001D02*
G75*
G03X67514000Y-134293553I-1777999J-3809999D01*
G01*
X22177872Y-133908772D02*
X67514000Y-134293553D01*
X20270001Y-131386000D02*
G75*
G03X22177872Y-133908772I2285999J-254000D01*
G01*
X32970000Y-59250000D02*
X20270000Y-131386000D01*
X63196000Y-54170000D02*
X35002000Y-57218000D01*
X84796493Y-53491943D02*
X63196000Y-54170000D01*
X113996001Y-69663999D02*
X88849999Y-54424001D01*
X130252000Y-72720000D02*
X118057601Y-71222785D01*
X139650000Y-72720000D02*
X130252000Y-72720000D01*
M02*
