G04 #@! TF.GenerationSoftware,KiCad,Pcbnew,(5.1.5)-3*
G04 #@! TF.CreationDate,2020-04-21T13:32:45+02:00*
G04 #@! TF.ProjectId,Marv-Atreus,4d617276-2d41-4747-9265-75732e6b6963,rev?*
G04 #@! TF.SameCoordinates,Original*
G04 #@! TF.FileFunction,Legend,Top*
G04 #@! TF.FilePolarity,Positive*
%FSLAX46Y46*%
G04 Gerber Fmt 4.6, Leading zero omitted, Abs format (unit mm)*
G04 Created by KiCad (PCBNEW (5.1.5)-3) date 2020-04-21 13:32:45*
%MOMM*%
%LPD*%
G04 APERTURE LIST*
%ADD10C,0.300000*%
%ADD11C,0.650000*%
%ADD12O,1.000000X2.100000*%
%ADD13O,1.000000X1.600000*%
%ADD14C,3.987800*%
%ADD15C,1.750000*%
G04 APERTURE END LIST*
D10*
X125320193Y-147623648D02*
X125320193Y-145123648D01*
X126153527Y-146909362D01*
X126986860Y-145123648D01*
X126986860Y-147623648D01*
X129248765Y-147623648D02*
X129248765Y-146314124D01*
X129129717Y-146076029D01*
X128891622Y-145956981D01*
X128415432Y-145956981D01*
X128177336Y-146076029D01*
X129248765Y-147504600D02*
X129010670Y-147623648D01*
X128415432Y-147623648D01*
X128177336Y-147504600D01*
X128058289Y-147266505D01*
X128058289Y-147028410D01*
X128177336Y-146790315D01*
X128415432Y-146671267D01*
X129010670Y-146671267D01*
X129248765Y-146552219D01*
X130439241Y-147623648D02*
X130439241Y-145956981D01*
X130439241Y-146433172D02*
X130558289Y-146195076D01*
X130677336Y-146076029D01*
X130915432Y-145956981D01*
X131153527Y-145956981D01*
X131748765Y-145956981D02*
X132344003Y-147623648D01*
X132939241Y-145956981D01*
X133772574Y-146909362D02*
X134963051Y-146909362D01*
X133534479Y-147623648D02*
X134367812Y-145123648D01*
X135201146Y-147623648D01*
X135677336Y-145956981D02*
X136629717Y-145956981D01*
X136034479Y-145123648D02*
X136034479Y-147266505D01*
X136153527Y-147504600D01*
X136391622Y-147623648D01*
X136629717Y-147623648D01*
X137463051Y-147623648D02*
X137463051Y-145956981D01*
X137463051Y-146433172D02*
X137582098Y-146195076D01*
X137701146Y-146076029D01*
X137939241Y-145956981D01*
X138177336Y-145956981D01*
X139963051Y-147504600D02*
X139724955Y-147623648D01*
X139248765Y-147623648D01*
X139010670Y-147504600D01*
X138891622Y-147266505D01*
X138891622Y-146314124D01*
X139010670Y-146076029D01*
X139248765Y-145956981D01*
X139724955Y-145956981D01*
X139963051Y-146076029D01*
X140082098Y-146314124D01*
X140082098Y-146552219D01*
X138891622Y-146790315D01*
X142224955Y-145956981D02*
X142224955Y-147623648D01*
X141153527Y-145956981D02*
X141153527Y-147266505D01*
X141272574Y-147504600D01*
X141510670Y-147623648D01*
X141867812Y-147623648D01*
X142105908Y-147504600D01*
X142224955Y-147385553D01*
X143296384Y-147504600D02*
X143534479Y-147623648D01*
X144010670Y-147623648D01*
X144248765Y-147504600D01*
X144367812Y-147266505D01*
X144367812Y-147147457D01*
X144248765Y-146909362D01*
X144010670Y-146790315D01*
X143653527Y-146790315D01*
X143415432Y-146671267D01*
X143296384Y-146433172D01*
X143296384Y-146314124D01*
X143415432Y-146076029D01*
X143653527Y-145956981D01*
X144010670Y-145956981D01*
X144248765Y-146076029D01*
X147105908Y-145956981D02*
X147701146Y-147623648D01*
X148296384Y-145956981D01*
X149724955Y-145123648D02*
X149963051Y-145123648D01*
X150201146Y-145242696D01*
X150320193Y-145361743D01*
X150439241Y-145599838D01*
X150558289Y-146076029D01*
X150558289Y-146671267D01*
X150439241Y-147147457D01*
X150320193Y-147385553D01*
X150201146Y-147504600D01*
X149963051Y-147623648D01*
X149724955Y-147623648D01*
X149486860Y-147504600D01*
X149367812Y-147385553D01*
X149248765Y-147147457D01*
X149129717Y-146671267D01*
X149129717Y-146076029D01*
X149248765Y-145599838D01*
X149367812Y-145361743D01*
X149486860Y-145242696D01*
X149724955Y-145123648D01*
X151629717Y-147385553D02*
X151748765Y-147504600D01*
X151629717Y-147623648D01*
X151510670Y-147504600D01*
X151629717Y-147385553D01*
X151629717Y-147623648D01*
X154129717Y-147623648D02*
X152701146Y-147623648D01*
X153415432Y-147623648D02*
X153415432Y-145123648D01*
X153177336Y-145480791D01*
X152939241Y-145718886D01*
X152701146Y-145837934D01*
%LPC*%
D11*
X142542503Y-77408648D03*
X136762503Y-77408648D03*
D12*
X135332503Y-77938648D03*
X143972503Y-77938648D03*
D13*
X135332503Y-73758648D03*
X143972503Y-73758648D03*
D14*
X247391924Y-125631340D03*
D15*
X242389101Y-126513473D03*
X252394747Y-124749207D03*
D14*
X227804288Y-124249189D03*
D15*
X222801465Y-125131322D03*
X232807111Y-123367056D03*
D14*
X207872067Y-120912803D03*
D15*
X202869244Y-121794936D03*
X212874890Y-120030670D03*
D14*
X190283019Y-130865201D03*
D15*
X185280196Y-131747334D03*
X195285842Y-129983068D03*
D14*
X172693969Y-140817599D03*
D15*
X167691146Y-141699732D03*
X177696792Y-139935466D03*
D14*
X152279330Y-134745287D03*
D15*
X147276507Y-135627420D03*
X157282153Y-133863154D03*
X132001353Y-135661503D03*
X121995707Y-133897237D03*
D14*
X126998530Y-134779370D03*
X106583890Y-140851682D03*
D15*
X101581067Y-139969549D03*
X111586713Y-141733815D03*
D14*
X88994842Y-130899284D03*
D15*
X83992019Y-130017151D03*
X93997665Y-131781417D03*
D14*
X71405793Y-120946886D03*
D15*
X66402970Y-120064753D03*
X76408616Y-121829019D03*
D14*
X51473572Y-124283272D03*
D15*
X46470749Y-123401139D03*
X56476395Y-125165405D03*
D14*
X31885936Y-125665425D03*
D15*
X26883113Y-124783292D03*
X36888759Y-126547558D03*
D14*
X244083918Y-106870706D03*
D15*
X239081095Y-107752839D03*
X249086741Y-105988573D03*
D14*
X224496283Y-105488553D03*
D15*
X219493460Y-106370686D03*
X229499106Y-104606420D03*
D14*
X204564061Y-102152168D03*
D15*
X199561238Y-103034301D03*
X209566884Y-101270035D03*
D14*
X186975013Y-112104565D03*
D15*
X181972190Y-112986698D03*
X191977836Y-111222432D03*
D14*
X169385962Y-122056963D03*
D15*
X164383139Y-122939096D03*
X174388785Y-121174830D03*
D14*
X109891897Y-122091046D03*
D15*
X104889074Y-121208913D03*
X114894720Y-122973179D03*
D14*
X92302847Y-112138649D03*
D15*
X87300024Y-111256516D03*
X97305670Y-113020782D03*
D14*
X74713799Y-102186253D03*
D15*
X69710976Y-101304120D03*
X79716622Y-103068386D03*
D14*
X54781579Y-105522637D03*
D15*
X49778756Y-104640504D03*
X59784402Y-106404770D03*
D14*
X35193942Y-106904789D03*
D15*
X30191119Y-106022656D03*
X40196765Y-107786922D03*
D14*
X240775912Y-88110071D03*
D15*
X235773089Y-88992204D03*
X245778735Y-87227938D03*
D14*
X221188277Y-86727918D03*
D15*
X216185454Y-87610051D03*
X226191100Y-85845785D03*
D14*
X201256055Y-83391533D03*
D15*
X196253232Y-84273666D03*
X206258878Y-82509400D03*
D14*
X183667007Y-93343931D03*
D15*
X178664184Y-94226064D03*
X188669830Y-92461798D03*
D14*
X166077956Y-103296329D03*
D15*
X161075133Y-104178462D03*
X171080779Y-102414196D03*
D14*
X113199903Y-103330412D03*
D15*
X108197080Y-102448279D03*
X118202726Y-104212545D03*
D14*
X95610854Y-93378015D03*
D15*
X90608031Y-92495882D03*
X100613677Y-94260148D03*
D14*
X78021805Y-83425617D03*
D15*
X73018982Y-82543484D03*
X83024628Y-84307750D03*
D14*
X58089585Y-86762002D03*
D15*
X53086762Y-85879869D03*
X63092408Y-87644135D03*
D14*
X38501948Y-88144155D03*
D15*
X33499125Y-87262022D03*
X43504771Y-89026288D03*
D14*
X237467906Y-69349436D03*
D15*
X232465083Y-70231569D03*
X242470729Y-68467303D03*
D14*
X217880269Y-67967283D03*
D15*
X212877446Y-68849416D03*
X222883092Y-67085150D03*
D14*
X197948050Y-64630898D03*
D15*
X192945227Y-65513031D03*
X202950873Y-63748765D03*
D14*
X180359001Y-74583295D03*
D15*
X175356178Y-75465428D03*
X185361824Y-73701162D03*
D14*
X162769951Y-84535693D03*
D15*
X157767128Y-85417826D03*
X167772774Y-83653560D03*
D14*
X116507909Y-84569777D03*
D15*
X111505086Y-83687644D03*
X121510732Y-85451910D03*
D14*
X98918859Y-74617379D03*
D15*
X93916036Y-73735246D03*
X103921682Y-75499512D03*
D14*
X81329812Y-64664983D03*
D15*
X76326989Y-63782850D03*
X86332635Y-65547116D03*
D14*
X61397591Y-68001367D03*
D15*
X56394768Y-67119234D03*
X66400414Y-68883500D03*
D14*
X41809954Y-69383520D03*
D15*
X36807131Y-68501387D03*
X46812777Y-70265653D03*
M02*
