G04 #@! TF.GenerationSoftware,KiCad,Pcbnew,(5.1.5)-3*
G04 #@! TF.CreationDate,2020-04-21T01:25:22+02:00*
G04 #@! TF.ProjectId,Marv-Atreus,4d617276-2d41-4747-9265-75732e6b6963,rev?*
G04 #@! TF.SameCoordinates,Original*
G04 #@! TF.FileFunction,Legend,Bot*
G04 #@! TF.FilePolarity,Positive*
%FSLAX46Y46*%
G04 Gerber Fmt 4.6, Leading zero omitted, Abs format (unit mm)*
G04 Created by KiCad (PCBNEW (5.1.5)-3) date 2020-04-21 01:25:22*
%MOMM*%
%LPD*%
G04 APERTURE LIST*
%ADD10C,0.650000*%
%ADD11O,1.000000X2.100000*%
%ADD12O,1.000000X1.600000*%
%ADD13C,2.250000*%
%ADD14C,3.987800*%
%ADD15C,1.750000*%
G04 APERTURE END LIST*
%LPC*%
D10*
X145793497Y-68905524D03*
X151573497Y-68905524D03*
D11*
X153003497Y-69435524D03*
X144363497Y-69435524D03*
D12*
X153003497Y-65255524D03*
X144363497Y-65255524D03*
D13*
X258055771Y-111684754D03*
D14*
X256436492Y-117128644D03*
D13*
X252243308Y-115288832D03*
D15*
X251433669Y-118010777D03*
X261439315Y-116246511D03*
D13*
X238468135Y-110302602D03*
D14*
X236848856Y-115746492D03*
D13*
X232655672Y-113906680D03*
D15*
X231846033Y-116628625D03*
X241851679Y-114864359D03*
D13*
X218535914Y-106966216D03*
D14*
X216916635Y-112410106D03*
D13*
X212723451Y-110570294D03*
D15*
X211913812Y-113292239D03*
X221919458Y-111527973D03*
D13*
X200946865Y-116918614D03*
D14*
X199327586Y-122362504D03*
D13*
X195134402Y-120522692D03*
D15*
X194324763Y-123244637D03*
X204330409Y-121480371D03*
D13*
X183357815Y-126871012D03*
D14*
X181738536Y-132314902D03*
D13*
X177545352Y-130475090D03*
D15*
X176735713Y-133197035D03*
X186741359Y-131432769D03*
D13*
X162943177Y-120798700D03*
D14*
X161323898Y-126242590D03*
D13*
X157130714Y-124402778D03*
D15*
X156321075Y-127124723D03*
X166326721Y-125360457D03*
X141045920Y-127158807D03*
X131040274Y-125394541D03*
D13*
X132732046Y-123113663D03*
D14*
X136043097Y-126276674D03*
D13*
X139426641Y-121714917D03*
X119012002Y-127787229D03*
D14*
X115628458Y-132348986D03*
D13*
X112317407Y-129185975D03*
D15*
X110625635Y-131466853D03*
X120631281Y-133231119D03*
D13*
X101422954Y-117834831D03*
D14*
X98039410Y-122396588D03*
D13*
X94728359Y-119233577D03*
D15*
X93036587Y-121514455D03*
X103042233Y-123278721D03*
D13*
X83833904Y-107882433D03*
D14*
X80450360Y-112444190D03*
D13*
X77139309Y-109281179D03*
D15*
X75447537Y-111562057D03*
X85453183Y-113326323D03*
D13*
X63901684Y-111218819D03*
D14*
X60518140Y-115780576D03*
D13*
X57207089Y-112617565D03*
D15*
X55515317Y-114898443D03*
X65520963Y-116662709D03*
D13*
X44314047Y-112600971D03*
D14*
X40930503Y-117162728D03*
D13*
X37619452Y-113999717D03*
D15*
X35927680Y-116280595D03*
X45933326Y-118044861D03*
D13*
X254747765Y-92924119D03*
D14*
X253128486Y-98368009D03*
D13*
X248935302Y-96528197D03*
D15*
X248125663Y-99250142D03*
X258131309Y-97485876D03*
D13*
X235160129Y-91541967D03*
D14*
X233540850Y-96985857D03*
D13*
X229347666Y-95146045D03*
D15*
X228538027Y-97867990D03*
X238543673Y-96103724D03*
D13*
X215227908Y-88205581D03*
D14*
X213608629Y-93649471D03*
D13*
X209415445Y-91809659D03*
D15*
X208605806Y-94531604D03*
X218611452Y-92767338D03*
D13*
X197638859Y-98157979D03*
D14*
X196019580Y-103601869D03*
D13*
X191826396Y-101762057D03*
D15*
X191016757Y-104484002D03*
X201022403Y-102719736D03*
D13*
X180049809Y-108110377D03*
D14*
X178430530Y-113554267D03*
D13*
X174237346Y-111714455D03*
D15*
X173427707Y-114436400D03*
X183433353Y-112672134D03*
D13*
X122320009Y-109026593D03*
D14*
X118936465Y-113588350D03*
D13*
X115625414Y-110425339D03*
D15*
X113933642Y-112706217D03*
X123939288Y-114470483D03*
D13*
X104730959Y-99074196D03*
D14*
X101347415Y-103635953D03*
D13*
X98036364Y-100472942D03*
D15*
X96344592Y-102753820D03*
X106350238Y-104518086D03*
D13*
X87141910Y-89121799D03*
D14*
X83758366Y-93683556D03*
D13*
X80447315Y-90520545D03*
D15*
X78755543Y-92801423D03*
X88761189Y-94565689D03*
D13*
X67209690Y-92458184D03*
D14*
X63826146Y-97019941D03*
D13*
X60515095Y-93856930D03*
D15*
X58823323Y-96137808D03*
X68828969Y-97902074D03*
D13*
X47622053Y-93840336D03*
D14*
X44238509Y-98402093D03*
D13*
X40927458Y-95239082D03*
D15*
X39235686Y-97519960D03*
X49241332Y-99284226D03*
D13*
X251439759Y-74163484D03*
D14*
X249820480Y-79607374D03*
D13*
X245627296Y-77767562D03*
D15*
X244817657Y-80489507D03*
X254823303Y-78725241D03*
D13*
X231852123Y-72781332D03*
D14*
X230232844Y-78225222D03*
D13*
X226039660Y-76385410D03*
D15*
X225230021Y-79107355D03*
X235235667Y-77343089D03*
D13*
X211919902Y-69444946D03*
D14*
X210300623Y-74888836D03*
D13*
X206107439Y-73049024D03*
D15*
X205297800Y-75770969D03*
X215303446Y-74006703D03*
D13*
X194330853Y-79397344D03*
D14*
X192711574Y-84841234D03*
D13*
X188518390Y-83001422D03*
D15*
X187708751Y-85723367D03*
X197714397Y-83959101D03*
D13*
X176741803Y-89349742D03*
D14*
X175122524Y-94793632D03*
D13*
X170929340Y-92953820D03*
D15*
X170119701Y-95675765D03*
X180125347Y-93911499D03*
D13*
X125628015Y-90265959D03*
D14*
X122244471Y-94827716D03*
D13*
X118933420Y-91664705D03*
D15*
X117241648Y-93945583D03*
X127247294Y-95709849D03*
D13*
X108038965Y-80313561D03*
D14*
X104655421Y-84875318D03*
D13*
X101344370Y-81712307D03*
D15*
X99652598Y-83993185D03*
X109658244Y-85757451D03*
D13*
X90449917Y-70361163D03*
D14*
X87066373Y-74922920D03*
D13*
X83755322Y-71759909D03*
D15*
X82063550Y-74040787D03*
X92069196Y-75805053D03*
D13*
X70517696Y-73697549D03*
D14*
X67134152Y-78259306D03*
D13*
X63823101Y-75096295D03*
D15*
X62131329Y-77377173D03*
X72136975Y-79141439D03*
D13*
X50930060Y-75079701D03*
D14*
X47546516Y-79641458D03*
D13*
X44235465Y-76478447D03*
D15*
X42543693Y-78759325D03*
X52549339Y-80523591D03*
D13*
X248131753Y-55402849D03*
D14*
X246512474Y-60846739D03*
D13*
X242319290Y-59006927D03*
D15*
X241509651Y-61728872D03*
X251515297Y-59964606D03*
D13*
X228544116Y-54020697D03*
D14*
X226924837Y-59464587D03*
D13*
X222731653Y-57624775D03*
D15*
X221922014Y-60346720D03*
X231927660Y-58582454D03*
D13*
X208611896Y-50684311D03*
D14*
X206992617Y-56128201D03*
D13*
X202799433Y-54288389D03*
D15*
X201989794Y-57010334D03*
X211995440Y-55246068D03*
D13*
X191022847Y-60636709D03*
D14*
X189403568Y-66080599D03*
D13*
X185210384Y-64240787D03*
D15*
X184400745Y-66962732D03*
X194406391Y-65198466D03*
D13*
X173433797Y-70589107D03*
D14*
X171814518Y-76032997D03*
D13*
X167621334Y-74193185D03*
D15*
X166811695Y-76915130D03*
X176817341Y-75150864D03*
D13*
X128936021Y-71505324D03*
D14*
X125552477Y-76067081D03*
D13*
X122241426Y-72904070D03*
D15*
X120549654Y-75184948D03*
X130555300Y-76949214D03*
D13*
X111346971Y-61552926D03*
D14*
X107963427Y-66114683D03*
D13*
X104652376Y-62951672D03*
D15*
X102960604Y-65232550D03*
X112966250Y-66996816D03*
D13*
X93757923Y-51600529D03*
D14*
X90374379Y-56162286D03*
D13*
X87063328Y-52999275D03*
D15*
X85371556Y-55280153D03*
X95377202Y-57044419D03*
D13*
X73825702Y-54936914D03*
D14*
X70442158Y-59498671D03*
D13*
X67131107Y-56335660D03*
D15*
X65439335Y-58616538D03*
X75444981Y-60380804D03*
D13*
X54238066Y-56319066D03*
D14*
X50854522Y-60880823D03*
D13*
X47543471Y-57717812D03*
D15*
X45851699Y-59998690D03*
X55857345Y-61762956D03*
M02*
