G04 #@! TF.GenerationSoftware,KiCad,Pcbnew,(5.1.5)-3*
G04 #@! TF.CreationDate,2020-04-21T01:25:22+02:00*
G04 #@! TF.ProjectId,Marv-Atreus,4d617276-2d41-4747-9265-75732e6b6963,rev?*
G04 #@! TF.SameCoordinates,Original*
G04 #@! TF.FileFunction,Legend,Top*
G04 #@! TF.FilePolarity,Positive*
%FSLAX46Y46*%
G04 Gerber Fmt 4.6, Leading zero omitted, Abs format (unit mm)*
G04 Created by KiCad (PCBNEW (5.1.5)-3) date 2020-04-21 01:25:22*
%MOMM*%
%LPD*%
G04 APERTURE LIST*
%ADD10C,0.300000*%
%ADD11C,0.120000*%
%ADD12C,0.150000*%
%ADD13R,1.200000X1.400000*%
%ADD14R,0.600000X1.450000*%
%ADD15R,0.300000X1.450000*%
%ADD16C,0.650000*%
%ADD17R,1.500000X0.550000*%
%ADD18R,0.550000X1.500000*%
%ADD19R,1.800000X1.100000*%
%ADD20C,0.100000*%
%ADD21C,3.987800*%
%ADD22C,1.750000*%
G04 APERTURE END LIST*
D10*
X134338258Y-82060952D02*
X134338258Y-79560952D01*
X135171592Y-81346666D01*
X136004925Y-79560952D01*
X136004925Y-82060952D01*
X138266830Y-82060952D02*
X138266830Y-80751428D01*
X138147782Y-80513333D01*
X137909687Y-80394285D01*
X137433497Y-80394285D01*
X137195401Y-80513333D01*
X138266830Y-81941904D02*
X138028735Y-82060952D01*
X137433497Y-82060952D01*
X137195401Y-81941904D01*
X137076354Y-81703809D01*
X137076354Y-81465714D01*
X137195401Y-81227619D01*
X137433497Y-81108571D01*
X138028735Y-81108571D01*
X138266830Y-80989523D01*
X139457306Y-82060952D02*
X139457306Y-80394285D01*
X139457306Y-80870476D02*
X139576354Y-80632380D01*
X139695401Y-80513333D01*
X139933497Y-80394285D01*
X140171592Y-80394285D01*
X140766830Y-80394285D02*
X141362068Y-82060952D01*
X141957306Y-80394285D01*
X142790639Y-81346666D02*
X143981116Y-81346666D01*
X142552544Y-82060952D02*
X143385877Y-79560952D01*
X144219211Y-82060952D01*
X144695401Y-80394285D02*
X145647782Y-80394285D01*
X145052544Y-79560952D02*
X145052544Y-81703809D01*
X145171592Y-81941904D01*
X145409687Y-82060952D01*
X145647782Y-82060952D01*
X146481116Y-82060952D02*
X146481116Y-80394285D01*
X146481116Y-80870476D02*
X146600163Y-80632380D01*
X146719211Y-80513333D01*
X146957306Y-80394285D01*
X147195401Y-80394285D01*
X148981116Y-81941904D02*
X148743020Y-82060952D01*
X148266830Y-82060952D01*
X148028735Y-81941904D01*
X147909687Y-81703809D01*
X147909687Y-80751428D01*
X148028735Y-80513333D01*
X148266830Y-80394285D01*
X148743020Y-80394285D01*
X148981116Y-80513333D01*
X149100163Y-80751428D01*
X149100163Y-80989523D01*
X147909687Y-81227619D01*
X151243020Y-80394285D02*
X151243020Y-82060952D01*
X150171592Y-80394285D02*
X150171592Y-81703809D01*
X150290639Y-81941904D01*
X150528735Y-82060952D01*
X150885877Y-82060952D01*
X151123973Y-81941904D01*
X151243020Y-81822857D01*
X152314449Y-81941904D02*
X152552544Y-82060952D01*
X153028735Y-82060952D01*
X153266830Y-81941904D01*
X153385877Y-81703809D01*
X153385877Y-81584761D01*
X153266830Y-81346666D01*
X153028735Y-81227619D01*
X152671592Y-81227619D01*
X152433497Y-81108571D01*
X152314449Y-80870476D01*
X152314449Y-80751428D01*
X152433497Y-80513333D01*
X152671592Y-80394285D01*
X153028735Y-80394285D01*
X153266830Y-80513333D01*
X156123973Y-80394285D02*
X156719211Y-82060952D01*
X157314449Y-80394285D01*
X158743020Y-79560952D02*
X158981116Y-79560952D01*
X159219211Y-79680000D01*
X159338258Y-79799047D01*
X159457306Y-80037142D01*
X159576354Y-80513333D01*
X159576354Y-81108571D01*
X159457306Y-81584761D01*
X159338258Y-81822857D01*
X159219211Y-81941904D01*
X158981116Y-82060952D01*
X158743020Y-82060952D01*
X158504925Y-81941904D01*
X158385877Y-81822857D01*
X158266830Y-81584761D01*
X158147782Y-81108571D01*
X158147782Y-80513333D01*
X158266830Y-80037142D01*
X158385877Y-79799047D01*
X158504925Y-79680000D01*
X158743020Y-79560952D01*
X160647782Y-81822857D02*
X160766830Y-81941904D01*
X160647782Y-82060952D01*
X160528735Y-81941904D01*
X160647782Y-81822857D01*
X160647782Y-82060952D01*
X163147782Y-82060952D02*
X161719211Y-82060952D01*
X162433497Y-82060952D02*
X162433497Y-79560952D01*
X162195401Y-79918095D01*
X161957306Y-80156190D01*
X161719211Y-80275238D01*
D11*
X138733560Y-97894000D02*
X138733560Y-93894000D01*
X135433560Y-97894000D02*
X138733560Y-97894000D01*
D12*
X153499307Y-90818108D02*
X153499307Y-89543108D01*
X154074307Y-101168108D02*
X154074307Y-100493108D01*
X143724307Y-101168108D02*
X143724307Y-100493108D01*
X143724307Y-90818108D02*
X143724307Y-91493108D01*
X154074307Y-90818108D02*
X154074307Y-91493108D01*
X143724307Y-90818108D02*
X144399307Y-90818108D01*
X143724307Y-101168108D02*
X144399307Y-101168108D01*
X154074307Y-101168108D02*
X153399307Y-101168108D01*
X154074307Y-90818108D02*
X153499307Y-90818108D01*
X146083497Y-106093140D02*
X151283497Y-106093140D01*
X151283497Y-106093140D02*
X151283497Y-111293140D01*
X151283497Y-111293140D02*
X146083497Y-111293140D01*
X146083497Y-111293140D02*
X146083497Y-106093140D01*
X149683497Y-108693140D02*
G75*
G03X149683497Y-108693140I-1000000J0D01*
G01*
D11*
X160886578Y-97640000D02*
X160369422Y-97640000D01*
X160886578Y-99060000D02*
X160369422Y-99060000D01*
X150670000Y-74908078D02*
X150670000Y-74390922D01*
X149250000Y-74908078D02*
X149250000Y-74390922D01*
X148130000Y-74917886D02*
X148130000Y-74400730D01*
X146710000Y-74917886D02*
X146710000Y-74400730D01*
X151790000Y-74400730D02*
X151790000Y-74917886D01*
X153210000Y-74400730D02*
X153210000Y-74917886D01*
X145590000Y-74400730D02*
X145590000Y-74917886D01*
X144170000Y-74400730D02*
X144170000Y-74917886D01*
X136825922Y-90424000D02*
X137343078Y-90424000D01*
X136825922Y-89004000D02*
X137343078Y-89004000D01*
X157485936Y-87576000D02*
X158690064Y-87576000D01*
X157485936Y-85756000D02*
X158690064Y-85756000D01*
X253450384Y-108579780D02*
X257291135Y-107902552D01*
X253797681Y-110549395D02*
X257638431Y-109872167D01*
X253450384Y-108579780D02*
X253797681Y-110549395D01*
X233862747Y-107197628D02*
X237703498Y-106520400D01*
X234210044Y-109167243D02*
X238050794Y-108490015D01*
X233862747Y-107197628D02*
X234210044Y-109167243D01*
X213930527Y-103861242D02*
X217771278Y-103184014D01*
X214277824Y-105830857D02*
X218118574Y-105153629D01*
X213930527Y-103861242D02*
X214277824Y-105830857D01*
X196341477Y-113813640D02*
X200182228Y-113136412D01*
X196688774Y-115783255D02*
X200529524Y-115106027D01*
X196341477Y-113813640D02*
X196688774Y-115783255D01*
X178752428Y-123766038D02*
X182593179Y-123088810D01*
X179099725Y-125735653D02*
X182940475Y-125058425D01*
X178752428Y-123766038D02*
X179099725Y-125735653D01*
X158337790Y-117693726D02*
X162178541Y-117016498D01*
X158685087Y-119663341D02*
X162525837Y-118986113D01*
X158337790Y-117693726D02*
X158685087Y-119663341D01*
X136160957Y-117222060D02*
X140001707Y-117899288D01*
X135813660Y-119191675D02*
X139654411Y-119868903D01*
X136160957Y-117222060D02*
X135813660Y-119191675D01*
X115815236Y-122903525D02*
X119655986Y-123580753D01*
X115467939Y-124873140D02*
X119308690Y-125550368D01*
X115815236Y-122903525D02*
X115467939Y-124873140D01*
X98157270Y-113341974D02*
X101998020Y-114019202D01*
X97809973Y-115311589D02*
X101650724Y-115988817D01*
X98157270Y-113341974D02*
X97809973Y-115311589D01*
X80568220Y-103389576D02*
X84408970Y-104066804D01*
X80220923Y-105359191D02*
X84061674Y-106036419D01*
X80568220Y-103389576D02*
X80220923Y-105359191D01*
X60635999Y-106725962D02*
X64476749Y-107403190D01*
X60288702Y-108695577D02*
X64129453Y-109372805D01*
X60635999Y-106725962D02*
X60288702Y-108695577D01*
X41048363Y-108108115D02*
X44889113Y-108785343D01*
X40701066Y-110077730D02*
X44541817Y-110754958D01*
X41048363Y-108108115D02*
X40701066Y-110077730D01*
X250142377Y-89819146D02*
X253983128Y-89141918D01*
X250489674Y-91788761D02*
X254330424Y-91111533D01*
X250142377Y-89819146D02*
X250489674Y-91788761D01*
X230554741Y-88436993D02*
X234395492Y-87759765D01*
X230902038Y-90406608D02*
X234742788Y-89729380D01*
X230554741Y-88436993D02*
X230902038Y-90406608D01*
X210622520Y-85100607D02*
X214463271Y-84423379D01*
X210969817Y-87070222D02*
X214810567Y-86392994D01*
X210622520Y-85100607D02*
X210969817Y-87070222D01*
X193033471Y-95053005D02*
X196874222Y-94375777D01*
X193380768Y-97022620D02*
X197221518Y-96345392D01*
X193033471Y-95053005D02*
X193380768Y-97022620D01*
X175444422Y-105005403D02*
X179285173Y-104328175D01*
X175791719Y-106975018D02*
X179632469Y-106297790D01*
X175444422Y-105005403D02*
X175791719Y-106975018D01*
X119123242Y-104142890D02*
X122963992Y-104820118D01*
X118775945Y-106112505D02*
X122616696Y-106789733D01*
X119123242Y-104142890D02*
X118775945Y-106112505D01*
X101465276Y-94581340D02*
X105306026Y-95258568D01*
X101117979Y-96550955D02*
X104958730Y-97228183D01*
X101465276Y-94581340D02*
X101117979Y-96550955D01*
X83876226Y-84628942D02*
X87716976Y-85306170D01*
X83528929Y-86598557D02*
X87369680Y-87275785D01*
X83876226Y-84628942D02*
X83528929Y-86598557D01*
X63944006Y-87965327D02*
X67784756Y-88642555D01*
X63596709Y-89934942D02*
X67437460Y-90612170D01*
X63944006Y-87965327D02*
X63596709Y-89934942D01*
X43965523Y-89278563D02*
X47806273Y-89955791D01*
X43618226Y-91248178D02*
X47458977Y-91925406D01*
X43965523Y-89278563D02*
X43618226Y-91248178D01*
X246834371Y-71058511D02*
X250675122Y-70381283D01*
X247181668Y-73028126D02*
X251022418Y-72350898D01*
X246834371Y-71058511D02*
X247181668Y-73028126D01*
X227246735Y-69676358D02*
X231087486Y-68999130D01*
X227594032Y-71645973D02*
X231434782Y-70968745D01*
X227246735Y-69676358D02*
X227594032Y-71645973D01*
X207314514Y-66339972D02*
X211155265Y-65662744D01*
X207661811Y-68309587D02*
X211502561Y-67632359D01*
X207314514Y-66339972D02*
X207661811Y-68309587D01*
X189725465Y-76292370D02*
X193566216Y-75615142D01*
X190072762Y-78261985D02*
X193913512Y-77584757D01*
X189725465Y-76292370D02*
X190072762Y-78261985D01*
X172136415Y-86244768D02*
X175977166Y-85567540D01*
X172483712Y-88214383D02*
X176324462Y-87537155D01*
X172136415Y-86244768D02*
X172483712Y-88214383D01*
X122362331Y-85773102D02*
X126203081Y-86450330D01*
X122015034Y-87742717D02*
X125855785Y-88419945D01*
X122362331Y-85773102D02*
X122015034Y-87742717D01*
X104773282Y-75820704D02*
X108614032Y-76497932D01*
X104425985Y-77790319D02*
X108266736Y-78467547D01*
X104773282Y-75820704D02*
X104425985Y-77790319D01*
X87184232Y-65868306D02*
X91024982Y-66545534D01*
X86836935Y-67837921D02*
X90677686Y-68515149D01*
X87184232Y-65868306D02*
X86836935Y-67837921D01*
X67252012Y-69204692D02*
X71092762Y-69881920D01*
X66904715Y-71174307D02*
X70745466Y-71851535D01*
X67252012Y-69204692D02*
X66904715Y-71174307D01*
X47664375Y-70586845D02*
X51505125Y-71264073D01*
X47317078Y-72556460D02*
X51157829Y-73233688D01*
X47664375Y-70586845D02*
X47317078Y-72556460D01*
X243526365Y-52297876D02*
X247367116Y-51620648D01*
X243873662Y-54267491D02*
X247714412Y-53590263D01*
X243526365Y-52297876D02*
X243873662Y-54267491D01*
X223938729Y-50915723D02*
X227779480Y-50238495D01*
X224286026Y-52885338D02*
X228126776Y-52208110D01*
X223938729Y-50915723D02*
X224286026Y-52885338D01*
X204109965Y-47663532D02*
X207950716Y-46986304D01*
X204457262Y-49633147D02*
X208298012Y-48955919D01*
X204109965Y-47663532D02*
X204457262Y-49633147D01*
X186417459Y-57531735D02*
X190258210Y-56854507D01*
X186764756Y-59501350D02*
X190605506Y-58824122D01*
X186417459Y-57531735D02*
X186764756Y-59501350D01*
X168828409Y-67484133D02*
X172669160Y-66806905D01*
X169175706Y-69453748D02*
X173016456Y-68776520D01*
X168828409Y-67484133D02*
X169175706Y-69453748D01*
X125739254Y-66621621D02*
X129580004Y-67298849D01*
X125391957Y-68591236D02*
X129232708Y-69268464D01*
X125739254Y-66621621D02*
X125391957Y-68591236D01*
X108081288Y-57060070D02*
X111922038Y-57737298D01*
X107733991Y-59029685D02*
X111574742Y-59706913D01*
X108081288Y-57060070D02*
X107733991Y-59029685D01*
X90492238Y-47107672D02*
X94332988Y-47784900D01*
X90144941Y-49077287D02*
X93985692Y-49754515D01*
X90492238Y-47107672D02*
X90144941Y-49077287D01*
X70560018Y-50444057D02*
X74400768Y-51121285D01*
X70212721Y-52413672D02*
X74053472Y-53090900D01*
X70560018Y-50444057D02*
X70212721Y-52413672D01*
X50972381Y-51826210D02*
X54813131Y-52503438D01*
X50625084Y-53795825D02*
X54465835Y-54473053D01*
X50972381Y-51826210D02*
X50625084Y-53795825D01*
X160369422Y-90424000D02*
X160886578Y-90424000D01*
X160369422Y-89004000D02*
X160886578Y-89004000D01*
X160369422Y-92456000D02*
X160886578Y-92456000D01*
X160369422Y-91036000D02*
X160886578Y-91036000D01*
X160369422Y-96520000D02*
X160886578Y-96520000D01*
X160369422Y-95100000D02*
X160886578Y-95100000D01*
X160369422Y-94488000D02*
X160886578Y-94488000D01*
X160369422Y-93068000D02*
X160886578Y-93068000D01*
X146731922Y-87376000D02*
X147249078Y-87376000D01*
X146731922Y-85956000D02*
X147249078Y-85956000D01*
X136825922Y-92964000D02*
X137343078Y-92964000D01*
X136825922Y-91544000D02*
X137343078Y-91544000D01*
X137343078Y-98910000D02*
X136825922Y-98910000D01*
X137343078Y-100330000D02*
X136825922Y-100330000D01*
D12*
X133793809Y-95836190D02*
X133793809Y-96312380D01*
X133460476Y-95312380D02*
X133793809Y-95836190D01*
X134127142Y-95312380D01*
X134984285Y-96312380D02*
X134412857Y-96312380D01*
X134698571Y-96312380D02*
X134698571Y-95312380D01*
X134603333Y-95455238D01*
X134508095Y-95550476D01*
X134412857Y-95598095D01*
X146945401Y-71357904D02*
X146945401Y-72167428D01*
X146993020Y-72262666D01*
X147040639Y-72310285D01*
X147135877Y-72357904D01*
X147326354Y-72357904D01*
X147421592Y-72310285D01*
X147469211Y-72262666D01*
X147516830Y-72167428D01*
X147516830Y-71357904D01*
X147945401Y-72310285D02*
X148088258Y-72357904D01*
X148326354Y-72357904D01*
X148421592Y-72310285D01*
X148469211Y-72262666D01*
X148516830Y-72167428D01*
X148516830Y-72072190D01*
X148469211Y-71976952D01*
X148421592Y-71929333D01*
X148326354Y-71881714D01*
X148135877Y-71834095D01*
X148040639Y-71786476D01*
X147993020Y-71738857D01*
X147945401Y-71643619D01*
X147945401Y-71548381D01*
X147993020Y-71453143D01*
X148040639Y-71405524D01*
X148135877Y-71357904D01*
X148373973Y-71357904D01*
X148516830Y-71405524D01*
X149278735Y-71834095D02*
X149421592Y-71881714D01*
X149469211Y-71929333D01*
X149516830Y-72024571D01*
X149516830Y-72167428D01*
X149469211Y-72262666D01*
X149421592Y-72310285D01*
X149326354Y-72357904D01*
X148945401Y-72357904D01*
X148945401Y-71357904D01*
X149278735Y-71357904D01*
X149373973Y-71405524D01*
X149421592Y-71453143D01*
X149469211Y-71548381D01*
X149469211Y-71643619D01*
X149421592Y-71738857D01*
X149373973Y-71786476D01*
X149278735Y-71834095D01*
X148945401Y-71834095D01*
X150469211Y-72357904D02*
X149897782Y-72357904D01*
X150183497Y-72357904D02*
X150183497Y-71357904D01*
X150088258Y-71500762D01*
X149993020Y-71596000D01*
X149897782Y-71643619D01*
X155801687Y-96755012D02*
X156611211Y-96755012D01*
X156706449Y-96707393D01*
X156754068Y-96659774D01*
X156801687Y-96564536D01*
X156801687Y-96374060D01*
X156754068Y-96278822D01*
X156706449Y-96231203D01*
X156611211Y-96183584D01*
X155801687Y-96183584D01*
X156801687Y-95183584D02*
X156801687Y-95755012D01*
X156801687Y-95469298D02*
X155801687Y-95469298D01*
X155944545Y-95564536D01*
X156039783Y-95659774D01*
X156087402Y-95755012D01*
X147466666Y-105384761D02*
X147609523Y-105432380D01*
X147847619Y-105432380D01*
X147942857Y-105384761D01*
X147990476Y-105337142D01*
X148038095Y-105241904D01*
X148038095Y-105146666D01*
X147990476Y-105051428D01*
X147942857Y-105003809D01*
X147847619Y-104956190D01*
X147657142Y-104908571D01*
X147561904Y-104860952D01*
X147514285Y-104813333D01*
X147466666Y-104718095D01*
X147466666Y-104622857D01*
X147514285Y-104527619D01*
X147561904Y-104480000D01*
X147657142Y-104432380D01*
X147895238Y-104432380D01*
X148038095Y-104480000D01*
X148371428Y-104432380D02*
X148609523Y-105432380D01*
X148800000Y-104718095D01*
X148990476Y-105432380D01*
X149228571Y-104432380D01*
X150133333Y-105432380D02*
X149561904Y-105432380D01*
X149847619Y-105432380D02*
X149847619Y-104432380D01*
X149752380Y-104575238D01*
X149657142Y-104670476D01*
X149561904Y-104718095D01*
X163283333Y-98832380D02*
X162950000Y-98356190D01*
X162711904Y-98832380D02*
X162711904Y-97832380D01*
X163092857Y-97832380D01*
X163188095Y-97880000D01*
X163235714Y-97927619D01*
X163283333Y-98022857D01*
X163283333Y-98165714D01*
X163235714Y-98260952D01*
X163188095Y-98308571D01*
X163092857Y-98356190D01*
X162711904Y-98356190D01*
X164140476Y-97832380D02*
X163950000Y-97832380D01*
X163854761Y-97880000D01*
X163807142Y-97927619D01*
X163711904Y-98070476D01*
X163664285Y-98260952D01*
X163664285Y-98641904D01*
X163711904Y-98737142D01*
X163759523Y-98784761D01*
X163854761Y-98832380D01*
X164045238Y-98832380D01*
X164140476Y-98784761D01*
X164188095Y-98737142D01*
X164235714Y-98641904D01*
X164235714Y-98403809D01*
X164188095Y-98308571D01*
X164140476Y-98260952D01*
X164045238Y-98213333D01*
X163854761Y-98213333D01*
X163759523Y-98260952D01*
X163711904Y-98308571D01*
X163664285Y-98403809D01*
X148762380Y-74816166D02*
X148286190Y-75149500D01*
X148762380Y-75387595D02*
X147762380Y-75387595D01*
X147762380Y-75006642D01*
X147810000Y-74911404D01*
X147857619Y-74863785D01*
X147952857Y-74816166D01*
X148095714Y-74816166D01*
X148190952Y-74863785D01*
X148238571Y-74911404D01*
X148286190Y-75006642D01*
X148286190Y-75387595D01*
X147762380Y-73911404D02*
X147762380Y-74387595D01*
X148238571Y-74435214D01*
X148190952Y-74387595D01*
X148143333Y-74292357D01*
X148143333Y-74054261D01*
X148190952Y-73959023D01*
X148238571Y-73911404D01*
X148333809Y-73863785D01*
X148571904Y-73863785D01*
X148667142Y-73911404D01*
X148714761Y-73959023D01*
X148762380Y-74054261D01*
X148762380Y-74292357D01*
X148714761Y-74387595D01*
X148667142Y-74435214D01*
X146222380Y-74825974D02*
X145746190Y-75159308D01*
X146222380Y-75397403D02*
X145222380Y-75397403D01*
X145222380Y-75016450D01*
X145270000Y-74921212D01*
X145317619Y-74873593D01*
X145412857Y-74825974D01*
X145555714Y-74825974D01*
X145650952Y-74873593D01*
X145698571Y-74921212D01*
X145746190Y-75016450D01*
X145746190Y-75397403D01*
X145555714Y-73968831D02*
X146222380Y-73968831D01*
X145174761Y-74206927D02*
X145889047Y-74445022D01*
X145889047Y-73825974D01*
X154602380Y-74825974D02*
X154126190Y-75159308D01*
X154602380Y-75397403D02*
X153602380Y-75397403D01*
X153602380Y-75016450D01*
X153650000Y-74921212D01*
X153697619Y-74873593D01*
X153792857Y-74825974D01*
X153935714Y-74825974D01*
X154030952Y-74873593D01*
X154078571Y-74921212D01*
X154126190Y-75016450D01*
X154126190Y-75397403D01*
X153602380Y-74492641D02*
X153602380Y-73873593D01*
X153983333Y-74206927D01*
X153983333Y-74064069D01*
X154030952Y-73968831D01*
X154078571Y-73921212D01*
X154173809Y-73873593D01*
X154411904Y-73873593D01*
X154507142Y-73921212D01*
X154554761Y-73968831D01*
X154602380Y-74064069D01*
X154602380Y-74349784D01*
X154554761Y-74445022D01*
X154507142Y-74492641D01*
X146982380Y-74825974D02*
X146506190Y-75159308D01*
X146982380Y-75397403D02*
X145982380Y-75397403D01*
X145982380Y-75016450D01*
X146030000Y-74921212D01*
X146077619Y-74873593D01*
X146172857Y-74825974D01*
X146315714Y-74825974D01*
X146410952Y-74873593D01*
X146458571Y-74921212D01*
X146506190Y-75016450D01*
X146506190Y-75397403D01*
X146077619Y-74445022D02*
X146030000Y-74397403D01*
X145982380Y-74302165D01*
X145982380Y-74064069D01*
X146030000Y-73968831D01*
X146077619Y-73921212D01*
X146172857Y-73873593D01*
X146268095Y-73873593D01*
X146410952Y-73921212D01*
X146982380Y-74492641D01*
X146982380Y-73873593D01*
X134103333Y-90162380D02*
X133770000Y-89686190D01*
X133531904Y-90162380D02*
X133531904Y-89162380D01*
X133912857Y-89162380D01*
X134008095Y-89210000D01*
X134055714Y-89257619D01*
X134103333Y-89352857D01*
X134103333Y-89495714D01*
X134055714Y-89590952D01*
X134008095Y-89638571D01*
X133912857Y-89686190D01*
X133531904Y-89686190D01*
X135055714Y-90162380D02*
X134484285Y-90162380D01*
X134770000Y-90162380D02*
X134770000Y-89162380D01*
X134674761Y-89305238D01*
X134579523Y-89400476D01*
X134484285Y-89448095D01*
X157754666Y-84774571D02*
X157421333Y-84774571D01*
X157421333Y-85298380D02*
X157421333Y-84298380D01*
X157897523Y-84298380D01*
X158802285Y-85298380D02*
X158230857Y-85298380D01*
X158516571Y-85298380D02*
X158516571Y-84298380D01*
X158421333Y-84441238D01*
X158326095Y-84536476D01*
X158230857Y-84584095D01*
X254375271Y-107860629D02*
X254201622Y-106875822D01*
X254436101Y-106834477D01*
X254585056Y-106856565D01*
X254695385Y-106933819D01*
X254758819Y-107019341D01*
X254838790Y-107198654D01*
X254863597Y-107339341D01*
X254849778Y-107535193D01*
X254819420Y-107637253D01*
X254742167Y-107747582D01*
X254609749Y-107819284D01*
X254375271Y-107860629D01*
X255666373Y-106956022D02*
X255782139Y-107612560D01*
X255365744Y-106622202D02*
X255255300Y-107366981D01*
X255864943Y-107259484D01*
X256604286Y-106790643D02*
X256720051Y-107447181D01*
X256303656Y-106456823D02*
X256193212Y-107201602D01*
X256802855Y-107094105D01*
X234787634Y-106478477D02*
X234613985Y-105493670D01*
X234848464Y-105452325D01*
X234997419Y-105474413D01*
X235107748Y-105551667D01*
X235171182Y-105637189D01*
X235251153Y-105816502D01*
X235275960Y-105957189D01*
X235262141Y-106153041D01*
X235231783Y-106255101D01*
X235154530Y-106365430D01*
X235022112Y-106437132D01*
X234787634Y-106478477D01*
X236078736Y-105573870D02*
X236194502Y-106230408D01*
X235778107Y-105240050D02*
X235667663Y-105984829D01*
X236277306Y-105877332D01*
X236442914Y-105171180D02*
X237052557Y-105063684D01*
X236790439Y-105496731D01*
X236931126Y-105471924D01*
X237033186Y-105502282D01*
X237088351Y-105540909D01*
X237151785Y-105626431D01*
X237193129Y-105860909D01*
X237162772Y-105962969D01*
X237124145Y-106018134D01*
X237038623Y-106081567D01*
X236757249Y-106131181D01*
X236655189Y-106100823D01*
X236600024Y-106062197D01*
X214855414Y-103142091D02*
X214681765Y-102157284D01*
X214916244Y-102115939D01*
X215065199Y-102138027D01*
X215175528Y-102215281D01*
X215238962Y-102300803D01*
X215318933Y-102480116D01*
X215343740Y-102620803D01*
X215329921Y-102816655D01*
X215299563Y-102918715D01*
X215222310Y-103029044D01*
X215089892Y-103100746D01*
X214855414Y-103142091D01*
X216146516Y-102237484D02*
X216262282Y-102894022D01*
X215845887Y-101903664D02*
X215735443Y-102648443D01*
X216345086Y-102540946D01*
X216574128Y-101920316D02*
X216612754Y-101865152D01*
X216698277Y-101801718D01*
X216932755Y-101760373D01*
X217034815Y-101790731D01*
X217089979Y-101829358D01*
X217153413Y-101914880D01*
X217169951Y-102008671D01*
X217147862Y-102157627D01*
X216684342Y-102819602D01*
X217293985Y-102712105D01*
X197266364Y-113094489D02*
X197092715Y-112109682D01*
X197327194Y-112068337D01*
X197476149Y-112090425D01*
X197586478Y-112167679D01*
X197649912Y-112253201D01*
X197729883Y-112432514D01*
X197754690Y-112573201D01*
X197740871Y-112769053D01*
X197710513Y-112871113D01*
X197633260Y-112981442D01*
X197500842Y-113053144D01*
X197266364Y-113094489D01*
X198557466Y-112189882D02*
X198673232Y-112846420D01*
X198256837Y-111856062D02*
X198146393Y-112600841D01*
X198756036Y-112493344D01*
X199704935Y-112664503D02*
X199142188Y-112763731D01*
X199423562Y-112714117D02*
X199249913Y-111729309D01*
X199180929Y-111886534D01*
X199103676Y-111996863D01*
X199018154Y-112060297D01*
X179677315Y-123046887D02*
X179503666Y-122062080D01*
X179738145Y-122020735D01*
X179887100Y-122042823D01*
X179997429Y-122120077D01*
X180060863Y-122205599D01*
X180140834Y-122384912D01*
X180165641Y-122525599D01*
X180151822Y-122721451D01*
X180121464Y-122823511D01*
X180044211Y-122933840D01*
X179911793Y-123005542D01*
X179677315Y-123046887D01*
X180968417Y-122142280D02*
X181084183Y-122798818D01*
X180667788Y-121808460D02*
X180557344Y-122553239D01*
X181166987Y-122445742D01*
X181613969Y-121689976D02*
X181707760Y-121673438D01*
X181809820Y-121703796D01*
X181864985Y-121742423D01*
X181928418Y-121827945D01*
X182008390Y-122007258D01*
X182049735Y-122241736D01*
X182035915Y-122437588D01*
X182005557Y-122539648D01*
X181966930Y-122594813D01*
X181881408Y-122658246D01*
X181787617Y-122674784D01*
X181685557Y-122644426D01*
X181630392Y-122605800D01*
X181566959Y-122520277D01*
X181486987Y-122340964D01*
X181445642Y-122106486D01*
X181459462Y-121910635D01*
X181489820Y-121808574D01*
X181528447Y-121753410D01*
X181613969Y-121689976D01*
X159262677Y-116974575D02*
X159089028Y-115989768D01*
X159323507Y-115948423D01*
X159472462Y-115970511D01*
X159582791Y-116047765D01*
X159646225Y-116133287D01*
X159726196Y-116312600D01*
X159751003Y-116453287D01*
X159737184Y-116649139D01*
X159706826Y-116751199D01*
X159629573Y-116861528D01*
X159497155Y-116933230D01*
X159262677Y-116974575D01*
X159980045Y-115832657D02*
X160589688Y-115725161D01*
X160327570Y-116158208D01*
X160468257Y-116133401D01*
X160570317Y-116163759D01*
X160625482Y-116202386D01*
X160688915Y-116287908D01*
X160730260Y-116522386D01*
X160699903Y-116624446D01*
X160661276Y-116679611D01*
X160575754Y-116743044D01*
X160294380Y-116792658D01*
X160192320Y-116762300D01*
X160137155Y-116723674D01*
X161232292Y-116627279D02*
X161419875Y-116594203D01*
X161505397Y-116530770D01*
X161544023Y-116475605D01*
X161613008Y-116318380D01*
X161626828Y-116122529D01*
X161560676Y-115747364D01*
X161497242Y-115661842D01*
X161442078Y-115623215D01*
X161340018Y-115592857D01*
X161152435Y-115625933D01*
X161066913Y-115689367D01*
X161028286Y-115744531D01*
X160997929Y-115846592D01*
X161039273Y-116081070D01*
X161102707Y-116166592D01*
X161157872Y-116205218D01*
X161259932Y-116235576D01*
X161447514Y-116202500D01*
X161533036Y-116139067D01*
X161571663Y-116083902D01*
X161602021Y-115981842D01*
X137276028Y-116862609D02*
X137449677Y-115877802D01*
X137684155Y-115919146D01*
X137816572Y-115990849D01*
X137893826Y-116101178D01*
X137924183Y-116203238D01*
X137938003Y-116399090D01*
X137913196Y-116539776D01*
X137833225Y-116719090D01*
X137769791Y-116804612D01*
X137659462Y-116881865D01*
X137510506Y-116903954D01*
X137276028Y-116862609D01*
X138340693Y-116034912D02*
X138950336Y-116142408D01*
X138555915Y-116459690D01*
X138696602Y-116484497D01*
X138782124Y-116547931D01*
X138820751Y-116603095D01*
X138851108Y-116705156D01*
X138809764Y-116939634D01*
X138746330Y-117025156D01*
X138691166Y-117063782D01*
X138589105Y-117094140D01*
X138307732Y-117044526D01*
X138222209Y-116981093D01*
X138183583Y-116925928D01*
X139438663Y-116663696D02*
X139353140Y-116600263D01*
X139314514Y-116545098D01*
X139284156Y-116443038D01*
X139292425Y-116396142D01*
X139355859Y-116310620D01*
X139411023Y-116271993D01*
X139513083Y-116241636D01*
X139700666Y-116274712D01*
X139786188Y-116338145D01*
X139824815Y-116393310D01*
X139855172Y-116495370D01*
X139846903Y-116542266D01*
X139783470Y-116627788D01*
X139728305Y-116666414D01*
X139626245Y-116696772D01*
X139438663Y-116663696D01*
X139336602Y-116694054D01*
X139281438Y-116732681D01*
X139218004Y-116818203D01*
X139184929Y-117005785D01*
X139215286Y-117107845D01*
X139253913Y-117163010D01*
X139339435Y-117226444D01*
X139527018Y-117259519D01*
X139629078Y-117229162D01*
X139684242Y-117190535D01*
X139747676Y-117105013D01*
X139780752Y-116917430D01*
X139750394Y-116815370D01*
X139711767Y-116760206D01*
X139626245Y-116696772D01*
X116930307Y-122544074D02*
X117103956Y-121559267D01*
X117338434Y-121600611D01*
X117470851Y-121672314D01*
X117548105Y-121782643D01*
X117578462Y-121884703D01*
X117592282Y-122080555D01*
X117567475Y-122221241D01*
X117487504Y-122400555D01*
X117424070Y-122486077D01*
X117313741Y-122563330D01*
X117164785Y-122585419D01*
X116930307Y-122544074D01*
X117994972Y-121716377D02*
X118604615Y-121823873D01*
X118210194Y-122141155D01*
X118350881Y-122165962D01*
X118436403Y-122229396D01*
X118475030Y-122284560D01*
X118505387Y-122386621D01*
X118464043Y-122621099D01*
X118400609Y-122706621D01*
X118345445Y-122745247D01*
X118243384Y-122775605D01*
X117962011Y-122725991D01*
X117876488Y-122662558D01*
X117837862Y-122607393D01*
X118932884Y-121881756D02*
X119589423Y-121997521D01*
X118993714Y-122907909D01*
X99272341Y-112982523D02*
X99445990Y-111997716D01*
X99680468Y-112039060D01*
X99812885Y-112110763D01*
X99890139Y-112221092D01*
X99920496Y-112323152D01*
X99934316Y-112519004D01*
X99909509Y-112659690D01*
X99829538Y-112839004D01*
X99766104Y-112924526D01*
X99655775Y-113001779D01*
X99506819Y-113023868D01*
X99272341Y-112982523D01*
X100337006Y-112154826D02*
X100946649Y-112262322D01*
X100552228Y-112579604D01*
X100692915Y-112604411D01*
X100778437Y-112667845D01*
X100817064Y-112723009D01*
X100847421Y-112825070D01*
X100806077Y-113059548D01*
X100742643Y-113145070D01*
X100687479Y-113183696D01*
X100585418Y-113214054D01*
X100304045Y-113164440D01*
X100218522Y-113101007D01*
X100179896Y-113045842D01*
X101790770Y-112411164D02*
X101603187Y-112378088D01*
X101501127Y-112408445D01*
X101445963Y-112447072D01*
X101327365Y-112571221D01*
X101247393Y-112750534D01*
X101181242Y-113125699D01*
X101211599Y-113227759D01*
X101250226Y-113282924D01*
X101335748Y-113346358D01*
X101523331Y-113379433D01*
X101625391Y-113349076D01*
X101680555Y-113310449D01*
X101743989Y-113224927D01*
X101785334Y-112990449D01*
X101754976Y-112888389D01*
X101716349Y-112833224D01*
X101630827Y-112769790D01*
X101443245Y-112736715D01*
X101341184Y-112767072D01*
X101286020Y-112805699D01*
X101222586Y-112891221D01*
X81683291Y-103030125D02*
X81856940Y-102045318D01*
X82091418Y-102086662D01*
X82223835Y-102158365D01*
X82301089Y-102268694D01*
X82331446Y-102370754D01*
X82345266Y-102566606D01*
X82320459Y-102707292D01*
X82240488Y-102886606D01*
X82177054Y-102972128D01*
X82066725Y-103049381D01*
X81917769Y-103071470D01*
X81683291Y-103030125D01*
X82747956Y-102202428D02*
X83357599Y-102309924D01*
X82963178Y-102627206D01*
X83103865Y-102652013D01*
X83189387Y-102715447D01*
X83228014Y-102770611D01*
X83258371Y-102872672D01*
X83217027Y-103107150D01*
X83153593Y-103192672D01*
X83098429Y-103231298D01*
X82996368Y-103261656D01*
X82714995Y-103212042D01*
X82629472Y-103148609D01*
X82590846Y-103093444D01*
X84248616Y-102467035D02*
X83779659Y-102384345D01*
X83650074Y-102845032D01*
X83705239Y-102806405D01*
X83807299Y-102776048D01*
X84041777Y-102817392D01*
X84127299Y-102880826D01*
X84165926Y-102935991D01*
X84196284Y-103038051D01*
X84154939Y-103272529D01*
X84091505Y-103358051D01*
X84036341Y-103396678D01*
X83934281Y-103427035D01*
X83699802Y-103385691D01*
X83614280Y-103322257D01*
X83575654Y-103267092D01*
X61751070Y-106366511D02*
X61924719Y-105381704D01*
X62159197Y-105423048D01*
X62291614Y-105494751D01*
X62368868Y-105605080D01*
X62399225Y-105707140D01*
X62413045Y-105902992D01*
X62388238Y-106043678D01*
X62308267Y-106222992D01*
X62244833Y-106308514D01*
X62134504Y-106385767D01*
X61985548Y-106407856D01*
X61751070Y-106366511D01*
X62815735Y-105538814D02*
X63425378Y-105646310D01*
X63030957Y-105963592D01*
X63171644Y-105988399D01*
X63257166Y-106051833D01*
X63295793Y-106106997D01*
X63326150Y-106209058D01*
X63284806Y-106443536D01*
X63221372Y-106529058D01*
X63166208Y-106567684D01*
X63064147Y-106598042D01*
X62782774Y-106548428D01*
X62697251Y-106484995D01*
X62658625Y-106429830D01*
X64211616Y-106123421D02*
X64095851Y-106779959D01*
X64043290Y-105706911D02*
X63684777Y-106369000D01*
X64294420Y-106476497D01*
X42163434Y-107748664D02*
X42337083Y-106763857D01*
X42571561Y-106805201D01*
X42703978Y-106876904D01*
X42781232Y-106987233D01*
X42811589Y-107089293D01*
X42825409Y-107285145D01*
X42800602Y-107425831D01*
X42720631Y-107605145D01*
X42657197Y-107690667D01*
X42546868Y-107767920D01*
X42397912Y-107790009D01*
X42163434Y-107748664D01*
X43228099Y-106920967D02*
X43837742Y-107028463D01*
X43443321Y-107345745D01*
X43584008Y-107370552D01*
X43669530Y-107433986D01*
X43708157Y-107489150D01*
X43738514Y-107591211D01*
X43697170Y-107825689D01*
X43633736Y-107911211D01*
X43578572Y-107949837D01*
X43476511Y-107980195D01*
X43195138Y-107930581D01*
X43109615Y-107867148D01*
X43070989Y-107811983D01*
X44166011Y-107086346D02*
X44775654Y-107193842D01*
X44381233Y-107511125D01*
X44521920Y-107535931D01*
X44607442Y-107599365D01*
X44646069Y-107654530D01*
X44676427Y-107756590D01*
X44635082Y-107991068D01*
X44571648Y-108076590D01*
X44516484Y-108115217D01*
X44414424Y-108145574D01*
X44133050Y-108095961D01*
X44047528Y-108032527D01*
X44008901Y-107977363D01*
X251067264Y-89099995D02*
X250893615Y-88115188D01*
X251128094Y-88073843D01*
X251277049Y-88095931D01*
X251387378Y-88173185D01*
X251450812Y-88258707D01*
X251530783Y-88438020D01*
X251555590Y-88578707D01*
X251541771Y-88774559D01*
X251511413Y-88876619D01*
X251434160Y-88986948D01*
X251301742Y-89058650D01*
X251067264Y-89099995D01*
X251784632Y-87958077D02*
X252394275Y-87850581D01*
X252132157Y-88283628D01*
X252272844Y-88258821D01*
X252374904Y-88289179D01*
X252430069Y-88327806D01*
X252493502Y-88413328D01*
X252534847Y-88647806D01*
X252504490Y-88749866D01*
X252465863Y-88805031D01*
X252380341Y-88868464D01*
X252098967Y-88918078D01*
X251996907Y-88887720D01*
X251941742Y-88849094D01*
X252785978Y-87878220D02*
X252824604Y-87823056D01*
X252910127Y-87759622D01*
X253144605Y-87718277D01*
X253246665Y-87748635D01*
X253301829Y-87787262D01*
X253365263Y-87872784D01*
X253381801Y-87966575D01*
X253359712Y-88115531D01*
X252896192Y-88777506D01*
X253505835Y-88670009D01*
X231479628Y-87717842D02*
X231305979Y-86733035D01*
X231540458Y-86691690D01*
X231689413Y-86713778D01*
X231799742Y-86791032D01*
X231863176Y-86876554D01*
X231943147Y-87055867D01*
X231967954Y-87196554D01*
X231954135Y-87392406D01*
X231923777Y-87494466D01*
X231846524Y-87604795D01*
X231714106Y-87676497D01*
X231479628Y-87717842D01*
X232196996Y-86575924D02*
X232806639Y-86468428D01*
X232544521Y-86901475D01*
X232685208Y-86876668D01*
X232787268Y-86907026D01*
X232842433Y-86945653D01*
X232905866Y-87031175D01*
X232947211Y-87265653D01*
X232916854Y-87367713D01*
X232878227Y-87422878D01*
X232792705Y-87486311D01*
X232511331Y-87535925D01*
X232409271Y-87505567D01*
X232354106Y-87466941D01*
X233918199Y-87287856D02*
X233355452Y-87387084D01*
X233636826Y-87337470D02*
X233463177Y-86352662D01*
X233394193Y-86509887D01*
X233316940Y-86620216D01*
X233231418Y-86683650D01*
X211547407Y-84381456D02*
X211373758Y-83396649D01*
X211608237Y-83355304D01*
X211757192Y-83377392D01*
X211867521Y-83454646D01*
X211930955Y-83540168D01*
X212010926Y-83719481D01*
X212035733Y-83860168D01*
X212021914Y-84056020D01*
X211991556Y-84158080D01*
X211914303Y-84268409D01*
X211781885Y-84340111D01*
X211547407Y-84381456D01*
X212264775Y-83239538D02*
X212874418Y-83132042D01*
X212612300Y-83565089D01*
X212752987Y-83540282D01*
X212855047Y-83570640D01*
X212910212Y-83609267D01*
X212973645Y-83694789D01*
X213014990Y-83929267D01*
X212984633Y-84031327D01*
X212946006Y-84086492D01*
X212860484Y-84149925D01*
X212579110Y-84199539D01*
X212477050Y-84169181D01*
X212421885Y-84130555D01*
X213484061Y-83024545D02*
X213577852Y-83008007D01*
X213679912Y-83038365D01*
X213735077Y-83076992D01*
X213798510Y-83162514D01*
X213878482Y-83341827D01*
X213919827Y-83576305D01*
X213906007Y-83772157D01*
X213875649Y-83874217D01*
X213837022Y-83929382D01*
X213751500Y-83992815D01*
X213657709Y-84009353D01*
X213555649Y-83978995D01*
X213500484Y-83940369D01*
X213437051Y-83854846D01*
X213357079Y-83675533D01*
X213315734Y-83441055D01*
X213329554Y-83245204D01*
X213359912Y-83143143D01*
X213398539Y-83087979D01*
X213484061Y-83024545D01*
X193958358Y-94333854D02*
X193784709Y-93349047D01*
X194019188Y-93307702D01*
X194168143Y-93329790D01*
X194278472Y-93407044D01*
X194341906Y-93492566D01*
X194421877Y-93671879D01*
X194446684Y-93812566D01*
X194432865Y-94008418D01*
X194402507Y-94110478D01*
X194325254Y-94220807D01*
X194192836Y-94292509D01*
X193958358Y-94333854D01*
X194739160Y-93277459D02*
X194777786Y-93222294D01*
X194863308Y-93158860D01*
X195097786Y-93117516D01*
X195199847Y-93147873D01*
X195255011Y-93186500D01*
X195318445Y-93272022D01*
X195334983Y-93365813D01*
X195312894Y-93514769D01*
X194849374Y-94176744D01*
X195459017Y-94069248D01*
X195927973Y-93986558D02*
X196115556Y-93953482D01*
X196201078Y-93890049D01*
X196239704Y-93834884D01*
X196308689Y-93677659D01*
X196322509Y-93481808D01*
X196256357Y-93106643D01*
X196192923Y-93021121D01*
X196137759Y-92982494D01*
X196035699Y-92952136D01*
X195848116Y-92985212D01*
X195762594Y-93048646D01*
X195723967Y-93103810D01*
X195693610Y-93205871D01*
X195734954Y-93440349D01*
X195798388Y-93525871D01*
X195853553Y-93564497D01*
X195955613Y-93594855D01*
X196143195Y-93561779D01*
X196228717Y-93498346D01*
X196267344Y-93443181D01*
X196297702Y-93341121D01*
X176369309Y-104286252D02*
X176195660Y-103301445D01*
X176430139Y-103260100D01*
X176579094Y-103282188D01*
X176689423Y-103359442D01*
X176752857Y-103444964D01*
X176832828Y-103624277D01*
X176857635Y-103764964D01*
X176843816Y-103960816D01*
X176813458Y-104062876D01*
X176736205Y-104173205D01*
X176603787Y-104244907D01*
X176369309Y-104286252D01*
X177150111Y-103229857D02*
X177188737Y-103174692D01*
X177274259Y-103111258D01*
X177508737Y-103069914D01*
X177610798Y-103100271D01*
X177665962Y-103138898D01*
X177729396Y-103224420D01*
X177745934Y-103318211D01*
X177723845Y-103467167D01*
X177260325Y-104129142D01*
X177869968Y-104021646D01*
X178333488Y-103359671D02*
X178231428Y-103329313D01*
X178176263Y-103290686D01*
X178112830Y-103205164D01*
X178104561Y-103158269D01*
X178134918Y-103056208D01*
X178173545Y-103001044D01*
X178259067Y-102937610D01*
X178446650Y-102904534D01*
X178548710Y-102934892D01*
X178603874Y-102973519D01*
X178667308Y-103059041D01*
X178675577Y-103105937D01*
X178645219Y-103207997D01*
X178606593Y-103263161D01*
X178521070Y-103326595D01*
X178333488Y-103359671D01*
X178247966Y-103423104D01*
X178209339Y-103478269D01*
X178178981Y-103580329D01*
X178212057Y-103767911D01*
X178275491Y-103853434D01*
X178330655Y-103892060D01*
X178432715Y-103922418D01*
X178620298Y-103889342D01*
X178705820Y-103825909D01*
X178744447Y-103770744D01*
X178774804Y-103668684D01*
X178741729Y-103481101D01*
X178678295Y-103395579D01*
X178623130Y-103356953D01*
X178521070Y-103326595D01*
X120238313Y-103783439D02*
X120411962Y-102798632D01*
X120646440Y-102839976D01*
X120778857Y-102911679D01*
X120856111Y-103022008D01*
X120886468Y-103124068D01*
X120900288Y-103319920D01*
X120875481Y-103460606D01*
X120795510Y-103639920D01*
X120732076Y-103725442D01*
X120621747Y-103802695D01*
X120472791Y-103824784D01*
X120238313Y-103783439D01*
X121333336Y-103057802D02*
X121388500Y-103019175D01*
X121490561Y-102988818D01*
X121725039Y-103030162D01*
X121810561Y-103093596D01*
X121849187Y-103148761D01*
X121879545Y-103250821D01*
X121863007Y-103344612D01*
X121791305Y-103477030D01*
X121129330Y-103940550D01*
X121738973Y-104048046D01*
X122803638Y-103220349D02*
X122334681Y-103137659D01*
X122205096Y-103598346D01*
X122260261Y-103559719D01*
X122362321Y-103529362D01*
X122596799Y-103570706D01*
X122682321Y-103634140D01*
X122720948Y-103689305D01*
X122751306Y-103791365D01*
X122709961Y-104025843D01*
X122646527Y-104111365D01*
X122591363Y-104149992D01*
X122489303Y-104180349D01*
X122254824Y-104139005D01*
X122169302Y-104075571D01*
X122130676Y-104020406D01*
X102580347Y-94221889D02*
X102753996Y-93237082D01*
X102988474Y-93278426D01*
X103120891Y-93350129D01*
X103198145Y-93460458D01*
X103228502Y-93562518D01*
X103242322Y-93758370D01*
X103217515Y-93899056D01*
X103137544Y-94078370D01*
X103074110Y-94163892D01*
X102963781Y-94241145D01*
X102814825Y-94263234D01*
X102580347Y-94221889D01*
X103675370Y-93496252D02*
X103730534Y-93457625D01*
X103832595Y-93427268D01*
X104067073Y-93468612D01*
X104152595Y-93532046D01*
X104191221Y-93587211D01*
X104221579Y-93689271D01*
X104205041Y-93783062D01*
X104133339Y-93915480D01*
X103471364Y-94379000D01*
X104081007Y-94486496D01*
X105040893Y-93978799D02*
X104925128Y-94635337D01*
X104872567Y-93562289D02*
X104514054Y-94224378D01*
X105123697Y-94331875D01*
X84991297Y-84269491D02*
X85164946Y-83284684D01*
X85399424Y-83326028D01*
X85531841Y-83397731D01*
X85609095Y-83508060D01*
X85639452Y-83610120D01*
X85653272Y-83805972D01*
X85628465Y-83946658D01*
X85548494Y-84125972D01*
X85485060Y-84211494D01*
X85374731Y-84288747D01*
X85225775Y-84310836D01*
X84991297Y-84269491D01*
X86086320Y-83543854D02*
X86141484Y-83505227D01*
X86243545Y-83474870D01*
X86478023Y-83516214D01*
X86563545Y-83579648D01*
X86602171Y-83634813D01*
X86632529Y-83736873D01*
X86615991Y-83830664D01*
X86544289Y-83963082D01*
X85882314Y-84426602D01*
X86491957Y-84534098D01*
X86993874Y-83607173D02*
X87603517Y-83714669D01*
X87209096Y-84031952D01*
X87349783Y-84056758D01*
X87435305Y-84120192D01*
X87473932Y-84175357D01*
X87504290Y-84277417D01*
X87462945Y-84511895D01*
X87399511Y-84597417D01*
X87344347Y-84636044D01*
X87242287Y-84666401D01*
X86960913Y-84616788D01*
X86875391Y-84553354D01*
X86836764Y-84498190D01*
X65059077Y-87605876D02*
X65232726Y-86621069D01*
X65467204Y-86662413D01*
X65599621Y-86734116D01*
X65676875Y-86844445D01*
X65707232Y-86946505D01*
X65721052Y-87142357D01*
X65696245Y-87283043D01*
X65616274Y-87462357D01*
X65552840Y-87547879D01*
X65442511Y-87625132D01*
X65293555Y-87647221D01*
X65059077Y-87605876D01*
X66154100Y-86880239D02*
X66209264Y-86841612D01*
X66311325Y-86811255D01*
X66545803Y-86852599D01*
X66631325Y-86916033D01*
X66669951Y-86971198D01*
X66700309Y-87073258D01*
X66683771Y-87167049D01*
X66612069Y-87299467D01*
X65950094Y-87762987D01*
X66559737Y-87870483D01*
X67092012Y-87045618D02*
X67147177Y-87006992D01*
X67249237Y-86976634D01*
X67483715Y-87017979D01*
X67569237Y-87081412D01*
X67607864Y-87136577D01*
X67638221Y-87238637D01*
X67621683Y-87332428D01*
X67549981Y-87464846D01*
X66888006Y-87928366D01*
X67497649Y-88035862D01*
X45080594Y-88919112D02*
X45254243Y-87934305D01*
X45488721Y-87975649D01*
X45621138Y-88047352D01*
X45698392Y-88157681D01*
X45728749Y-88259741D01*
X45742569Y-88455593D01*
X45717762Y-88596279D01*
X45637791Y-88775593D01*
X45574357Y-88861115D01*
X45464028Y-88938368D01*
X45315072Y-88960457D01*
X45080594Y-88919112D01*
X46175617Y-88193475D02*
X46230781Y-88154848D01*
X46332842Y-88124491D01*
X46567320Y-88165835D01*
X46652842Y-88229269D01*
X46691468Y-88284434D01*
X46721826Y-88386494D01*
X46705288Y-88480285D01*
X46633586Y-88612703D01*
X45971611Y-89076223D01*
X46581254Y-89183719D01*
X47519166Y-89349098D02*
X46956419Y-89249871D01*
X47237792Y-89299484D02*
X47411440Y-88314677D01*
X47292842Y-88438826D01*
X47182513Y-88516079D01*
X47080453Y-88546437D01*
X247759258Y-70339360D02*
X247585609Y-69354553D01*
X247820088Y-69313208D01*
X247969043Y-69335296D01*
X248079372Y-69412550D01*
X248142806Y-69498072D01*
X248222777Y-69677385D01*
X248247584Y-69818072D01*
X248233765Y-70013924D01*
X248203407Y-70115984D01*
X248126154Y-70226313D01*
X247993736Y-70298015D01*
X247759258Y-70339360D01*
X248540060Y-69282965D02*
X248578686Y-69227800D01*
X248664208Y-69164366D01*
X248898686Y-69123022D01*
X249000747Y-69153379D01*
X249055911Y-69192006D01*
X249119345Y-69277528D01*
X249135883Y-69371319D01*
X249113794Y-69520275D01*
X248650274Y-70182250D01*
X249259917Y-70074754D01*
X249695912Y-68982449D02*
X249789703Y-68965911D01*
X249891763Y-68996269D01*
X249946928Y-69034896D01*
X250010361Y-69120418D01*
X250090333Y-69299731D01*
X250131678Y-69534209D01*
X250117858Y-69730061D01*
X250087500Y-69832121D01*
X250048873Y-69887286D01*
X249963351Y-69950719D01*
X249869560Y-69967257D01*
X249767500Y-69936899D01*
X249712335Y-69898273D01*
X249648902Y-69812750D01*
X249568930Y-69633437D01*
X249527585Y-69398959D01*
X249541405Y-69203108D01*
X249571763Y-69101047D01*
X249610390Y-69045883D01*
X249695912Y-68982449D01*
X228171622Y-68957207D02*
X227997973Y-67972400D01*
X228232452Y-67931055D01*
X228381407Y-67953143D01*
X228491736Y-68030397D01*
X228555170Y-68115919D01*
X228635141Y-68295232D01*
X228659948Y-68435919D01*
X228646129Y-68631771D01*
X228615771Y-68733831D01*
X228538518Y-68844160D01*
X228406100Y-68915862D01*
X228171622Y-68957207D01*
X229672281Y-68692601D02*
X229109534Y-68791828D01*
X229390907Y-68742214D02*
X229217259Y-67757407D01*
X229148275Y-67914631D01*
X229071022Y-68024960D01*
X228985499Y-68088394D01*
X230141237Y-68609911D02*
X230328820Y-68576835D01*
X230414342Y-68513402D01*
X230452968Y-68458237D01*
X230521953Y-68301012D01*
X230535773Y-68105161D01*
X230469621Y-67729996D01*
X230406187Y-67644474D01*
X230351023Y-67605847D01*
X230248963Y-67575489D01*
X230061380Y-67608565D01*
X229975858Y-67671999D01*
X229937231Y-67727163D01*
X229906874Y-67829224D01*
X229948218Y-68063702D01*
X230011652Y-68149224D01*
X230066817Y-68187850D01*
X230168877Y-68218208D01*
X230356459Y-68185132D01*
X230441981Y-68121699D01*
X230480608Y-68066534D01*
X230510966Y-67964474D01*
X208239401Y-65620821D02*
X208065752Y-64636014D01*
X208300231Y-64594669D01*
X208449186Y-64616757D01*
X208559515Y-64694011D01*
X208622949Y-64779533D01*
X208702920Y-64958846D01*
X208727727Y-65099533D01*
X208713908Y-65295385D01*
X208683550Y-65397445D01*
X208606297Y-65507774D01*
X208473879Y-65579476D01*
X208239401Y-65620821D01*
X209740060Y-65356215D02*
X209177313Y-65455442D01*
X209458686Y-65405828D02*
X209285038Y-64421021D01*
X209216054Y-64578245D01*
X209138801Y-64688574D01*
X209053278Y-64752008D01*
X210203580Y-64694240D02*
X210101520Y-64663882D01*
X210046355Y-64625255D01*
X209982922Y-64539733D01*
X209974653Y-64492838D01*
X210005010Y-64390777D01*
X210043637Y-64335613D01*
X210129159Y-64272179D01*
X210316742Y-64239103D01*
X210418802Y-64269461D01*
X210473966Y-64308088D01*
X210537400Y-64393610D01*
X210545669Y-64440506D01*
X210515311Y-64542566D01*
X210476685Y-64597730D01*
X210391162Y-64661164D01*
X210203580Y-64694240D01*
X210118058Y-64757673D01*
X210079431Y-64812838D01*
X210049073Y-64914898D01*
X210082149Y-65102480D01*
X210145583Y-65188003D01*
X210200747Y-65226629D01*
X210302807Y-65256987D01*
X210490390Y-65223911D01*
X210575912Y-65160478D01*
X210614539Y-65105313D01*
X210644896Y-65003253D01*
X210611821Y-64815670D01*
X210548387Y-64730148D01*
X210493222Y-64691522D01*
X210391162Y-64661164D01*
X190650352Y-75573219D02*
X190476703Y-74588412D01*
X190711182Y-74547067D01*
X190860137Y-74569155D01*
X190970466Y-74646409D01*
X191033900Y-74731931D01*
X191113871Y-74911244D01*
X191138678Y-75051931D01*
X191124859Y-75247783D01*
X191094501Y-75349843D01*
X191017248Y-75460172D01*
X190884830Y-75531874D01*
X190650352Y-75573219D01*
X192151011Y-75308613D02*
X191588264Y-75407840D01*
X191869637Y-75358226D02*
X191695989Y-74373419D01*
X191627005Y-74530643D01*
X191549752Y-74640972D01*
X191464229Y-74704406D01*
X192305632Y-74265922D02*
X192962171Y-74150157D01*
X192713758Y-75209385D01*
X173061302Y-85525617D02*
X172887653Y-84540810D01*
X173122132Y-84499465D01*
X173271087Y-84521553D01*
X173381416Y-84598807D01*
X173444850Y-84684329D01*
X173524821Y-84863642D01*
X173549628Y-85004329D01*
X173535809Y-85200181D01*
X173505451Y-85302241D01*
X173428198Y-85412570D01*
X173295780Y-85484272D01*
X173061302Y-85525617D01*
X174561961Y-85261011D02*
X173999214Y-85360238D01*
X174280587Y-85310624D02*
X174106939Y-84325817D01*
X174037955Y-84483041D01*
X173960702Y-84593370D01*
X173875179Y-84656804D01*
X175232434Y-84127361D02*
X175044851Y-84160437D01*
X174959329Y-84223871D01*
X174920702Y-84279035D01*
X174851718Y-84436260D01*
X174837898Y-84632112D01*
X174904050Y-85007276D01*
X174967484Y-85092799D01*
X175022648Y-85131425D01*
X175124708Y-85161783D01*
X175312291Y-85128707D01*
X175397813Y-85065274D01*
X175436440Y-85010109D01*
X175466797Y-84908049D01*
X175425453Y-84673571D01*
X175362019Y-84588049D01*
X175306854Y-84549422D01*
X175204794Y-84519064D01*
X175017212Y-84552140D01*
X174931690Y-84615574D01*
X174893063Y-84670738D01*
X174862705Y-84772798D01*
X123477402Y-85413651D02*
X123651051Y-84428844D01*
X123885529Y-84470188D01*
X124017946Y-84541891D01*
X124095200Y-84652220D01*
X124125557Y-84754280D01*
X124139377Y-84950132D01*
X124114570Y-85090818D01*
X124034599Y-85270132D01*
X123971165Y-85355654D01*
X123860836Y-85432907D01*
X123711880Y-85454996D01*
X123477402Y-85413651D01*
X124978062Y-85678258D02*
X124415315Y-85579030D01*
X124696688Y-85628644D02*
X124870336Y-84643836D01*
X124751738Y-84767985D01*
X124641409Y-84845239D01*
X124539349Y-84875596D01*
X126042727Y-84850561D02*
X125573770Y-84767871D01*
X125444185Y-85228558D01*
X125499350Y-85189931D01*
X125601410Y-85159574D01*
X125835888Y-85200918D01*
X125921410Y-85264352D01*
X125960037Y-85319517D01*
X125990395Y-85421577D01*
X125949050Y-85656055D01*
X125885616Y-85741577D01*
X125830452Y-85780204D01*
X125728392Y-85810561D01*
X125493913Y-85769217D01*
X125408391Y-85705783D01*
X125369765Y-85650618D01*
X105888353Y-75461253D02*
X106062002Y-74476446D01*
X106296480Y-74517790D01*
X106428897Y-74589493D01*
X106506151Y-74699822D01*
X106536508Y-74801882D01*
X106550328Y-74997734D01*
X106525521Y-75138420D01*
X106445550Y-75317734D01*
X106382116Y-75403256D01*
X106271787Y-75480509D01*
X106122831Y-75502598D01*
X105888353Y-75461253D01*
X107389013Y-75725860D02*
X106826266Y-75626632D01*
X107107639Y-75676246D02*
X107281287Y-74691438D01*
X107162689Y-74815587D01*
X107052360Y-74892841D01*
X106950300Y-74923198D01*
X108348899Y-75218163D02*
X108233134Y-75874701D01*
X108180573Y-74801653D02*
X107822060Y-75463742D01*
X108431703Y-75571239D01*
X88299303Y-65508855D02*
X88472952Y-64524048D01*
X88707430Y-64565392D01*
X88839847Y-64637095D01*
X88917101Y-64747424D01*
X88947458Y-64849484D01*
X88961278Y-65045336D01*
X88936471Y-65186022D01*
X88856500Y-65365336D01*
X88793066Y-65450858D01*
X88682737Y-65528111D01*
X88533781Y-65550200D01*
X88299303Y-65508855D01*
X89799963Y-65773462D02*
X89237216Y-65674234D01*
X89518589Y-65723848D02*
X89692237Y-64739040D01*
X89573639Y-64863189D01*
X89463310Y-64940443D01*
X89361250Y-64970800D01*
X90301880Y-64846537D02*
X90911523Y-64954033D01*
X90517102Y-65271316D01*
X90657789Y-65296122D01*
X90743311Y-65359556D01*
X90781938Y-65414721D01*
X90812296Y-65516781D01*
X90770951Y-65751259D01*
X90707517Y-65836781D01*
X90652353Y-65875408D01*
X90550293Y-65905765D01*
X90268919Y-65856152D01*
X90183397Y-65792718D01*
X90144770Y-65737554D01*
X68367083Y-68845241D02*
X68540732Y-67860434D01*
X68775210Y-67901778D01*
X68907627Y-67973481D01*
X68984881Y-68083810D01*
X69015238Y-68185870D01*
X69029058Y-68381722D01*
X69004251Y-68522408D01*
X68924280Y-68701722D01*
X68860846Y-68787244D01*
X68750517Y-68864497D01*
X68601561Y-68886586D01*
X68367083Y-68845241D01*
X69867743Y-69109848D02*
X69304996Y-69010620D01*
X69586369Y-69060234D02*
X69760017Y-68075426D01*
X69641419Y-68199575D01*
X69531090Y-68276829D01*
X69429030Y-68307186D01*
X70400018Y-68284983D02*
X70455183Y-68246357D01*
X70557243Y-68215999D01*
X70791721Y-68257344D01*
X70877243Y-68320777D01*
X70915870Y-68375942D01*
X70946227Y-68478002D01*
X70929689Y-68571793D01*
X70857987Y-68704211D01*
X70196012Y-69167731D01*
X70805655Y-69275227D01*
X48779446Y-70227394D02*
X48953095Y-69242587D01*
X49187573Y-69283931D01*
X49319990Y-69355634D01*
X49397244Y-69465963D01*
X49427601Y-69568023D01*
X49441421Y-69763875D01*
X49416614Y-69904561D01*
X49336643Y-70083875D01*
X49273209Y-70169397D01*
X49162880Y-70246650D01*
X49013924Y-70268739D01*
X48779446Y-70227394D01*
X50280106Y-70492001D02*
X49717359Y-70392773D01*
X49998732Y-70442387D02*
X50172380Y-69457579D01*
X50053782Y-69581728D01*
X49943453Y-69658982D01*
X49841393Y-69689339D01*
X51218018Y-70657380D02*
X50655271Y-70558153D01*
X50936644Y-70607766D02*
X51110292Y-69622959D01*
X50991694Y-69747108D01*
X50881365Y-69824361D01*
X50779305Y-69854719D01*
X244451252Y-51578725D02*
X244277603Y-50593918D01*
X244512082Y-50552573D01*
X244661037Y-50574661D01*
X244771366Y-50651915D01*
X244834800Y-50737437D01*
X244914771Y-50916750D01*
X244939578Y-51057437D01*
X244925759Y-51253289D01*
X244895401Y-51355349D01*
X244818148Y-51465678D01*
X244685730Y-51537380D01*
X244451252Y-51578725D01*
X245951911Y-51314119D02*
X245389164Y-51413346D01*
X245670537Y-51363732D02*
X245496889Y-50378925D01*
X245427905Y-50536149D01*
X245350652Y-50646478D01*
X245265129Y-50709912D01*
X246387906Y-50221814D02*
X246481697Y-50205276D01*
X246583757Y-50235634D01*
X246638922Y-50274261D01*
X246702355Y-50359783D01*
X246782327Y-50539096D01*
X246823672Y-50773574D01*
X246809852Y-50969426D01*
X246779494Y-51071486D01*
X246740867Y-51126651D01*
X246655345Y-51190084D01*
X246561554Y-51206622D01*
X246459494Y-51176264D01*
X246404329Y-51137638D01*
X246340896Y-51052115D01*
X246260924Y-50872802D01*
X246219579Y-50638324D01*
X246233399Y-50442473D01*
X246263757Y-50340412D01*
X246302384Y-50285248D01*
X246387906Y-50221814D01*
X225332572Y-50113883D02*
X225158924Y-49129075D01*
X225393402Y-49087730D01*
X225542357Y-49109819D01*
X225652686Y-49187072D01*
X225716120Y-49272594D01*
X225796091Y-49451908D01*
X225820898Y-49592595D01*
X225807079Y-49788446D01*
X225776721Y-49890506D01*
X225699468Y-50000835D01*
X225567050Y-50072538D01*
X225332572Y-50113883D01*
X226364275Y-49931966D02*
X226551858Y-49898890D01*
X226637380Y-49835456D01*
X226676006Y-49780292D01*
X226744991Y-49623067D01*
X226758811Y-49427215D01*
X226692659Y-49052051D01*
X226629225Y-48966528D01*
X226574061Y-48927902D01*
X226472001Y-48897544D01*
X226284418Y-48930620D01*
X226198896Y-48994053D01*
X226160269Y-49049218D01*
X226129912Y-49151278D01*
X226171256Y-49385756D01*
X226234690Y-49471278D01*
X226289854Y-49509905D01*
X226391915Y-49540263D01*
X226579497Y-49507187D01*
X226665019Y-49443753D01*
X226703646Y-49388589D01*
X226734004Y-49286529D01*
X205503808Y-46861692D02*
X205330160Y-45876884D01*
X205564638Y-45835539D01*
X205713593Y-45857628D01*
X205823922Y-45934881D01*
X205887356Y-46020403D01*
X205967327Y-46199717D01*
X205992134Y-46340404D01*
X205978315Y-46536255D01*
X205947957Y-46638315D01*
X205870704Y-46748644D01*
X205738286Y-46820347D01*
X205503808Y-46861692D01*
X206530075Y-46100489D02*
X206428015Y-46070132D01*
X206372850Y-46031505D01*
X206309416Y-45945983D01*
X206301148Y-45899087D01*
X206331505Y-45797027D01*
X206370132Y-45741862D01*
X206455654Y-45678429D01*
X206643237Y-45645353D01*
X206745297Y-45675711D01*
X206800461Y-45714337D01*
X206863895Y-45799860D01*
X206872164Y-45846755D01*
X206841806Y-45948815D01*
X206803179Y-46003980D01*
X206717657Y-46067413D01*
X206530075Y-46100489D01*
X206444553Y-46163923D01*
X206405926Y-46219087D01*
X206375568Y-46321148D01*
X206408644Y-46508730D01*
X206472078Y-46594252D01*
X206527242Y-46632879D01*
X206629302Y-46663237D01*
X206816885Y-46630161D01*
X206902407Y-46566727D01*
X206941034Y-46511563D01*
X206971391Y-46409502D01*
X206938315Y-46221920D01*
X206874882Y-46136398D01*
X206819717Y-46097771D01*
X206717657Y-46067413D01*
X187811302Y-56729895D02*
X187637654Y-55745087D01*
X187872132Y-55703742D01*
X188021087Y-55725831D01*
X188131416Y-55803084D01*
X188194850Y-55888606D01*
X188274821Y-56067920D01*
X188299628Y-56208607D01*
X188285809Y-56404458D01*
X188255451Y-56506518D01*
X188178198Y-56616847D01*
X188045780Y-56688550D01*
X187811302Y-56729895D01*
X188528670Y-55587977D02*
X189185209Y-55472211D01*
X188936796Y-56531440D01*
X170222252Y-66682293D02*
X170048604Y-65697485D01*
X170283082Y-65656140D01*
X170432037Y-65678229D01*
X170542366Y-65755482D01*
X170605800Y-65841004D01*
X170685771Y-66020318D01*
X170710578Y-66161005D01*
X170696759Y-66356856D01*
X170666401Y-66458916D01*
X170589148Y-66569245D01*
X170456730Y-66640948D01*
X170222252Y-66682293D01*
X171455472Y-65449416D02*
X171267889Y-65482492D01*
X171182367Y-65545925D01*
X171143740Y-65601090D01*
X171074756Y-65758315D01*
X171060936Y-65954166D01*
X171127088Y-66329331D01*
X171190522Y-66414853D01*
X171245686Y-66453480D01*
X171347746Y-66483838D01*
X171535329Y-66450762D01*
X171620851Y-66387328D01*
X171659478Y-66332164D01*
X171689835Y-66230103D01*
X171648491Y-65995625D01*
X171585057Y-65910103D01*
X171529892Y-65871477D01*
X171427832Y-65841119D01*
X171240250Y-65874195D01*
X171154728Y-65937628D01*
X171116101Y-65992793D01*
X171085743Y-66094853D01*
X127323281Y-66344860D02*
X127496930Y-65360052D01*
X127731408Y-65401397D01*
X127863826Y-65473099D01*
X127941079Y-65583429D01*
X127971437Y-65685489D01*
X127985256Y-65881340D01*
X127960449Y-66022027D01*
X127880478Y-66201340D01*
X127817044Y-66286863D01*
X127706715Y-66364116D01*
X127557759Y-66386205D01*
X127323281Y-66344860D01*
X128950693Y-65616390D02*
X128481737Y-65533700D01*
X128352152Y-65994387D01*
X128407317Y-65955761D01*
X128509377Y-65925403D01*
X128743855Y-65966748D01*
X128829377Y-66030181D01*
X128868004Y-66085346D01*
X128898362Y-66187406D01*
X128857017Y-66421884D01*
X128793583Y-66507406D01*
X128738419Y-66546033D01*
X128636358Y-66576391D01*
X128401880Y-66535046D01*
X128316358Y-66471612D01*
X128277732Y-66416448D01*
X109665315Y-56783309D02*
X109838964Y-55798501D01*
X110073442Y-55839846D01*
X110205860Y-55911548D01*
X110283113Y-56021878D01*
X110313471Y-56123938D01*
X110327290Y-56319789D01*
X110302483Y-56460476D01*
X110222512Y-56639789D01*
X110159078Y-56725312D01*
X110048749Y-56802565D01*
X109899793Y-56824654D01*
X109665315Y-56783309D01*
X111187949Y-56374839D02*
X111072184Y-57031378D01*
X111019623Y-55958330D02*
X110661110Y-56620419D01*
X111270753Y-56727915D01*
X92076265Y-46830911D02*
X92249914Y-45846103D01*
X92484392Y-45887448D01*
X92616810Y-45959150D01*
X92694063Y-46069480D01*
X92724421Y-46171540D01*
X92738240Y-46367391D01*
X92713433Y-46508078D01*
X92633462Y-46687391D01*
X92570028Y-46772914D01*
X92459699Y-46850167D01*
X92310743Y-46872256D01*
X92076265Y-46830911D01*
X93140930Y-46003213D02*
X93750573Y-46110710D01*
X93356152Y-46427992D01*
X93496839Y-46452799D01*
X93582361Y-46516232D01*
X93620988Y-46571397D01*
X93651346Y-46673457D01*
X93610001Y-46907935D01*
X93546567Y-46993457D01*
X93491403Y-47032084D01*
X93389342Y-47062442D01*
X93107969Y-47012828D01*
X93022447Y-46949394D01*
X92983820Y-46894230D01*
X72144045Y-50167296D02*
X72317694Y-49182488D01*
X72552172Y-49223833D01*
X72684590Y-49295535D01*
X72761843Y-49405865D01*
X72792201Y-49507925D01*
X72806020Y-49703776D01*
X72781213Y-49844463D01*
X72701242Y-50023776D01*
X72637808Y-50109299D01*
X72527479Y-50186552D01*
X72378523Y-50208641D01*
X72144045Y-50167296D01*
X73239068Y-49441659D02*
X73294232Y-49403032D01*
X73396293Y-49372674D01*
X73630771Y-49414019D01*
X73716293Y-49477453D01*
X73754920Y-49532617D01*
X73785277Y-49634677D01*
X73768739Y-49728469D01*
X73697037Y-49860886D01*
X73035062Y-50324406D01*
X73644705Y-50431903D01*
X52556408Y-51549449D02*
X52730057Y-50564641D01*
X52964535Y-50605986D01*
X53096953Y-50677688D01*
X53174206Y-50788018D01*
X53204564Y-50890078D01*
X53218383Y-51085929D01*
X53193576Y-51226616D01*
X53113605Y-51405929D01*
X53050171Y-51491452D01*
X52939842Y-51568705D01*
X52790886Y-51590794D01*
X52556408Y-51549449D01*
X54057068Y-51814056D02*
X53494321Y-51714828D01*
X53775694Y-51764442D02*
X53949342Y-50779634D01*
X53830744Y-50903783D01*
X53720415Y-50981036D01*
X53618355Y-51011394D01*
X163243333Y-90147142D02*
X163195714Y-90194761D01*
X163052857Y-90242380D01*
X162957619Y-90242380D01*
X162814761Y-90194761D01*
X162719523Y-90099523D01*
X162671904Y-90004285D01*
X162624285Y-89813809D01*
X162624285Y-89670952D01*
X162671904Y-89480476D01*
X162719523Y-89385238D01*
X162814761Y-89290000D01*
X162957619Y-89242380D01*
X163052857Y-89242380D01*
X163195714Y-89290000D01*
X163243333Y-89337619D01*
X163576666Y-89242380D02*
X164243333Y-89242380D01*
X163814761Y-90242380D01*
X163253333Y-92107142D02*
X163205714Y-92154761D01*
X163062857Y-92202380D01*
X162967619Y-92202380D01*
X162824761Y-92154761D01*
X162729523Y-92059523D01*
X162681904Y-91964285D01*
X162634285Y-91773809D01*
X162634285Y-91630952D01*
X162681904Y-91440476D01*
X162729523Y-91345238D01*
X162824761Y-91250000D01*
X162967619Y-91202380D01*
X163062857Y-91202380D01*
X163205714Y-91250000D01*
X163253333Y-91297619D01*
X164110476Y-91202380D02*
X163920000Y-91202380D01*
X163824761Y-91250000D01*
X163777142Y-91297619D01*
X163681904Y-91440476D01*
X163634285Y-91630952D01*
X163634285Y-92011904D01*
X163681904Y-92107142D01*
X163729523Y-92154761D01*
X163824761Y-92202380D01*
X164015238Y-92202380D01*
X164110476Y-92154761D01*
X164158095Y-92107142D01*
X164205714Y-92011904D01*
X164205714Y-91773809D01*
X164158095Y-91678571D01*
X164110476Y-91630952D01*
X164015238Y-91583333D01*
X163824761Y-91583333D01*
X163729523Y-91630952D01*
X163681904Y-91678571D01*
X163634285Y-91773809D01*
X163353333Y-96207142D02*
X163305714Y-96254761D01*
X163162857Y-96302380D01*
X163067619Y-96302380D01*
X162924761Y-96254761D01*
X162829523Y-96159523D01*
X162781904Y-96064285D01*
X162734285Y-95873809D01*
X162734285Y-95730952D01*
X162781904Y-95540476D01*
X162829523Y-95445238D01*
X162924761Y-95350000D01*
X163067619Y-95302380D01*
X163162857Y-95302380D01*
X163305714Y-95350000D01*
X163353333Y-95397619D01*
X164258095Y-95302380D02*
X163781904Y-95302380D01*
X163734285Y-95778571D01*
X163781904Y-95730952D01*
X163877142Y-95683333D01*
X164115238Y-95683333D01*
X164210476Y-95730952D01*
X164258095Y-95778571D01*
X164305714Y-95873809D01*
X164305714Y-96111904D01*
X164258095Y-96207142D01*
X164210476Y-96254761D01*
X164115238Y-96302380D01*
X163877142Y-96302380D01*
X163781904Y-96254761D01*
X163734285Y-96207142D01*
X163293333Y-94277142D02*
X163245714Y-94324761D01*
X163102857Y-94372380D01*
X163007619Y-94372380D01*
X162864761Y-94324761D01*
X162769523Y-94229523D01*
X162721904Y-94134285D01*
X162674285Y-93943809D01*
X162674285Y-93800952D01*
X162721904Y-93610476D01*
X162769523Y-93515238D01*
X162864761Y-93420000D01*
X163007619Y-93372380D01*
X163102857Y-93372380D01*
X163245714Y-93420000D01*
X163293333Y-93467619D01*
X164150476Y-93705714D02*
X164150476Y-94372380D01*
X163912380Y-93324761D02*
X163674285Y-94039047D01*
X164293333Y-94039047D01*
X146823833Y-85373142D02*
X146776214Y-85420761D01*
X146633357Y-85468380D01*
X146538119Y-85468380D01*
X146395261Y-85420761D01*
X146300023Y-85325523D01*
X146252404Y-85230285D01*
X146204785Y-85039809D01*
X146204785Y-84896952D01*
X146252404Y-84706476D01*
X146300023Y-84611238D01*
X146395261Y-84516000D01*
X146538119Y-84468380D01*
X146633357Y-84468380D01*
X146776214Y-84516000D01*
X146823833Y-84563619D01*
X147157166Y-84468380D02*
X147776214Y-84468380D01*
X147442880Y-84849333D01*
X147585738Y-84849333D01*
X147680976Y-84896952D01*
X147728595Y-84944571D01*
X147776214Y-85039809D01*
X147776214Y-85277904D01*
X147728595Y-85373142D01*
X147680976Y-85420761D01*
X147585738Y-85468380D01*
X147300023Y-85468380D01*
X147204785Y-85420761D01*
X147157166Y-85373142D01*
X134033333Y-92697142D02*
X133985714Y-92744761D01*
X133842857Y-92792380D01*
X133747619Y-92792380D01*
X133604761Y-92744761D01*
X133509523Y-92649523D01*
X133461904Y-92554285D01*
X133414285Y-92363809D01*
X133414285Y-92220952D01*
X133461904Y-92030476D01*
X133509523Y-91935238D01*
X133604761Y-91840000D01*
X133747619Y-91792380D01*
X133842857Y-91792380D01*
X133985714Y-91840000D01*
X134033333Y-91887619D01*
X134414285Y-91887619D02*
X134461904Y-91840000D01*
X134557142Y-91792380D01*
X134795238Y-91792380D01*
X134890476Y-91840000D01*
X134938095Y-91887619D01*
X134985714Y-91982857D01*
X134985714Y-92078095D01*
X134938095Y-92220952D01*
X134366666Y-92792380D01*
X134985714Y-92792380D01*
X134153333Y-100047142D02*
X134105714Y-100094761D01*
X133962857Y-100142380D01*
X133867619Y-100142380D01*
X133724761Y-100094761D01*
X133629523Y-99999523D01*
X133581904Y-99904285D01*
X133534285Y-99713809D01*
X133534285Y-99570952D01*
X133581904Y-99380476D01*
X133629523Y-99285238D01*
X133724761Y-99190000D01*
X133867619Y-99142380D01*
X133962857Y-99142380D01*
X134105714Y-99190000D01*
X134153333Y-99237619D01*
X135105714Y-100142380D02*
X134534285Y-100142380D01*
X134820000Y-100142380D02*
X134820000Y-99142380D01*
X134724761Y-99285238D01*
X134629523Y-99380476D01*
X134534285Y-99428095D01*
%LPC*%
D13*
X136233560Y-96994000D03*
X136233560Y-94794000D03*
X137933560Y-94794000D03*
X137933560Y-96994000D03*
D14*
X145458497Y-70350524D03*
X151908497Y-70350524D03*
X146233497Y-70350524D03*
X151133497Y-70350524D03*
D15*
X150433497Y-70350524D03*
X146933497Y-70350524D03*
X149933497Y-70350524D03*
X147433497Y-70350524D03*
X149433497Y-70350524D03*
X147933497Y-70350524D03*
X148433497Y-70350524D03*
X148933497Y-70350524D03*
D16*
X145793497Y-68905524D03*
X151573497Y-68905524D03*
D17*
X154599307Y-91993108D03*
X154599307Y-92793108D03*
X154599307Y-93593108D03*
X154599307Y-94393108D03*
X154599307Y-95193108D03*
X154599307Y-95993108D03*
X154599307Y-96793108D03*
X154599307Y-97593108D03*
X154599307Y-98393108D03*
X154599307Y-99193108D03*
X154599307Y-99993108D03*
D18*
X152899307Y-101693108D03*
X152099307Y-101693108D03*
X151299307Y-101693108D03*
X150499307Y-101693108D03*
X149699307Y-101693108D03*
X148899307Y-101693108D03*
X148099307Y-101693108D03*
X147299307Y-101693108D03*
X146499307Y-101693108D03*
X145699307Y-101693108D03*
X144899307Y-101693108D03*
D17*
X143199307Y-99993108D03*
X143199307Y-99193108D03*
X143199307Y-98393108D03*
X143199307Y-97593108D03*
X143199307Y-96793108D03*
X143199307Y-95993108D03*
X143199307Y-95193108D03*
X143199307Y-94393108D03*
X143199307Y-93593108D03*
X143199307Y-92793108D03*
X143199307Y-91993108D03*
D18*
X144899307Y-90293108D03*
X145699307Y-90293108D03*
X146499307Y-90293108D03*
X147299307Y-90293108D03*
X148099307Y-90293108D03*
X148899307Y-90293108D03*
X149699307Y-90293108D03*
X150499307Y-90293108D03*
X151299307Y-90293108D03*
X152099307Y-90293108D03*
X152899307Y-90293108D03*
D19*
X145583497Y-110543140D03*
X151783497Y-106843140D03*
X145583497Y-106843140D03*
X151783497Y-110543140D03*
D20*
G36*
X159958142Y-97651174D02*
G01*
X159981803Y-97654684D01*
X160005007Y-97660496D01*
X160027529Y-97668554D01*
X160049153Y-97678782D01*
X160069670Y-97691079D01*
X160088883Y-97705329D01*
X160106607Y-97721393D01*
X160122671Y-97739117D01*
X160136921Y-97758330D01*
X160149218Y-97778847D01*
X160159446Y-97800471D01*
X160167504Y-97822993D01*
X160173316Y-97846197D01*
X160176826Y-97869858D01*
X160178000Y-97893750D01*
X160178000Y-98806250D01*
X160176826Y-98830142D01*
X160173316Y-98853803D01*
X160167504Y-98877007D01*
X160159446Y-98899529D01*
X160149218Y-98921153D01*
X160136921Y-98941670D01*
X160122671Y-98960883D01*
X160106607Y-98978607D01*
X160088883Y-98994671D01*
X160069670Y-99008921D01*
X160049153Y-99021218D01*
X160027529Y-99031446D01*
X160005007Y-99039504D01*
X159981803Y-99045316D01*
X159958142Y-99048826D01*
X159934250Y-99050000D01*
X159446750Y-99050000D01*
X159422858Y-99048826D01*
X159399197Y-99045316D01*
X159375993Y-99039504D01*
X159353471Y-99031446D01*
X159331847Y-99021218D01*
X159311330Y-99008921D01*
X159292117Y-98994671D01*
X159274393Y-98978607D01*
X159258329Y-98960883D01*
X159244079Y-98941670D01*
X159231782Y-98921153D01*
X159221554Y-98899529D01*
X159213496Y-98877007D01*
X159207684Y-98853803D01*
X159204174Y-98830142D01*
X159203000Y-98806250D01*
X159203000Y-97893750D01*
X159204174Y-97869858D01*
X159207684Y-97846197D01*
X159213496Y-97822993D01*
X159221554Y-97800471D01*
X159231782Y-97778847D01*
X159244079Y-97758330D01*
X159258329Y-97739117D01*
X159274393Y-97721393D01*
X159292117Y-97705329D01*
X159311330Y-97691079D01*
X159331847Y-97678782D01*
X159353471Y-97668554D01*
X159375993Y-97660496D01*
X159399197Y-97654684D01*
X159422858Y-97651174D01*
X159446750Y-97650000D01*
X159934250Y-97650000D01*
X159958142Y-97651174D01*
G37*
G36*
X161833142Y-97651174D02*
G01*
X161856803Y-97654684D01*
X161880007Y-97660496D01*
X161902529Y-97668554D01*
X161924153Y-97678782D01*
X161944670Y-97691079D01*
X161963883Y-97705329D01*
X161981607Y-97721393D01*
X161997671Y-97739117D01*
X162011921Y-97758330D01*
X162024218Y-97778847D01*
X162034446Y-97800471D01*
X162042504Y-97822993D01*
X162048316Y-97846197D01*
X162051826Y-97869858D01*
X162053000Y-97893750D01*
X162053000Y-98806250D01*
X162051826Y-98830142D01*
X162048316Y-98853803D01*
X162042504Y-98877007D01*
X162034446Y-98899529D01*
X162024218Y-98921153D01*
X162011921Y-98941670D01*
X161997671Y-98960883D01*
X161981607Y-98978607D01*
X161963883Y-98994671D01*
X161944670Y-99008921D01*
X161924153Y-99021218D01*
X161902529Y-99031446D01*
X161880007Y-99039504D01*
X161856803Y-99045316D01*
X161833142Y-99048826D01*
X161809250Y-99050000D01*
X161321750Y-99050000D01*
X161297858Y-99048826D01*
X161274197Y-99045316D01*
X161250993Y-99039504D01*
X161228471Y-99031446D01*
X161206847Y-99021218D01*
X161186330Y-99008921D01*
X161167117Y-98994671D01*
X161149393Y-98978607D01*
X161133329Y-98960883D01*
X161119079Y-98941670D01*
X161106782Y-98921153D01*
X161096554Y-98899529D01*
X161088496Y-98877007D01*
X161082684Y-98853803D01*
X161079174Y-98830142D01*
X161078000Y-98806250D01*
X161078000Y-97893750D01*
X161079174Y-97869858D01*
X161082684Y-97846197D01*
X161088496Y-97822993D01*
X161096554Y-97800471D01*
X161106782Y-97778847D01*
X161119079Y-97758330D01*
X161133329Y-97739117D01*
X161149393Y-97721393D01*
X161167117Y-97705329D01*
X161186330Y-97691079D01*
X161206847Y-97678782D01*
X161228471Y-97668554D01*
X161250993Y-97660496D01*
X161274197Y-97654684D01*
X161297858Y-97651174D01*
X161321750Y-97650000D01*
X161809250Y-97650000D01*
X161833142Y-97651174D01*
G37*
G36*
X150440142Y-73225674D02*
G01*
X150463803Y-73229184D01*
X150487007Y-73234996D01*
X150509529Y-73243054D01*
X150531153Y-73253282D01*
X150551670Y-73265579D01*
X150570883Y-73279829D01*
X150588607Y-73295893D01*
X150604671Y-73313617D01*
X150618921Y-73332830D01*
X150631218Y-73353347D01*
X150641446Y-73374971D01*
X150649504Y-73397493D01*
X150655316Y-73420697D01*
X150658826Y-73444358D01*
X150660000Y-73468250D01*
X150660000Y-73955750D01*
X150658826Y-73979642D01*
X150655316Y-74003303D01*
X150649504Y-74026507D01*
X150641446Y-74049029D01*
X150631218Y-74070653D01*
X150618921Y-74091170D01*
X150604671Y-74110383D01*
X150588607Y-74128107D01*
X150570883Y-74144171D01*
X150551670Y-74158421D01*
X150531153Y-74170718D01*
X150509529Y-74180946D01*
X150487007Y-74189004D01*
X150463803Y-74194816D01*
X150440142Y-74198326D01*
X150416250Y-74199500D01*
X149503750Y-74199500D01*
X149479858Y-74198326D01*
X149456197Y-74194816D01*
X149432993Y-74189004D01*
X149410471Y-74180946D01*
X149388847Y-74170718D01*
X149368330Y-74158421D01*
X149349117Y-74144171D01*
X149331393Y-74128107D01*
X149315329Y-74110383D01*
X149301079Y-74091170D01*
X149288782Y-74070653D01*
X149278554Y-74049029D01*
X149270496Y-74026507D01*
X149264684Y-74003303D01*
X149261174Y-73979642D01*
X149260000Y-73955750D01*
X149260000Y-73468250D01*
X149261174Y-73444358D01*
X149264684Y-73420697D01*
X149270496Y-73397493D01*
X149278554Y-73374971D01*
X149288782Y-73353347D01*
X149301079Y-73332830D01*
X149315329Y-73313617D01*
X149331393Y-73295893D01*
X149349117Y-73279829D01*
X149368330Y-73265579D01*
X149388847Y-73253282D01*
X149410471Y-73243054D01*
X149432993Y-73234996D01*
X149456197Y-73229184D01*
X149479858Y-73225674D01*
X149503750Y-73224500D01*
X150416250Y-73224500D01*
X150440142Y-73225674D01*
G37*
G36*
X150440142Y-75100674D02*
G01*
X150463803Y-75104184D01*
X150487007Y-75109996D01*
X150509529Y-75118054D01*
X150531153Y-75128282D01*
X150551670Y-75140579D01*
X150570883Y-75154829D01*
X150588607Y-75170893D01*
X150604671Y-75188617D01*
X150618921Y-75207830D01*
X150631218Y-75228347D01*
X150641446Y-75249971D01*
X150649504Y-75272493D01*
X150655316Y-75295697D01*
X150658826Y-75319358D01*
X150660000Y-75343250D01*
X150660000Y-75830750D01*
X150658826Y-75854642D01*
X150655316Y-75878303D01*
X150649504Y-75901507D01*
X150641446Y-75924029D01*
X150631218Y-75945653D01*
X150618921Y-75966170D01*
X150604671Y-75985383D01*
X150588607Y-76003107D01*
X150570883Y-76019171D01*
X150551670Y-76033421D01*
X150531153Y-76045718D01*
X150509529Y-76055946D01*
X150487007Y-76064004D01*
X150463803Y-76069816D01*
X150440142Y-76073326D01*
X150416250Y-76074500D01*
X149503750Y-76074500D01*
X149479858Y-76073326D01*
X149456197Y-76069816D01*
X149432993Y-76064004D01*
X149410471Y-76055946D01*
X149388847Y-76045718D01*
X149368330Y-76033421D01*
X149349117Y-76019171D01*
X149331393Y-76003107D01*
X149315329Y-75985383D01*
X149301079Y-75966170D01*
X149288782Y-75945653D01*
X149278554Y-75924029D01*
X149270496Y-75901507D01*
X149264684Y-75878303D01*
X149261174Y-75854642D01*
X149260000Y-75830750D01*
X149260000Y-75343250D01*
X149261174Y-75319358D01*
X149264684Y-75295697D01*
X149270496Y-75272493D01*
X149278554Y-75249971D01*
X149288782Y-75228347D01*
X149301079Y-75207830D01*
X149315329Y-75188617D01*
X149331393Y-75170893D01*
X149349117Y-75154829D01*
X149368330Y-75140579D01*
X149388847Y-75128282D01*
X149410471Y-75118054D01*
X149432993Y-75109996D01*
X149456197Y-75104184D01*
X149479858Y-75100674D01*
X149503750Y-75099500D01*
X150416250Y-75099500D01*
X150440142Y-75100674D01*
G37*
G36*
X147900142Y-73235482D02*
G01*
X147923803Y-73238992D01*
X147947007Y-73244804D01*
X147969529Y-73252862D01*
X147991153Y-73263090D01*
X148011670Y-73275387D01*
X148030883Y-73289637D01*
X148048607Y-73305701D01*
X148064671Y-73323425D01*
X148078921Y-73342638D01*
X148091218Y-73363155D01*
X148101446Y-73384779D01*
X148109504Y-73407301D01*
X148115316Y-73430505D01*
X148118826Y-73454166D01*
X148120000Y-73478058D01*
X148120000Y-73965558D01*
X148118826Y-73989450D01*
X148115316Y-74013111D01*
X148109504Y-74036315D01*
X148101446Y-74058837D01*
X148091218Y-74080461D01*
X148078921Y-74100978D01*
X148064671Y-74120191D01*
X148048607Y-74137915D01*
X148030883Y-74153979D01*
X148011670Y-74168229D01*
X147991153Y-74180526D01*
X147969529Y-74190754D01*
X147947007Y-74198812D01*
X147923803Y-74204624D01*
X147900142Y-74208134D01*
X147876250Y-74209308D01*
X146963750Y-74209308D01*
X146939858Y-74208134D01*
X146916197Y-74204624D01*
X146892993Y-74198812D01*
X146870471Y-74190754D01*
X146848847Y-74180526D01*
X146828330Y-74168229D01*
X146809117Y-74153979D01*
X146791393Y-74137915D01*
X146775329Y-74120191D01*
X146761079Y-74100978D01*
X146748782Y-74080461D01*
X146738554Y-74058837D01*
X146730496Y-74036315D01*
X146724684Y-74013111D01*
X146721174Y-73989450D01*
X146720000Y-73965558D01*
X146720000Y-73478058D01*
X146721174Y-73454166D01*
X146724684Y-73430505D01*
X146730496Y-73407301D01*
X146738554Y-73384779D01*
X146748782Y-73363155D01*
X146761079Y-73342638D01*
X146775329Y-73323425D01*
X146791393Y-73305701D01*
X146809117Y-73289637D01*
X146828330Y-73275387D01*
X146848847Y-73263090D01*
X146870471Y-73252862D01*
X146892993Y-73244804D01*
X146916197Y-73238992D01*
X146939858Y-73235482D01*
X146963750Y-73234308D01*
X147876250Y-73234308D01*
X147900142Y-73235482D01*
G37*
G36*
X147900142Y-75110482D02*
G01*
X147923803Y-75113992D01*
X147947007Y-75119804D01*
X147969529Y-75127862D01*
X147991153Y-75138090D01*
X148011670Y-75150387D01*
X148030883Y-75164637D01*
X148048607Y-75180701D01*
X148064671Y-75198425D01*
X148078921Y-75217638D01*
X148091218Y-75238155D01*
X148101446Y-75259779D01*
X148109504Y-75282301D01*
X148115316Y-75305505D01*
X148118826Y-75329166D01*
X148120000Y-75353058D01*
X148120000Y-75840558D01*
X148118826Y-75864450D01*
X148115316Y-75888111D01*
X148109504Y-75911315D01*
X148101446Y-75933837D01*
X148091218Y-75955461D01*
X148078921Y-75975978D01*
X148064671Y-75995191D01*
X148048607Y-76012915D01*
X148030883Y-76028979D01*
X148011670Y-76043229D01*
X147991153Y-76055526D01*
X147969529Y-76065754D01*
X147947007Y-76073812D01*
X147923803Y-76079624D01*
X147900142Y-76083134D01*
X147876250Y-76084308D01*
X146963750Y-76084308D01*
X146939858Y-76083134D01*
X146916197Y-76079624D01*
X146892993Y-76073812D01*
X146870471Y-76065754D01*
X146848847Y-76055526D01*
X146828330Y-76043229D01*
X146809117Y-76028979D01*
X146791393Y-76012915D01*
X146775329Y-75995191D01*
X146761079Y-75975978D01*
X146748782Y-75955461D01*
X146738554Y-75933837D01*
X146730496Y-75911315D01*
X146724684Y-75888111D01*
X146721174Y-75864450D01*
X146720000Y-75840558D01*
X146720000Y-75353058D01*
X146721174Y-75329166D01*
X146724684Y-75305505D01*
X146730496Y-75282301D01*
X146738554Y-75259779D01*
X146748782Y-75238155D01*
X146761079Y-75217638D01*
X146775329Y-75198425D01*
X146791393Y-75180701D01*
X146809117Y-75164637D01*
X146828330Y-75150387D01*
X146848847Y-75138090D01*
X146870471Y-75127862D01*
X146892993Y-75119804D01*
X146916197Y-75113992D01*
X146939858Y-75110482D01*
X146963750Y-75109308D01*
X147876250Y-75109308D01*
X147900142Y-75110482D01*
G37*
G36*
X152980142Y-75110482D02*
G01*
X153003803Y-75113992D01*
X153027007Y-75119804D01*
X153049529Y-75127862D01*
X153071153Y-75138090D01*
X153091670Y-75150387D01*
X153110883Y-75164637D01*
X153128607Y-75180701D01*
X153144671Y-75198425D01*
X153158921Y-75217638D01*
X153171218Y-75238155D01*
X153181446Y-75259779D01*
X153189504Y-75282301D01*
X153195316Y-75305505D01*
X153198826Y-75329166D01*
X153200000Y-75353058D01*
X153200000Y-75840558D01*
X153198826Y-75864450D01*
X153195316Y-75888111D01*
X153189504Y-75911315D01*
X153181446Y-75933837D01*
X153171218Y-75955461D01*
X153158921Y-75975978D01*
X153144671Y-75995191D01*
X153128607Y-76012915D01*
X153110883Y-76028979D01*
X153091670Y-76043229D01*
X153071153Y-76055526D01*
X153049529Y-76065754D01*
X153027007Y-76073812D01*
X153003803Y-76079624D01*
X152980142Y-76083134D01*
X152956250Y-76084308D01*
X152043750Y-76084308D01*
X152019858Y-76083134D01*
X151996197Y-76079624D01*
X151972993Y-76073812D01*
X151950471Y-76065754D01*
X151928847Y-76055526D01*
X151908330Y-76043229D01*
X151889117Y-76028979D01*
X151871393Y-76012915D01*
X151855329Y-75995191D01*
X151841079Y-75975978D01*
X151828782Y-75955461D01*
X151818554Y-75933837D01*
X151810496Y-75911315D01*
X151804684Y-75888111D01*
X151801174Y-75864450D01*
X151800000Y-75840558D01*
X151800000Y-75353058D01*
X151801174Y-75329166D01*
X151804684Y-75305505D01*
X151810496Y-75282301D01*
X151818554Y-75259779D01*
X151828782Y-75238155D01*
X151841079Y-75217638D01*
X151855329Y-75198425D01*
X151871393Y-75180701D01*
X151889117Y-75164637D01*
X151908330Y-75150387D01*
X151928847Y-75138090D01*
X151950471Y-75127862D01*
X151972993Y-75119804D01*
X151996197Y-75113992D01*
X152019858Y-75110482D01*
X152043750Y-75109308D01*
X152956250Y-75109308D01*
X152980142Y-75110482D01*
G37*
G36*
X152980142Y-73235482D02*
G01*
X153003803Y-73238992D01*
X153027007Y-73244804D01*
X153049529Y-73252862D01*
X153071153Y-73263090D01*
X153091670Y-73275387D01*
X153110883Y-73289637D01*
X153128607Y-73305701D01*
X153144671Y-73323425D01*
X153158921Y-73342638D01*
X153171218Y-73363155D01*
X153181446Y-73384779D01*
X153189504Y-73407301D01*
X153195316Y-73430505D01*
X153198826Y-73454166D01*
X153200000Y-73478058D01*
X153200000Y-73965558D01*
X153198826Y-73989450D01*
X153195316Y-74013111D01*
X153189504Y-74036315D01*
X153181446Y-74058837D01*
X153171218Y-74080461D01*
X153158921Y-74100978D01*
X153144671Y-74120191D01*
X153128607Y-74137915D01*
X153110883Y-74153979D01*
X153091670Y-74168229D01*
X153071153Y-74180526D01*
X153049529Y-74190754D01*
X153027007Y-74198812D01*
X153003803Y-74204624D01*
X152980142Y-74208134D01*
X152956250Y-74209308D01*
X152043750Y-74209308D01*
X152019858Y-74208134D01*
X151996197Y-74204624D01*
X151972993Y-74198812D01*
X151950471Y-74190754D01*
X151928847Y-74180526D01*
X151908330Y-74168229D01*
X151889117Y-74153979D01*
X151871393Y-74137915D01*
X151855329Y-74120191D01*
X151841079Y-74100978D01*
X151828782Y-74080461D01*
X151818554Y-74058837D01*
X151810496Y-74036315D01*
X151804684Y-74013111D01*
X151801174Y-73989450D01*
X151800000Y-73965558D01*
X151800000Y-73478058D01*
X151801174Y-73454166D01*
X151804684Y-73430505D01*
X151810496Y-73407301D01*
X151818554Y-73384779D01*
X151828782Y-73363155D01*
X151841079Y-73342638D01*
X151855329Y-73323425D01*
X151871393Y-73305701D01*
X151889117Y-73289637D01*
X151908330Y-73275387D01*
X151928847Y-73263090D01*
X151950471Y-73252862D01*
X151972993Y-73244804D01*
X151996197Y-73238992D01*
X152019858Y-73235482D01*
X152043750Y-73234308D01*
X152956250Y-73234308D01*
X152980142Y-73235482D01*
G37*
G36*
X145360142Y-73235482D02*
G01*
X145383803Y-73238992D01*
X145407007Y-73244804D01*
X145429529Y-73252862D01*
X145451153Y-73263090D01*
X145471670Y-73275387D01*
X145490883Y-73289637D01*
X145508607Y-73305701D01*
X145524671Y-73323425D01*
X145538921Y-73342638D01*
X145551218Y-73363155D01*
X145561446Y-73384779D01*
X145569504Y-73407301D01*
X145575316Y-73430505D01*
X145578826Y-73454166D01*
X145580000Y-73478058D01*
X145580000Y-73965558D01*
X145578826Y-73989450D01*
X145575316Y-74013111D01*
X145569504Y-74036315D01*
X145561446Y-74058837D01*
X145551218Y-74080461D01*
X145538921Y-74100978D01*
X145524671Y-74120191D01*
X145508607Y-74137915D01*
X145490883Y-74153979D01*
X145471670Y-74168229D01*
X145451153Y-74180526D01*
X145429529Y-74190754D01*
X145407007Y-74198812D01*
X145383803Y-74204624D01*
X145360142Y-74208134D01*
X145336250Y-74209308D01*
X144423750Y-74209308D01*
X144399858Y-74208134D01*
X144376197Y-74204624D01*
X144352993Y-74198812D01*
X144330471Y-74190754D01*
X144308847Y-74180526D01*
X144288330Y-74168229D01*
X144269117Y-74153979D01*
X144251393Y-74137915D01*
X144235329Y-74120191D01*
X144221079Y-74100978D01*
X144208782Y-74080461D01*
X144198554Y-74058837D01*
X144190496Y-74036315D01*
X144184684Y-74013111D01*
X144181174Y-73989450D01*
X144180000Y-73965558D01*
X144180000Y-73478058D01*
X144181174Y-73454166D01*
X144184684Y-73430505D01*
X144190496Y-73407301D01*
X144198554Y-73384779D01*
X144208782Y-73363155D01*
X144221079Y-73342638D01*
X144235329Y-73323425D01*
X144251393Y-73305701D01*
X144269117Y-73289637D01*
X144288330Y-73275387D01*
X144308847Y-73263090D01*
X144330471Y-73252862D01*
X144352993Y-73244804D01*
X144376197Y-73238992D01*
X144399858Y-73235482D01*
X144423750Y-73234308D01*
X145336250Y-73234308D01*
X145360142Y-73235482D01*
G37*
G36*
X145360142Y-75110482D02*
G01*
X145383803Y-75113992D01*
X145407007Y-75119804D01*
X145429529Y-75127862D01*
X145451153Y-75138090D01*
X145471670Y-75150387D01*
X145490883Y-75164637D01*
X145508607Y-75180701D01*
X145524671Y-75198425D01*
X145538921Y-75217638D01*
X145551218Y-75238155D01*
X145561446Y-75259779D01*
X145569504Y-75282301D01*
X145575316Y-75305505D01*
X145578826Y-75329166D01*
X145580000Y-75353058D01*
X145580000Y-75840558D01*
X145578826Y-75864450D01*
X145575316Y-75888111D01*
X145569504Y-75911315D01*
X145561446Y-75933837D01*
X145551218Y-75955461D01*
X145538921Y-75975978D01*
X145524671Y-75995191D01*
X145508607Y-76012915D01*
X145490883Y-76028979D01*
X145471670Y-76043229D01*
X145451153Y-76055526D01*
X145429529Y-76065754D01*
X145407007Y-76073812D01*
X145383803Y-76079624D01*
X145360142Y-76083134D01*
X145336250Y-76084308D01*
X144423750Y-76084308D01*
X144399858Y-76083134D01*
X144376197Y-76079624D01*
X144352993Y-76073812D01*
X144330471Y-76065754D01*
X144308847Y-76055526D01*
X144288330Y-76043229D01*
X144269117Y-76028979D01*
X144251393Y-76012915D01*
X144235329Y-75995191D01*
X144221079Y-75975978D01*
X144208782Y-75955461D01*
X144198554Y-75933837D01*
X144190496Y-75911315D01*
X144184684Y-75888111D01*
X144181174Y-75864450D01*
X144180000Y-75840558D01*
X144180000Y-75353058D01*
X144181174Y-75329166D01*
X144184684Y-75305505D01*
X144190496Y-75282301D01*
X144198554Y-75259779D01*
X144208782Y-75238155D01*
X144221079Y-75217638D01*
X144235329Y-75198425D01*
X144251393Y-75180701D01*
X144269117Y-75164637D01*
X144288330Y-75150387D01*
X144308847Y-75138090D01*
X144330471Y-75127862D01*
X144352993Y-75119804D01*
X144376197Y-75113992D01*
X144399858Y-75110482D01*
X144423750Y-75109308D01*
X145336250Y-75109308D01*
X145360142Y-75110482D01*
G37*
G36*
X138289642Y-89015174D02*
G01*
X138313303Y-89018684D01*
X138336507Y-89024496D01*
X138359029Y-89032554D01*
X138380653Y-89042782D01*
X138401170Y-89055079D01*
X138420383Y-89069329D01*
X138438107Y-89085393D01*
X138454171Y-89103117D01*
X138468421Y-89122330D01*
X138480718Y-89142847D01*
X138490946Y-89164471D01*
X138499004Y-89186993D01*
X138504816Y-89210197D01*
X138508326Y-89233858D01*
X138509500Y-89257750D01*
X138509500Y-90170250D01*
X138508326Y-90194142D01*
X138504816Y-90217803D01*
X138499004Y-90241007D01*
X138490946Y-90263529D01*
X138480718Y-90285153D01*
X138468421Y-90305670D01*
X138454171Y-90324883D01*
X138438107Y-90342607D01*
X138420383Y-90358671D01*
X138401170Y-90372921D01*
X138380653Y-90385218D01*
X138359029Y-90395446D01*
X138336507Y-90403504D01*
X138313303Y-90409316D01*
X138289642Y-90412826D01*
X138265750Y-90414000D01*
X137778250Y-90414000D01*
X137754358Y-90412826D01*
X137730697Y-90409316D01*
X137707493Y-90403504D01*
X137684971Y-90395446D01*
X137663347Y-90385218D01*
X137642830Y-90372921D01*
X137623617Y-90358671D01*
X137605893Y-90342607D01*
X137589829Y-90324883D01*
X137575579Y-90305670D01*
X137563282Y-90285153D01*
X137553054Y-90263529D01*
X137544996Y-90241007D01*
X137539184Y-90217803D01*
X137535674Y-90194142D01*
X137534500Y-90170250D01*
X137534500Y-89257750D01*
X137535674Y-89233858D01*
X137539184Y-89210197D01*
X137544996Y-89186993D01*
X137553054Y-89164471D01*
X137563282Y-89142847D01*
X137575579Y-89122330D01*
X137589829Y-89103117D01*
X137605893Y-89085393D01*
X137623617Y-89069329D01*
X137642830Y-89055079D01*
X137663347Y-89042782D01*
X137684971Y-89032554D01*
X137707493Y-89024496D01*
X137730697Y-89018684D01*
X137754358Y-89015174D01*
X137778250Y-89014000D01*
X138265750Y-89014000D01*
X138289642Y-89015174D01*
G37*
G36*
X136414642Y-89015174D02*
G01*
X136438303Y-89018684D01*
X136461507Y-89024496D01*
X136484029Y-89032554D01*
X136505653Y-89042782D01*
X136526170Y-89055079D01*
X136545383Y-89069329D01*
X136563107Y-89085393D01*
X136579171Y-89103117D01*
X136593421Y-89122330D01*
X136605718Y-89142847D01*
X136615946Y-89164471D01*
X136624004Y-89186993D01*
X136629816Y-89210197D01*
X136633326Y-89233858D01*
X136634500Y-89257750D01*
X136634500Y-90170250D01*
X136633326Y-90194142D01*
X136629816Y-90217803D01*
X136624004Y-90241007D01*
X136615946Y-90263529D01*
X136605718Y-90285153D01*
X136593421Y-90305670D01*
X136579171Y-90324883D01*
X136563107Y-90342607D01*
X136545383Y-90358671D01*
X136526170Y-90372921D01*
X136505653Y-90385218D01*
X136484029Y-90395446D01*
X136461507Y-90403504D01*
X136438303Y-90409316D01*
X136414642Y-90412826D01*
X136390750Y-90414000D01*
X135903250Y-90414000D01*
X135879358Y-90412826D01*
X135855697Y-90409316D01*
X135832493Y-90403504D01*
X135809971Y-90395446D01*
X135788347Y-90385218D01*
X135767830Y-90372921D01*
X135748617Y-90358671D01*
X135730893Y-90342607D01*
X135714829Y-90324883D01*
X135700579Y-90305670D01*
X135688282Y-90285153D01*
X135678054Y-90263529D01*
X135669996Y-90241007D01*
X135664184Y-90217803D01*
X135660674Y-90194142D01*
X135659500Y-90170250D01*
X135659500Y-89257750D01*
X135660674Y-89233858D01*
X135664184Y-89210197D01*
X135669996Y-89186993D01*
X135678054Y-89164471D01*
X135688282Y-89142847D01*
X135700579Y-89122330D01*
X135714829Y-89103117D01*
X135730893Y-89085393D01*
X135748617Y-89069329D01*
X135767830Y-89055079D01*
X135788347Y-89042782D01*
X135809971Y-89032554D01*
X135832493Y-89024496D01*
X135855697Y-89018684D01*
X135879358Y-89015174D01*
X135903250Y-89014000D01*
X136390750Y-89014000D01*
X136414642Y-89015174D01*
G37*
D21*
X256436492Y-117128644D03*
D22*
X251433669Y-118010777D03*
X261439315Y-116246511D03*
D21*
X236848856Y-115746492D03*
D22*
X231846033Y-116628625D03*
X241851679Y-114864359D03*
D21*
X216916635Y-112410106D03*
D22*
X211913812Y-113292239D03*
X221919458Y-111527973D03*
D21*
X199327586Y-122362504D03*
D22*
X194324763Y-123244637D03*
X204330409Y-121480371D03*
D21*
X181738536Y-132314902D03*
D22*
X176735713Y-133197035D03*
X186741359Y-131432769D03*
D21*
X161323898Y-126242590D03*
D22*
X156321075Y-127124723D03*
X166326721Y-125360457D03*
X141045920Y-127158807D03*
X131040274Y-125394541D03*
D21*
X136043097Y-126276674D03*
X115628458Y-132348986D03*
D22*
X110625635Y-131466853D03*
X120631281Y-133231119D03*
D21*
X98039410Y-122396588D03*
D22*
X93036587Y-121514455D03*
X103042233Y-123278721D03*
D21*
X80450360Y-112444190D03*
D22*
X75447537Y-111562057D03*
X85453183Y-113326323D03*
D21*
X60518140Y-115780576D03*
D22*
X55515317Y-114898443D03*
X65520963Y-116662709D03*
D21*
X40930503Y-117162728D03*
D22*
X35927680Y-116280595D03*
X45933326Y-118044861D03*
D21*
X253128486Y-98368009D03*
D22*
X248125663Y-99250142D03*
X258131309Y-97485876D03*
D21*
X233540850Y-96985857D03*
D22*
X228538027Y-97867990D03*
X238543673Y-96103724D03*
D21*
X213608629Y-93649471D03*
D22*
X208605806Y-94531604D03*
X218611452Y-92767338D03*
D21*
X196019580Y-103601869D03*
D22*
X191016757Y-104484002D03*
X201022403Y-102719736D03*
D21*
X178430530Y-113554267D03*
D22*
X173427707Y-114436400D03*
X183433353Y-112672134D03*
D21*
X118936465Y-113588350D03*
D22*
X113933642Y-112706217D03*
X123939288Y-114470483D03*
D21*
X101347415Y-103635953D03*
D22*
X96344592Y-102753820D03*
X106350238Y-104518086D03*
D21*
X83758366Y-93683556D03*
D22*
X78755543Y-92801423D03*
X88761189Y-94565689D03*
D21*
X63826146Y-97019941D03*
D22*
X58823323Y-96137808D03*
X68828969Y-97902074D03*
D21*
X44238509Y-98402093D03*
D22*
X39235686Y-97519960D03*
X49241332Y-99284226D03*
D21*
X249820480Y-79607374D03*
D22*
X244817657Y-80489507D03*
X254823303Y-78725241D03*
D21*
X230232844Y-78225222D03*
D22*
X225230021Y-79107355D03*
X235235667Y-77343089D03*
D21*
X210300623Y-74888836D03*
D22*
X205297800Y-75770969D03*
X215303446Y-74006703D03*
D21*
X192711574Y-84841234D03*
D22*
X187708751Y-85723367D03*
X197714397Y-83959101D03*
D21*
X175122524Y-94793632D03*
D22*
X170119701Y-95675765D03*
X180125347Y-93911499D03*
D21*
X122244471Y-94827716D03*
D22*
X117241648Y-93945583D03*
X127247294Y-95709849D03*
D21*
X104655421Y-84875318D03*
D22*
X99652598Y-83993185D03*
X109658244Y-85757451D03*
D21*
X87066373Y-74922920D03*
D22*
X82063550Y-74040787D03*
X92069196Y-75805053D03*
D21*
X67134152Y-78259306D03*
D22*
X62131329Y-77377173D03*
X72136975Y-79141439D03*
D21*
X47546516Y-79641458D03*
D22*
X42543693Y-78759325D03*
X52549339Y-80523591D03*
D21*
X246512474Y-60846739D03*
D22*
X241509651Y-61728872D03*
X251515297Y-59964606D03*
D21*
X226924837Y-59464587D03*
D22*
X221922014Y-60346720D03*
X231927660Y-58582454D03*
D21*
X206992617Y-56128201D03*
D22*
X201989794Y-57010334D03*
X211995440Y-55246068D03*
D21*
X189403568Y-66080599D03*
D22*
X184400745Y-66962732D03*
X194406391Y-65198466D03*
D21*
X171814518Y-76032997D03*
D22*
X166811695Y-76915130D03*
X176817341Y-75150864D03*
D21*
X125552477Y-76067081D03*
D22*
X120549654Y-75184948D03*
X130555300Y-76949214D03*
D21*
X107963427Y-66114683D03*
D22*
X102960604Y-65232550D03*
X112966250Y-66996816D03*
D21*
X90374379Y-56162286D03*
D22*
X85371556Y-55280153D03*
X95377202Y-57044419D03*
D21*
X70442158Y-59498671D03*
D22*
X65439335Y-58616538D03*
X75444981Y-60380804D03*
D21*
X50854522Y-60880823D03*
D22*
X45851699Y-59998690D03*
X55857345Y-61762956D03*
D20*
G36*
X159887504Y-85792204D02*
G01*
X159911773Y-85795804D01*
X159935571Y-85801765D01*
X159958671Y-85810030D01*
X159980849Y-85820520D01*
X160001893Y-85833133D01*
X160021598Y-85847747D01*
X160039777Y-85864223D01*
X160056253Y-85882402D01*
X160070867Y-85902107D01*
X160083480Y-85923151D01*
X160093970Y-85945329D01*
X160102235Y-85968429D01*
X160108196Y-85992227D01*
X160111796Y-86016496D01*
X160113000Y-86041000D01*
X160113000Y-87291000D01*
X160111796Y-87315504D01*
X160108196Y-87339773D01*
X160102235Y-87363571D01*
X160093970Y-87386671D01*
X160083480Y-87408849D01*
X160070867Y-87429893D01*
X160056253Y-87449598D01*
X160039777Y-87467777D01*
X160021598Y-87484253D01*
X160001893Y-87498867D01*
X159980849Y-87511480D01*
X159958671Y-87521970D01*
X159935571Y-87530235D01*
X159911773Y-87536196D01*
X159887504Y-87539796D01*
X159863000Y-87541000D01*
X159113000Y-87541000D01*
X159088496Y-87539796D01*
X159064227Y-87536196D01*
X159040429Y-87530235D01*
X159017329Y-87521970D01*
X158995151Y-87511480D01*
X158974107Y-87498867D01*
X158954402Y-87484253D01*
X158936223Y-87467777D01*
X158919747Y-87449598D01*
X158905133Y-87429893D01*
X158892520Y-87408849D01*
X158882030Y-87386671D01*
X158873765Y-87363571D01*
X158867804Y-87339773D01*
X158864204Y-87315504D01*
X158863000Y-87291000D01*
X158863000Y-86041000D01*
X158864204Y-86016496D01*
X158867804Y-85992227D01*
X158873765Y-85968429D01*
X158882030Y-85945329D01*
X158892520Y-85923151D01*
X158905133Y-85902107D01*
X158919747Y-85882402D01*
X158936223Y-85864223D01*
X158954402Y-85847747D01*
X158974107Y-85833133D01*
X158995151Y-85820520D01*
X159017329Y-85810030D01*
X159040429Y-85801765D01*
X159064227Y-85795804D01*
X159088496Y-85792204D01*
X159113000Y-85791000D01*
X159863000Y-85791000D01*
X159887504Y-85792204D01*
G37*
G36*
X157087504Y-85792204D02*
G01*
X157111773Y-85795804D01*
X157135571Y-85801765D01*
X157158671Y-85810030D01*
X157180849Y-85820520D01*
X157201893Y-85833133D01*
X157221598Y-85847747D01*
X157239777Y-85864223D01*
X157256253Y-85882402D01*
X157270867Y-85902107D01*
X157283480Y-85923151D01*
X157293970Y-85945329D01*
X157302235Y-85968429D01*
X157308196Y-85992227D01*
X157311796Y-86016496D01*
X157313000Y-86041000D01*
X157313000Y-87291000D01*
X157311796Y-87315504D01*
X157308196Y-87339773D01*
X157302235Y-87363571D01*
X157293970Y-87386671D01*
X157283480Y-87408849D01*
X157270867Y-87429893D01*
X157256253Y-87449598D01*
X157239777Y-87467777D01*
X157221598Y-87484253D01*
X157201893Y-87498867D01*
X157180849Y-87511480D01*
X157158671Y-87521970D01*
X157135571Y-87530235D01*
X157111773Y-87536196D01*
X157087504Y-87539796D01*
X157063000Y-87541000D01*
X156313000Y-87541000D01*
X156288496Y-87539796D01*
X156264227Y-87536196D01*
X156240429Y-87530235D01*
X156217329Y-87521970D01*
X156195151Y-87511480D01*
X156174107Y-87498867D01*
X156154402Y-87484253D01*
X156136223Y-87467777D01*
X156119747Y-87449598D01*
X156105133Y-87429893D01*
X156092520Y-87408849D01*
X156082030Y-87386671D01*
X156073765Y-87363571D01*
X156067804Y-87339773D01*
X156064204Y-87315504D01*
X156063000Y-87291000D01*
X156063000Y-86041000D01*
X156064204Y-86016496D01*
X156067804Y-85992227D01*
X156073765Y-85968429D01*
X156082030Y-85945329D01*
X156092520Y-85923151D01*
X156105133Y-85902107D01*
X156119747Y-85882402D01*
X156136223Y-85864223D01*
X156154402Y-85847747D01*
X156174107Y-85833133D01*
X156195151Y-85820520D01*
X156217329Y-85810030D01*
X156240429Y-85801765D01*
X156264227Y-85795804D01*
X156288496Y-85792204D01*
X156313000Y-85791000D01*
X157063000Y-85791000D01*
X157087504Y-85792204D01*
G37*
G36*
X257125808Y-109556386D02*
G01*
X256917431Y-108374617D01*
X257803758Y-108218334D01*
X258012135Y-109400103D01*
X257125808Y-109556386D01*
G37*
G36*
X253875942Y-110129424D02*
G01*
X253667565Y-108947655D01*
X254553892Y-108791372D01*
X254762269Y-109973141D01*
X253875942Y-110129424D01*
G37*
G36*
X237538171Y-108174234D02*
G01*
X237329794Y-106992465D01*
X238216121Y-106836182D01*
X238424498Y-108017951D01*
X237538171Y-108174234D01*
G37*
G36*
X234288305Y-108747272D02*
G01*
X234079928Y-107565503D01*
X234966255Y-107409220D01*
X235174632Y-108590989D01*
X234288305Y-108747272D01*
G37*
G36*
X217605951Y-104837848D02*
G01*
X217397574Y-103656079D01*
X218283901Y-103499796D01*
X218492278Y-104681565D01*
X217605951Y-104837848D01*
G37*
G36*
X214356085Y-105410886D02*
G01*
X214147708Y-104229117D01*
X215034035Y-104072834D01*
X215242412Y-105254603D01*
X214356085Y-105410886D01*
G37*
G36*
X200016901Y-114790246D02*
G01*
X199808524Y-113608477D01*
X200694851Y-113452194D01*
X200903228Y-114633963D01*
X200016901Y-114790246D01*
G37*
G36*
X196767035Y-115363284D02*
G01*
X196558658Y-114181515D01*
X197444985Y-114025232D01*
X197653362Y-115207001D01*
X196767035Y-115363284D01*
G37*
G36*
X182427852Y-124742644D02*
G01*
X182219475Y-123560875D01*
X183105802Y-123404592D01*
X183314179Y-124586361D01*
X182427852Y-124742644D01*
G37*
G36*
X179177986Y-125315682D02*
G01*
X178969609Y-124133913D01*
X179855936Y-123977630D01*
X180064313Y-125159399D01*
X179177986Y-125315682D01*
G37*
G36*
X162013214Y-118670332D02*
G01*
X161804837Y-117488563D01*
X162691164Y-117332280D01*
X162899541Y-118514049D01*
X162013214Y-118670332D01*
G37*
G36*
X158763348Y-119243370D02*
G01*
X158554971Y-118061601D01*
X159441298Y-117905318D01*
X159649675Y-119087087D01*
X158763348Y-119243370D01*
G37*
G36*
X139280707Y-119396838D02*
G01*
X139489084Y-118215069D01*
X140375411Y-118371352D01*
X140167034Y-119553121D01*
X139280707Y-119396838D01*
G37*
G36*
X136030841Y-118823800D02*
G01*
X136239218Y-117642031D01*
X137125545Y-117798314D01*
X136917168Y-118980083D01*
X136030841Y-118823800D01*
G37*
G36*
X118934986Y-125078303D02*
G01*
X119143363Y-123896534D01*
X120029690Y-124052817D01*
X119821313Y-125234586D01*
X118934986Y-125078303D01*
G37*
G36*
X115685120Y-124505265D02*
G01*
X115893497Y-123323496D01*
X116779824Y-123479779D01*
X116571447Y-124661548D01*
X115685120Y-124505265D01*
G37*
G36*
X101277020Y-115516752D02*
G01*
X101485397Y-114334983D01*
X102371724Y-114491266D01*
X102163347Y-115673035D01*
X101277020Y-115516752D01*
G37*
G36*
X98027154Y-114943714D02*
G01*
X98235531Y-113761945D01*
X99121858Y-113918228D01*
X98913481Y-115099997D01*
X98027154Y-114943714D01*
G37*
G36*
X83687970Y-105564354D02*
G01*
X83896347Y-104382585D01*
X84782674Y-104538868D01*
X84574297Y-105720637D01*
X83687970Y-105564354D01*
G37*
G36*
X80438104Y-104991316D02*
G01*
X80646481Y-103809547D01*
X81532808Y-103965830D01*
X81324431Y-105147599D01*
X80438104Y-104991316D01*
G37*
G36*
X63755749Y-108900740D02*
G01*
X63964126Y-107718971D01*
X64850453Y-107875254D01*
X64642076Y-109057023D01*
X63755749Y-108900740D01*
G37*
G36*
X60505883Y-108327702D02*
G01*
X60714260Y-107145933D01*
X61600587Y-107302216D01*
X61392210Y-108483985D01*
X60505883Y-108327702D01*
G37*
G36*
X44168113Y-110282893D02*
G01*
X44376490Y-109101124D01*
X45262817Y-109257407D01*
X45054440Y-110439176D01*
X44168113Y-110282893D01*
G37*
G36*
X40918247Y-109709855D02*
G01*
X41126624Y-108528086D01*
X42012951Y-108684369D01*
X41804574Y-109866138D01*
X40918247Y-109709855D01*
G37*
G36*
X253817801Y-90795752D02*
G01*
X253609424Y-89613983D01*
X254495751Y-89457700D01*
X254704128Y-90639469D01*
X253817801Y-90795752D01*
G37*
G36*
X250567935Y-91368790D02*
G01*
X250359558Y-90187021D01*
X251245885Y-90030738D01*
X251454262Y-91212507D01*
X250567935Y-91368790D01*
G37*
G36*
X234230165Y-89413599D02*
G01*
X234021788Y-88231830D01*
X234908115Y-88075547D01*
X235116492Y-89257316D01*
X234230165Y-89413599D01*
G37*
G36*
X230980299Y-89986637D02*
G01*
X230771922Y-88804868D01*
X231658249Y-88648585D01*
X231866626Y-89830354D01*
X230980299Y-89986637D01*
G37*
G36*
X214297944Y-86077213D02*
G01*
X214089567Y-84895444D01*
X214975894Y-84739161D01*
X215184271Y-85920930D01*
X214297944Y-86077213D01*
G37*
G36*
X211048078Y-86650251D02*
G01*
X210839701Y-85468482D01*
X211726028Y-85312199D01*
X211934405Y-86493968D01*
X211048078Y-86650251D01*
G37*
G36*
X196708895Y-96029611D02*
G01*
X196500518Y-94847842D01*
X197386845Y-94691559D01*
X197595222Y-95873328D01*
X196708895Y-96029611D01*
G37*
G36*
X193459029Y-96602649D02*
G01*
X193250652Y-95420880D01*
X194136979Y-95264597D01*
X194345356Y-96446366D01*
X193459029Y-96602649D01*
G37*
G36*
X179119846Y-105982009D02*
G01*
X178911469Y-104800240D01*
X179797796Y-104643957D01*
X180006173Y-105825726D01*
X179119846Y-105982009D01*
G37*
G36*
X175869980Y-106555047D02*
G01*
X175661603Y-105373278D01*
X176547930Y-105216995D01*
X176756307Y-106398764D01*
X175869980Y-106555047D01*
G37*
G36*
X122242992Y-106317668D02*
G01*
X122451369Y-105135899D01*
X123337696Y-105292182D01*
X123129319Y-106473951D01*
X122242992Y-106317668D01*
G37*
G36*
X118993126Y-105744630D02*
G01*
X119201503Y-104562861D01*
X120087830Y-104719144D01*
X119879453Y-105900913D01*
X118993126Y-105744630D01*
G37*
G36*
X104585026Y-96756118D02*
G01*
X104793403Y-95574349D01*
X105679730Y-95730632D01*
X105471353Y-96912401D01*
X104585026Y-96756118D01*
G37*
G36*
X101335160Y-96183080D02*
G01*
X101543537Y-95001311D01*
X102429864Y-95157594D01*
X102221487Y-96339363D01*
X101335160Y-96183080D01*
G37*
G36*
X86995976Y-86803720D02*
G01*
X87204353Y-85621951D01*
X88090680Y-85778234D01*
X87882303Y-86960003D01*
X86995976Y-86803720D01*
G37*
G36*
X83746110Y-86230682D02*
G01*
X83954487Y-85048913D01*
X84840814Y-85205196D01*
X84632437Y-86386965D01*
X83746110Y-86230682D01*
G37*
G36*
X67063756Y-90140105D02*
G01*
X67272133Y-88958336D01*
X68158460Y-89114619D01*
X67950083Y-90296388D01*
X67063756Y-90140105D01*
G37*
G36*
X63813890Y-89567067D02*
G01*
X64022267Y-88385298D01*
X64908594Y-88541581D01*
X64700217Y-89723350D01*
X63813890Y-89567067D01*
G37*
G36*
X47085273Y-91453341D02*
G01*
X47293650Y-90271572D01*
X48179977Y-90427855D01*
X47971600Y-91609624D01*
X47085273Y-91453341D01*
G37*
G36*
X43835407Y-90880303D02*
G01*
X44043784Y-89698534D01*
X44930111Y-89854817D01*
X44721734Y-91036586D01*
X43835407Y-90880303D01*
G37*
G36*
X250509795Y-72035117D02*
G01*
X250301418Y-70853348D01*
X251187745Y-70697065D01*
X251396122Y-71878834D01*
X250509795Y-72035117D01*
G37*
G36*
X247259929Y-72608155D02*
G01*
X247051552Y-71426386D01*
X247937879Y-71270103D01*
X248146256Y-72451872D01*
X247259929Y-72608155D01*
G37*
G36*
X230922159Y-70652964D02*
G01*
X230713782Y-69471195D01*
X231600109Y-69314912D01*
X231808486Y-70496681D01*
X230922159Y-70652964D01*
G37*
G36*
X227672293Y-71226002D02*
G01*
X227463916Y-70044233D01*
X228350243Y-69887950D01*
X228558620Y-71069719D01*
X227672293Y-71226002D01*
G37*
G36*
X210989938Y-67316578D02*
G01*
X210781561Y-66134809D01*
X211667888Y-65978526D01*
X211876265Y-67160295D01*
X210989938Y-67316578D01*
G37*
G36*
X207740072Y-67889616D02*
G01*
X207531695Y-66707847D01*
X208418022Y-66551564D01*
X208626399Y-67733333D01*
X207740072Y-67889616D01*
G37*
G36*
X193400889Y-77268976D02*
G01*
X193192512Y-76087207D01*
X194078839Y-75930924D01*
X194287216Y-77112693D01*
X193400889Y-77268976D01*
G37*
G36*
X190151023Y-77842014D02*
G01*
X189942646Y-76660245D01*
X190828973Y-76503962D01*
X191037350Y-77685731D01*
X190151023Y-77842014D01*
G37*
G36*
X175811839Y-87221374D02*
G01*
X175603462Y-86039605D01*
X176489789Y-85883322D01*
X176698166Y-87065091D01*
X175811839Y-87221374D01*
G37*
G36*
X172561973Y-87794412D02*
G01*
X172353596Y-86612643D01*
X173239923Y-86456360D01*
X173448300Y-87638129D01*
X172561973Y-87794412D01*
G37*
G36*
X125482081Y-87947880D02*
G01*
X125690458Y-86766111D01*
X126576785Y-86922394D01*
X126368408Y-88104163D01*
X125482081Y-87947880D01*
G37*
G36*
X122232215Y-87374842D02*
G01*
X122440592Y-86193073D01*
X123326919Y-86349356D01*
X123118542Y-87531125D01*
X122232215Y-87374842D01*
G37*
G36*
X107893032Y-77995482D02*
G01*
X108101409Y-76813713D01*
X108987736Y-76969996D01*
X108779359Y-78151765D01*
X107893032Y-77995482D01*
G37*
G36*
X104643166Y-77422444D02*
G01*
X104851543Y-76240675D01*
X105737870Y-76396958D01*
X105529493Y-77578727D01*
X104643166Y-77422444D01*
G37*
G36*
X90303982Y-68043084D02*
G01*
X90512359Y-66861315D01*
X91398686Y-67017598D01*
X91190309Y-68199367D01*
X90303982Y-68043084D01*
G37*
G36*
X87054116Y-67470046D02*
G01*
X87262493Y-66288277D01*
X88148820Y-66444560D01*
X87940443Y-67626329D01*
X87054116Y-67470046D01*
G37*
G36*
X70371762Y-71379470D02*
G01*
X70580139Y-70197701D01*
X71466466Y-70353984D01*
X71258089Y-71535753D01*
X70371762Y-71379470D01*
G37*
G36*
X67121896Y-70806432D02*
G01*
X67330273Y-69624663D01*
X68216600Y-69780946D01*
X68008223Y-70962715D01*
X67121896Y-70806432D01*
G37*
G36*
X50784125Y-72761623D02*
G01*
X50992502Y-71579854D01*
X51878829Y-71736137D01*
X51670452Y-72917906D01*
X50784125Y-72761623D01*
G37*
G36*
X47534259Y-72188585D02*
G01*
X47742636Y-71006816D01*
X48628963Y-71163099D01*
X48420586Y-72344868D01*
X47534259Y-72188585D01*
G37*
G36*
X247201789Y-53274482D02*
G01*
X246993412Y-52092713D01*
X247879739Y-51936430D01*
X248088116Y-53118199D01*
X247201789Y-53274482D01*
G37*
G36*
X243951923Y-53847520D02*
G01*
X243743546Y-52665751D01*
X244629873Y-52509468D01*
X244838250Y-53691237D01*
X243951923Y-53847520D01*
G37*
G36*
X227614153Y-51892329D02*
G01*
X227405776Y-50710560D01*
X228292103Y-50554277D01*
X228500480Y-51736046D01*
X227614153Y-51892329D01*
G37*
G36*
X224364287Y-52465367D02*
G01*
X224155910Y-51283598D01*
X225042237Y-51127315D01*
X225250614Y-52309084D01*
X224364287Y-52465367D01*
G37*
G36*
X207785389Y-48640138D02*
G01*
X207577012Y-47458369D01*
X208463339Y-47302086D01*
X208671716Y-48483855D01*
X207785389Y-48640138D01*
G37*
G36*
X204535523Y-49213176D02*
G01*
X204327146Y-48031407D01*
X205213473Y-47875124D01*
X205421850Y-49056893D01*
X204535523Y-49213176D01*
G37*
G36*
X190092883Y-58508341D02*
G01*
X189884506Y-57326572D01*
X190770833Y-57170289D01*
X190979210Y-58352058D01*
X190092883Y-58508341D01*
G37*
G36*
X186843017Y-59081379D02*
G01*
X186634640Y-57899610D01*
X187520967Y-57743327D01*
X187729344Y-58925096D01*
X186843017Y-59081379D01*
G37*
G36*
X172503833Y-68460739D02*
G01*
X172295456Y-67278970D01*
X173181783Y-67122687D01*
X173390160Y-68304456D01*
X172503833Y-68460739D01*
G37*
G36*
X169253967Y-69033777D02*
G01*
X169045590Y-67852008D01*
X169931917Y-67695725D01*
X170140294Y-68877494D01*
X169253967Y-69033777D01*
G37*
G36*
X128859004Y-68796399D02*
G01*
X129067381Y-67614630D01*
X129953708Y-67770913D01*
X129745331Y-68952682D01*
X128859004Y-68796399D01*
G37*
G36*
X125609138Y-68223361D02*
G01*
X125817515Y-67041592D01*
X126703842Y-67197875D01*
X126495465Y-68379644D01*
X125609138Y-68223361D01*
G37*
G36*
X111201038Y-59234848D02*
G01*
X111409415Y-58053079D01*
X112295742Y-58209362D01*
X112087365Y-59391131D01*
X111201038Y-59234848D01*
G37*
G36*
X107951172Y-58661810D02*
G01*
X108159549Y-57480041D01*
X109045876Y-57636324D01*
X108837499Y-58818093D01*
X107951172Y-58661810D01*
G37*
G36*
X93611988Y-49282450D02*
G01*
X93820365Y-48100681D01*
X94706692Y-48256964D01*
X94498315Y-49438733D01*
X93611988Y-49282450D01*
G37*
G36*
X90362122Y-48709412D02*
G01*
X90570499Y-47527643D01*
X91456826Y-47683926D01*
X91248449Y-48865695D01*
X90362122Y-48709412D01*
G37*
G36*
X73679768Y-52618835D02*
G01*
X73888145Y-51437066D01*
X74774472Y-51593349D01*
X74566095Y-52775118D01*
X73679768Y-52618835D01*
G37*
G36*
X70429902Y-52045797D02*
G01*
X70638279Y-50864028D01*
X71524606Y-51020311D01*
X71316229Y-52202080D01*
X70429902Y-52045797D01*
G37*
G36*
X54092131Y-54000988D02*
G01*
X54300508Y-52819219D01*
X55186835Y-52975502D01*
X54978458Y-54157271D01*
X54092131Y-54000988D01*
G37*
G36*
X50842265Y-53427950D02*
G01*
X51050642Y-52246181D01*
X51936969Y-52402464D01*
X51728592Y-53584233D01*
X50842265Y-53427950D01*
G37*
G36*
X161833142Y-89015174D02*
G01*
X161856803Y-89018684D01*
X161880007Y-89024496D01*
X161902529Y-89032554D01*
X161924153Y-89042782D01*
X161944670Y-89055079D01*
X161963883Y-89069329D01*
X161981607Y-89085393D01*
X161997671Y-89103117D01*
X162011921Y-89122330D01*
X162024218Y-89142847D01*
X162034446Y-89164471D01*
X162042504Y-89186993D01*
X162048316Y-89210197D01*
X162051826Y-89233858D01*
X162053000Y-89257750D01*
X162053000Y-90170250D01*
X162051826Y-90194142D01*
X162048316Y-90217803D01*
X162042504Y-90241007D01*
X162034446Y-90263529D01*
X162024218Y-90285153D01*
X162011921Y-90305670D01*
X161997671Y-90324883D01*
X161981607Y-90342607D01*
X161963883Y-90358671D01*
X161944670Y-90372921D01*
X161924153Y-90385218D01*
X161902529Y-90395446D01*
X161880007Y-90403504D01*
X161856803Y-90409316D01*
X161833142Y-90412826D01*
X161809250Y-90414000D01*
X161321750Y-90414000D01*
X161297858Y-90412826D01*
X161274197Y-90409316D01*
X161250993Y-90403504D01*
X161228471Y-90395446D01*
X161206847Y-90385218D01*
X161186330Y-90372921D01*
X161167117Y-90358671D01*
X161149393Y-90342607D01*
X161133329Y-90324883D01*
X161119079Y-90305670D01*
X161106782Y-90285153D01*
X161096554Y-90263529D01*
X161088496Y-90241007D01*
X161082684Y-90217803D01*
X161079174Y-90194142D01*
X161078000Y-90170250D01*
X161078000Y-89257750D01*
X161079174Y-89233858D01*
X161082684Y-89210197D01*
X161088496Y-89186993D01*
X161096554Y-89164471D01*
X161106782Y-89142847D01*
X161119079Y-89122330D01*
X161133329Y-89103117D01*
X161149393Y-89085393D01*
X161167117Y-89069329D01*
X161186330Y-89055079D01*
X161206847Y-89042782D01*
X161228471Y-89032554D01*
X161250993Y-89024496D01*
X161274197Y-89018684D01*
X161297858Y-89015174D01*
X161321750Y-89014000D01*
X161809250Y-89014000D01*
X161833142Y-89015174D01*
G37*
G36*
X159958142Y-89015174D02*
G01*
X159981803Y-89018684D01*
X160005007Y-89024496D01*
X160027529Y-89032554D01*
X160049153Y-89042782D01*
X160069670Y-89055079D01*
X160088883Y-89069329D01*
X160106607Y-89085393D01*
X160122671Y-89103117D01*
X160136921Y-89122330D01*
X160149218Y-89142847D01*
X160159446Y-89164471D01*
X160167504Y-89186993D01*
X160173316Y-89210197D01*
X160176826Y-89233858D01*
X160178000Y-89257750D01*
X160178000Y-90170250D01*
X160176826Y-90194142D01*
X160173316Y-90217803D01*
X160167504Y-90241007D01*
X160159446Y-90263529D01*
X160149218Y-90285153D01*
X160136921Y-90305670D01*
X160122671Y-90324883D01*
X160106607Y-90342607D01*
X160088883Y-90358671D01*
X160069670Y-90372921D01*
X160049153Y-90385218D01*
X160027529Y-90395446D01*
X160005007Y-90403504D01*
X159981803Y-90409316D01*
X159958142Y-90412826D01*
X159934250Y-90414000D01*
X159446750Y-90414000D01*
X159422858Y-90412826D01*
X159399197Y-90409316D01*
X159375993Y-90403504D01*
X159353471Y-90395446D01*
X159331847Y-90385218D01*
X159311330Y-90372921D01*
X159292117Y-90358671D01*
X159274393Y-90342607D01*
X159258329Y-90324883D01*
X159244079Y-90305670D01*
X159231782Y-90285153D01*
X159221554Y-90263529D01*
X159213496Y-90241007D01*
X159207684Y-90217803D01*
X159204174Y-90194142D01*
X159203000Y-90170250D01*
X159203000Y-89257750D01*
X159204174Y-89233858D01*
X159207684Y-89210197D01*
X159213496Y-89186993D01*
X159221554Y-89164471D01*
X159231782Y-89142847D01*
X159244079Y-89122330D01*
X159258329Y-89103117D01*
X159274393Y-89085393D01*
X159292117Y-89069329D01*
X159311330Y-89055079D01*
X159331847Y-89042782D01*
X159353471Y-89032554D01*
X159375993Y-89024496D01*
X159399197Y-89018684D01*
X159422858Y-89015174D01*
X159446750Y-89014000D01*
X159934250Y-89014000D01*
X159958142Y-89015174D01*
G37*
G36*
X161833142Y-91047174D02*
G01*
X161856803Y-91050684D01*
X161880007Y-91056496D01*
X161902529Y-91064554D01*
X161924153Y-91074782D01*
X161944670Y-91087079D01*
X161963883Y-91101329D01*
X161981607Y-91117393D01*
X161997671Y-91135117D01*
X162011921Y-91154330D01*
X162024218Y-91174847D01*
X162034446Y-91196471D01*
X162042504Y-91218993D01*
X162048316Y-91242197D01*
X162051826Y-91265858D01*
X162053000Y-91289750D01*
X162053000Y-92202250D01*
X162051826Y-92226142D01*
X162048316Y-92249803D01*
X162042504Y-92273007D01*
X162034446Y-92295529D01*
X162024218Y-92317153D01*
X162011921Y-92337670D01*
X161997671Y-92356883D01*
X161981607Y-92374607D01*
X161963883Y-92390671D01*
X161944670Y-92404921D01*
X161924153Y-92417218D01*
X161902529Y-92427446D01*
X161880007Y-92435504D01*
X161856803Y-92441316D01*
X161833142Y-92444826D01*
X161809250Y-92446000D01*
X161321750Y-92446000D01*
X161297858Y-92444826D01*
X161274197Y-92441316D01*
X161250993Y-92435504D01*
X161228471Y-92427446D01*
X161206847Y-92417218D01*
X161186330Y-92404921D01*
X161167117Y-92390671D01*
X161149393Y-92374607D01*
X161133329Y-92356883D01*
X161119079Y-92337670D01*
X161106782Y-92317153D01*
X161096554Y-92295529D01*
X161088496Y-92273007D01*
X161082684Y-92249803D01*
X161079174Y-92226142D01*
X161078000Y-92202250D01*
X161078000Y-91289750D01*
X161079174Y-91265858D01*
X161082684Y-91242197D01*
X161088496Y-91218993D01*
X161096554Y-91196471D01*
X161106782Y-91174847D01*
X161119079Y-91154330D01*
X161133329Y-91135117D01*
X161149393Y-91117393D01*
X161167117Y-91101329D01*
X161186330Y-91087079D01*
X161206847Y-91074782D01*
X161228471Y-91064554D01*
X161250993Y-91056496D01*
X161274197Y-91050684D01*
X161297858Y-91047174D01*
X161321750Y-91046000D01*
X161809250Y-91046000D01*
X161833142Y-91047174D01*
G37*
G36*
X159958142Y-91047174D02*
G01*
X159981803Y-91050684D01*
X160005007Y-91056496D01*
X160027529Y-91064554D01*
X160049153Y-91074782D01*
X160069670Y-91087079D01*
X160088883Y-91101329D01*
X160106607Y-91117393D01*
X160122671Y-91135117D01*
X160136921Y-91154330D01*
X160149218Y-91174847D01*
X160159446Y-91196471D01*
X160167504Y-91218993D01*
X160173316Y-91242197D01*
X160176826Y-91265858D01*
X160178000Y-91289750D01*
X160178000Y-92202250D01*
X160176826Y-92226142D01*
X160173316Y-92249803D01*
X160167504Y-92273007D01*
X160159446Y-92295529D01*
X160149218Y-92317153D01*
X160136921Y-92337670D01*
X160122671Y-92356883D01*
X160106607Y-92374607D01*
X160088883Y-92390671D01*
X160069670Y-92404921D01*
X160049153Y-92417218D01*
X160027529Y-92427446D01*
X160005007Y-92435504D01*
X159981803Y-92441316D01*
X159958142Y-92444826D01*
X159934250Y-92446000D01*
X159446750Y-92446000D01*
X159422858Y-92444826D01*
X159399197Y-92441316D01*
X159375993Y-92435504D01*
X159353471Y-92427446D01*
X159331847Y-92417218D01*
X159311330Y-92404921D01*
X159292117Y-92390671D01*
X159274393Y-92374607D01*
X159258329Y-92356883D01*
X159244079Y-92337670D01*
X159231782Y-92317153D01*
X159221554Y-92295529D01*
X159213496Y-92273007D01*
X159207684Y-92249803D01*
X159204174Y-92226142D01*
X159203000Y-92202250D01*
X159203000Y-91289750D01*
X159204174Y-91265858D01*
X159207684Y-91242197D01*
X159213496Y-91218993D01*
X159221554Y-91196471D01*
X159231782Y-91174847D01*
X159244079Y-91154330D01*
X159258329Y-91135117D01*
X159274393Y-91117393D01*
X159292117Y-91101329D01*
X159311330Y-91087079D01*
X159331847Y-91074782D01*
X159353471Y-91064554D01*
X159375993Y-91056496D01*
X159399197Y-91050684D01*
X159422858Y-91047174D01*
X159446750Y-91046000D01*
X159934250Y-91046000D01*
X159958142Y-91047174D01*
G37*
G36*
X161833142Y-95111174D02*
G01*
X161856803Y-95114684D01*
X161880007Y-95120496D01*
X161902529Y-95128554D01*
X161924153Y-95138782D01*
X161944670Y-95151079D01*
X161963883Y-95165329D01*
X161981607Y-95181393D01*
X161997671Y-95199117D01*
X162011921Y-95218330D01*
X162024218Y-95238847D01*
X162034446Y-95260471D01*
X162042504Y-95282993D01*
X162048316Y-95306197D01*
X162051826Y-95329858D01*
X162053000Y-95353750D01*
X162053000Y-96266250D01*
X162051826Y-96290142D01*
X162048316Y-96313803D01*
X162042504Y-96337007D01*
X162034446Y-96359529D01*
X162024218Y-96381153D01*
X162011921Y-96401670D01*
X161997671Y-96420883D01*
X161981607Y-96438607D01*
X161963883Y-96454671D01*
X161944670Y-96468921D01*
X161924153Y-96481218D01*
X161902529Y-96491446D01*
X161880007Y-96499504D01*
X161856803Y-96505316D01*
X161833142Y-96508826D01*
X161809250Y-96510000D01*
X161321750Y-96510000D01*
X161297858Y-96508826D01*
X161274197Y-96505316D01*
X161250993Y-96499504D01*
X161228471Y-96491446D01*
X161206847Y-96481218D01*
X161186330Y-96468921D01*
X161167117Y-96454671D01*
X161149393Y-96438607D01*
X161133329Y-96420883D01*
X161119079Y-96401670D01*
X161106782Y-96381153D01*
X161096554Y-96359529D01*
X161088496Y-96337007D01*
X161082684Y-96313803D01*
X161079174Y-96290142D01*
X161078000Y-96266250D01*
X161078000Y-95353750D01*
X161079174Y-95329858D01*
X161082684Y-95306197D01*
X161088496Y-95282993D01*
X161096554Y-95260471D01*
X161106782Y-95238847D01*
X161119079Y-95218330D01*
X161133329Y-95199117D01*
X161149393Y-95181393D01*
X161167117Y-95165329D01*
X161186330Y-95151079D01*
X161206847Y-95138782D01*
X161228471Y-95128554D01*
X161250993Y-95120496D01*
X161274197Y-95114684D01*
X161297858Y-95111174D01*
X161321750Y-95110000D01*
X161809250Y-95110000D01*
X161833142Y-95111174D01*
G37*
G36*
X159958142Y-95111174D02*
G01*
X159981803Y-95114684D01*
X160005007Y-95120496D01*
X160027529Y-95128554D01*
X160049153Y-95138782D01*
X160069670Y-95151079D01*
X160088883Y-95165329D01*
X160106607Y-95181393D01*
X160122671Y-95199117D01*
X160136921Y-95218330D01*
X160149218Y-95238847D01*
X160159446Y-95260471D01*
X160167504Y-95282993D01*
X160173316Y-95306197D01*
X160176826Y-95329858D01*
X160178000Y-95353750D01*
X160178000Y-96266250D01*
X160176826Y-96290142D01*
X160173316Y-96313803D01*
X160167504Y-96337007D01*
X160159446Y-96359529D01*
X160149218Y-96381153D01*
X160136921Y-96401670D01*
X160122671Y-96420883D01*
X160106607Y-96438607D01*
X160088883Y-96454671D01*
X160069670Y-96468921D01*
X160049153Y-96481218D01*
X160027529Y-96491446D01*
X160005007Y-96499504D01*
X159981803Y-96505316D01*
X159958142Y-96508826D01*
X159934250Y-96510000D01*
X159446750Y-96510000D01*
X159422858Y-96508826D01*
X159399197Y-96505316D01*
X159375993Y-96499504D01*
X159353471Y-96491446D01*
X159331847Y-96481218D01*
X159311330Y-96468921D01*
X159292117Y-96454671D01*
X159274393Y-96438607D01*
X159258329Y-96420883D01*
X159244079Y-96401670D01*
X159231782Y-96381153D01*
X159221554Y-96359529D01*
X159213496Y-96337007D01*
X159207684Y-96313803D01*
X159204174Y-96290142D01*
X159203000Y-96266250D01*
X159203000Y-95353750D01*
X159204174Y-95329858D01*
X159207684Y-95306197D01*
X159213496Y-95282993D01*
X159221554Y-95260471D01*
X159231782Y-95238847D01*
X159244079Y-95218330D01*
X159258329Y-95199117D01*
X159274393Y-95181393D01*
X159292117Y-95165329D01*
X159311330Y-95151079D01*
X159331847Y-95138782D01*
X159353471Y-95128554D01*
X159375993Y-95120496D01*
X159399197Y-95114684D01*
X159422858Y-95111174D01*
X159446750Y-95110000D01*
X159934250Y-95110000D01*
X159958142Y-95111174D01*
G37*
G36*
X161833142Y-93079174D02*
G01*
X161856803Y-93082684D01*
X161880007Y-93088496D01*
X161902529Y-93096554D01*
X161924153Y-93106782D01*
X161944670Y-93119079D01*
X161963883Y-93133329D01*
X161981607Y-93149393D01*
X161997671Y-93167117D01*
X162011921Y-93186330D01*
X162024218Y-93206847D01*
X162034446Y-93228471D01*
X162042504Y-93250993D01*
X162048316Y-93274197D01*
X162051826Y-93297858D01*
X162053000Y-93321750D01*
X162053000Y-94234250D01*
X162051826Y-94258142D01*
X162048316Y-94281803D01*
X162042504Y-94305007D01*
X162034446Y-94327529D01*
X162024218Y-94349153D01*
X162011921Y-94369670D01*
X161997671Y-94388883D01*
X161981607Y-94406607D01*
X161963883Y-94422671D01*
X161944670Y-94436921D01*
X161924153Y-94449218D01*
X161902529Y-94459446D01*
X161880007Y-94467504D01*
X161856803Y-94473316D01*
X161833142Y-94476826D01*
X161809250Y-94478000D01*
X161321750Y-94478000D01*
X161297858Y-94476826D01*
X161274197Y-94473316D01*
X161250993Y-94467504D01*
X161228471Y-94459446D01*
X161206847Y-94449218D01*
X161186330Y-94436921D01*
X161167117Y-94422671D01*
X161149393Y-94406607D01*
X161133329Y-94388883D01*
X161119079Y-94369670D01*
X161106782Y-94349153D01*
X161096554Y-94327529D01*
X161088496Y-94305007D01*
X161082684Y-94281803D01*
X161079174Y-94258142D01*
X161078000Y-94234250D01*
X161078000Y-93321750D01*
X161079174Y-93297858D01*
X161082684Y-93274197D01*
X161088496Y-93250993D01*
X161096554Y-93228471D01*
X161106782Y-93206847D01*
X161119079Y-93186330D01*
X161133329Y-93167117D01*
X161149393Y-93149393D01*
X161167117Y-93133329D01*
X161186330Y-93119079D01*
X161206847Y-93106782D01*
X161228471Y-93096554D01*
X161250993Y-93088496D01*
X161274197Y-93082684D01*
X161297858Y-93079174D01*
X161321750Y-93078000D01*
X161809250Y-93078000D01*
X161833142Y-93079174D01*
G37*
G36*
X159958142Y-93079174D02*
G01*
X159981803Y-93082684D01*
X160005007Y-93088496D01*
X160027529Y-93096554D01*
X160049153Y-93106782D01*
X160069670Y-93119079D01*
X160088883Y-93133329D01*
X160106607Y-93149393D01*
X160122671Y-93167117D01*
X160136921Y-93186330D01*
X160149218Y-93206847D01*
X160159446Y-93228471D01*
X160167504Y-93250993D01*
X160173316Y-93274197D01*
X160176826Y-93297858D01*
X160178000Y-93321750D01*
X160178000Y-94234250D01*
X160176826Y-94258142D01*
X160173316Y-94281803D01*
X160167504Y-94305007D01*
X160159446Y-94327529D01*
X160149218Y-94349153D01*
X160136921Y-94369670D01*
X160122671Y-94388883D01*
X160106607Y-94406607D01*
X160088883Y-94422671D01*
X160069670Y-94436921D01*
X160049153Y-94449218D01*
X160027529Y-94459446D01*
X160005007Y-94467504D01*
X159981803Y-94473316D01*
X159958142Y-94476826D01*
X159934250Y-94478000D01*
X159446750Y-94478000D01*
X159422858Y-94476826D01*
X159399197Y-94473316D01*
X159375993Y-94467504D01*
X159353471Y-94459446D01*
X159331847Y-94449218D01*
X159311330Y-94436921D01*
X159292117Y-94422671D01*
X159274393Y-94406607D01*
X159258329Y-94388883D01*
X159244079Y-94369670D01*
X159231782Y-94349153D01*
X159221554Y-94327529D01*
X159213496Y-94305007D01*
X159207684Y-94281803D01*
X159204174Y-94258142D01*
X159203000Y-94234250D01*
X159203000Y-93321750D01*
X159204174Y-93297858D01*
X159207684Y-93274197D01*
X159213496Y-93250993D01*
X159221554Y-93228471D01*
X159231782Y-93206847D01*
X159244079Y-93186330D01*
X159258329Y-93167117D01*
X159274393Y-93149393D01*
X159292117Y-93133329D01*
X159311330Y-93119079D01*
X159331847Y-93106782D01*
X159353471Y-93096554D01*
X159375993Y-93088496D01*
X159399197Y-93082684D01*
X159422858Y-93079174D01*
X159446750Y-93078000D01*
X159934250Y-93078000D01*
X159958142Y-93079174D01*
G37*
G36*
X148195642Y-85967174D02*
G01*
X148219303Y-85970684D01*
X148242507Y-85976496D01*
X148265029Y-85984554D01*
X148286653Y-85994782D01*
X148307170Y-86007079D01*
X148326383Y-86021329D01*
X148344107Y-86037393D01*
X148360171Y-86055117D01*
X148374421Y-86074330D01*
X148386718Y-86094847D01*
X148396946Y-86116471D01*
X148405004Y-86138993D01*
X148410816Y-86162197D01*
X148414326Y-86185858D01*
X148415500Y-86209750D01*
X148415500Y-87122250D01*
X148414326Y-87146142D01*
X148410816Y-87169803D01*
X148405004Y-87193007D01*
X148396946Y-87215529D01*
X148386718Y-87237153D01*
X148374421Y-87257670D01*
X148360171Y-87276883D01*
X148344107Y-87294607D01*
X148326383Y-87310671D01*
X148307170Y-87324921D01*
X148286653Y-87337218D01*
X148265029Y-87347446D01*
X148242507Y-87355504D01*
X148219303Y-87361316D01*
X148195642Y-87364826D01*
X148171750Y-87366000D01*
X147684250Y-87366000D01*
X147660358Y-87364826D01*
X147636697Y-87361316D01*
X147613493Y-87355504D01*
X147590971Y-87347446D01*
X147569347Y-87337218D01*
X147548830Y-87324921D01*
X147529617Y-87310671D01*
X147511893Y-87294607D01*
X147495829Y-87276883D01*
X147481579Y-87257670D01*
X147469282Y-87237153D01*
X147459054Y-87215529D01*
X147450996Y-87193007D01*
X147445184Y-87169803D01*
X147441674Y-87146142D01*
X147440500Y-87122250D01*
X147440500Y-86209750D01*
X147441674Y-86185858D01*
X147445184Y-86162197D01*
X147450996Y-86138993D01*
X147459054Y-86116471D01*
X147469282Y-86094847D01*
X147481579Y-86074330D01*
X147495829Y-86055117D01*
X147511893Y-86037393D01*
X147529617Y-86021329D01*
X147548830Y-86007079D01*
X147569347Y-85994782D01*
X147590971Y-85984554D01*
X147613493Y-85976496D01*
X147636697Y-85970684D01*
X147660358Y-85967174D01*
X147684250Y-85966000D01*
X148171750Y-85966000D01*
X148195642Y-85967174D01*
G37*
G36*
X146320642Y-85967174D02*
G01*
X146344303Y-85970684D01*
X146367507Y-85976496D01*
X146390029Y-85984554D01*
X146411653Y-85994782D01*
X146432170Y-86007079D01*
X146451383Y-86021329D01*
X146469107Y-86037393D01*
X146485171Y-86055117D01*
X146499421Y-86074330D01*
X146511718Y-86094847D01*
X146521946Y-86116471D01*
X146530004Y-86138993D01*
X146535816Y-86162197D01*
X146539326Y-86185858D01*
X146540500Y-86209750D01*
X146540500Y-87122250D01*
X146539326Y-87146142D01*
X146535816Y-87169803D01*
X146530004Y-87193007D01*
X146521946Y-87215529D01*
X146511718Y-87237153D01*
X146499421Y-87257670D01*
X146485171Y-87276883D01*
X146469107Y-87294607D01*
X146451383Y-87310671D01*
X146432170Y-87324921D01*
X146411653Y-87337218D01*
X146390029Y-87347446D01*
X146367507Y-87355504D01*
X146344303Y-87361316D01*
X146320642Y-87364826D01*
X146296750Y-87366000D01*
X145809250Y-87366000D01*
X145785358Y-87364826D01*
X145761697Y-87361316D01*
X145738493Y-87355504D01*
X145715971Y-87347446D01*
X145694347Y-87337218D01*
X145673830Y-87324921D01*
X145654617Y-87310671D01*
X145636893Y-87294607D01*
X145620829Y-87276883D01*
X145606579Y-87257670D01*
X145594282Y-87237153D01*
X145584054Y-87215529D01*
X145575996Y-87193007D01*
X145570184Y-87169803D01*
X145566674Y-87146142D01*
X145565500Y-87122250D01*
X145565500Y-86209750D01*
X145566674Y-86185858D01*
X145570184Y-86162197D01*
X145575996Y-86138993D01*
X145584054Y-86116471D01*
X145594282Y-86094847D01*
X145606579Y-86074330D01*
X145620829Y-86055117D01*
X145636893Y-86037393D01*
X145654617Y-86021329D01*
X145673830Y-86007079D01*
X145694347Y-85994782D01*
X145715971Y-85984554D01*
X145738493Y-85976496D01*
X145761697Y-85970684D01*
X145785358Y-85967174D01*
X145809250Y-85966000D01*
X146296750Y-85966000D01*
X146320642Y-85967174D01*
G37*
G36*
X138289642Y-91555174D02*
G01*
X138313303Y-91558684D01*
X138336507Y-91564496D01*
X138359029Y-91572554D01*
X138380653Y-91582782D01*
X138401170Y-91595079D01*
X138420383Y-91609329D01*
X138438107Y-91625393D01*
X138454171Y-91643117D01*
X138468421Y-91662330D01*
X138480718Y-91682847D01*
X138490946Y-91704471D01*
X138499004Y-91726993D01*
X138504816Y-91750197D01*
X138508326Y-91773858D01*
X138509500Y-91797750D01*
X138509500Y-92710250D01*
X138508326Y-92734142D01*
X138504816Y-92757803D01*
X138499004Y-92781007D01*
X138490946Y-92803529D01*
X138480718Y-92825153D01*
X138468421Y-92845670D01*
X138454171Y-92864883D01*
X138438107Y-92882607D01*
X138420383Y-92898671D01*
X138401170Y-92912921D01*
X138380653Y-92925218D01*
X138359029Y-92935446D01*
X138336507Y-92943504D01*
X138313303Y-92949316D01*
X138289642Y-92952826D01*
X138265750Y-92954000D01*
X137778250Y-92954000D01*
X137754358Y-92952826D01*
X137730697Y-92949316D01*
X137707493Y-92943504D01*
X137684971Y-92935446D01*
X137663347Y-92925218D01*
X137642830Y-92912921D01*
X137623617Y-92898671D01*
X137605893Y-92882607D01*
X137589829Y-92864883D01*
X137575579Y-92845670D01*
X137563282Y-92825153D01*
X137553054Y-92803529D01*
X137544996Y-92781007D01*
X137539184Y-92757803D01*
X137535674Y-92734142D01*
X137534500Y-92710250D01*
X137534500Y-91797750D01*
X137535674Y-91773858D01*
X137539184Y-91750197D01*
X137544996Y-91726993D01*
X137553054Y-91704471D01*
X137563282Y-91682847D01*
X137575579Y-91662330D01*
X137589829Y-91643117D01*
X137605893Y-91625393D01*
X137623617Y-91609329D01*
X137642830Y-91595079D01*
X137663347Y-91582782D01*
X137684971Y-91572554D01*
X137707493Y-91564496D01*
X137730697Y-91558684D01*
X137754358Y-91555174D01*
X137778250Y-91554000D01*
X138265750Y-91554000D01*
X138289642Y-91555174D01*
G37*
G36*
X136414642Y-91555174D02*
G01*
X136438303Y-91558684D01*
X136461507Y-91564496D01*
X136484029Y-91572554D01*
X136505653Y-91582782D01*
X136526170Y-91595079D01*
X136545383Y-91609329D01*
X136563107Y-91625393D01*
X136579171Y-91643117D01*
X136593421Y-91662330D01*
X136605718Y-91682847D01*
X136615946Y-91704471D01*
X136624004Y-91726993D01*
X136629816Y-91750197D01*
X136633326Y-91773858D01*
X136634500Y-91797750D01*
X136634500Y-92710250D01*
X136633326Y-92734142D01*
X136629816Y-92757803D01*
X136624004Y-92781007D01*
X136615946Y-92803529D01*
X136605718Y-92825153D01*
X136593421Y-92845670D01*
X136579171Y-92864883D01*
X136563107Y-92882607D01*
X136545383Y-92898671D01*
X136526170Y-92912921D01*
X136505653Y-92925218D01*
X136484029Y-92935446D01*
X136461507Y-92943504D01*
X136438303Y-92949316D01*
X136414642Y-92952826D01*
X136390750Y-92954000D01*
X135903250Y-92954000D01*
X135879358Y-92952826D01*
X135855697Y-92949316D01*
X135832493Y-92943504D01*
X135809971Y-92935446D01*
X135788347Y-92925218D01*
X135767830Y-92912921D01*
X135748617Y-92898671D01*
X135730893Y-92882607D01*
X135714829Y-92864883D01*
X135700579Y-92845670D01*
X135688282Y-92825153D01*
X135678054Y-92803529D01*
X135669996Y-92781007D01*
X135664184Y-92757803D01*
X135660674Y-92734142D01*
X135659500Y-92710250D01*
X135659500Y-91797750D01*
X135660674Y-91773858D01*
X135664184Y-91750197D01*
X135669996Y-91726993D01*
X135678054Y-91704471D01*
X135688282Y-91682847D01*
X135700579Y-91662330D01*
X135714829Y-91643117D01*
X135730893Y-91625393D01*
X135748617Y-91609329D01*
X135767830Y-91595079D01*
X135788347Y-91582782D01*
X135809971Y-91572554D01*
X135832493Y-91564496D01*
X135855697Y-91558684D01*
X135879358Y-91555174D01*
X135903250Y-91554000D01*
X136390750Y-91554000D01*
X136414642Y-91555174D01*
G37*
G36*
X136414642Y-98921174D02*
G01*
X136438303Y-98924684D01*
X136461507Y-98930496D01*
X136484029Y-98938554D01*
X136505653Y-98948782D01*
X136526170Y-98961079D01*
X136545383Y-98975329D01*
X136563107Y-98991393D01*
X136579171Y-99009117D01*
X136593421Y-99028330D01*
X136605718Y-99048847D01*
X136615946Y-99070471D01*
X136624004Y-99092993D01*
X136629816Y-99116197D01*
X136633326Y-99139858D01*
X136634500Y-99163750D01*
X136634500Y-100076250D01*
X136633326Y-100100142D01*
X136629816Y-100123803D01*
X136624004Y-100147007D01*
X136615946Y-100169529D01*
X136605718Y-100191153D01*
X136593421Y-100211670D01*
X136579171Y-100230883D01*
X136563107Y-100248607D01*
X136545383Y-100264671D01*
X136526170Y-100278921D01*
X136505653Y-100291218D01*
X136484029Y-100301446D01*
X136461507Y-100309504D01*
X136438303Y-100315316D01*
X136414642Y-100318826D01*
X136390750Y-100320000D01*
X135903250Y-100320000D01*
X135879358Y-100318826D01*
X135855697Y-100315316D01*
X135832493Y-100309504D01*
X135809971Y-100301446D01*
X135788347Y-100291218D01*
X135767830Y-100278921D01*
X135748617Y-100264671D01*
X135730893Y-100248607D01*
X135714829Y-100230883D01*
X135700579Y-100211670D01*
X135688282Y-100191153D01*
X135678054Y-100169529D01*
X135669996Y-100147007D01*
X135664184Y-100123803D01*
X135660674Y-100100142D01*
X135659500Y-100076250D01*
X135659500Y-99163750D01*
X135660674Y-99139858D01*
X135664184Y-99116197D01*
X135669996Y-99092993D01*
X135678054Y-99070471D01*
X135688282Y-99048847D01*
X135700579Y-99028330D01*
X135714829Y-99009117D01*
X135730893Y-98991393D01*
X135748617Y-98975329D01*
X135767830Y-98961079D01*
X135788347Y-98948782D01*
X135809971Y-98938554D01*
X135832493Y-98930496D01*
X135855697Y-98924684D01*
X135879358Y-98921174D01*
X135903250Y-98920000D01*
X136390750Y-98920000D01*
X136414642Y-98921174D01*
G37*
G36*
X138289642Y-98921174D02*
G01*
X138313303Y-98924684D01*
X138336507Y-98930496D01*
X138359029Y-98938554D01*
X138380653Y-98948782D01*
X138401170Y-98961079D01*
X138420383Y-98975329D01*
X138438107Y-98991393D01*
X138454171Y-99009117D01*
X138468421Y-99028330D01*
X138480718Y-99048847D01*
X138490946Y-99070471D01*
X138499004Y-99092993D01*
X138504816Y-99116197D01*
X138508326Y-99139858D01*
X138509500Y-99163750D01*
X138509500Y-100076250D01*
X138508326Y-100100142D01*
X138504816Y-100123803D01*
X138499004Y-100147007D01*
X138490946Y-100169529D01*
X138480718Y-100191153D01*
X138468421Y-100211670D01*
X138454171Y-100230883D01*
X138438107Y-100248607D01*
X138420383Y-100264671D01*
X138401170Y-100278921D01*
X138380653Y-100291218D01*
X138359029Y-100301446D01*
X138336507Y-100309504D01*
X138313303Y-100315316D01*
X138289642Y-100318826D01*
X138265750Y-100320000D01*
X137778250Y-100320000D01*
X137754358Y-100318826D01*
X137730697Y-100315316D01*
X137707493Y-100309504D01*
X137684971Y-100301446D01*
X137663347Y-100291218D01*
X137642830Y-100278921D01*
X137623617Y-100264671D01*
X137605893Y-100248607D01*
X137589829Y-100230883D01*
X137575579Y-100211670D01*
X137563282Y-100191153D01*
X137553054Y-100169529D01*
X137544996Y-100147007D01*
X137539184Y-100123803D01*
X137535674Y-100100142D01*
X137534500Y-100076250D01*
X137534500Y-99163750D01*
X137535674Y-99139858D01*
X137539184Y-99116197D01*
X137544996Y-99092993D01*
X137553054Y-99070471D01*
X137563282Y-99048847D01*
X137575579Y-99028330D01*
X137589829Y-99009117D01*
X137605893Y-98991393D01*
X137623617Y-98975329D01*
X137642830Y-98961079D01*
X137663347Y-98948782D01*
X137684971Y-98938554D01*
X137707493Y-98930496D01*
X137730697Y-98924684D01*
X137754358Y-98921174D01*
X137778250Y-98920000D01*
X138265750Y-98920000D01*
X138289642Y-98921174D01*
G37*
M02*
